<svg id="Layer_1" data-name="Layer 1" xmlns="http://www.w3.org/2000/svg" viewBox="0 0 412.2 412.2"><defs><style>.cls-1{fill:#fff;}</style></defs><path class="cls-1" d="M306.7,425.4H129.1A117.41,117.41,0,0,1,11.8,308.1V130.5A117.41,117.41,0,0,1,129.1,13.2H306.7A117.41,117.41,0,0,1,424,130.5V308.1A117.41,117.41,0,0,1,306.7,425.4ZM129.1,48.6a82.11,82.11,0,0,0-82,82V308.2a82.11,82.11,0,0,0,82,82H306.7a82.11,82.11,0,0,0,82-82V130.5a82.11,82.11,0,0,0-82-82H129.1Z" transform="translate(-11.8 -13.2)"/><path class="cls-1" d="M217.9,324.9A105.5,105.5,0,1,1,323.4,219.4,105.58,105.58,0,0,1,217.9,324.9Zm0-175.8a70.2,70.2,0,1,0,70.2,70.2A70.29,70.29,0,0,0,217.9,149.1Z" transform="translate(-11.8 -13.2)"/><path class="cls-1" d="M353.3,107.7a25.4,25.4,0,1,1-25.4-25.4A25.44,25.44,0,0,1,353.3,107.7Z" transform="translate(-11.8 -13.2)"/></svg>