<svg id="Layer_1" data-name="Layer 1" xmlns="http://www.w3.org/2000/svg" viewBox="0 0 261.8 45.18"><defs><style>.cls-1{fill:#64b5f6;}.cls-2{fill:#1e88e5;}.cls-3{fill:#0d47a1;}.cls-4{fill:#4dd0e1;}.cls-5{fill:#00bcd4;}.cls-6{fill:#00838f;}.cls-7{fill:#8bc34a;}.cls-8{fill:#558b2f;}.cls-9{fill:#33691e;}.cls-10{fill:#0076b1;}.cls-11{fill:#231f20;}</style></defs><path class="cls-1" d="M20.59,122h-8a.56.56,0,0,0-.57.57v6.15a.56.56,0,0,0,.57.57h6.82a.68.68,0,0,0,.66-.56l1-6.17a.47.47,0,0,0-.48-.56Z" transform="translate(-12 -122)"/><path class="cls-2" d="M18.72,133.37H12.57a.56.56,0,0,0-.57.56v5.76a.56.56,0,0,0,.57.56h5a.68.68,0,0,0,.65-.55l1-5.77a.46.46,0,0,0-.47-.56Z" transform="translate(-12 -122)"/><path class="cls-3" d="M12,144.9v6.15a.56.56,0,0,0,.57.57h3.14a.69.69,0,0,0,.66-.56l1-6.17a.47.47,0,0,0-.48-.56H12.57a.56.56,0,0,0-.57.57Z" transform="translate(-12 -122)"/><path class="cls-4" d="M31.86,128.73l1-6.17a.46.46,0,0,0-.47-.56H25.86a.69.69,0,0,0-.66.56l-1,6.17a.47.47,0,0,0,.48.56H31.2a.69.69,0,0,0,.66-.56Z" transform="translate(-12 -122)"/><path class="cls-5" d="M22.85,140.25h6.54a.69.69,0,0,0,.66-.55l.95-5.77a.46.46,0,0,0-.47-.56H24a.68.68,0,0,0-.66.56l-.95,5.77a.46.46,0,0,0,.47.55Z" transform="translate(-12 -122)"/><path class="cls-6" d="M21.52,144.89l-1,6.17a.47.47,0,0,0,.48.56h6.54a.7.7,0,0,0,.66-.56l1-6.17a.46.46,0,0,0-.47-.56H22.18a.68.68,0,0,0-.66.56Z" transform="translate(-12 -122)"/><path class="cls-7" d="M41.62,128.72v-6.15a.56.56,0,0,0-.57-.57H37.67a.68.68,0,0,0-.66.56l-1,6.17a.46.46,0,0,0,.47.56h4.59a.56.56,0,0,0,.57-.57Z" transform="translate(-12 -122)"/><path class="cls-8" d="M35.13,133.93l-1,5.77a.46.46,0,0,0,.48.55h6.39a.56.56,0,0,0,.57-.56v-5.76a.56.56,0,0,0-.57-.56H35.79a.69.69,0,0,0-.66.56Z" transform="translate(-12 -122)"/><path class="cls-9" d="M32.78,151.62h8.27a.56.56,0,0,0,.57-.57V144.9a.56.56,0,0,0-.57-.57H34a.7.7,0,0,0-.66.56l-1,6.17a.46.46,0,0,0,.47.56Z" transform="translate(-12 -122)"/><path class="cls-10" d="M53.13,123.1H65.88q12,0,12,9.91a9.88,9.88,0,0,1-1.1,4.77,7.79,7.79,0,0,1-2.91,3.1,14.46,14.46,0,0,1-3.8,1.59,17.22,17.22,0,0,1-4.18.5H59.68v7.56H53.13V123.1Zm6.55,5.52v8.82h5.65a7.82,7.82,0,0,0,4.26-.95c1-.63,1.48-1.85,1.48-3.65a3.54,3.54,0,0,0-1.52-3.31,8.59,8.59,0,0,0-4.35-.91Zm48.06,21.91H99.56a50.17,50.17,0,0,0-6.42-8.74H88.75v8.74H82.21V123.1H95.12a20.8,20.8,0,0,1,3.25.23,13.87,13.87,0,0,1,3.08.84,8.32,8.32,0,0,1,2.64,1.6,7.46,7.46,0,0,1,1.77,2.66,9.75,9.75,0,0,1,.7,3.82,8,8,0,0,1-1.88,5.3,8.6,8.6,0,0,1-4.79,2.93,70.25,70.25,0,0,1,7.85,10.05ZM88.88,136.26H94a7.81,7.81,0,0,0,4.3-.95,3.38,3.38,0,0,0,1.43-3.06q0-3.63-5.86-3.63h-5v7.64Zm30.38-12.83a17.06,17.06,0,0,1,5.32-.84,16.3,16.3,0,0,1,10,3.37,11.74,11.74,0,0,1,3.46,4.39,14.15,14.15,0,0,1,1.31,6.21,17,17,0,0,1-1.22,6.66,11.06,11.06,0,0,1-3.36,4.52,15.23,15.23,0,0,1-4.7,2.47,19.06,19.06,0,0,1-11.06,0,14.8,14.8,0,0,1-4.68-2.47,11.11,11.11,0,0,1-3.34-4.52,17,17,0,0,1-1.22-6.66,14.3,14.3,0,0,1,1.31-6.23,11.73,11.73,0,0,1,3.46-4.41,16.18,16.18,0,0,1,4.72-2.49Zm11,7.16a8,8,0,0,0-13.64,6q0,4.4,2.37,6.54a8.37,8.37,0,0,0,11.2,0q2.34-2.14,2.34-6.54a7.88,7.88,0,0,0-2.27-6Zm32.15-7.16a17.06,17.06,0,0,1,5.32-.84,16.3,16.3,0,0,1,10,3.37,11.74,11.74,0,0,1,3.46,4.39,14.15,14.15,0,0,1,1.31,6.21,17,17,0,0,1-1.22,6.66,11.06,11.06,0,0,1-3.36,4.52,15.23,15.23,0,0,1-4.7,2.47,19.06,19.06,0,0,1-11.06,0,14.8,14.8,0,0,1-4.68-2.47,11.11,11.11,0,0,1-3.34-4.52,17,17,0,0,1-1.22-6.66,14.3,14.3,0,0,1,1.31-6.23,11.73,11.73,0,0,1,3.46-4.41,16.18,16.18,0,0,1,4.72-2.49Zm11,7.16a8,8,0,0,0-13.64,6q0,4.4,2.37,6.54a8.37,8.37,0,0,0,11.2,0q2.34-2.14,2.34-6.54a7.92,7.92,0,0,0-2.27-6Zm40.09,19.94h-8.23a112.87,112.87,0,0,0-8.7-10.64h-2.87v10.64h-6.54V123.1h6.54v11.3h2.49a114.62,114.62,0,0,1,8.4-11.3h8.15a123.93,123.93,0,0,0-11.23,13.33,127.78,127.78,0,0,1,12,14.1Zm27.93,0h-6.54V139.89H222.74v10.64H216.2V123.1h6.54v11.26h12.11V123.1h6.54v27.43Zm25.2,0-1.61-5H252c-.17.53-.42,1.35-.76,2.46l-.76,2.52h-6.79A207.58,207.58,0,0,1,254.1,123.1h9.11a203.86,203.86,0,0,1,10.59,27.43ZM253.84,140h9.29q-2.33-6.63-4.69-12.07-2.28,5.24-4.6,12.07Z" transform="translate(-12 -122)"/><path class="cls-11" d="M16.24,157.76H12v8h.7v-7.3h2.83v7.3h.71v-8Zm3.89,0H18.22v8h.71v-3h1.2c1.47,0,2.27-.87,2.27-2.5a2.13,2.13,0,0,0-2.27-2.44Zm0,4.27h-1.2v-3.6h1.2c1.07,0,1.57.59,1.57,1.77S21.2,162,20.13,162ZM26,165.85c1.43,0,2.28-1,2.28-2.61v-3c0-1.6-.85-2.61-2.28-2.61s-2.28,1-2.28,2.61v3c0,1.6.85,2.61,2.28,2.61Zm0-.68c-1,0-1.57-.7-1.57-1.93v-3c0-1.23.54-1.93,1.57-1.93s1.57.7,1.57,1.93v3c0,1.23-.54,1.93-1.57,1.93Zm8.05-.12v-7.29H30.67l-.13,4.33a4.68,4.68,0,0,1-.87,3h-.43v2h.68v-1.3H34V167h.69v-2Zm-.7,0H30.55a5.77,5.77,0,0,0,.66-2.77l.13-3.87h2v6.64Zm6.27.66h.75l-2.09-8h-.77l-2.09,8h.75l.46-1.87h2.52l.47,1.87Zm-2.83-2.5.82-3.3c.12-.48.24-1,.27-1.25h0c0,.2.15.77.28,1.25l.81,3.3Zm11,2.5h.84l-2.79-4.29,2.61-3.66h-.83l-1.84,2.65L45,161.49v-3.73H44.3v3.72l-2.58-3.72h-.83l2.62,3.66-2.8,4.29h.84L43.94,162l.36.51v3.16H45v-3.16l.37-.51,2.38,3.67Zm5.41,0h.75l-2.09-8H51l-2.09,8h.75l.47-1.87h2.52l.47,1.87Zm-2.83-2.5.82-3.3c.12-.48.23-1,.27-1.25h0c0,.2.15.77.27,1.25l.82,3.3Zm4.52,1.61-.24,2.36h.48l.52-2.36Zm9.72-7.06-1.42,3.43c-.2.51-.49,1.33-.64,1.77h0c-.15-.44-.43-1.26-.64-1.77l-1.42-3.43h-.75v8h.71V161.5c0-.84,0-1.54-.07-2.24l0,0c.21.57.53,1.33.82,2.09l1,2.5h.7l1-2.5c.3-.76.61-1.52.82-2.09l0,0c0,.7-.06,1.4-.06,2.24v4.21h.7v-8Zm4.8,8.09c1.44,0,2.29-1,2.29-2.61v-3c0-1.6-.85-2.61-2.29-2.61s-2.28,1-2.28,2.61v3c0,1.6.85,2.61,2.28,2.61Zm0-.68c-1,0-1.56-.7-1.56-1.93v-3c0-1.23.53-1.93,1.56-1.93s1.57.7,1.57,1.93v3c0,1.23-.53,1.93-1.57,1.93Zm7.59-7.41v3.57H74.11v-3.57h-.7v8h.7V162h2.83v3.72h.71v-8Zm6.22,0H79v.65h1.75v7.3h.71v-7.3h1.74v-.65Zm4.39,8h.75l-2.09-8h-.77l-2.09,8h.75l.46-1.87h2.52l.47,1.87Zm-2.83-2.5.82-3.3c.12-.48.24-1,.27-1.25h0c0,.2.15.77.28,1.25l.81,3.3Zm11,2.5h.84l-2.79-4.29,2.61-3.66h-.83l-1.84,2.65-.74,1.08v-3.73h-.68v3.72l-2.58-3.72h-.83l2.61,3.66-2.79,4.29h.84L91.89,162l.36.51v3.16h.68v-3.16l.36-.51,2.39,3.67Zm4.55,0H101l2.46-5.56c.12-.27.35-.84.42-1h0v6.57h.71v-8h-.8L101.5,163c-.22.45-.46,1-.56,1.29h0c0-.4,0-1.12,0-1.52v-5h-.71v8Zm13-.66v-7.29h-3.36l-.13,4.33a4.68,4.68,0,0,1-.87,3h-.43v2h.68v-1.3h4.11V167h.69v-2Zm-.7,0h-2.78a5.77,5.77,0,0,0,.66-2.77l.13-3.87h2v6.64Zm4.88.8c1.43,0,2.29-1,2.29-2.61v-3c0-1.6-.86-2.61-2.29-2.61s-2.28,1-2.28,2.61v3c0,1.6.85,2.61,2.28,2.61Zm0-.68c-1,0-1.56-.7-1.56-1.93v-3c0-1.23.53-1.93,1.56-1.93s1.57.7,1.57,1.93v3c0,1.23-.53,1.93-1.57,1.93Zm6,.67a2.17,2.17,0,0,0,2.23-2.29h-.68c-.12,1.1-.64,1.66-1.55,1.66s-1.49-.57-1.49-1.75V160c0-1.18.59-1.74,1.45-1.74s1.44.53,1.52,1.65h.68a2.13,2.13,0,0,0-2.2-2.29,2.1,2.1,0,0,0-2.13,2.38v3.46a2.12,2.12,0,0,0,2.17,2.38Zm7.25-8.08h-4.21v.65h1.75v7.3h.71v-7.3h1.75v-.65Zm4.38,8h.75l-2.09-8h-.77l-2.09,8h.75l.46-1.87h2.52l.47,1.87Zm-2.83-2.5.82-3.3c.12-.48.24-1,.27-1.25h0c0,.2.14.77.27,1.25l.82,3.3Zm7.76-1.63c.62-.17,1-.77,1-1.76a1.9,1.9,0,0,0-2.11-2.06H137v8h2a2,2,0,0,0,2.26-2.17,1.82,1.82,0,0,0-1.36-2Zm-1.08-3.17a1.23,1.23,0,0,1,1.4,1.41c0,1-.46,1.48-1.38,1.48H137.7v-2.89Zm.18,6.64H137.7V162h1.22a1.49,1.49,0,0,1,1.67,1.58c0,1-.51,1.51-1.55,1.51Zm7.42.66h.84l-2.85-4.49,2.53-3.46h-.87l-2,2.86-.64.93v-3.79h-.71v8h.71v-3.1l.56-.78,2.47,3.88Zm5.4,0h.75l-2.09-8h-.77l-2.09,8h.75l.47-1.87h2.52l.46,1.87Zm-2.82-2.5.81-3.3c.13-.48.24-1,.28-1.25h0c0,.2.15.77.27,1.25l.82,3.3Zm9.48,2.64c1.43,0,2.28-1,2.28-2.61v-3c0-1.6-.85-2.61-2.28-2.61s-2.28,1-2.28,2.61v3c0,1.6.85,2.61,2.28,2.61Zm0-.68c-1,0-1.57-.7-1.57-1.93v-3c0-1.23.54-1.93,1.57-1.93s1.57.7,1.57,1.93v3c0,1.23-.54,1.93-1.57,1.93Zm7.79.54h.84l-2.85-4.49,2.53-3.46H166l-2,2.86-.65.93v-3.79h-.71v8h.71v-3.1l.57-.78,2.46,3.88Zm3.79.14c1.43,0,2.29-1,2.29-2.61v-3c0-1.6-.86-2.61-2.29-2.61s-2.28,1-2.28,2.61v3c0,1.6.85,2.61,2.28,2.61Zm0-.68c-1,0-1.56-.7-1.56-1.93v-3c0-1.23.53-1.93,1.56-1.93s1.57.7,1.57,1.93v3c0,1.23-.53,1.93-1.57,1.93Zm7.59-7.41v3.57h-2.83v-3.57h-.7v8h.7V162h2.83v3.72h.7v-8Zm5.29,8h.77l2.47-5.56c.11-.27.35-.84.42-1h0v6.57h.71v-8h-.8L184.24,163c-.21.45-.45,1-.55,1.29h0c0-.4,0-1.12,0-1.52v-5H183v8Zm15.11,0h.84l-2.8-4.29,2.62-3.66h-.83l-1.84,2.65-.74,1.08v-3.73h-.68v3.72l-2.58-3.72h-.83l2.61,3.66-2.79,4.29h.84l2.38-3.67.37.51v3.16h.68v-3.16l.36-.51,2.39,3.67Zm5.4,0h.75l-2.09-8h-.77l-2.09,8H200l.47-1.87H203l.46,1.87Zm-2.82-2.5.81-3.3c.13-.48.24-1,.28-1.25h0c0,.2.15.77.27,1.25l.82,3.3Zm5.16-5.45c-.11,3.22-.25,5.46-.35,6.31-.07.63-.32,1.07-.84,1.07v.67c.9,0,1.4-.63,1.52-1.64s.24-3.25.34-5.76h2.05v7.3h.7v-8Zm9.82-.11c-1.43,0-2.28,1-2.28,2.73v1h-1.43v-3.57h-.7v8h.7V162h1.43v1.09c0,1.72.85,2.73,2.28,2.73s2.27-1,2.27-2.73v-2.7c0-1.72-.84-2.73-2.27-2.73Zm1.55,5.43c0,1.34-.53,2-1.55,2s-1.56-.71-1.56-2v-2.7c0-1.34.53-2,1.56-2s1.55.7,1.55,2v2.7Zm5.14-1.48a1.65,1.65,0,0,0,1.27-1.79,2,2,0,0,0-2.1-2.2c-1.34,0-2.09.88-2.17,2.29h.7c.08-1,.51-1.61,1.46-1.61a1.3,1.3,0,0,1,1.4,1.46,1.43,1.43,0,0,1-1.61,1.54h-.57V162h.65a1.56,1.56,0,0,1,1.7,1.63,1.47,1.47,0,0,1-1.55,1.59,1.53,1.53,0,0,1-1.58-1.59h-.72a2.23,2.23,0,0,0,2.32,2.27,2.11,2.11,0,0,0,2.24-2.27,1.86,1.86,0,0,0-1.44-2Zm3,4.11h.77l2.47-5.56c.11-.27.35-.84.42-1h0v6.57h.7v-8h-.79L226.57,163c-.21.45-.45,1-.55,1.29h0c0-.4,0-1.12,0-1.52v-5h-.71v8Zm11.9-4.13c.63-.17,1-.77,1-1.76a1.91,1.91,0,0,0-2.11-2.06h-1.87v8h2a2,2,0,0,0,2.26-2.17,1.81,1.81,0,0,0-1.37-2Zm-1.07-3.17a1.22,1.22,0,0,1,1.39,1.41c0,1-.45,1.48-1.37,1.48H235v-2.89Zm.18,6.64H235V162h1.21a1.49,1.49,0,0,1,1.67,1.58c0,1-.51,1.51-1.54,1.51Zm10.13.66h.84l-2.85-4.49,2.53-3.46h-.87l-2,2.86-.64.93v-3.79h-.71v8h.71v-3.1l.56-.78,2.47,3.88Zm3.86-8H248.4v8h.71v-3h1.2c1.46,0,2.27-.87,2.27-2.5a2.14,2.14,0,0,0-2.27-2.44Zm0,4.27h-1.2v-3.6h1.2c1.07,0,1.57.59,1.57,1.77s-.5,1.83-1.57,1.83Zm3.58,3.68h1.84a2.17,2.17,0,0,0,2.34-2.34,2.15,2.15,0,0,0-2.34-2.29h-1.14v-3.32h-.7v8Zm5.3,0h.71v-8h-.71v8Zm-4.6-.67v-3.29h1.14a1.48,1.48,0,0,1,1.62,1.62,1.51,1.51,0,0,1-1.62,1.67Zm12.2-7.28-1.42,3.43c-.21.51-.49,1.33-.64,1.77h0c-.15-.44-.43-1.26-.64-1.77l-1.42-3.43h-.75v8h.71V161.5c0-.84,0-1.54-.07-2.24l0,0c.21.57.53,1.33.82,2.09l1,2.5h.7l1-2.5c.29-.76.61-1.52.82-2.09l0,0c0,.7-.07,1.4-.07,2.24v4.21h.71v-8Zm5.64,0-1.35,4.45-1.59-4.45h-.75l2,5.47-.26.84c-.18.61-.47,1.07-1.09,1.07h-.27v.67h.27c1,0,1.47-.64,1.74-1.52l2-6.53Z" transform="translate(-12 -122)"/></svg>