<svg id="Layer_1" data-name="Layer 1" xmlns="http://www.w3.org/2000/svg" viewBox="0 0 261.8 45.18"><defs><style>.cls-1{fill:#fff;}</style></defs><path class="cls-1" d="M8.59,0h-8A.56.56,0,0,0,0,.55V6.72a.56.56,0,0,0,.55.57H7.41a.67.67,0,0,0,.66-.56l1-6.17A.47.47,0,0,0,8.7,0Z" transform="translate(0 0)"/><path class="cls-1" d="M6.72,11.37H.57a.56.56,0,0,0-.57.55H0v5.76a.56.56,0,0,0,.56.56h5a.68.68,0,0,0,.65-.55l1-5.77a.46.46,0,0,0-.35-.55H6.72Z" transform="translate(0 0)"/><path class="cls-1" d="M0,22.9v6.15a.56.56,0,0,0,.55.57H3.71a.69.69,0,0,0,.66-.56l1-6.17A.47.47,0,0,0,5,22.34H.57a.56.56,0,0,0-.57.55v0Z" transform="translate(0 0)"/><path class="cls-1" d="M19.86,6.73l1-6.17A.46.46,0,0,0,20.51,0H13.86a.69.69,0,0,0-.66.56l-1,6.17a.47.47,0,0,0,.37.55H19.2A.69.69,0,0,0,19.86,6.73Z" transform="translate(0 0)"/><path class="cls-1" d="M10.85,18.25h6.54a.7.7,0,0,0,.66-.55L19,11.93a.46.46,0,0,0-.35-.55H12a.67.67,0,0,0-.66.56l-.95,5.77a.46.46,0,0,0,.36.54h.1Z" transform="translate(0 0)"/><path class="cls-1" d="M9.52,22.89l-1,6.17a.47.47,0,0,0,.37.55h6.65a.69.69,0,0,0,.66-.56l1-6.17a.46.46,0,0,0-.35-.55H10.18A.67.67,0,0,0,9.52,22.89Z" transform="translate(0 0)"/><path class="cls-1" d="M29.62,6.72V.57A.56.56,0,0,0,29.07,0h-3.4A.67.67,0,0,0,25,.56L24,6.73a.46.46,0,0,0,.35.55h4.71a.56.56,0,0,0,.57-.55v0Z" transform="translate(0 0)"/><path class="cls-1" d="M23.13,11.93l-1,5.77a.46.46,0,0,0,.36.54H29a.56.56,0,0,0,.57-.55h0V11.93a.56.56,0,0,0-.56-.56H23.79a.69.69,0,0,0-.66.56Z" transform="translate(0 0)"/><path class="cls-1" d="M20.78,29.62h8.27a.56.56,0,0,0,.57-.55V22.9a.56.56,0,0,0-.55-.57H22a.69.69,0,0,0-.66.56l-1,6.17a.46.46,0,0,0,.35.55h.09Z" transform="translate(0 0)"/><path class="cls-1" d="M41.13,1.1H53.88q12,0,12,9.91a9.87,9.87,0,0,1-1.1,4.77,7.75,7.75,0,0,1-2.91,3.1,14.43,14.43,0,0,1-3.8,1.59,17.32,17.32,0,0,1-4.18.5H47.68v7.56H41.13Zm6.55,5.52v8.82h5.65a7.9,7.9,0,0,0,4.26-.95c1-.63,1.48-1.85,1.48-3.65a3.55,3.55,0,0,0-1.52-3.31,8.64,8.64,0,0,0-4.35-.91ZM95.74,28.53H87.56a50,50,0,0,0-6.42-8.74H76.75v8.74H70.21V1.1H83.12a20.81,20.81,0,0,1,3.25.23,13.64,13.64,0,0,1,3.08.84,8.3,8.3,0,0,1,2.64,1.6,7.43,7.43,0,0,1,1.77,2.66,9.59,9.59,0,0,1,.7,3.82,8,8,0,0,1-1.88,5.3,8.54,8.54,0,0,1-4.79,2.93A70.54,70.54,0,0,1,95.74,28.53ZM76.88,14.26H82a7.86,7.86,0,0,0,4.3-.95,3.39,3.39,0,0,0,1.43-3.06q0-3.63-5.86-3.63h-5v7.64ZM107.26,1.43a17.15,17.15,0,0,1,5.32-.84,16.3,16.3,0,0,1,10,3.37A11.69,11.69,0,0,1,126,8.35a14.15,14.15,0,0,1,1.31,6.21,17.07,17.07,0,0,1-1.22,6.66,11.06,11.06,0,0,1-3.36,4.52,15.23,15.23,0,0,1-4.7,2.47,19.11,19.11,0,0,1-11.06,0,14.81,14.81,0,0,1-4.68-2.47A11.17,11.17,0,0,1,99,21.22a17.07,17.07,0,0,1-1.22-6.66,14.24,14.24,0,0,1,1.31-6.23,11.75,11.75,0,0,1,3.46-4.41,16,16,0,0,1,4.72-2.49Zm11,7.16a8,8,0,0,0-13.64,6q0,4.39,2.37,6.54a8.36,8.36,0,0,0,11.2,0q2.34-2.14,2.34-6.54A7.89,7.89,0,0,0,118.26,8.59Zm32.15-7.16a17.15,17.15,0,0,1,5.32-.84,16.3,16.3,0,0,1,10,3.37,11.69,11.69,0,0,1,3.46,4.39,14.15,14.15,0,0,1,1.31,6.21,17.07,17.07,0,0,1-1.22,6.66,11.06,11.06,0,0,1-3.36,4.52,15.23,15.23,0,0,1-4.7,2.47,19.11,19.11,0,0,1-11.06,0,14.81,14.81,0,0,1-4.68-2.47,11.17,11.17,0,0,1-3.34-4.52,17.07,17.07,0,0,1-1.22-6.66,14.24,14.24,0,0,1,1.31-6.23,11.75,11.75,0,0,1,3.46-4.41,16,16,0,0,1,4.72-2.49Zm11,7.16a8,8,0,0,0-13.64,6q0,4.39,2.37,6.54a8.36,8.36,0,0,0,11.2,0q2.34-2.14,2.34-6.54a7.93,7.93,0,0,0-2.27-6ZM201.5,28.53h-8.23a113.67,113.67,0,0,0-8.7-10.64H181.7V28.53h-6.54V1.1h6.54V12.4h2.49a114.44,114.44,0,0,1,8.4-11.3h8.15a124.31,124.31,0,0,0-11.23,13.33,126.94,126.94,0,0,1,12,14.1Zm27.93,0h-6.54V17.89H210.74V28.53H204.2V1.1h6.54V12.36h12.11V1.1h6.54V28.53Zm25.2,0-1.61-5H240c-.17.53-.42,1.35-.76,2.46l-.76,2.52h-6.79A207.92,207.92,0,0,1,242.1,1.1h9.11A203.92,203.92,0,0,1,261.8,28.53ZM241.84,18h9.29q-2.32-6.63-4.69-12.07Q244.16,11.17,241.84,18Z" transform="translate(0 0)"/><path class="cls-1" d="M4.24,35.76H0v8H.7v-7.3H3.53v7.3h.71Zm3.89,0H6.22v8h.71v-3h1.2c1.47,0,2.27-.87,2.27-2.5a2.13,2.13,0,0,0-1.79-2.42,1.93,1.93,0,0,0-.48,0Zm0,4.27H6.93v-3.6h1.2c1.07,0,1.57.59,1.57,1.77S9.2,40,8.13,40ZM14,43.85c1.43,0,2.28-1,2.28-2.61v-3c0-1.6-.85-2.61-2.28-2.61s-2.28,1-2.28,2.61v3C11.72,42.84,12.57,43.85,14,43.85Zm0-.68c-1,0-1.57-.7-1.57-1.93v-3c0-1.23.54-1.93,1.57-1.93s1.57.7,1.57,1.93v3C15.57,42.47,15,43.17,14,43.17Zm8.05-.12V35.76H18.67l-.13,4.33a4.66,4.66,0,0,1-.87,3h-.43v2h.68v-1.3H22V45h.69V43Zm-.7,0h-2.8a5.8,5.8,0,0,0,.66-2.77l.13-3.87h2v6.64Zm6.27.66h.75l-2.09-8h-.77l-2.09,8h.75l.46-1.87h2.52Zm-2.83-2.5.82-3.3c.12-.48.24-1,.27-1.25h0a8.08,8.08,0,0,0,.28,1.25l.81,3.3Zm11,2.5h.84l-2.79-4.29,2.61-3.66h-.83l-1.84,2.65L33,39.49V35.76h-.7v3.72l-2.58-3.72h-.83l2.62,3.66-2.8,4.29h.84L31.94,40l.36.51v3.16H33V40.51l.37-.51,2.38,3.67Zm5.41,0H42l-2.09-8H39l-2.09,8h.75l.47-1.87h2.52l.47,1.87Zm-2.83-2.5.82-3.3c.12-.48.23-1,.27-1.25h0a9.09,9.09,0,0,0,.27,1.25l.82,3.3Zm4.52,1.61-.24,2.36h.48l.52-2.36Zm9.72-7.06-1.42,3.43c-.2.51-.49,1.33-.64,1.77h0c-.15-.44-.43-1.26-.64-1.77l-1.42-3.43h-.75v8h.71V39.5c0-.84,0-1.54-.07-2.24h0c.21.57.53,1.33.82,2.09l1,2.5h.7l1-2.5c.3-.76.61-1.52.82-2.09h0c0,.7-.06,1.4-.06,2.24v4.21h.7v-8Zm4.8,8.09c1.44,0,2.29-1,2.29-2.61v-3c0-1.6-.85-2.61-2.29-2.61s-2.28,1-2.28,2.61v3C55.13,42.84,56,43.85,57.41,43.85Zm0-.68c-1,0-1.56-.7-1.56-1.93v-3c0-1.23.53-1.93,1.56-1.93S59,37,59,38.24v3C59,42.47,58.45,43.17,57.41,43.17ZM65,35.76v3.57H62.11V35.76h-.7v8h.7V40h2.83v3.72h.71v-8Zm6.22,0H67v.65h1.75v7.3h.71v-7.3H71.2v-.65Zm4.39,8h.75l-2.09-8H73.5l-2.09,8h.75l.46-1.87h2.52Zm-2.83-2.5L73.6,38c.12-.48.24-1,.27-1.25h0A8.08,8.08,0,0,0,74.15,38l.81,3.3Zm11,2.5h.84l-2.79-4.29,2.61-3.66h-.83l-1.84,2.65L81,39.54V35.81h-.68v3.72l-2.58-3.72h-.83l2.61,3.66-2.79,4.29h.84L79.89,40l.36.51v3.16h.68V40.51l.36-.51,2.39,3.67Zm4.55,0H89l2.46-5.56c.12-.27.35-.84.42-1h0v6.57h.71v-8h-.8L89.5,41c-.22.45-.46,1-.56,1.29h0V35.77h-.71v8Zm13-.66V35.81H98l-.13,4.33a4.66,4.66,0,0,1-.87,3h-.43v2h.68v-1.3h4.11V45H102V43Zm-.7,0H97.85a5.8,5.8,0,0,0,.66-2.77l.13-3.87h2V43.1Zm4.88.8c1.43,0,2.29-1,2.29-2.61v-3c0-1.6-.86-2.61-2.29-2.61s-2.28,1-2.28,2.61v3C103.23,42.89,104.08,43.9,105.51,43.9Zm0-.68c-1,0-1.56-.7-1.56-1.93v-3c0-1.23.53-1.93,1.56-1.93s1.57.7,1.57,1.93v3C107.08,42.52,106.55,43.22,105.51,43.22Zm6,.67a2.16,2.16,0,0,0,2.23-2.11V41.6h-.68c-.12,1.1-.64,1.66-1.55,1.66S110,42.69,110,41.51V38c0-1.18.59-1.74,1.45-1.74s1.44.53,1.52,1.65h.68a2.14,2.14,0,0,0-2-2.29h-.24a2.1,2.1,0,0,0-2.15,2.05c0,.11,0,.22,0,.33v3.46a2.12,2.12,0,0,0,1.84,2.36,1.83,1.83,0,0,0,.33,0Zm7.25-8.08h-4.21v.65h1.75v7.3H117v-7.3h1.75v-.65Zm4.38,8h.75l-2.09-8H121l-2.09,8h.75l.46-1.87h2.52l.47,1.87Zm-2.83-2.5.82-3.3c.12-.48.24-1,.27-1.25h0a7.79,7.79,0,0,0,.27,1.25l.82,3.3Zm7.76-1.63c.62-.17,1-.77,1-1.76a1.89,1.89,0,0,0-1.72-2.06,1.7,1.7,0,0,0-.39,0h-2v8h2a2,2,0,0,0,2.25-1.71,2.36,2.36,0,0,0,0-.46,1.82,1.82,0,0,0-1.36-2ZM127,36.51a1.23,1.23,0,0,1,1.4,1,1.21,1.21,0,0,1,0,.38c0,1-.46,1.48-1.38,1.48H125.7V36.51Zm.18,6.64H125.7V40h1.22a1.49,1.49,0,0,1,1.66,1.3,1.31,1.31,0,0,1,0,.28A1.35,1.35,0,0,1,127,43.09Zm7.42.66h.84l-2.85-4.49,2.53-3.46h-.87l-2,2.86-.64.93V35.86h-.71v8h.71v-3.1l.56-.78,2.47,3.88Zm5.4,0h.75l-2.09-8h-.77l-2.09,8h.75l.47-1.87h2.52l.46,1.87Zm-2.82-2.5L138,38c.13-.48.24-1,.28-1.25h0a9.09,9.09,0,0,0,.27,1.25l.82,3.3ZM146.65,44c1.43,0,2.28-1,2.28-2.61v-3c0-1.6-.85-2.61-2.28-2.61s-2.28,1-2.28,2.61v3C144.37,42.94,145.22,44,146.65,44Zm0-.68c-1,0-1.57-.7-1.57-1.93v-3c0-1.23.54-1.93,1.57-1.93s1.57.7,1.57,1.93v3C148.22,42.57,147.68,43.27,146.65,43.27Zm7.79.54h.84l-2.85-4.49L155,35.86h-1l-2,2.86-.65.93V35.86h-.71v8h.71v-3.1l.57-.78,2.46,3.88Zm3.79.14c1.43,0,2.29-1,2.29-2.61v-3c0-1.6-.86-2.61-2.29-2.61s-2.28,1-2.28,2.61v3C156,42.94,156.8,44,158.23,44Zm0-.68c-1,0-1.56-.7-1.56-1.93v-3c0-1.23.53-1.93,1.56-1.93s1.57.7,1.57,1.93v3C159.8,42.57,159.27,43.27,158.23,43.27Zm7.59-7.41v3.57H163V35.86h-.7v8h.7V40h2.83v3.72h.7v-8Zm5.29,8h.77l2.47-5.56.42-1h0v6.57h.71v-8h-.8L172.24,41c-.21.45-.45,1-.55,1.29h0V35.77H171v8Zm15.11,0h.84l-2.8-4.29,2.62-3.66h-.83l-1.84,2.65-.74,1.08V35.91h-.68v3.72l-2.58-3.72h-.83L182,39.57l-2.79,4.29H180l2.38-3.67.37.51v3.16h.68V40.7l.36-.51,2.39,3.67Zm5.4,0h.75l-2.09-8h-.77l-2.09,8H188l.47-1.87H191l.46,1.87Zm-2.82-2.5.81-3.3c.13-.48.24-1,.28-1.25h0a9.09,9.09,0,0,0,.27,1.25l.82,3.3ZM194,35.91c-.11,3.22-.25,5.46-.35,6.31-.07.63-.32,1.07-.84,1.07V44c.9,0,1.4-.63,1.52-1.64s.24-3.25.34-5.76h2.05v7.3h.7v-8Zm9.82-.11c-1.43,0-2.28,1-2.28,2.73v1h-1.43V36h-.7v8h.7V40h1.43v1.09c0,1.72.85,2.73,2.28,2.73s2.27-1,2.27-2.73v-2.7c0-1.72-.84-2.73-2.27-2.73Zm1.55,5.43c0,1.34-.53,2-1.55,2s-1.56-.71-1.56-2v-2.7c0-1.34.53-2,1.56-2s1.55.7,1.55,2Zm5.14-1.48A1.65,1.65,0,0,0,211.74,38,2,2,0,0,0,210,35.77a1.61,1.61,0,0,0-.31,0c-1.34,0-2.09.88-2.17,2.29h.7c.08-1,.51-1.61,1.46-1.61A1.31,1.31,0,0,1,211,37.62a2.53,2.53,0,0,1,0,.28,1.43,1.43,0,0,1-1.3,1.55,1.58,1.58,0,0,1-.31,0h-.57V40h.65a1.56,1.56,0,0,1,1.7,1.41v.22a1.47,1.47,0,0,1-1.34,1.59h-.21a1.53,1.53,0,0,1-1.58-1.48v-.11h-.72a2.23,2.23,0,0,0,2.19,2.27h.13a2.11,2.11,0,0,0,2.24-2,1.5,1.5,0,0,0,0-.3,1.86,1.86,0,0,0-1.44-2Zm3,4.11h.77l2.47-5.56.42-1h0v6.57h.7v-8H217L214.57,41c-.21.45-.45,1-.55,1.29h0V35.77h-.71v8Zm11.9-4.13c.63-.17,1-.77,1-1.76a1.9,1.9,0,0,0-1.74-2.06h-2.24v8h2a2,2,0,0,0,2.25-1.71,2.36,2.36,0,0,0,0-.46,1.82,1.82,0,0,0-1.37-2Zm-1.07-3.17a1.21,1.21,0,0,1,1.39,1,1.27,1.27,0,0,1,0,.39c0,1-.45,1.48-1.37,1.48H223V36.56Zm.18,6.64H223V40h1.21a1.49,1.49,0,0,1,1.66,1.3,1.31,1.31,0,0,1,0,.28,1.35,1.35,0,0,1-1.54,1.51Zm10.13.66h.84l-2.85-4.49,2.53-3.46h-.87l-2,2.86-.64.93V35.91h-.71v8h.71v-3.1l.56-.78,2.47,3.88Zm3.86-8H236.4v8h.71v-3h1.2c1.46,0,2.27-.87,2.27-2.5a2.13,2.13,0,0,0-1.81-2.42,1.78,1.78,0,0,0-.46,0Zm0,4.27h-1.2v-3.6h1.2c1.07,0,1.57.59,1.57,1.77S239.54,40.13,238.47,40.13Zm3.58,3.68h1.84a2.17,2.17,0,0,0,2.34-2,2,2,0,0,0,0-.35,2.15,2.15,0,0,0-2-2.29h-1.48V35.86h-.7v8Zm5.3,0h.71v-8h-.71Zm-4.6-.67V39.85h1.14a1.48,1.48,0,0,1,1.62,1.33,1.4,1.4,0,0,1,0,.29,1.52,1.52,0,0,1-1.34,1.67h-1.42ZM255,35.86l-1.42,3.43c-.21.51-.49,1.33-.64,1.77h0c-.15-.44-.43-1.26-.64-1.77l-1.42-3.43h-.75v8h.71V39.5c0-.84,0-1.54-.07-2.24h0c.21.57.53,1.33.82,2.09l1,2.5h.7l1-2.5c.29-.76.61-1.52.82-2.09h0c0,.7-.07,1.4-.07,2.24v4.21h.71v-8Zm5.64,0-1.35,4.45-1.59-4.45h-.75l2,5.47-.26.84c-.18.61-.47,1.07-1.09,1.07h-.27v.67h.27c1,0,1.47-.64,1.74-1.52l2-6.53Z" transform="translate(0 0)"/></svg>