<svg id="Layer_1" data-name="Layer 1" xmlns="http://www.w3.org/2000/svg" viewBox="0 0 363.24 473.27"><defs><style>.cls-1{fill:#0076b0;}</style></defs><path class="cls-1" d="M236.64,0C136.49,0,55,81.47,55,181.62A179.64,179.64,0,0,0,94.15,294.13L236.64,473.27,379.14,294.1a179.6,179.6,0,0,0,39.12-112.48C418.26,81.47,336.78,0,236.64,0Zm119,275.46-119,149.62-119-149.59A149.87,149.87,0,0,1,85,181.62C85,98,153,30,236.64,30S388.26,98,388.26,181.62A149.87,149.87,0,0,1,355.64,275.46Z" transform="translate(-55.02)"/><path class="cls-1" d="M236.64,104.4a75,75,0,1,0,75,75A75.08,75.08,0,0,0,236.64,104.4Zm0,120a45,45,0,1,1,45-45A45,45,0,0,1,236.64,224.4Z" transform="translate(-55.02)"/></svg>