<svg id="Capa_1" data-name="Capa 1" xmlns="http://www.w3.org/2000/svg" viewBox="0 0 512 350.78"><defs><style>.cls-1{fill:#0076b0;}</style></defs><path class="cls-1" d="M467,80.61H45a45.05,45.05,0,0,0-45,45V386.39a45.05,45.05,0,0,0,45,45H467a45.05,45.05,0,0,0,45-45V125.61A45.05,45.05,0,0,0,467,80.61Zm-5.87,30-6,5L273.85,266.55a27.87,27.87,0,0,1-35.7,0L56.88,115.61l-6-5ZM30,132.27l147.69,123L30,353.54ZM467,401.39H45a15,15,0,0,1-14.7-12l171.45-114.1L219,289.6a57.89,57.89,0,0,0,74.1,0l17.21-14.32L481.7,389.38A15,15,0,0,1,467,401.39Zm15-47.85L334.31,255.25,482,132.27Z" transform="translate(0 -80.61)"/></svg>