<svg id="Capa_1" data-name="Capa 1" xmlns="http://www.w3.org/2000/svg" viewBox="0 0 316.68 512"><defs><style>.cls-1{fill:#0076b0;}</style></defs><path class="cls-1" d="M414.32,461.91V50.09A50.15,50.15,0,0,0,364.23,0H147.75A50.15,50.15,0,0,0,97.66,50.09V461.91A50.15,50.15,0,0,0,147.75,512h217a50,50,0,0,0,35.71-15.1A48.17,48.17,0,0,0,414.32,461.91Zm-37.79,11.73a16.18,16.18,0,0,1-11.74,5h-217a16.72,16.72,0,0,1-16.7-16.7V50.09a16.72,16.72,0,0,1,16.7-16.7H364.23a16.72,16.72,0,0,1,16.7,16.7V462.41A15.35,15.35,0,0,1,376.53,473.64Z" transform="translate(-97.66)"/><rect class="cls-1" x="16.69" y="65.11" width="283.83" height="33.39"/><rect class="cls-1" x="16.69" y="387.34" width="283.83" height="33.39"/><path class="cls-1" d="M270.18,432.42H242.35a16.7,16.7,0,0,0,0,33.39h27.83a16.7,16.7,0,1,0,0-33.39Z" transform="translate(-97.66)"/></svg>