<svg id="Layer_1" data-name="Layer 1" xmlns="http://www.w3.org/2000/svg" viewBox="0 0 427.99 245.93"><defs><style>.cls-1{fill:#fff;}</style></defs><path class="cls-1" d="M4.1,37.2C.5,27.8-4.1,18,6.8,12.7l66.4-.9c9.6.3,14,7.4,19.1,17.3,14.9,28.7,30.4,57.3,49.1,83.6,6.1,8.6,16.4,11.9,24.5-1.8l2.7-55.5c-3-21.5-10.5-34.2-23.6-35.5-7.5-7.3-2.1-13.3,14.7-16.5,26.7-5.7,50-3.1,70.5-.5C247.5,4,250,15.7,249.7,29.1c-.6,24.5-1.1,49.1-1.1,73.6,5.1,24.9,18.7,14.9,27.7,4.1,16.1-22.9,30.1-45.2,41.8-70.3,12.1-25.8,15.4-23.9,23.9-24,20.3-.1,42.7-1.1,58.9-.5,33.8-2,29.9,13,20.4,28.9C404.9,68.6,383.8,93.6,365,120c-11.4,15.5-11.2,25.2.9,33.6,17.9,19.7,37.3,38.1,53.6,59.1,17.7,22.9,4.7,29.2-11.8,30.9H348.6c-16.8.3-32-3.9-42.7-21.8-24.7-32.7-43.1-41.7-50.5-23.3a82.08,82.08,0,0,0-5.8,29.6c.1,14.8-8.8,16-20.9,16.4-13,0-26.5,3.2-39.1,0C145,233.2,102.2,212.4,60.5,140.9,41.7,110,22.9,76.2,4.1,37.2Z" transform="translate(0.01 0.01)"/></svg>