<svg id="Capa_1" data-name="Capa 1" xmlns="http://www.w3.org/2000/svg" viewBox="0 0 512 512"><defs><style>.cls-1{fill:#0076b0;}</style></defs><path class="cls-1" d="M256,0C114.85,0,0,114.84,0,256S114.85,512,256,512,512,397.16,512,256,397.15,0,256,0Zm0,474.63C135.45,474.63,37.37,376.55,37.37,256S135.45,37.37,256,37.37,474.63,135.45,474.63,256,376.55,474.63,256,474.63Z"/><path class="cls-1" d="M343.2,256h-81V143.88a18.69,18.69,0,0,0-37.37,0V274.69a18.68,18.68,0,0,0,18.68,18.68H343.2a18.69,18.69,0,1,0,0-37.37Z"/></svg>