<svg id="Слой_1" data-name="Слой 1" xmlns="http://www.w3.org/2000/svg" viewBox="0 0 607.39 639.38"><defs><style>.cls-1{fill:#fff;}</style></defs><path class="cls-1" d="M622.63,660.35H153.76A21.31,21.31,0,0,1,132.45,639V362a10.66,10.66,0,1,1,21.31,0V639H622.63V42.29H153.76V162.81a10.66,10.66,0,1,1-21.31,0V42.29A21.31,21.31,0,0,1,153.76,21H622.63a21.31,21.31,0,0,1,21.31,21.31V639A21.31,21.31,0,0,1,622.63,660.35Zm-32-42.62H185.72a10.65,10.65,0,0,1-10.65-10.66V468.54a10.65,10.65,0,0,1,10.65-10.65H590.66a10.65,10.65,0,0,1,10.66,10.65V607.07A10.66,10.66,0,0,1,590.66,617.73ZM196.38,596.42H580V479.2H196.38ZM590.66,436.57H185.72a10.65,10.65,0,0,1-10.65-10.65V362a10.66,10.66,0,1,1,21.31,0v53.28H580V84.92H185.72a10.66,10.66,0,0,1,0-21.32H590.66a10.66,10.66,0,0,1,10.66,10.66V425.92A10.65,10.65,0,0,1,590.66,436.57Z" transform="translate(-36.55 -20.98)"/><path class="cls-1" d="M590.66,436.57H185.72a10.65,10.65,0,0,1-10.65-10.65V362a10.66,10.66,0,1,1,21.31,0v53.28H580V84.92H185.72a10.66,10.66,0,0,1,0-21.32H590.66a10.66,10.66,0,0,1,10.66,10.66V425.92A10.65,10.65,0,0,1,590.66,436.57Z" transform="translate(-36.55 -20.98)"/><path class="cls-1" d="M590.66,617.73H185.72a10.65,10.65,0,0,1-10.65-10.66V468.54a10.65,10.65,0,0,1,10.65-10.65H590.66a10.65,10.65,0,0,1,10.66,10.65V607.07A10.66,10.66,0,0,1,590.66,617.73ZM196.38,596.42H580V479.2H196.38Z" transform="translate(-36.55 -20.98)"/><path class="cls-1" d="M590.66,436.57H185.72a10.65,10.65,0,0,1-10.65-10.65V362a10.66,10.66,0,1,1,21.31,0v53.28H580V84.92H185.72a10.66,10.66,0,0,1,0-21.32H590.66a10.66,10.66,0,0,1,10.66,10.66V425.92A10.65,10.65,0,0,1,590.66,436.57Z" transform="translate(-36.55 -20.98)"/><path class="cls-1" d="M452.13,372.64H47.2a10.66,10.66,0,0,1-9.6-15.29L176.13,69.64a10.68,10.68,0,0,1,9.59-6H590.66a10.66,10.66,0,0,1,9.59,15.29L461.72,366.6A10.66,10.66,0,0,1,452.13,372.64Zm-388-21.32H445.44L573.71,84.92H192.41Z" transform="translate(-36.55 -20.98)"/><path class="cls-1" d="M425.34,330H115a10.66,10.66,0,0,1-9.59-15.28l97.49-202.47a10.65,10.65,0,0,1,9.59-6H522.83a10.66,10.66,0,0,1,9.6,15.28L434.93,324A10.65,10.65,0,0,1,425.34,330ZM132,308.7H418.64l87.22-181.16H219.2Z" transform="translate(-36.55 -20.98)"/><path class="cls-1" d="M590.66,617.73H185.72a10.65,10.65,0,0,1-10.65-10.66V468.54a10.65,10.65,0,0,1,10.65-10.65H590.66a10.65,10.65,0,0,1,10.66,10.65V607.07A10.66,10.66,0,0,1,590.66,617.73ZM196.38,596.42H580V479.2H196.38Z" transform="translate(-36.55 -20.98)"/><path class="cls-1" d="M590.66,287.38a10.63,10.63,0,0,1-7.53-3.12l-63.94-63.94a10.65,10.65,0,0,1,15.07-15.06l63.93,63.93a10.65,10.65,0,0,1-7.53,18.19Z" transform="translate(-36.55 -20.98)"/><path class="cls-1" d="M324.25,436.57a10.65,10.65,0,0,1-7.53-3.12l-63.93-63.94a10.65,10.65,0,0,1,15.06-15.06l63.94,63.93a10.66,10.66,0,0,1-7.54,18.19Z" transform="translate(-36.55 -20.98)"/></svg>