<svg id="Слой_1" data-name="Слой 1" xmlns="http://www.w3.org/2000/svg" viewBox="0 0 639.38 628.72"><defs><style>.cls-1{fill:#fff;}</style></defs><path class="cls-1" d="M212.79,591.09a10.66,10.66,0,0,1-10.66-10.65V282.07a10.66,10.66,0,1,1,21.32,0V580.44A10.65,10.65,0,0,1,212.79,591.09Z" transform="translate(-20.98 -26.31)"/><path class="cls-1" d="M479.2,655H202.13a10.64,10.64,0,0,1-4.76-1.12L26.87,568.66A10.64,10.64,0,0,1,21,559.13v-32a10.66,10.66,0,0,1,4.74-8.87L53,500.14V209.51L32.39,158.14A10.65,10.65,0,0,1,36,145.59L195.83,28.37a10.67,10.67,0,0,1,6.3-2.06H479.2a10.62,10.62,0,0,1,6.29,2.06L645.34,145.59a10.65,10.65,0,0,1,3.59,12.55l-20.55,51.37V500.14l27.23,18.12a10.65,10.65,0,0,1,4.74,8.9v32a10.63,10.63,0,0,1-5.89,9.53L484,653.91A10.64,10.64,0,0,1,479.2,655ZM204.65,633.72h272L639,552.54V532.86l-27.23-18.12a10.67,10.67,0,0,1-4.74-8.9V207.47a10.63,10.63,0,0,1,.76-3.95l18.24-45.62L475.71,47.63H205.62L55.25,157.9l18.24,45.62a10.64,10.64,0,0,1,.77,3.95V505.84a10.66,10.66,0,0,1-4.74,8.87L42.29,532.86v19.68Z" transform="translate(-20.98 -26.31)"/><path class="cls-1" d="M468.54,250.09H212.79A10.76,10.76,0,0,1,208,249L37.53,163.72a10.66,10.66,0,1,1,9.54-19.06l168.24,84.12H466l168.24-84.13a10.66,10.66,0,1,1,9.55,19.06L473.31,249A10.53,10.53,0,0,1,468.54,250.09Z" transform="translate(-20.98 -26.31)"/><path class="cls-1" d="M468.54,292.72H212.79A10.64,10.64,0,0,1,208,291.6L58.84,217a10.66,10.66,0,0,1,9.54-19.06L215.31,271.4H466L613,197.93A10.66,10.66,0,1,1,622.5,217L473.31,291.59A10.66,10.66,0,0,1,468.54,292.72Z" transform="translate(-20.98 -26.31)"/><path class="cls-1" d="M468.54,591.09H212.79A10.63,10.63,0,0,1,208,590L58.84,515.38a10.66,10.66,0,1,1,9.54-19.06l146.93,73.46H466L613,496.31a10.66,10.66,0,1,1,9.54,19.06L473.31,590A10.65,10.65,0,0,1,468.54,591.09Z" transform="translate(-20.98 -26.31)"/><path class="cls-1" d="M468.54,591.09a10.66,10.66,0,0,1-10.66-10.65V282.07a10.66,10.66,0,1,1,21.32,0V580.44A10.65,10.65,0,0,1,468.54,591.09Z" transform="translate(-20.98 -26.31)"/><path class="cls-1" d="M212.79,250.09a10.66,10.66,0,0,1-9.66-15.16L273.34,84.49l-76-38a10.66,10.66,0,0,1,9.53-19.08l85.25,42.62a10.67,10.67,0,0,1,4.89,14L222.45,243.93A10.66,10.66,0,0,1,212.79,250.09Z" transform="translate(-20.98 -26.31)"/><path class="cls-1" d="M468.54,250.09a10.64,10.64,0,0,1-9.66-6.14L384.28,84.1a10.65,10.65,0,0,1,4.89-14l85.25-42.63A10.66,10.66,0,1,1,484,46.51l-76,38L478.2,234.93a10.66,10.66,0,0,1-9.66,15.16Z" transform="translate(-20.98 -26.31)"/><path class="cls-1" d="M394,90.25H287.38a10.66,10.66,0,0,1,0-21.31H394a10.66,10.66,0,0,1,0,21.31Z" transform="translate(-20.98 -26.31)"/><path class="cls-1" d="M468.54,431.25H212.79a10.66,10.66,0,0,1-4.2-.86L59.4,366.45a10.65,10.65,0,0,1,8.4-19.58L215,409.94H466L613,336.47a10.66,10.66,0,1,1,9.54,19.06L473.31,430.12A10.53,10.53,0,0,1,468.54,431.25Z" transform="translate(-20.98 -26.31)"/><path class="cls-1" d="M95.57,314A10.66,10.66,0,0,1,88,295.84l21.31-21.31a10.66,10.66,0,0,1,15.07,15.07l-21.31,21.31A10.66,10.66,0,0,1,95.57,314Z" transform="translate(-20.98 -26.31)"/><path class="cls-1" d="M116.89,346a10.66,10.66,0,0,1-7.54-18.19l32-32a10.66,10.66,0,0,1,15.07,15.07l-32,32A10.65,10.65,0,0,1,116.89,346Z" transform="translate(-20.98 -26.31)"/><path class="cls-1" d="M255.42,356.65a10.65,10.65,0,0,1-7.54-18.19l21.31-21.31a10.66,10.66,0,0,1,15.07,15.07L263,353.53A10.63,10.63,0,0,1,255.42,356.65Z" transform="translate(-20.98 -26.31)"/><path class="cls-1" d="M276.73,388.63a10.66,10.66,0,0,1-7.54-18.19l53.29-53.29a10.66,10.66,0,0,1,15.07,15.07L284.26,385.5A10.64,10.64,0,0,1,276.73,388.63Z" transform="translate(-20.98 -26.31)"/><path class="cls-1" d="M255.42,495.19A10.66,10.66,0,0,1,247.88,477l21.31-21.32a10.66,10.66,0,0,1,15.07,15.07L263,492.06A10.6,10.6,0,0,1,255.42,495.19Z" transform="translate(-20.98 -26.31)"/><path class="cls-1" d="M276.73,527.16a10.67,10.67,0,0,1-7.54-18.2l53.29-53.28a10.66,10.66,0,0,1,15.07,15.07L284.26,524A10.67,10.67,0,0,1,276.73,527.16Z" transform="translate(-20.98 -26.31)"/><path class="cls-1" d="M95.57,452.56A10.65,10.65,0,0,1,88,434.37l21.31-21.31a10.66,10.66,0,0,1,15.07,15.07l-21.31,21.31A10.66,10.66,0,0,1,95.57,452.56Z" transform="translate(-20.98 -26.31)"/><path class="cls-1" d="M116.89,484.53a10.66,10.66,0,0,1-7.54-18.19l32-32a10.66,10.66,0,0,1,15.07,15.07l-32,32A10.69,10.69,0,0,1,116.89,484.53Z" transform="translate(-20.98 -26.31)"/></svg>