<svg id="Слой_1" data-name="Слой 1" xmlns="http://www.w3.org/2000/svg" viewBox="0 0 639.38 639.37"><defs><style>.cls-1{fill:#fff;}</style></defs><path class="cls-1" d="M628.38,479.86H53a10.65,10.65,0,0,1-10.66-10.65V43A21.32,21.32,0,0,1,63.6,21.64H617.73A21.32,21.32,0,0,1,639,43V469.21A10.65,10.65,0,0,1,628.38,479.86ZM63.6,458.55H617.73V43H63.6Z" transform="translate(-20.98 -21.64)"/><path class="cls-1" d="M639,661H42.29A21.31,21.31,0,0,1,21,639.71V511.83a10.64,10.64,0,0,1,1.12-4.76l21.31-42.62a10.66,10.66,0,0,1,9.54-5.9H628.38a10.66,10.66,0,0,1,9.59,5.9l21.32,42.62a10.61,10.61,0,0,1,1.06,4.76V639.71A21.31,21.31,0,0,1,639,661ZM42.29,514.35V639.71H639V514.35L621.8,479.86H59.54Z" transform="translate(-20.98 -21.64)"/><path class="cls-1" d="M84.92,522.49H31.64a10.66,10.66,0,1,1,0-21.31H84.92a10.66,10.66,0,0,1,0,21.31Z" transform="translate(-20.98 -21.64)"/><path class="cls-1" d="M649.7,522.49H127.54a10.66,10.66,0,0,1,0-21.31H649.7a10.66,10.66,0,0,1,0,21.31Z" transform="translate(-20.98 -21.64)"/><path class="cls-1" d="M138.2,149.52a10.66,10.66,0,0,1-7.54-18.19l10.66-10.65a10.65,10.65,0,0,1,15.07,15.06L145.73,146.4A10.65,10.65,0,0,1,138.2,149.52Z" transform="translate(-20.98 -21.64)"/><path class="cls-1" d="M138.2,213.46a10.66,10.66,0,0,1-7.54-18.19L215.91,110A10.67,10.67,0,0,1,231,125.09l-85.26,85.25A10.69,10.69,0,0,1,138.2,213.46Z" transform="translate(-20.98 -21.64)"/><path class="cls-1" d="M340.67,437.24H95.57a10.65,10.65,0,0,1-10.65-10.66V74.93A10.65,10.65,0,0,1,95.57,64.27h245.1a10.65,10.65,0,0,1,10.65,10.66V373.3a10.66,10.66,0,1,1-21.31,0V85.58H106.23V415.93H340.67a10.66,10.66,0,0,1,0,21.31Z" transform="translate(-20.98 -21.64)"/><path class="cls-1" d="M585.76,437.24H340.67a10.66,10.66,0,1,1,0-21.31H575.11V85.58H351.32V373.3a10.66,10.66,0,1,1-21.31,0V74.93a10.66,10.66,0,0,1,10.66-10.66H585.76a10.66,10.66,0,0,1,10.66,10.66V426.58A10.66,10.66,0,0,1,585.76,437.24Z" transform="translate(-20.98 -21.64)"/><path class="cls-1" d="M170.17,437.24a32,32,0,0,1-32-32V362.65a10.66,10.66,0,0,1,15.42-9.54l16.55,8.28,16.55-8.28a10.65,10.65,0,0,1,15.41,9.54v42.62A32,32,0,0,1,170.17,437.24Zm-10.66-57.35v25.38a10.66,10.66,0,1,0,21.31,0V379.89l-5.89,2.95a10.65,10.65,0,0,1-9.53,0Z" transform="translate(-20.98 -21.64)"/><path class="cls-1" d="M170.17,490.52a10.66,10.66,0,0,1-10.66-10.66V426.58a10.66,10.66,0,0,1,21.31,0v53.28A10.65,10.65,0,0,1,170.17,490.52Z" transform="translate(-20.98 -21.64)"/><path class="cls-1" d="M511.17,437.24a32,32,0,0,1-32-32V362.65a10.66,10.66,0,0,1,15.42-9.54l16.55,8.28,16.54-8.28a10.65,10.65,0,0,1,15.42,9.54v42.62A32,32,0,0,1,511.17,437.24Zm-10.66-57.35v25.38a10.66,10.66,0,1,0,21.31,0V379.89l-5.89,2.95a10.65,10.65,0,0,1-9.53,0Z" transform="translate(-20.98 -21.64)"/><path class="cls-1" d="M511.17,490.52a10.66,10.66,0,0,1-10.66-10.66V426.58a10.66,10.66,0,0,1,21.31,0v53.28A10.65,10.65,0,0,1,511.17,490.52Z" transform="translate(-20.98 -21.64)"/><path class="cls-1" d="M340.67,437.24a32,32,0,0,1-32-32V362.65a10.67,10.67,0,0,1,15.43-9.54l16.55,8.28,16.55-8.28a10.66,10.66,0,0,1,15.42,9.54v42.62A32,32,0,0,1,340.67,437.24ZM330,379.89v25.38a10.66,10.66,0,1,0,21.31,0V379.89l-5.89,2.95a10.63,10.63,0,0,1-9.52,0Z" transform="translate(-20.98 -21.64)"/><path class="cls-1" d="M340.67,490.52A10.66,10.66,0,0,1,330,479.86V426.58a10.66,10.66,0,0,1,21.31,0v53.28A10.65,10.65,0,0,1,340.67,490.52Z" transform="translate(-20.98 -21.64)"/><path class="cls-1" d="M255.42,405.27a32,32,0,0,1-32-32V330.68a10.66,10.66,0,0,1,15.42-9.54l16.55,8.28L272,321.14a10.66,10.66,0,0,1,15.42,9.54V373.3A32,32,0,0,1,255.42,405.27Zm-10.66-57.35V373.3a10.66,10.66,0,1,0,21.31,0V347.92l-5.89,2.95a10.65,10.65,0,0,1-9.53,0Z" transform="translate(-20.98 -21.64)"/><path class="cls-1" d="M255.42,490.52a10.66,10.66,0,0,1-10.66-10.66V394.62a10.66,10.66,0,1,1,21.31,0v85.24A10.65,10.65,0,0,1,255.42,490.52Z" transform="translate(-20.98 -21.64)"/><path class="cls-1" d="M425.92,405.27a32,32,0,0,1-32-32V330.68a10.66,10.66,0,0,1,15.42-9.54l16.55,8.28,16.55-8.28a10.65,10.65,0,0,1,15.41,9.54V373.3A32,32,0,0,1,425.92,405.27Zm-10.66-57.35V373.3a10.66,10.66,0,1,0,21.31,0V347.92l-5.89,2.95a10.65,10.65,0,0,1-9.53,0Z" transform="translate(-20.98 -21.64)"/><path class="cls-1" d="M425.92,490.52a10.66,10.66,0,0,1-10.66-10.66V394.62a10.66,10.66,0,1,1,21.31,0v85.24A10.65,10.65,0,0,1,425.92,490.52Z" transform="translate(-20.98 -21.64)"/></svg>