<svg id="Слой_1" data-name="Слой 1" xmlns="http://www.w3.org/2000/svg" viewBox="0 0 639.37 639.27"><defs><style>.cls-1{fill:#fff;}</style></defs><path class="cls-1" d="M649.7,660.91H607.09a10.66,10.66,0,0,1-10.66-10.66v-618a10.65,10.65,0,0,1,10.66-10.65H649.7a10.65,10.65,0,0,1,10.65,10.65v618A10.65,10.65,0,0,1,649.7,660.91Zm-32-21.31h21.31V43H617.74Z" transform="translate(-20.98 -21.64)"/><path class="cls-1" d="M607.09,660.91a10.88,10.88,0,0,1-3.49-.59l-277-95.89a10.65,10.65,0,0,1-7.17-10.07V128.18a10.64,10.64,0,0,1,7.17-10.06l277-95.89a10.66,10.66,0,0,1,14.14,10.06v618A10.65,10.65,0,0,1,607.09,660.91ZM340.72,546.78l255.71,88.55V47.21L340.72,135.77Z" transform="translate(-20.98 -21.64)"/><path class="cls-1" d="M564.46,600.27a10.87,10.87,0,0,1-3.43-.57L369.25,534.49A10.66,10.66,0,0,1,362,524.4V158.14a10.66,10.66,0,0,1,7.22-10.07L561,82.86a10.66,10.66,0,0,1,14.09,10.07V589.62A10.65,10.65,0,0,1,564.46,600.27ZM383.34,516.79l170.47,58V107.81L383.34,165.76Z" transform="translate(-20.98 -21.64)"/><path class="cls-1" d="M489.89,394.55a10.66,10.66,0,0,1-9.9-14.61l21.3-53.27A10.68,10.68,0,0,1,511.2,320h21.3a10.66,10.66,0,1,1,0,21.31H518.41l-18.63,46.57A10.64,10.64,0,0,1,489.89,394.55Z" transform="translate(-20.98 -21.64)"/><path class="cls-1" d="M148.94,277.35a10.65,10.65,0,0,1-10.65-10.66V32.29a10.66,10.66,0,0,1,21.31,0v234.4A10.66,10.66,0,0,1,148.94,277.35Z" transform="translate(-20.98 -21.64)"/><path class="cls-1" d="M148.94,85.57a10.64,10.64,0,0,1-7.53-3.13l-32-32a10.65,10.65,0,0,1,15.06-15.06l24.43,24.43,24.43-24.43a10.65,10.65,0,0,1,15.07,15.06l-32,32A10.67,10.67,0,0,1,148.94,85.57Z" transform="translate(-20.98 -21.64)"/><path class="cls-1" d="M180.91,266.69a10.66,10.66,0,0,1-7.54-3.12l-24.43-24.43-24.43,24.43a10.65,10.65,0,0,1-15.06-15.07l32-32a10.66,10.66,0,0,1,15.07,0l32,32a10.66,10.66,0,0,1-7.53,18.19Z" transform="translate(-20.98 -21.64)"/><path class="cls-1" d="M258.81,218.75a10.68,10.68,0,0,1-5-1.25l-220-117.19a10.66,10.66,0,0,1,10-18.82l220,117.2a10.65,10.65,0,0,1-5,20.06Z" transform="translate(-20.98 -21.64)"/><path class="cls-1" d="M31.75,134.58a10.66,10.66,0,0,1-2.66-21l34.94-9L54.77,71.41a10.65,10.65,0,1,1,20.52-5.72l12.19,43.68a10.67,10.67,0,0,1-7.61,13.18L34.4,134.27A11.29,11.29,0,0,1,31.75,134.58Z" transform="translate(-20.98 -21.64)"/><path class="cls-1" d="M232.86,241.13a10.68,10.68,0,0,1-10.25-7.79l-12.18-43.69A10.66,10.66,0,0,1,218,176.47l45.45-11.72a10.66,10.66,0,0,1,5.33,20.65l-34.92,9,9.25,33.19a10.66,10.66,0,0,1-10.27,13.52Z" transform="translate(-20.98 -21.64)"/><path class="cls-1" d="M38.79,218.75a10.65,10.65,0,0,1-5-20.06l220-117.2a10.66,10.66,0,1,1,10,18.82L43.77,217.5A10.57,10.57,0,0,1,38.79,218.75Z" transform="translate(-20.98 -21.64)"/><path class="cls-1" d="M65,241.13a10.68,10.68,0,0,1-10.27-13.52L64,194.42l-34.94-9a10.66,10.66,0,1,1,5.33-20.64l45.47,11.72a10.66,10.66,0,0,1,7.61,13.18L75.31,233.36A10.67,10.67,0,0,1,65,241.13Z" transform="translate(-20.98 -21.64)"/><path class="cls-1" d="M266.15,134.58a10.65,10.65,0,0,1-2.58-.31l-47.32-11.72a10.63,10.63,0,0,1-7.67-13.32l12.68-43.68a10.65,10.65,0,1,1,20.45,6l-9.59,33,36.57,9a10.65,10.65,0,0,1-2.54,21Z" transform="translate(-20.98 -21.64)"/><path class="cls-1" d="M223.52,597A10.66,10.66,0,0,1,216,578.79L421.55,373.24,279.92,231.61A10.65,10.65,0,0,1,295,216.54L444.15,365.7a10.68,10.68,0,0,1,0,15.07L231.06,593.86A10.66,10.66,0,0,1,223.52,597Z" transform="translate(-20.98 -21.64)"/><path class="cls-1" d="M308.76,597H223.52a10.65,10.65,0,0,1-10.65-10.66V501.09a10.66,10.66,0,0,1,21.31,0v74.58h74.58a10.66,10.66,0,0,1,0,21.31Z" transform="translate(-20.98 -21.64)"/></svg>