<?xml version="1.0" encoding="utf-8"?>
<!-- Generator: Adobe Illustrator 22.0.1, SVG Export Plug-In . SVG Version: 6.00 Build 0)  -->
<svg version="1.1" id="Layer_1" xmlns="http://www.w3.org/2000/svg" xmlns:xlink="http://www.w3.org/1999/xlink" x="0px" y="0px"
	 viewBox="0 0 550.1 550.9" style="enable-background:new 0 0 550.1 550.9;" xml:space="preserve">
<style type="text/css">
	.st0{fill:#DCDDE2;}
</style>
<path class="st0" d="M17,271.5l-17-0.4l0.1-5.9c0-1.5,0.4-2.7,1.1-3.7c0.7-1,1.8-1.5,3.3-1.5c0.9,0,1.7,0.3,2.3,0.9
	c0.6,0.6,1.1,1.3,1.3,2.2l0,0c0.2-1.1,0.6-2,1.4-2.7c0.8-0.7,1.7-1,2.9-1c1.6,0,2.8,0.7,3.5,1.9c0.8,1.2,1.2,2.8,1.1,4.6L17,271.5
	L17,271.5z M15,269.1l0.1-3c0-0.8,0-1.4-0.2-2c-0.1-0.6-0.4-1.1-0.9-1.6c-0.4-0.4-1-0.7-1.7-0.7c-1.9,0-2.9,1.3-2.9,3.9L9.2,269
	L15,269.1L15,269.1z M7.2,268.9l0.1-3.1c0-1-0.2-1.8-0.6-2.4c-0.4-0.6-1.1-1-2-1c-1.7,0-2.6,1.2-2.6,3.7L2,268.8L7.2,268.9
	L7.2,268.9z M17.2,256.1l-16.8-2.2l0.3-2.4l7,0.9l0.4-2.7c0.2-1.9,0.9-3.3,1.8-4.4c1-1,2.3-1.4,3.9-1.2c1.6,0.2,2.8,0.9,3.5,2.2
	c0.7,1.2,0.9,2.8,0.7,4.6L17.2,256.1L17.2,256.1z M15.5,253.5l0.3-2.5c0.4-2.7-0.4-4.1-2.4-4.4c-1-0.1-1.7,0.1-2.3,0.8
	c-0.6,0.6-1,1.6-1.1,2.9l-0.3,2.5L15.5,253.5L15.5,253.5z M19,242.4l-16.8-2.2l0.3-2.4l16.8,2.2L19,242.4L19,242.4z M20.9,230
	l-16.7-2.9L6.4,214l16.7,2.9l-0.4,2.3l-14.7-2.6l-1.5,8.4l14.7,2.6L20.9,230L20.9,230z M26.9,205.3c-0.7,2.5-2.1,4.3-4.2,5.5
	c-2.1,1.2-4.4,1.4-6.9,0.7c-2.5-0.7-4.3-2.1-5.5-4.2c-1.1-2.1-1.3-4.4-0.6-6.9c0.7-2.5,2.1-4.4,4.2-5.5c2.1-1.2,4.4-1.4,6.9-0.7
	c2.5,0.7,4.3,2.1,5.5,4.2C27.4,200.5,27.7,202.8,26.9,205.3L26.9,205.3z M24.9,204.7c0.5-1.9,0.3-3.5-0.6-5c-0.9-1.5-2.3-2.5-4.2-3
	c-1.8-0.5-3.6-0.4-5.1,0.4c-1.6,0.8-2.6,2.1-3.2,4c-0.5,1.8-0.3,3.5,0.6,5c0.9,1.5,2.3,2.5,4.2,3c1.9,0.5,3.6,0.4,5.2-0.4
	C23.3,207.8,24.4,206.5,24.9,204.7L24.9,204.7z M30.1,194c-0.2,0.7-0.5,1.2-0.8,1.7l-1.9-1c0.2-0.3,0.4-0.6,0.5-0.9
	c0.3-0.8,0.2-1.6-0.3-2.3c-0.5-0.7-1.4-1.4-2.8-2.2c-1.4-0.7-3.4-1.6-5.9-2.4l-4-1.4l3.5-10.4l16.1,5.5l-0.8,2.2L19.7,178l-2,5.9
	l2.7,0.9c4,1.4,6.8,2.8,8.4,4.2C30.3,190.4,30.8,192.1,30.1,194L30.1,194z M36.9,175.7c-0.3,0.6-0.6,1.1-0.9,1.6l-1.8-1.2
	c0.3-0.3,0.5-0.7,0.7-1.1c0.2-0.5,0.3-1,0.2-1.5c-0.1-0.5-0.4-1-0.9-1.6l-1.1-1.4l-13.3,1.2l1.1-2.5l10.6-0.8l-6.4-8.4l1.1-2.4
	l9.4,12.5c0.8,1.1,1.4,2.1,1.6,2.9C37.4,173.8,37.3,174.7,36.9,175.7L36.9,175.7z M46.7,154.7l-6.1-3.1c-0.3,1.3-0.7,2.5-1.3,3.7
	c-0.9,1.7-1.8,2.7-2.9,3.2c-1.1,0.5-2.3,0.3-3.8-0.4l-5.3-2.7l1.1-2.1l4.9,2.5c1.8,0.9,3.2,0.4,4.3-1.7c0.7-1.4,1.1-2.6,1.2-3.5
	l-7.2-3.7l1.1-2.1l15.1,7.8L46.7,154.7L46.7,154.7z M48.9,150.7l-11.1-14.8l1.1-1.9l18.4,2.1l-1.3,2.3l-4.5-0.6l-4,7l2.8,3.6
	L48.9,150.7L48.9,150.7z M46,143.1l3.2-5.5l-8.5-1.2L46,143.1L46,143.1z M58.4,134.3l-13.9-9.8l6.3-8.9l1.7,1.2l-4.9,6.9l4.1,2.9
	l4.6-6.5l1.7,1.2l-4.6,6.5l4.6,3.3l5.1-7.2l1.7,1.2L58.4,134.3L58.4,134.3z M68.9,119.7l-11.7-9.2l-3.4,4.3l-1.6-1.3l8.2-10.4
	l1.6,1.3l-3.4,4.3l11.7,9.2L68.9,119.7L68.9,119.7z M75.1,111.7l-12.8-11.2l7.2-8.2l1.6,1.4l-5.6,6.4l3.8,3.3l5.3-6l1.5,1.3l-5.3,6
	l4.3,3.7l5.8-6.7l1.6,1.4L75.1,111.7L75.1,111.7z M88.6,96.3L76.8,84l1.7-1.6l9.3,9.7l0,0l-3.1-15.7l1.9-1.8l11.8,12.3l-1.7,1.6
	l-9.3-9.7l0,0l3.1,15.7L88.6,96.3L88.6,96.3z M101.4,84L90.3,71.2l1.8-1.6l4.6,5.4l6.5-5.6L98.6,64l1.8-1.6l11.1,12.9l-1.8,1.6
	l-5.1-5.9l-6.5,5.6l5.1,5.9L101.4,84L101.4,84z M121.4,68.2c-2.1,1.5-4.4,2-6.7,1.7c-2.4-0.4-4.3-1.7-5.8-3.8
	c-1.5-2.1-2.1-4.4-1.6-6.7c0.4-2.3,1.7-4.2,3.8-5.7c2.1-1.5,4.4-2.1,6.7-1.7c2.3,0.4,4.3,1.6,5.8,3.8c1.5,2.1,2,4.4,1.6,6.7
	S123.5,66.7,121.4,68.2L121.4,68.2z M120.2,66.4c1.6-1.1,2.5-2.6,2.7-4.3c0.2-1.7-0.2-3.4-1.4-5c-1.1-1.6-2.5-2.5-4.2-2.9
	c-1.7-0.4-3.4,0-5,1.1c-1.6,1.1-2.4,2.5-2.6,4.3c-0.2,1.8,0.2,3.4,1.3,5c1.1,1.6,2.5,2.6,4.3,2.9C117,67.9,118.6,67.5,120.2,66.4
	L120.2,66.4z M131.2,60.7L122,46.5l9.2-5.9l1.1,1.8l-7.2,4.6l2.8,4.3l6.7-4.3l1.1,1.7l-6.7,4.3l3.1,4.8l7.5-4.8l1.1,1.8L131.2,60.7
	L131.2,60.7z M148.5,49.9l-7.8-15.1l2.1-1.1l3.5,6.6l0,0l3.3-10.1l2.9-1.5l-3.7,10.7l12,4.1l-3,1.6L146.6,41l0,0l4,7.8L148.5,49.9
	L148.5,49.9z M160.8,43.4l-0.3-18.5l2-0.9l13.6,12.5l-2.4,1.1l-3.3-3.1l-7.3,3.3l0.2,4.5L160.8,43.4L160.8,43.4z M162.9,35.6
	l5.8-2.6l-6.2-6L162.9,35.6L162.9,35.6z M185.5,32.8l-2.5-6.4c-1,0.8-2.2,1.4-3.4,1.9c-1.8,0.7-3.2,0.9-4.3,0.5
	c-1.1-0.4-2-1.3-2.6-2.8l-2.2-5.6l2.2-0.9l2.1,5.2c0.8,1.9,2.2,2.4,4.3,1.6c1.5-0.6,2.5-1.2,3.2-1.8l-3-7.5l2.2-0.9l6.3,15.8
	L185.5,32.8L185.5,32.8z M191.7,30.7l-5.3-16.1l10.3-3.4l0.7,2l-8.1,2.7l1.6,4.8l7.6-2.5l0.6,1.9l-7.6,2.5l1.8,5.4l8.4-2.8l0.7,2
	L191.7,30.7L191.7,30.7z M213.4,24.8c-2.5,0.6-4.8,0.3-6.8-1c-2-1.3-3.3-3.2-3.9-5.7c-0.6-2.6-0.2-4.8,1.1-6.8
	c1.3-2,3.2-3.3,5.8-3.9c1.2-0.3,2.4-0.3,3.6-0.1c1.2,0.2,2.2,0.6,3,1.3l-1.5,1.8c-0.5-0.5-1.2-0.8-2.1-1c-0.8-0.2-1.7-0.2-2.5,0
	c-1.9,0.4-3.2,1.4-4.1,3c-0.9,1.5-1.1,3.3-0.7,5.1c0.4,1.9,1.4,3.4,2.8,4.4c1.4,1,3.1,1.3,5,0.9c1.9-0.4,3.3-1.5,3.9-3.2l2.1,0.8
	C218,22.7,216.1,24.2,213.4,24.8L213.4,24.8z M225.5,21.7L222.9,7L217.5,8l-0.4-2.1l13.1-2.3l0.4,2.1l-5.4,0.9l2.6,14.7L225.5,21.7
	L225.5,21.7z M235.4,20l-2.2-16.8l5.8-0.8c1.5-0.2,2.7,0,3.9,0.5c1.1,0.5,1.8,1.6,2,3c0.1,0.9,0,1.7-0.5,2.4c-0.4,0.7-1.1,1.3-2,1.6
	l0,0c1.1,0,2.1,0.3,2.9,0.9c0.8,0.6,1.3,1.5,1.4,2.7c0.2,1.6-0.2,2.8-1.3,3.8c-1.1,1-2.5,1.6-4.4,1.8L235.4,20L235.4,20z
	 M237.5,17.7l3-0.4c0.7-0.1,1.4-0.3,2-0.5c0.6-0.2,1-0.6,1.4-1.1c0.4-0.5,0.5-1.1,0.4-1.8c-0.2-1.9-1.7-2.7-4.3-2.3l-3.2,0.4
	L237.5,17.7L237.5,17.7z M236.5,9.9l3.1-0.4c1-0.1,1.7-0.4,2.3-1c0.6-0.5,0.8-1.2,0.7-2.1c-0.2-1.7-1.6-2.4-4-2l-2.7,0.4L236.5,9.9
	L236.5,9.9z M258.8,17.9c-2.6,0.2-4.8-0.5-6.6-2c-1.8-1.5-2.8-3.6-3-6.2c-0.2-2.6,0.5-4.8,2-6.6c1.6-1.8,3.6-2.8,6.2-3
	c2.6-0.2,4.8,0.5,6.6,2c1.8,1.5,2.8,3.6,3,6.2c0.2,2.6-0.5,4.8-2.1,6.6C263.5,16.7,261.4,17.7,258.8,17.9L258.8,17.9z M258.6,15.8
	c1.9-0.1,3.4-0.9,4.5-2.3c1.1-1.4,1.5-3.1,1.4-5c-0.1-1.9-0.9-3.5-2.1-4.7c-1.3-1.2-2.9-1.8-4.8-1.6c-1.9,0.1-3.4,0.9-4.5,2.3
	c-1.1,1.4-1.5,3.1-1.4,5c0.1,1.9,0.9,3.5,2.1,4.7C255.2,15.4,256.7,15.9,258.6,15.8L258.6,15.8z M277,17l0.4-17l3.7,0.1l4.8,13.2
	l0,0l5.3-12.9l3.7,0.1l-0.4,17l-2.4-0.1l0.3-14.2l0,0l-5.9,14.1l-1.5,0l-5.3-14.3l0,0L279.3,17L277,17L277,17z M298.7,17.9L300.9,1
	l2.4,0.3l-0.9,7l2.7,0.4c1.9,0.2,3.3,0.9,4.4,1.8c1,1,1.4,2.3,1.2,3.9c-0.2,1.6-0.9,2.8-2.2,3.5c-1.2,0.7-2.8,0.9-4.6,0.7
	L298.7,17.9L298.7,17.9z M301.3,16.2l2.5,0.3c2.7,0.4,4.1-0.4,4.4-2.4c0.1-1-0.1-1.7-0.8-2.3c-0.6-0.6-1.6-1-2.9-1.1l-2.5-0.3
	L301.3,16.2L301.3,16.2z M312.4,19.7l2.2-16.8l2.4,0.3L314.8,20L312.4,19.7L312.4,19.7z M318.9,20.3l3.8-16.6l2.3,0.5l-3.3,14.5
	l6.9,1.6L332,5.8l2.3,0.5l-3.3,14.5l6.9,1.6l3.3-14.5l2.3,0.5L339.7,25L318.9,20.3L318.9,20.3z M343.6,26.3
	c-0.7-0.2-1.3-0.4-1.7-0.7l0.9-1.9c0.3,0.2,0.6,0.3,0.9,0.4c0.8,0.2,1.6,0.1,2.3-0.4c0.7-0.5,1.4-1.5,2.1-2.9c0.7-1.4,1.4-3.4,2.1-6
	l1.2-4.1l10.5,3l-4.7,16.3l-2.3-0.7l4.1-14.3l-6-1.7l-0.8,2.7c-1.2,4.1-2.4,7-3.8,8.6C347.2,26.3,345.5,26.9,343.6,26.3L343.6,26.3z
	 M361.1,31.5l6.2-15.8l10.1,4l-0.8,1.9l-7.9-3.1l-1.9,4.7l7.5,2.9l-0.7,1.9l-7.5-2.9l-2.1,5.3l8.3,3.2l-0.8,2L361.1,31.5L361.1,31.5
	z M374.6,36.7l7-15.5l2.2,1l-2.9,6.5l7.8,3.6l2.9-6.5l2.2,1l-7,15.5l-2.2-1l3.2-7.1l-7.8-3.6l-3.2,7.1L374.6,36.7L374.6,36.7z
	 M390.4,44.2l7.8-15.1l2.1,1.1l-6.2,12l0,0l13.8-8l2.3,1.2l-7.8,15.1l-2.1-1.1l6.2-12l0,0l-13.8,8L390.4,44.2L390.4,44.2z
	 M404.9,51.8l7.8-3.7c-0.9-0.9-1.4-1.9-1.6-3c-0.2-1,0.1-2.1,0.8-3.2c0.9-1.4,2-2.1,3.4-2.2c1.4-0.1,2.9,0.4,4.5,1.4l4.4,2.8
	L415,58.2l-2-1.3l3.8-6l-2.2-1.4l-7.3,3.7L404.9,51.8L404.9,51.8z M415.7,47.9l2.1,1.4l3.2-5l-2.2-1.4c-2.3-1.5-3.9-1.4-5,0.3
	c-0.5,0.8-0.6,1.6-0.3,2.5C413.9,46.5,414.7,47.2,415.7,47.9L415.7,47.9z M422.3,59.5l-4.9,4l-1.6-1l4.6-4.2L422.3,59.5L422.3,59.5z
	 M426.5,65.8l16.3-8.8l1.7,1.3l-4.8,17.9l-2.1-1.7l1.2-4.4l-6.3-5l-3.9,2.2L426.5,65.8L426.5,65.8z M434.4,64.1l5,3.9l2.4-8.2
	L434.4,64.1L434.4,64.1z M449,85c-1.9-1.8-2.7-3.7-2.6-5.9l2.3,0.1c-0.2,1.6,0.3,3.1,1.6,4.3c0.8,0.8,1.7,1.2,2.6,1.3
	c0.9,0.1,1.7-0.3,2.4-1c1.4-1.4,1-3.2-1.1-5.2l-0.8-0.8l1.4-1.5l0.8,0.8c1.9,1.8,3.5,1.9,4.8,0.5c0.6-0.6,0.8-1.3,0.7-2
	c-0.1-0.8-0.5-1.5-1.2-2.2c-1.2-1.1-2.4-1.5-3.8-1.3L456,70c1.8-0.3,3.6,0.4,5.3,2c1.2,1.2,1.9,2.4,2.1,3.7c0.2,1.3-0.2,2.4-1.2,3.5
	c-0.7,0.7-1.4,1.1-2.3,1.2c-0.9,0.1-1.7,0-2.5-0.5l0,0c0.6,0.9,0.9,1.8,0.9,2.8s-0.4,1.9-1.1,2.7c-1.1,1.1-2.4,1.6-3.9,1.5
	C451.6,86.8,450.3,86.1,449,85L449,85z M456.3,91.1l12.3-11.8l1.6,1.7l-5.1,4.9l6,6.2l5.1-4.9l1.6,1.7l-12.3,11.8l-1.6-1.7l5.6-5.4
	l-6-6.2l-5.6,5.4L456.3,91.1L456.3,91.1z M467,102.4l17.7-5.5l1.4,1.6l-8.1,16.6l-1.8-2l2-4L473,103l-4.3,1.4L467,102.4L467,102.4z
	 M475.1,102.2l4.2,4.8l4-7.6L475.1,102.2L475.1,102.2z M483.9,123.4l5.6-4c-1-0.8-1.9-1.8-2.7-2.9c-1.1-1.5-1.6-2.9-1.5-4.1
	c0.1-1.2,0.8-2.2,2.1-3.2l4.9-3.5l1.4,1.9l-4.5,3.2c-1.7,1.2-1.8,2.7-0.5,4.6c0.9,1.3,1.8,2.2,2.5,2.7l6.6-4.7l1.4,1.9l-13.9,9.8
	L483.9,123.4L483.9,123.4z M487.7,128.6l14.3-9.2l1.3,2l-11.3,7.3l0,0l16-0.1l1.4,2.2l-14.3,9.2l-1.3-2l11.3-7.3l0,0l-16,0.1
	L487.7,128.6L487.7,128.6z M499,146.7l12.9-7.4l-2.7-4.7l1.8-1l6.6,11.5l-1.8,1l-2.7-4.7l-12.9,7.4L499,146.7L499,146.7z M506.7,155
	l-6.2,1l-0.9-1.7l6.1-1.3L506.7,155L506.7,155z M508.3,164.1l15.5-7l1,2.2l-12.3,5.5l0,0l15.8,2.3l1.1,2.4l-15.5,7l-1-2.2l12.3-5.5
	l0,0l-15.8-2.3L508.3,164.1L508.3,164.1z M516.9,184l11.4,4.9l4.9-9.8l1,3l-4.8,9.2l0,0l7.1-2.4l0.7,2.3l-7.1,2.4l0,0l9.4,4.5l1,3
	l-9.8-4.9l-6.2,10.7l-1-3.1l5.9-9.9l0,0l-8.3,2.7l-0.7-2.3l8.3-2.7l0,0l-10.7-4.4L516.9,184L516.9,184z M524.7,208.8l16.6-3.8
	l0.5,2.3l-13.1,3l0,0l15,5.3l0.6,2.5l-16.6,3.8l-0.5-2.3l13.1-3l0,0l-15-5.3L524.7,208.8L524.7,208.8z M528.9,230.8
	c-0.4-2.5,0-4.6,1.4-6.3l1.8,1.5c-1.2,1.2-1.6,2.6-1.3,4.4c0.2,1.1,0.6,1.9,1.3,2.5c0.7,0.6,1.5,0.8,2.5,0.7c2-0.3,2.7-1.9,2.2-4.8
	l-0.2-1.1l2-0.3l0.2,1.1c0.4,2.5,1.6,3.6,3.5,3.3c0.8-0.1,1.4-0.5,1.8-1.2c0.4-0.7,0.5-1.5,0.3-2.5c-0.3-1.6-1-2.7-2.3-3.3l1.2-1.8
	c1.6,0.9,2.7,2.5,3.1,4.8c0.3,1.7,0.1,3.1-0.5,4.2c-0.6,1.1-1.6,1.8-3.1,2.1c-1,0.2-1.8,0-2.6-0.4c-0.8-0.4-1.4-1.1-1.7-1.9l0,0
	c0,1.1-0.4,2-1,2.8c-0.6,0.8-1.4,1.3-2.5,1.5c-1.6,0.3-2.9-0.1-4-1.1C529.9,233.8,529.2,232.5,528.9,230.8L528.9,230.8z
	 M530.8,240.1l16.8-2.2l0.3,2.4l-7,0.9l1.1,8.5l7-0.9l0.3,2.4l-16.8,2.2l-0.3-2.4l7.7-1l-1.1-8.5l-7.7,1L530.8,240.1L530.8,240.1z
	 M532.8,257.5l17-0.4l0.1,2.4l-13.5,0.3l0,0l13.6,8.3l0.1,2.6l-17,0.4l-0.1-2.4l13.5-0.3l0,0l-13.6-8.3L532.8,257.5L532.8,257.5z"/>
<path class="st0" d="M29.5,400.3l15.1-7.7l1.1,2.1l-12,6.1l0,0l15.9,1.5l1.2,2.3l-15.1,7.7l-1.1-2.1l12-6.1l0,0l-15.9-1.5
	L29.5,400.3L29.5,400.3z M46.7,430.3c-0.8-1.2-1.4-2.4-1.6-3.6c-0.2-1.2-0.1-2.4,0.3-3.4l2.1,0.7c-0.6,1.7-0.3,3.5,0.9,5.1
	c1,1.5,2.4,2.3,4,2.6c1.6,0.3,3.2-0.1,4.6-1l-4.6-6.5l1.7-1.2l4.6,6.4c1.2-1.1,1.8-2.4,2-4c0.2-1.5-0.2-3-1.2-4.4
	c-0.6-0.8-1.2-1.4-2-1.8c-0.8-0.4-1.5-0.6-2.2-0.6l0.2-2.3c1,0,2,0.4,3,1c1,0.6,1.9,1.5,2.7,2.5c1.5,2.1,2,4.3,1.6,6.7
	c-0.4,2.4-1.6,4.3-3.7,5.8c-2.1,1.5-4.3,2.1-6.7,1.7C50.1,433.6,48.2,432.4,46.7,430.3L46.7,430.3z M55.9,442.2l11.7-9.2l-3.4-4.3
	l1.6-1.3l8.2,10.4l-1.6,1.3l-3.4-4.3l-11.7,9.2L55.9,442.2L55.9,442.2z M66.6,456c-1.7-2-2.5-4.1-2.3-6.5c0.2-2.4,1.2-4.4,3.2-6.1
	c2-1.7,4.2-2.5,6.5-2.3c2.4,0.2,4.4,1.3,6.1,3.2c1.7,2,2.5,4.1,2.4,6.5c-0.1,2.4-1.2,4.4-3.2,6.1c-2,1.7-4.1,2.5-6.5,2.3
	C70.4,459.1,68.3,458,66.6,456L66.6,456z M68.2,454.6c1.3,1.5,2.8,2.2,4.5,2.3c1.8,0,3.4-0.6,4.8-1.8c1.5-1.3,2.3-2.8,2.5-4.5
	c0.2-1.8-0.3-3.4-1.6-4.8c-1.2-1.4-2.8-2.2-4.5-2.2c-1.8,0-3.4,0.6-4.8,1.8c-1.5,1.3-2.3,2.8-2.5,4.5
	C66.5,451.6,67,453.2,68.2,454.6L68.2,454.6z M83.6,473.3L95.4,461l1.7,1.6l-5.2,5.4l0,0l10.7-0.2l2.4,2.3l-11.3-0.1l0,12.7
	l-2.5-2.4l0.3-11.9l0,0l-6.1,6.4L83.6,473.3L83.6,473.3z M93.6,483l16.3-8.8l1.7,1.3l-4.8,17.9l-2.1-1.7l1.2-4.4l-6.3-5l-3.9,2.2
	L93.6,483L93.6,483z M101.6,481.3l5,3.9l2.4-8.2L101.6,481.3L101.6,481.3z M115,499.4l4-5.6c-1.2-0.4-2.4-1-3.5-1.8
	c-1.5-1.1-2.5-2.2-2.8-3.4c-0.3-1.1,0-2.4,0.9-3.7l3.5-4.9l1.9,1.4l-3.2,4.5c-1.2,1.7-0.8,3.1,1,4.5c1.3,0.9,2.4,1.5,3.2,1.7
	l4.7-6.6l1.9,1.4l-9.8,13.8L115,499.4L115,499.4z M120.3,503.2l9.2-14.3l9.2,5.9l-1.1,1.8l-7.2-4.6l-2.7,4.3l6.7,4.3l-1.1,1.7
	l-6.7-4.3l-3.1,4.8l7.5,4.8l-1.1,1.8L120.3,503.2L120.3,503.2z M139.2,515.4c-2.3-1.3-3.7-3.1-4.3-5.4c-0.6-2.3-0.3-4.6,1-6.8
	c1.3-2.3,3.1-3.7,5.4-4.3c2.3-0.6,4.6-0.2,6.9,1.1c1.1,0.6,2,1.4,2.7,2.3c0.7,1,1.2,2,1.3,3l-2.3,0.3c-0.1-0.7-0.3-1.4-0.8-2.1
	c-0.5-0.7-1.1-1.3-1.8-1.7c-1.7-1-3.3-1.2-5-0.6c-1.7,0.5-3,1.6-4,3.3c-1,1.7-1.3,3.4-0.9,5.1c0.4,1.7,1.4,3,3,4
	c1.7,1,3.4,1.1,5.1,0.3l1,2.1C144,517,141.6,516.8,139.2,515.4L139.2,515.4z M150.4,520.9l6.8-13.3l-4.8-2.5l1-1.9l11.8,6.1l-1,1.9
	l-4.8-2.5l-6.8,13.3L150.4,520.9L150.4,520.9z M159.5,525.3l7-15.5l5.3,2.4c1.3,0.6,2.3,1.4,3,2.5c0.7,1.1,0.7,2.3,0.1,3.6
	c-0.4,0.8-0.9,1.4-1.7,1.8c-0.8,0.4-1.6,0.5-2.5,0.3l0,0c1,0.6,1.6,1.3,1.9,2.3c0.3,1,0.3,2-0.2,3c-0.6,1.4-1.7,2.3-3.1,2.5
	c-1.4,0.3-3,0-4.7-0.8L159.5,525.3L159.5,525.3z M162.5,524.5l2.7,1.2c0.7,0.3,1.3,0.5,1.9,0.6c0.6,0.1,1.2,0,1.8-0.2
	c0.6-0.2,1-0.7,1.3-1.3c0.8-1.7,0-3.2-2.5-4.3l-2.9-1.3L162.5,524.5L162.5,524.5z M165.7,517.4l2.8,1.3c0.9,0.4,1.7,0.5,2.5,0.4
	c0.7-0.1,1.3-0.6,1.7-1.4c0.7-1.5-0.1-2.8-2.3-3.9l-2.5-1.1L165.7,517.4L165.7,517.4z M181.1,534.7c-2.5-0.8-4.2-2.3-5.3-4.4
	c-1.1-2.1-1.2-4.4-0.3-6.9c0.8-2.5,2.3-4.2,4.5-5.3c2.1-1,4.4-1.1,6.9-0.3c2.5,0.8,4.2,2.3,5.3,4.4c1.1,2.1,1.2,4.4,0.4,6.9
	c-0.8,2.5-2.3,4.2-4.5,5.3C185.8,535.5,183.5,535.6,181.1,534.7L181.1,534.7z M181.8,532.7c1.8,0.6,3.5,0.5,5.1-0.4
	c1.5-0.9,2.6-2.2,3.2-4c0.6-1.8,0.6-3.5-0.1-5.2c-0.7-1.6-2-2.7-3.8-3.4c-1.8-0.6-3.5-0.5-5,0.4c-1.5,0.9-2.6,2.2-3.2,4
	c-0.6,1.8-0.6,3.6,0.1,5.2C178.7,531,179.9,532.1,181.8,532.7L181.8,532.7z M212.1,543.9c-2.5-0.6-4.4-1.9-5.7-3.9s-1.6-4.3-1-6.8
	c0.6-2.6,1.9-4.5,3.9-5.7c2-1.2,4.3-1.6,6.8-1c2.5,0.6,4.5,1.9,5.7,3.9c1.3,2,1.6,4.3,1,6.8c-0.6,2.5-1.9,4.4-3.9,5.7
	C217,544.1,214.7,544.5,212.1,543.9L212.1,543.9z M212.6,541.8c1.9,0.4,3.6,0.2,5-0.9c1.4-1,2.4-2.4,2.8-4.3
	c0.4-1.9,0.2-3.6-0.6-5.1c-0.9-1.5-2.2-2.5-4.1-3c-1.9-0.4-3.5-0.1-5,0.9c-1.4,1-2.4,2.5-2.8,4.3c-0.4,1.9-0.2,3.6,0.6,5.1
	C209.4,540.4,210.8,541.4,212.6,541.8L212.6,541.8z M232.1,547.8c-2.6-0.5-4.5-1.7-5.9-3.6c-1.4-1.9-1.8-4.2-1.4-6.8
	c0.5-2.6,1.7-4.5,3.7-5.9c2-1.3,4.2-1.8,6.8-1.3c1.2,0.2,2.3,0.6,3.3,1.3c1,0.7,1.8,1.4,2.2,2.4l-2.1,1.1c-0.3-0.7-0.8-1.2-1.5-1.7
	c-0.7-0.5-1.5-0.8-2.3-1c-1.9-0.3-3.5,0-4.9,1.1c-1.4,1.1-2.3,2.6-2.6,4.5c-0.3,1.9-0.1,3.6,0.9,5.1c0.9,1.5,2.3,2.4,4.2,2.7
	c2,0.4,3.6-0.1,4.9-1.4l1.6,1.6C237.2,547.7,234.9,548.3,232.1,547.8L232.1,547.8z M244.6,549l1.9-14.8l-5.4-0.7l0.3-2.1l13.2,1.7
	l-0.3,2.1l-5.4-0.7l-1.9,14.8L244.6,549L244.6,549z M251.2,549.6l8.6-16.4l2.2,0.2l6,17.5l-2.7-0.2l-1.4-4.3l-8-0.6l-2,4
	L251.2,549.6L251.2,549.6z M256.9,543.8l6.3,0.5l-2.6-8.2L256.9,543.8L256.9,543.8z M270.2,550.9l-0.4-17l10.9-0.3l0.1,2.1l-8.5,0.2
	l0.1,5.1l8-0.2l0.1,2l-8,0.2l0.1,5.7l8.9-0.2l0.1,2.1L270.2,550.9L270.2,550.9z M271.4,530.5c0-0.4,0.1-0.7,0.4-1
	c0.3-0.3,0.6-0.4,1-0.5c0.4,0,0.8,0.1,1.1,0.4c0.3,0.3,0.4,0.6,0.5,1c0,0.4-0.1,0.7-0.4,1c-0.3,0.3-0.6,0.4-1,0.4
	c-0.4,0-0.8-0.1-1.1-0.4C271.6,531.3,271.4,530.9,271.4,530.5L271.4,530.5z M276.1,530.4c0-0.4,0.1-0.7,0.4-1c0.3-0.3,0.6-0.4,1-0.5
	c0.4,0,0.8,0.1,1.1,0.4c0.3,0.3,0.4,0.6,0.5,1c0,0.4-0.1,0.7-0.4,1c-0.3,0.3-0.6,0.4-1,0.4c-0.4,0-0.8-0.1-1.1-0.4
	C276.3,531.1,276.1,530.8,276.1,530.4L276.1,530.4z M288.2,550.4l-0.4-14.9l-5.4,0.1l-0.1-2.1l13.3-0.3l0.1,2.1l-5.4,0.1l0.4,14.9
	L288.2,550.4L288.2,550.4z M305.7,549.4c-2.6,0.3-4.8-0.2-6.7-1.7c-1.9-1.5-3-3.5-3.3-6.1c-0.3-2.6,0.2-4.8,1.7-6.7
	c1.5-1.9,3.5-3,6.1-3.3c1.2-0.2,2.4-0.1,3.6,0.2c1.2,0.3,2.1,0.9,2.8,1.6l-1.7,1.7c-0.5-0.5-1.1-0.9-1.9-1.2
	c-0.8-0.3-1.6-0.3-2.5-0.2c-1.9,0.2-3.4,1.1-4.4,2.5c-1,1.5-1.4,3.1-1.2,5c0.2,1.9,1,3.5,2.4,4.6c1.3,1.1,2.9,1.6,4.8,1.4
	c2-0.3,3.4-1.2,4.2-2.8l2,1C310.5,547.8,308.4,549.1,305.7,549.4L305.7,549.4z M313.1,548.3l3.2-8c-1.3-0.1-2.4-0.4-3.2-1.1
	c-0.8-0.7-1.3-1.6-1.6-2.9c-0.3-1.6,0-2.9,1-3.9c0.9-1,2.4-1.7,4.3-2l5.1-0.9l3,16.7l-2.3,0.4l-1.2-7l-2.5,0.5l-2.9,7.7L313.1,548.3
	L313.1,548.3z M318.5,538.1l2.5-0.4l-1-5.8l-2.6,0.5c-2.7,0.5-3.8,1.7-3.5,3.6c0.2,1,0.7,1.6,1.5,2
	C316.2,538.3,317.2,538.3,318.5,538.1L318.5,538.1z M348.6,541.2c-2.5,0.7-4.8,0.5-6.9-0.7c-2.1-1.2-3.5-3-4.2-5.5
	c-0.7-2.5-0.5-4.8,0.7-6.9c1.2-2.1,3-3.4,5.6-4.2c1.2-0.3,2.4-0.4,3.6-0.3c1.2,0.1,2.2,0.5,3,1.2l-1.4,1.9c-0.6-0.5-1.3-0.8-2.1-0.9
	c-0.8-0.1-1.7-0.1-2.5,0.1c-1.8,0.5-3.2,1.6-4,3.2c-0.8,1.6-0.9,3.3-0.4,5.2c0.5,1.9,1.5,3.3,3,4.2c1.5,0.9,3.1,1.1,5,0.6
	c1.9-0.5,3.2-1.7,3.8-3.4l2.2,0.7C353.1,538.8,351.3,540.4,348.6,541.2L348.6,541.2z M368.5,534.5l-6.2-15.8l5.4-2.1
	c1.4-0.5,2.7-0.7,3.9-0.4c1.2,0.3,2.1,1.1,2.6,2.5c0.3,0.8,0.4,1.7,0.1,2.5c-0.3,0.8-0.8,1.5-1.5,2l0,0c1.1-0.3,2.1-0.2,3,0.2
	c0.9,0.4,1.6,1.2,2,2.3c0.6,1.5,0.5,2.8-0.3,4c-0.8,1.2-2.1,2.1-3.8,2.8L368.5,534.5L368.5,534.5z M369.9,531.8l2.8-1.1
	c0.7-0.3,1.3-0.6,1.8-1c0.5-0.4,0.9-0.8,1.1-1.4c0.2-0.6,0.2-1.2,0-1.9c-0.7-1.8-2.3-2.2-4.8-1.2l-3,1.2L369.9,531.8L369.9,531.8z
	 M367.1,524.5l2.9-1.1c0.9-0.4,1.6-0.9,2-1.5c0.4-0.6,0.5-1.4,0.1-2.2c-0.6-1.6-2.1-1.9-4.4-1l-2.5,1L367.1,524.5L367.1,524.5z
	 M381,529.7l-0.3-18.5l2-0.9l13.6,12.5l-2.4,1.1l-3.3-3.1l-7.3,3.3l0.2,4.5L381,529.7L381,529.7z M383.2,521.8l5.8-2.6l-6.2-6
	L383.2,521.8L383.2,521.8z M398.3,521.7l-7.7-15.1l3.3-1.7l10.5,9.3l0,0l-1.5-13.9l3.3-1.7l7.7,15.1l-2.1,1.1l-6.5-12.6l0,0
	l1.5,15.2l-1.3,0.7l-11.5-10.1l0,0l6.5,12.6L398.3,521.7L398.3,521.7z M417.3,511.3l-9.2-14.3l2-1.3l7.3,11.3l0,0l-0.1-16l2.2-1.4
	l9.2,14.3l-2,1.3l-7.3-11.3l0,0l0.1,16L417.3,511.3L417.3,511.3z M441.8,494.5l-10.5-13.4l1.9-1.5l4.4,5.6l6.8-5.3l-4.4-5.6l1.9-1.5
	l10.5,13.4l-1.9,1.5l-4.8-6.1l-6.8,5.3l4.8,6.1L441.8,494.5L441.8,494.5z M453.9,484.7l-5.6-17.7l1.6-1.4l16.6,8.1l-2,1.8l-4-2
	l-6.1,5.3l1.4,4.3L453.9,484.7L453.9,484.7z M453.7,476.6l4.8-4.2l-7.6-3.9L453.7,476.6L453.7,476.6z M468,472l-12.3-11.7l4-4.2
	c1-1.1,2.1-1.7,3.3-2c1.2-0.3,2.4,0.1,3.4,1.1c0.7,0.6,1,1.4,1.1,2.2c0.1,0.8-0.1,1.7-0.5,2.5l0,0c0.9-0.7,1.8-1.1,2.8-1.1
	c1,0,1.9,0.4,2.8,1.2c1.1,1.1,1.6,2.3,1.4,3.8c-0.2,1.4-1,2.8-2.3,4.2L468,472L468,472z M468.2,468.9l2.1-2.2
	c0.5-0.5,0.9-1.1,1.2-1.6c0.3-0.5,0.4-1.1,0.4-1.8c0-0.6-0.3-1.2-0.8-1.7c-1.4-1.3-3-1-4.8,0.9l-2.2,2.3L468.2,468.9L468.2,468.9z
	 M462.6,463.5l2.1-2.2c0.7-0.7,1.1-1.4,1.2-2.2c0.1-0.8-0.2-1.4-0.8-2c-1.2-1.2-2.7-0.9-4.4,0.9l-1.9,2L462.6,463.5L462.6,463.5z
	 M484.3,455.1c-1.7,2-3.7,3-6.1,3.2c-2.4,0.2-4.5-0.6-6.5-2.3c-2-1.7-3-3.8-3.2-6.1c-0.1-2.4,0.7-4.6,2.4-6.5
	c0.8-0.9,1.7-1.7,2.8-2.2c1.1-0.5,2.1-0.8,3.2-0.7l-0.1,2.4c-0.7-0.1-1.5,0.1-2.3,0.4c-0.8,0.3-1.5,0.8-2,1.5
	c-1.3,1.5-1.8,3.1-1.6,4.8c0.2,1.8,1,3.3,2.5,4.5c1.5,1.3,3.1,1.9,4.8,1.9c1.8,0,3.3-0.8,4.5-2.2c1.3-1.5,1.7-3.2,1.3-4.9l2.2-0.6
	C486.8,450.6,486.2,452.9,484.3,455.1L484.3,455.1z M489.7,448l-13.4-10.5l6.7-8.6l1.6,1.3l-5.3,6.7l4,3.1l5-6.3l1.6,1.3l-5,6.3
	l4.5,3.5l5.5-7l1.7,1.3L489.7,448L489.7,448z M498.4,436.5l-13.8-9.8l5.7-8.1l1.7,1.2l-4.4,6.1l12.1,8.6L498.4,436.5L498.4,436.5z
	 M507.3,430.9l-5.2-3.3l0.8-1.2c-0.7-2.6-3.1-5.3-7.2-8l-3.8-2.4l6-9.4l12.5,8l1-1.6l5.2,3.3l-1.2,1.8l-3.4-2.2l-7,10.9l3.4,2.2
	L507.3,430.9L507.3,430.9z M504.4,424.1l4.7-7.4l-10.8-6.9l-3.5,5.5l2.2,1.4C501,419.1,503.5,421.6,504.4,424.1L504.4,424.1z
	 M513.8,413.5l-11.8-14.3l1-1.9l18.4,1.3l-1.2,2.4l-4.5-0.4l-3.7,7.2l2.9,3.4L513.8,413.5L513.8,413.5z M510.6,406.1l2.9-5.7
	l-8.5-0.8L510.6,406.1L510.6,406.1z"/>
</svg>
