<svg id="Layer_1" data-name="Layer 1" xmlns="http://www.w3.org/2000/svg" viewBox="0 0 202.05 85.9"><defs><style>.cls-1,.cls-2{fill:#fff;}.cls-2{stroke:#ede5e5;stroke-miterlimit:10;stroke-width:0.75px;}</style></defs><path class="cls-1" d="M165.3,0H36.8A4.78,4.78,0,0,0,33,1.8L1.1,39.8a5,5,0,0,0,0,6.3L33,84.1a4.94,4.94,0,0,0,3.8,1.8H165.2a4.78,4.78,0,0,0,3.8-1.8l31.9-38a5,5,0,0,0,0-6.3L169,1.8A4.59,4.59,0,0,0,165.3,0Z" transform="translate(0.02)"/><path class="cls-1" d="M165.3,0H36.8A4.78,4.78,0,0,0,33,1.8L1.1,39.8a5,5,0,0,0,0,6.3L33,84.1a4.94,4.94,0,0,0,3.8,1.8H165.2a4.78,4.78,0,0,0,3.8-1.8l31.9-38a5,5,0,0,0,0-6.3L169,1.8A4.59,4.59,0,0,0,165.3,0Z" transform="translate(0.02)"/><path class="cls-2" d="M159.4,6.4H42.8a4.33,4.33,0,0,0-3.4,1.5l-29,32.4a4,4,0,0,0,0,5.4L39.3,78a4.68,4.68,0,0,0,3.4,1.5H159.2a4.33,4.33,0,0,0,3.4-1.5l28.9-32.4a4,4,0,0,0,0-5.4L162.7,7.9A4.27,4.27,0,0,0,159.4,6.4Z" transform="translate(0.02)"/></svg>