<?xml version="1.0" encoding="utf-8"?>
<!-- Generator: Adobe Illustrator 25.1.0, SVG Export Plug-In . SVG Version: 6.00 Build 0)  -->
<svg version="1.1" id="Capa_1" xmlns="http://www.w3.org/2000/svg" xmlns:xlink="http://www.w3.org/1999/xlink" x="0px" y="0px"
	 viewBox="0 0 193.2 193.2" style="enable-background:new 0 0 193.2 193.2;" xml:space="preserve">
<style type="text/css">
	.st0{fill:#B98B8C;}
</style>
<path class="st0" d="M187.9,129.5l2.8,1.8c1.1,0.7,1.4,2.1,0.9,3.2l-25.1,51.8c-0.4,0.9-1.3,1.4-2.2,1.4c-0.3,0-0.5,0-0.8-0.1
	l-15.7-5.4l-4.1,8.4c-0.3,0.6-0.9,1.1-1.6,1.3c-0.2,0.1-0.4,0.1-0.7,0.1c-0.5,0-0.9-0.1-1.4-0.4l-29.4-18.9
	c-1.1-0.7-1.4-2.1-0.9-3.2l33.5-69.1c0.6-1.1,1.9-1.7,3.1-1.3l29.3,10.1c2.5-17.4-0.8-35.6-9.6-51c-11.7-20.5-32.6-35.1-55.8-39.1
	C86.4,15,61.5,22.1,43.5,38.2c-18,16.1-28,40.2-26.5,64.3c0.1,2.2,0.4,4.5,0.7,6.7L47,99.2c1.2-0.4,2.5,0.1,3.1,1.3l33.5,69.1
	c0.6,1.1,0.2,2.5-0.9,3.2l-29.4,18.9c-0.4,0.3-0.9,0.4-1.4,0.4c-0.2,0-0.5,0-0.7-0.1c-0.7-0.2-1.3-0.7-1.6-1.3l-4.1-8.4l-15.7,5.4
	c-0.3,0.1-0.5,0.1-0.8,0.1c-0.9,0-1.8-0.5-2.2-1.4L1.7,134.5c-0.6-1.1-0.2-2.5,0.9-3.2l2.8-1.8c-2.9-8.4-4.7-17.1-5.2-26
	c-1.7-29.3,10.3-58.4,32.1-77.9c21.8-19.4,52-28.1,80.8-23.2c28.1,4.8,53.3,22.5,67.5,47.3C194.3,73.8,196.9,103.5,187.9,129.5z"/>
</svg>
