<?xml version="1.0" encoding="utf-8"?>
<!-- Generator: Adobe Illustrator 22.0.1, SVG Export Plug-In . SVG Version: 6.00 Build 0)  -->
<svg version="1.1" id="Layer_1" xmlns="http://www.w3.org/2000/svg" xmlns:xlink="http://www.w3.org/1999/xlink" x="0px" y="0px"
	 viewBox="0 0 244.4 56.9" style="enable-background:new 0 0 244.4 56.9;" xml:space="preserve">
<style type="text/css">
	.st0{fill:#FFFFFF;}
	.st1{fill-rule:evenodd;clip-rule:evenodd;fill:#FFFFFF;}
</style>
<path class="st0" d="M15.4,56.9H0L23.2,0h8.3l11.6,28.5c-5.1,0.4-8.5,1.1-13.3,2.8c-0.9-2.3-1.7-4.1-2.6-6.4
	C23.2,35.5,19.3,46.1,15.4,56.9L15.4,56.9z M48.4,41.8l6.1,15H39.1c-1.6-4.4-3.3-8.8-4.9-13.2c3.5-1.3,7.8-2,13.3-1.8H48.4
	L48.4,41.8z"/>
<path class="st1" d="M38.1,0h19.5c7.9,0,14,2.1,18.3,6.3c4.3,4.2,6.4,9.4,6.4,15.7c0,4-1,7.5-2.9,10.5c-1.9,3.1-4.7,5.4-8.2,7.1
	c1.8,1.4,4.5,4.8,8,10.2l4.5,7H68.1L65,52c-1.7-2.5-2.8-4.2-3.5-5c-0.6-0.8-1.4-1.5-2.5-2c-0.8-0.4-1.9-0.7-3.2-0.8L50.6,31l8.3-0.1
	c3.1,0,5.6-0.7,7.5-2.2c1.9-1.5,2.8-3.7,2.8-6.7c0-2.9-1-5.1-2.9-6.7c-1.9-1.6-4.4-2.4-7.4-2.4h-1.5h-6h-8L38.1,0L38.1,0z"/>
<path class="st0" d="M4.7,49.9l-4.5,7h15.5c4.3-8.4,10.4-13.2,24.8-12.8l22.1,0.1l-5.3-13.2C29.7,30.8,16.8,31,4.7,49.9L4.7,49.9z"
	/>
<path class="st0" d="M105.9,18.7l-2.5,6.1h-3.9L110.3,0h3.2l10.7,24.8h-3.9l-2.5-6.1H105.9L105.9,18.7z M111.7,4l-4.7,11.6h9.3
	L111.7,4L111.7,4z M127,8.2h3.1c0.1,1.1,0.1,2,0.1,2.7h0.1c0.4-0.9,1.1-1.7,2.1-2.3c1-0.6,2.1-0.9,3.3-0.9c2,0,3.6,0.6,4.6,1.9
	c1.1,1.3,1.6,2.9,1.6,4.9v10.3h-3.3v-9.2c0-3.4-1.3-5.1-3.8-5.1c-1.3,0-2.4,0.5-3.2,1.5c-0.8,1-1.2,2.3-1.2,4v8.8h-3.3V11.8
	C127.1,10.4,127.1,9.2,127,8.2L127,8.2z M147.4,8.2h3.1c0.1,1.1,0.1,2,0.1,2.7h0.1c0.4-0.9,1.1-1.7,2.1-2.3c1-0.6,2.1-0.9,3.3-0.9
	c2,0,3.6,0.6,4.6,1.9c1.1,1.3,1.6,2.9,1.6,4.9v10.3h-3.3v-9.2c0-3.4-1.3-5.1-3.8-5.1c-1.3,0-2.4,0.5-3.2,1.5c-0.8,1-1.2,2.3-1.2,4
	v8.8h-3.3V11.8C147.5,10.4,147.5,9.2,147.4,8.2L147.4,8.2z M178.3,14.5v-0.5c0-1.2-0.4-2.1-1.1-2.7c-0.7-0.6-1.7-0.9-3-0.9
	c-1.9,0-3.5,0.6-4.7,1.9l-1.8-2.1c1.7-1.7,4-2.5,6.8-2.5c2.3,0,4,0.6,5.2,1.8c1.2,1.2,1.8,2.8,1.8,4.7v7.3c0,1.5,0.1,2.5,0.2,3.3h-3
	c-0.2-0.8-0.3-1.6-0.3-2.4h-0.1c-1.2,1.9-3.1,2.8-5.6,2.8c-0.7,0-1.4-0.1-2.1-0.3c-0.7-0.2-1.3-0.5-1.9-0.8
	c-0.6-0.4-1.1-0.9-1.5-1.6c-0.4-0.7-0.6-1.5-0.6-2.4c0-1,0.2-1.8,0.7-2.5c0.5-0.7,1-1.3,1.7-1.6c0.7-0.4,1.6-0.7,2.7-0.9
	c1.1-0.2,2.1-0.4,3.1-0.4C175.9,14.6,177,14.5,178.3,14.5L178.3,14.5z M178.3,16.9h-0.8c-4.9,0-7.4,1.1-7.4,3.2c0,0.9,0.3,1.6,1,2
	c0.7,0.4,1.5,0.6,2.4,0.6c1.5,0,2.7-0.5,3.5-1.4c0.9-0.9,1.3-2.1,1.3-3.5V16.9L178.3,16.9z M105.8,45.4v11.1h-3.5V31.6h8
	c2.6,0,4.7,0.5,6.4,1.6c1.6,1.1,2.5,2.8,2.5,5.2c0,1.8-0.5,3.2-1.6,4.4c-1.1,1.1-2.6,1.9-4.4,2.2l6.9,11.4h-4.2l-6.3-11.1H105.8
	L105.8,45.4z M105.8,34.5v7.9h4c3.9,0,5.8-1.3,5.8-4c0-2.6-1.9-3.9-5.6-3.9H105.8L105.8,34.5z M137.6,41.8c1.7,1.6,2.6,3.7,2.6,6.3
	c0,2.5-0.9,4.7-2.6,6.3c-1.7,1.7-3.9,2.5-6.4,2.5c-2.5,0-4.7-0.8-6.4-2.5c-1.7-1.7-2.6-3.8-2.6-6.3c0-2.5,0.8-4.6,2.5-6.3
	c1.7-1.6,3.8-2.5,6.4-2.5S135.9,40.1,137.6,41.8L137.6,41.8z M135.2,52.3c1-1.2,1.5-2.6,1.5-4.3c0-1.7-0.5-3.1-1.5-4.2
	c-1-1.2-2.3-1.8-4.1-1.8c-1.7,0-3.1,0.6-4.1,1.8c-1,1.2-1.5,2.6-1.5,4.2c0,1.7,0.5,3.1,1.5,4.3c1,1.2,2.3,1.8,4.1,1.8
	C132.9,54.1,134.2,53.5,135.2,52.3L135.2,52.3z M152.8,39.8v2.7h-4.4v8.7c0,1,0.2,1.7,0.6,2.2c0.4,0.4,1,0.6,1.8,0.6
	c0.7,0,1.4-0.1,1.9-0.4l0.1,2.7c-0.8,0.3-1.8,0.5-2.8,0.5c-1.6,0-2.8-0.4-3.6-1.3c-0.8-0.9-1.2-2.2-1.2-3.9v-9H142v-2.7h3.2V35h3.3
	v4.8H152.8L152.8,39.8z M167.5,42.1l-2.3,1.9c-0.4-0.6-0.9-1.1-1.6-1.5c-0.7-0.4-1.4-0.6-2.3-0.6c-0.8,0-1.6,0.2-2.2,0.5
	c-0.6,0.4-0.9,0.9-0.9,1.6c0,0.7,0.3,1.2,0.9,1.5c0.6,0.4,1.6,0.7,2.9,1c3.7,0.8,5.6,2.5,5.6,4.9c0,1.8-0.6,3.2-1.9,4.1
	c-1.3,0.9-2.8,1.3-4.7,1.3c-1.3,0-2.6-0.3-3.8-0.8c-1.2-0.5-2.2-1.3-2.9-2.2l2.4-2c0.4,0.7,1.1,1.2,1.9,1.7c0.8,0.4,1.7,0.6,2.5,0.6
	c0.9,0,1.7-0.2,2.4-0.6c0.6-0.4,0.9-1,0.9-1.8c0-0.7-0.3-1.3-1-1.6c-0.7-0.4-1.8-0.7-3.4-1.1c-0.7-0.2-1.2-0.3-1.7-0.5
	c-0.5-0.2-1-0.5-1.5-0.8c-0.5-0.3-0.9-0.8-1.2-1.3s-0.4-1.2-0.4-1.9c0-1.7,0.6-3,1.8-3.8c1.2-0.9,2.7-1.3,4.4-1.3
	c1.2,0,2.4,0.2,3.5,0.7C166.1,40.5,166.9,41.2,167.5,42.1L167.5,42.1z M185.9,42.1l-2.4,1.9c-0.4-0.6-0.9-1-1.6-1.4
	c-0.7-0.4-1.5-0.5-2.2-0.5c-1.7,0-3,0.6-4,1.8c-1,1.2-1.5,2.6-1.5,4.2c0,1.7,0.5,3.1,1.5,4.2c1,1.2,2.3,1.8,4,1.8c1.7,0,3-0.6,4-1.8
	l2.2,2c-1.5,1.7-3.6,2.6-6.2,2.6c-2.6,0-4.7-0.8-6.4-2.4c-1.7-1.6-2.5-3.7-2.5-6.4c0-2.6,0.8-4.7,2.5-6.3c1.7-1.6,3.8-2.4,6.4-2.4
	c1.2,0,2.4,0.2,3.5,0.7C184.3,40.5,185.2,41.2,185.9,42.1L185.9,42.1z M192.5,42.3L192.5,42.3c0.5-0.8,1.2-1.5,2.1-2.1
	c1-0.6,2-0.9,3.2-0.9c2,0,3.6,0.6,4.6,1.9c1.1,1.3,1.6,2.9,1.6,4.9v10.3h-3.3v-9.2c0-3.4-1.3-5.1-3.8-5.1c-1.3,0-2.4,0.5-3.2,1.5
	c-0.8,1-1.3,2.3-1.3,4v8.8h-3.3V29.9h3.3V42.3L192.5,42.3z M213,39.8v16.6h-3.3V39.8H213L213,39.8z M213.5,33.8
	c0,0.6-0.2,1.1-0.6,1.5c-0.4,0.4-1,0.6-1.6,0.6c-0.6,0-1.1-0.2-1.5-0.6c-0.4-0.4-0.6-0.9-0.6-1.5c0-0.6,0.2-1.1,0.6-1.5
	c0.4-0.4,0.9-0.6,1.5-0.6c0.6,0,1.1,0.2,1.6,0.6C213.3,32.7,213.5,33.2,213.5,33.8L213.5,33.8z M222.1,29.9v26.5h-3.3V29.9H222.1
	L222.1,29.9z M241.1,53.8c-0.6,1-1.5,1.7-2.5,2.3c-1.1,0.5-2.2,0.8-3.5,0.8c-2.5,0-4.5-0.8-6.1-2.5c-1.5-1.7-2.3-3.8-2.3-6.3
	c0-2.5,0.8-4.6,2.3-6.2c1.6-1.7,3.6-2.5,6-2.5c1.3,0,2.4,0.3,3.5,0.8c1,0.5,1.8,1.3,2.5,2.1h0.1V29.9h3.3v26.5h-3.2L241.1,53.8
	L241.1,53.8L241.1,53.8z M231.6,43.8c-1,1.2-1.5,2.6-1.5,4.2c0,1.7,0.5,3.1,1.5,4.3c1,1.2,2.3,1.8,4.1,1.8c1.6,0,3-0.6,4-1.8
	c1.1-1.2,1.6-2.6,1.6-4.2c0-1.6-0.5-3.1-1.6-4.2c-1.1-1.2-2.4-1.8-4-1.8C233.9,42.1,232.6,42.6,231.6,43.8L231.6,43.8z"/>
</svg>
