<svg id="Слой_1" data-name="Слой 1" xmlns="http://www.w3.org/2000/svg" viewBox="0 0 59.5 59.5"><defs><style>.cls-1{fill:#b98b8c;fill-rule:evenodd;}.cls-2{fill:#fff;}</style></defs><path class="cls-1" d="M56,12.25A29.75,29.75,0,1,1,26.25,42,29.75,29.75,0,0,1,56,12.25Z" transform="translate(-26.25 -12.25)"/><path class="cls-2" d="M65.59,40,53.66,31.84a2.91,2.91,0,0,0-1.55-.57c-.91,0-1.45.71-1.45,1.91V50.82c0,1.19.54,1.91,1.43,1.91a2.85,2.85,0,0,0,1.56-.58L65.58,44a2.48,2.48,0,0,0,1.2-2A2.44,2.44,0,0,0,65.59,40Z" transform="translate(-26.25 -12.25)"/></svg>