<?xml version="1.0" encoding="utf-8"?>
<!-- Generator: Adobe Illustrator 22.0.1, SVG Export Plug-In . SVG Version: 6.00 Build 0)  -->
<svg version="1.1" id="Layer_1" xmlns="http://www.w3.org/2000/svg" xmlns:xlink="http://www.w3.org/1999/xlink" x="0px" y="0px"
	 viewBox="0 0 273.1 273.1" style="enable-background:new 0 0 273.1 273.1;" xml:space="preserve">
<style type="text/css">
	.st0{fill:#FFFFFF;}
	.st1{fill:#B7898A;}
</style>
<circle class="st0" cx="136.6" cy="136.6" r="58.3"/>
<g>
	<path class="st0" d="M136.6,221.3c-46.7,0-84.8-38-84.8-84.8s38-84.8,84.8-84.8s84.8,38,84.8,84.8S183.3,221.3,136.6,221.3z
		 M136.6,53.8c-45.6,0-82.8,37.1-82.8,82.8c0,45.6,37.1,82.8,82.8,82.8s82.8-37.1,82.8-82.8C219.3,90.9,182.2,53.8,136.6,53.8z"/>
</g>
<g>
	<path class="st0" d="M136.6,273.1C61.3,273.1,0,211.9,0,136.6C0,61.3,61.3,0,136.6,0s136.6,61.3,136.6,136.6
		C273.1,211.9,211.9,273.1,136.6,273.1z M136.6,2C62.4,2,2,62.4,2,136.6s60.4,134.6,134.6,134.6c74.2,0,134.6-60.4,134.6-134.6
		S210.8,2,136.6,2z"/>
</g>
<g>
	<g>
		<g>
			<path class="st1" d="M151.7,132.5l-24.5-16.8c-1.1-0.8-2.3-1.2-3.2-1.2c-1.9,0-3,1.5-3,3.9v36.3c0,2.5,1.1,3.9,2.9,3.9
				c1,0,2.1-0.4,3.2-1.2l24.5-16.8c1.6-1.1,2.5-2.5,2.5-4.1S153.3,133.6,151.7,132.5z"/>
		</g>
	</g>
</g>
</svg>
