<?xml version="1.0" encoding="utf-8"?>
<!-- Generator: Adobe Illustrator 22.0.1, SVG Export Plug-In . SVG Version: 6.00 Build 0)  -->
<svg version="1.1" id="Layer_1" xmlns="http://www.w3.org/2000/svg" xmlns:xlink="http://www.w3.org/1999/xlink" x="0px" y="0px"
	 viewBox="0 0 463.1 142.1" style="enable-background:new 0 0 463.1 142.1;" xml:space="preserve">
<style type="text/css">
	.st0{fill:#00B0F0;}
</style>
<g id="XMLID_32_">
	<g id="XMLID_49_">
		<path id="XMLID_50_" class="st0" d="M184.4,109.4V98c1.3,1.2,2.9,2.2,4.7,3.1c1.8,0.9,3.7,1.7,5.7,2.3c2,0.6,4,1.1,6.1,1.5
			c2,0.3,3.9,0.5,5.6,0.5c5.9,0,10.4-1.1,13.3-3.3c2.9-2.2,4.4-5.4,4.4-9.5c0-2.2-0.5-4.2-1.5-5.8c-1-1.7-2.3-3.2-4-4.5
			c-1.7-1.4-3.8-2.7-6.1-3.9c-2.4-1.2-4.9-2.6-7.6-4c-2.9-1.5-5.5-2.9-8-4.4c-2.5-1.5-4.6-3.2-6.5-5c-1.8-1.8-3.3-3.9-4.3-6.1
			c-1.1-2.3-1.6-5-1.6-8c0-3.8,0.8-7,2.5-9.8c1.6-2.8,3.8-5.1,6.5-6.9c2.7-1.8,5.7-3.2,9.1-4c3.4-0.9,6.9-1.3,10.5-1.3
			c8.1,0,14,1,17.7,2.9v10.9c-4.9-3.4-11.1-5.1-18.7-5.1c-2.1,0-4.2,0.2-6.3,0.7c-2.1,0.4-4,1.2-5.6,2.2c-1.6,1-3,2.3-4,3.9
			c-1,1.6-1.5,3.5-1.5,5.8c0,2.1,0.4,3.9,1.2,5.5c0.8,1.5,1.9,2.9,3.5,4.2c1.5,1.3,3.4,2.5,5.6,3.7c2.2,1.2,4.7,2.5,7.6,3.9
			c2.9,1.5,5.7,3,8.4,4.6c2.6,1.6,5,3.4,6.9,5.4c2,2,3.6,4.1,4.7,6.5c1.2,2.4,1.8,5.1,1.8,8.2c0,4.1-0.8,7.5-2.4,10.4
			c-1.6,2.8-3.7,5.1-6.4,6.9c-2.7,1.8-5.8,3-9.3,3.8c-3.5,0.8-7.2,1.2-11.1,1.2c-1.3,0-2.9-0.1-4.8-0.3c-1.9-0.2-3.9-0.5-5.8-0.9
			c-2-0.4-3.9-0.9-5.6-1.5C186.9,110.8,185.5,110.1,184.4,109.4"/>
	</g>
	<polygon id="XMLID_48_" class="st0" points="291.3,112.7 278.1,112.7 252.2,84.3 252,84.3 252,112.7 242.6,112.7 242.6,25.3 
		252,25.3 252,80.7 252.2,80.7 276.9,53.7 289.2,53.7 261.9,82.2 	"/>
	<g id="XMLID_33_">
		<path id="XMLID_47_" class="st0" d="M346.7,53.7l-27,68.5c-4.8,12.2-11.6,18.3-20.3,18.3c-2.4,0-4.5-0.3-6.1-0.8v-8.5
			c2,0.7,3.9,1,5.6,1c4.7,0,8.3-2.8,10.7-8.5l4.7-11.2l-22.9-58.9h10.4l15.9,45.4c0.2,0.6,0.6,2.1,1.2,4.5h0.3
			c0.2-0.9,0.6-2.4,1.1-4.4L337,53.7H346.7z"/>
		<path id="XMLID_44_" class="st0" d="M361.5,80.4v8.2c0,4.9,1.6,9,4.7,12.4c3.2,3.4,7.2,5.1,12,5.1c5.7,0,10.2-2.2,13.4-6.6
			c3.2-4.4,4.8-10.5,4.8-18.3c0-6.6-1.5-11.7-4.5-15.5c-3-3.7-7.1-5.6-12.3-5.6c-5.5,0-9.9,1.9-13.2,5.7
			C363.1,69.8,361.5,74.6,361.5,80.4 M361.7,104.2h-0.2v35.7h-9.4V53.7h9.4V64h0.2c4.6-7.8,11.4-11.8,20.3-11.8
			c7.6,0,13.5,2.6,17.7,7.9c4.2,5.3,6.4,12.4,6.4,21.3c0,9.9-2.4,17.8-7.2,23.7c-4.8,5.9-11.3,8.9-19.6,8.9
			C371.7,114.1,365.8,110.8,361.7,104.2"/>
		<path id="XMLID_41_" class="st0" d="M453.4,77.5c0-5.5-1.3-9.7-3.9-12.7c-2.6-3-6.2-4.6-10.8-4.6c-4.4,0-8.2,1.6-11.3,4.8
			c-3.1,3.2-5,7.4-5.7,12.5H453.4z M463.1,85.6h-41.5c0.2,6.6,1.9,11.7,5.3,15.2c3.4,3.6,8,5.4,13.9,5.4c6.6,0,12.7-2.2,18.2-6.6
			v8.9c-5.2,3.8-12,5.7-20.5,5.7c-8.3,0-14.8-2.7-19.6-8c-4.7-5.4-7.1-12.9-7.1-22.6c0-9.2,2.6-16.7,7.8-22.5
			c5.2-5.8,11.6-8.7,19.3-8.7c7.7,0,13.6,2.5,17.8,7.5c4.2,5,6.3,11.9,6.3,20.8V85.6z"/>
		<path id="XMLID_35_" class="st0" d="M70.9,113.8c-23.6,0-34.4-12-34.4-20.8c0-4.5,3.5-7.6,8.1-7.6c10.1,0,7.5,15.2,26.3,15.2
			c9.6,0,15.3-5.8,15.3-11.2c0-3.3-1.9-6.9-8.2-8.5l-21-5.3c-16.9-4.3-19.9-13.7-19.9-22.4c0-18.1,16.5-24.7,32.3-24.7
			c14.5,0,31.8,8,31.8,18.9c0,4.7-3.9,7.2-8.4,7.2c-8.6,0-7.2-12.1-24.5-12.1c-8.6,0-13.2,4-13.2,9.7c0,5.7,6.7,7.6,12.6,8.9
			l15.5,3.5c17,3.8,21.6,13.8,21.6,23.3C104.8,102.4,93.4,113.8,70.9,113.8 M136.1,82.6c0.7-3.8,1-7.6,1-11.6
			c0-36.9-29.7-66.8-66.4-66.8c-3.9,0-7.8,0.3-11.5,1C53.3,1.9,46.6,0,39.5,0C17.7,0,0,17.8,0,39.7c0,7.2,1.9,13.9,5.2,19.7
			c-0.7,3.8-1,7.6-1,11.6c0,36.9,29.7,66.8,66.4,66.8c3.9,0,7.8-0.3,11.5-1c5.8,3.3,12.5,5.2,19.6,5.2c21.8,0,39.5-17.8,39.5-39.7
			C141.3,95.2,139.4,88.4,136.1,82.6"/>
	</g>
</g>
</svg>
