<?xml version="1.0" encoding="utf-8"?>
<!-- Generator: Adobe Illustrator 22.0.1, SVG Export Plug-In . SVG Version: 6.00 Build 0)  -->
<svg version="1.1" id="Layer_1" xmlns="http://www.w3.org/2000/svg" xmlns:xlink="http://www.w3.org/1999/xlink" x="0px" y="0px"
	 viewBox="0 0 344 339.3" style="enable-background:new 0 0 344 339.3;" xml:space="preserve">
<style type="text/css">
	.st0{fill:#a4a8b4;}
</style>
<g id="Layer_x0020_1">
	<path class="st0" d="M235.7,306.6l6.4,14.2l5.1-2.3l1.2,2.6l-13.3,6l-1.2-2.6l5.1-2.3l-6.4-14.2L235.7,306.6z M229.1,309.7l-1.7,20
		l-2.7,0.9l-13.4-14.9l3.5-1.2l3,3.4l7.6-2.6l0.2-4.5L229.1,309.7L229.1,309.7z M225.2,318.4l-5.4,1.8l5.1,6.2L225.2,318.4z
		 M209.4,315.9l4.1,17.9l-5.9,1.4c-4.5,1-7.2-0.2-8-3.6c-0.4-1.9-0.1-3.4,1-4.5c1.1-1.1,2.7-2,4.7-2.4l2.5-0.6l-1.7-7.4L209.4,315.9
		L209.4,315.9z M208.6,326.7l-2.2,0.5c-2.7,0.6-3.8,1.8-3.4,3.6c0.2,1,0.7,1.5,1.5,1.7c0.8,0.2,1.8,0.2,2.9-0.1l2.3-0.5L208.6,326.7
		L208.6,326.7z M193.9,319.2l1.4,18.4l-3.3,0.2l-1-13.4l-0.1,0l-7.6,14.1l-3.5,0.3l-1.4-18.4l3.3-0.2l1,13.3l0.1,0l7.6-14
		L193.9,319.2L193.9,319.2z M166.8,319.9l-0.1,2.2c2.5,0.1,4.5,0.9,6.1,2.3c1.6,1.5,2.3,3.3,2.3,5.6c-0.1,2.4-0.9,4.3-2.4,5.6
		c-1.6,1.3-3.7,1.9-6.3,1.9l0,1.7l-3.4-0.1l0-1.7c-2.6-0.2-4.7-0.9-6.2-2.3c-1.5-1.4-2.2-3.2-2.2-5.7c0.1-2.3,0.9-4.1,2.6-5.5
		c1.6-1.4,3.7-2,6.2-2l0.1-2.2L166.8,319.9L166.8,319.9z M166.7,325l-0.2,9.7c1.7-0.1,3-0.5,3.8-1.4c0.9-0.8,1.3-2,1.3-3.4
		C171.7,327.1,170,325.4,166.7,325z M163.3,324.9c-3.4,0.2-5.1,1.8-5.1,4.7c0,1.4,0.4,2.5,1.2,3.4c0.8,0.9,2.1,1.4,3.7,1.6
		L163.3,324.9L163.3,324.9z M136.6,316.6l-3.2,18.1l-3.2-0.6l3.2-18.1L136.6,316.6z M151.8,319.3l-3.2,18.1l-3.2-0.6l1.3-7.2
		l-2.7-0.5c-2-0.4-3.6-1.1-4.7-2.2c-1.1-1.1-1.5-2.6-1.2-4.4c0.3-1.8,1.2-3.1,2.6-3.8c1.4-0.7,3.1-0.9,5.1-0.5L151.8,319.3
		L151.8,319.3z M148.1,321.5l-2.4-0.4c-2.6-0.5-4,0.2-4.3,2.1c-0.2,0.9,0,1.7,0.6,2.2c0.6,0.6,1.5,1,2.7,1.2l2.4,0.4L148.1,321.5
		L148.1,321.5z M56.2,267.8L44.4,278l3.7,4.3l-2.2,1.9l-9.5-11l2.2-1.9l3.7,4.3L54,265.3L56.2,267.8L56.2,267.8z M51.4,262.4
		l-19.6,4.1l-1.6-2.3l10.4-17.1l2.2,3.1l-2.4,3.8l4.6,6.5l4.4-1.1L51.4,262.4L51.4,262.4z M41.9,261.2l-3.3-4.7l-4.5,6.6L41.9,261.2
		z M39.8,245.3l-16,9.2l-3-5.2c-2.3-4-1.9-6.9,1.2-8.7c1.7-1,3.2-1.1,4.6-0.4c1.4,0.7,2.6,2,3.7,3.8l1.3,2.2l6.6-3.8L39.8,245.3
		L39.8,245.3z M29.2,247.6l-1.1-2c-1.4-2.4-2.8-3.1-4.4-2.2c-0.9,0.5-1.3,1.1-1.2,1.9c0,0.8,0.4,1.7,1,2.8l1.2,2.1L29.2,247.6
		L29.2,247.6z M32.2,231.4l-17.1,6.8l-1.2-3l12.5-4.9l0-0.1L10.7,227l-1.3-3.3l17.1-6.8l1.2,3l-12.4,4.9l0,0l15.6,3.1L32.2,231.4
		L32.2,231.4z M23.7,205.7l-2.2,0.5c0.5,2.4,0.3,4.6-0.7,6.5c-1,1.9-2.6,3.1-4.9,3.6c-2.4,0.5-4.4,0.2-6-1c-1.6-1.2-2.8-3.1-3.5-5.6
		L4.9,210l-0.8-3.3l1.6-0.4c-0.5-2.6-0.3-4.8,0.6-6.6c0.9-1.8,2.6-3,5-3.5c2.2-0.5,4.2-0.1,6,1.1c1.7,1.3,2.9,3.1,3.5,5.5l2.2-0.5
		L23.7,205.7L23.7,205.7z M18.7,206.8L9.3,209c0.5,1.6,1.3,2.7,2.3,3.3c1,0.6,2.2,0.8,3.6,0.5C18,212.1,19.2,210.2,18.7,206.8
		L18.7,206.8z M18,203.5c-1.1-3.2-3-4.5-5.8-3.8c-1.4,0.3-2.4,1-3,2c-0.7,1-0.9,2.3-0.6,4L18,203.5L18,203.5z M18.6,175.7l-18.4,1.4
		L0,173.8l18.4-1.4L18.6,175.7z M19.8,191.1l-18.4,1.4l-0.2-3.3l7.3-0.6L8.3,186c-0.2-2.1,0.2-3.8,1-5.1c0.8-1.3,2.2-2.1,4-2.2
		c1.8-0.1,3.3,0.4,4.3,1.6c1,1.2,1.6,2.8,1.8,4.9L19.8,191.1L19.8,191.1z M16.8,188.1l-0.2-2.5c-0.2-2.6-1.2-3.8-3.1-3.7
		c-0.9,0.1-1.6,0.5-2,1.2c-0.4,0.7-0.6,1.7-0.5,2.9l0.2,2.5C11.2,188.5,16.8,188.1,16.8,188.1z M42.3,84.7l-13.1-8.4l-3,4.7
		l-2.4-1.5l7.9-12.3l2.4,1.5l-3,4.7L44,82L42.3,84.7L42.3,84.7z M46.1,78.6l-9.5-17.7l1.8-2.2l19.4,5.1l-2.3,2.9L51,65.5l-4.9,6.3
		l2.3,3.9L46.1,78.6L46.1,78.6z M44.6,69.2l3.5-4.5l-7.6-2.4L44.6,69.2L44.6,69.2z M59.2,62.7L45.9,50l4.1-4.3
		c3.2-3.3,6.1-3.8,8.6-1.3c1.4,1.3,1.9,2.7,1.6,4.3c-0.3,1.6-1.2,3.1-2.6,4.6L56,55.1l5.5,5.3C61.5,60.3,59.2,62.7,59.2,62.7z
		 M54,53.2l1.6-1.7c1.9-2,2.2-3.6,0.9-4.8c-0.7-0.7-1.5-0.9-2.2-0.6c-0.8,0.3-1.6,0.8-2.4,1.7l-1.7,1.7L54,53.2L54,53.2z M70.4,51.5
		L59.1,37l2.6-2L70,45.6l0.1,0l-1.5-15.9l2.8-2.2l11.4,14.5l-2.6,2l-8.3-10.5l0,0l1.5,15.8L70.4,51.5L70.4,51.5z M92.7,36L91.5,34
		c-2.2,1.2-4.3,1.6-6.4,1.2c-2.1-0.4-3.7-1.6-4.9-3.6c-1.2-2.1-1.5-4.1-0.8-6c0.7-1.9,2.1-3.6,4.4-4.9L83,19.2l2.9-1.7l0.8,1.4
		c2.3-1.2,4.5-1.7,6.5-1.3c2,0.4,3.6,1.6,4.8,3.7c1.1,2,1.4,4,0.7,6c-0.7,2-2.1,3.7-4.2,4.9l1.1,1.9C95.6,34.3,92.7,36,92.7,36z
		 M90.1,31.5l-4.8-8.4c-1.4,0.9-2.2,2-2.5,3.2c-0.3,1.2-0.1,2.4,0.6,3.6C84.8,32.4,87,32.9,90.1,31.5L90.1,31.5z M93,29.9
		c2.7-2,3.4-4.2,2-6.7c-0.7-1.2-1.6-2-2.8-2.3c-1.2-0.3-2.5-0.1-4,0.6L93,29.9z M119.9,22.4l-6.8-17.1l3-1.2l6.8,17.1L119.9,22.4z
		 M105.5,28.1L98.7,11l3-1.2l2.7,6.8l2.5-1c1.9-0.8,3.7-1,5.2-0.6c1.5,0.4,2.6,1.4,3.3,3.2c0.7,1.7,0.6,3.2-0.3,4.6
		c-0.8,1.3-2.2,2.4-4.1,3.1C111.1,25.9,105.5,28.1,105.5,28.1z M107.5,24.4l2.3-0.9c2.4-1,3.3-2.3,2.6-4c-0.3-0.9-0.9-1.4-1.7-1.6
		c-0.8-0.2-1.8-0.1-2.9,0.4l-2.3,0.9L107.5,24.4L107.5,24.4z M213.9,19.3l4.2-15l-5.4-1.5l0.8-2.8l14,4l-0.8,2.8l-5.4-1.5l-4.2,15
		L213.9,19.3L213.9,19.3z M220.9,21.3l14.2-14.2l2.6,1l0.6,20l-3.5-1.4l-0.1-4.5l-7.4-2.9l-3.1,3.3L220.9,21.3L220.9,21.3z
		 M229.4,17.1l5.3,2.1l0.1-8L229.4,17.1L229.4,17.1z M240,29l9.2-16l5.2,3c4,2.3,5.1,5,3.4,8.1c-1,1.7-2.2,2.5-3.8,2.6
		c-1.6,0.1-3.3-0.4-5.1-1.5l-2.2-1.3l-3.8,6.6L240,29L240,29z M248,21.7l2,1.1c2.4,1.4,4,1.3,4.9-0.3c0.5-0.9,0.5-1.6,0.1-2.3
		c-0.4-0.7-1.2-1.3-2.2-1.9l-2.1-1.2L248,21.7L248,21.7z M253.8,36.8l10.7-15l2.7,1.9l-7.8,11l0.1,0l14.8-6l2.9,2l-10.7,15l-2.7-1.9
		l7.7-10.9l0,0l-14.8,5.9L253.8,36.8L253.8,36.8z M274.9,53.8l1.5-1.6c-1.8-1.7-2.8-3.7-2.9-5.8c-0.2-2.1,0.5-4,2.1-5.7
		c1.7-1.8,3.5-2.6,5.5-2.5c2,0.1,4,1,6,2.8l1.1-1.2l2.4,2.3l-1.1,1.2c1.8,1.9,2.9,3.8,3.1,5.8c0.2,2-0.5,3.9-2.2,5.7
		c-1.6,1.7-3.4,2.4-5.6,2.3c-2.1-0.1-4.1-1-5.9-2.7l-1.5,1.6L274.9,53.8L274.9,53.8z M278.4,50.1l6.7-7c-1.3-1.1-2.6-1.6-3.8-1.5
		c-1.2,0.1-2.3,0.6-3.3,1.6C276.1,45.2,276.2,47.5,278.4,50.1L278.4,50.1z M280.9,52.4c2.6,2.1,5,2.1,7,0c1-1,1.5-2.1,1.4-3.3
		c0-1.2-0.6-2.4-1.7-3.7L280.9,52.4L280.9,52.4z M295.6,76l14.5-11.4l2,2.6l-14.5,11.4L295.6,76L295.6,76z M286.1,63.9l14.5-11.4
		l2,2.6l-5.7,4.5l1.7,2.1c1.3,1.6,2,3.2,2,4.8c0.1,1.6-0.6,2.9-2.1,4.1c-1.4,1.1-2.9,1.5-4.5,1.1c-1.5-0.4-2.9-1.4-4.2-3L286.1,63.9
		L286.1,63.9z M290.3,64.7l1.5,1.9c1.6,2,3.1,2.5,4.6,1.3c0.7-0.6,1.1-1.3,1-2.1c0-0.8-0.4-1.7-1.2-2.7l-1.5-1.9L290.3,64.7
		L290.3,64.7z M325.4,165.2l15.5-0.4l-0.1-5.6l2.9-0.1l0.4,14.6l-2.9,0.1l-0.1-5.6l-15.5,0.4L325.4,165.2L325.4,165.2z M325.4,172.5
		l17.7,9.4l-0.2,2.8l-19,6.5l0.3-3.7l4.3-1.4l0.6-8l-4.1-2L325.4,172.5L325.4,172.5z M331.9,179.4l-0.4,5.7l7.7-2.3L331.9,179.4z
		 M323.4,193l17.9,4.1L340,203c-1,4.5-3.3,6.4-6.8,5.6c-1.9-0.4-3.1-1.4-3.6-2.9c-0.5-1.5-0.6-3.3-0.1-5.3l0.6-2.5l-7.4-1.7
		L323.4,193L323.4,193z M332.8,198.5l-0.5,2.2c-0.6,2.7,0,4.2,1.7,4.6c1,0.2,1.7,0,2.2-0.6c0.5-0.6,0.9-1.5,1.2-2.7l0.5-2.3
		L332.8,198.5z M319.9,208.5l17.4,5.9l-1.1,3.1l-12.8-4.3l0,0.1l10,12.5l-1.1,3.3l-17.4-5.9l1-3.1l12.7,4.3l0,0l-9.9-12.4
		L319.9,208.5L319.9,208.5z M309.7,233.6l2,1c1.2-2.2,2.7-3.7,4.7-4.5c2-0.8,4-0.7,6,0.4c2.2,1.1,3.5,2.6,3.9,4.6
		c0.5,2,0.1,4.1-1,6.5l1.5,0.8l-1.5,3l-1.5-0.8c-1.3,2.3-2.9,3.8-4.7,4.6c-1.9,0.8-3.9,0.6-6-0.5c-2-1-3.3-2.6-3.8-4.7
		c-0.5-2.1-0.2-4.2,0.9-6.5l-2-1L309.7,233.6L309.7,233.6z M314.3,235.9l8.6,4.4c0.7-1.6,0.8-2.9,0.4-4c-0.4-1.1-1.2-2-2.5-2.7
		C318.3,232.3,316.1,233.1,314.3,235.9L314.3,235.9z M312.8,238.9c-1.2,3.1-0.6,5.3,2,6.7c1.2,0.6,2.4,0.8,3.6,0.4
		c1.2-0.3,2.2-1.2,3-2.7L312.8,238.9L312.8,238.9z M294.3,259.7l15,10.7l-1.9,2.7l-15-10.7L294.3,259.7z M303.2,247.1l15,10.7
		l-1.9,2.7l-6-4.2l-1.6,2.2c-1.2,1.7-2.6,2.8-4,3.3c-1.5,0.5-3,0.2-4.5-0.9c-1.5-1.1-2.3-2.4-2.3-4c0-1.6,0.6-3.2,1.7-4.9
		L303.2,247.1L303.2,247.1z M303.6,251.4l-1.4,2c-1.5,2.1-1.5,3.7,0,4.8c0.7,0.5,1.5,0.7,2.3,0.4c0.8-0.3,1.5-0.9,2.3-1.9l1.4-2
		L303.6,251.4L303.6,251.4z"/>
	<circle class="st0" cx="15.1" cy="121.1" r="4.3"/>
	<circle class="st0" cx="167.6" cy="4.3" r="4.3"/>
	<circle class="st0" cx="323.6" cy="115.7" r="4.3"/>
	<circle class="st0" cx="85.6" cy="307.1" r="4.3"/>
	<circle class="st0" cx="274.4" cy="293.5" r="4.3"/>
</g>
</svg>
