<?xml version="1.0" encoding="utf-8"?>
<!-- Generator: Adobe Illustrator 22.0.1, SVG Export Plug-In . SVG Version: 6.00 Build 0)  -->
<svg version="1.1" id="Layer_1" xmlns="http://www.w3.org/2000/svg" xmlns:xlink="http://www.w3.org/1999/xlink" x="0px" y="0px"
	 viewBox="0 0 168.5 58.5" style="enable-background:new 0 0 168.5 58.5;" xml:space="preserve">
<style type="text/css">
	.st0{fill:#4A8CFF;}
	.st1{clip-path:url(#SVGID_2_);}
	.st2{fill:#E5E5E4;}
	.st3{clip-path:url(#SVGID_4_);}
	.st4{fill:#FFFFFF;}
	.st5{clip-path:url(#SVGID_6_);}
	.st6{clip-path:url(#SVGID_8_);}
</style>
<path class="st0" d="M86,36.2l-1.1-0.1H74.5l13.8-13.8l-0.1-1.1c0-1.8-1.5-3.3-3.4-3.4l-1.1-0.1H66.5l0.1,1.1
	c0.1,1.8,1.5,3.3,3.4,3.4l1.1,0.1h10.3L67.6,36.1l0.1,1.1c0.1,1.8,1.5,3.3,3.4,3.4l1.1,0.1h17.2l-0.1-1.1
	C89.2,37.6,87.8,36.3,86,36.2z"/>
<path class="st0" d="M99.7,17.8L99.7,17.8c-6.3,0-11.5,5.1-11.5,11.5c0,6.3,5.1,11.5,11.5,11.5c6.3,0,11.5-5.1,11.5-11.5
	S106.1,17.8,99.7,17.8z M104.6,34.1c-2.7,2.7-7,2.7-9.7,0c-1.3-1.3-2-3.1-2-4.9c0-1.8,0.7-3.5,2-4.9c2.7-2.7,7-2.7,9.7,0
	c0,0,0,0,0,0c0.5,0.5,0.9,1,1.2,1.6C107.2,28.5,106.8,31.9,104.6,34.1z"/>
<path class="st0" d="M159.3,17.8c-2.6,0-5.1,1.1-6.9,3.1c-3-3.5-8.2-4.1-12-1.5c-0.9-1-2.9-1.6-4-1.6v22.9l1.1-0.1
	c1.9-0.1,3.3-1.5,3.4-3.4l0.1-1.1v-8l0.1-1.1c0-0.8,0.2-1.6,0.6-2.3c1.3-2.2,4.1-2.9,6.3-1.7c0.7,0.4,1.3,1,1.7,1.7h0
	c0.4,0.7,0.6,1.5,0.6,2.3l0.1,1.1v8l0.1,1.1c0.1,1.8,1.5,3.3,3.4,3.4l1.1,0.1V28.1l0.1-1.1c0-0.8,0.2-1.6,0.6-2.3
	c1.3-2.2,4.1-2.9,6.3-1.7c0.7,0.4,1.3,1,1.7,1.7c0.4,0.7,0.6,1.5,0.6,2.3l0.1,1.1v8l0.1,1.1c0.1,1.8,1.5,3.3,3.4,3.4l1.1,0.1V26.9
	C168.5,21.9,164.4,17.8,159.3,17.8z"/>
<path class="st0" d="M131.9,21.1c-2.2-2.2-5.1-3.4-8.1-3.4c-3,0-6,1.2-8.1,3.4c-4.5,4.5-4.5,11.7,0,16.2c4.5,4.5,11.7,4.5,16.2,0
	C136.4,32.9,136.4,25.6,131.9,21.1z M128.6,34.1c-2.7,2.7-7,2.7-9.7,0c-1.3-1.3-2-3.1-2-4.9c0-1.8,0.7-3.5,2-4.9
	c2.7-2.7,7-2.7,9.7,0c0,0,0,0,0,0c0.5,0.5,0.9,1,1.2,1.6C131.3,28.5,130.9,31.9,128.6,34.1z"/>
<g>
	<g>
		<defs>
			<circle id="SVGID_1_" cx="29.2" cy="29.2" r="29.2"/>
		</defs>
		<clipPath id="SVGID_2_">
			<use xlink:href="#SVGID_1_"  style="overflow:visible;"/>
		</clipPath>
		<g class="st1">
			<path class="st2" d="M-1.4-1.4h61.3v61.3H-1.4V-1.4z"/>
		</g>
	</g>
</g>
<g>
	<g>
		<defs>
			<circle id="SVGID_3_" cx="29.2" cy="29.2" r="28.7"/>
		</defs>
		<clipPath id="SVGID_4_">
			<use xlink:href="#SVGID_3_"  style="overflow:visible;"/>
		</clipPath>
		<g class="st3">
			<path class="st4" d="M-0.9-0.9h60.2v60.2H-0.9V-0.9z"/>
		</g>
	</g>
</g>
<g>
	<g>
		<defs>
			<circle id="SVGID_5_" cx="29.2" cy="29.2" r="26.4"/>
		</defs>
		<clipPath id="SVGID_6_">
			<use xlink:href="#SVGID_5_"  style="overflow:visible;"/>
		</clipPath>
		<g class="st5">
			<path class="st0" d="M1.4,1.4H57V57H1.4V1.4z"/>
		</g>
	</g>
</g>
<g>
	<g>
		<defs>
			<path id="SVGID_7_" d="M37.3,25.8l7.5-5.4c0.7-0.5,1.1-0.4,1.1,0.6v16.6c0,1.1-0.6,1-1.1,0.6l-7.5-5.4V25.8z M12,21v12.4
				c0,2.8,2.3,5.1,5.1,5h18.1c0.5,0,0.9-0.4,0.9-0.9V25.1c0-2.8-2.3-5.1-5.1-5H13C12.5,20.1,12,20.5,12,21z"/>
		</defs>
		<clipPath id="SVGID_8_">
			<use xlink:href="#SVGID_7_"  style="overflow:visible;"/>
		</clipPath>
		<g class="st6">
			<path class="st4" d="M10.6,18.6h36.7v21.2H10.6V18.6z"/>
		</g>
	</g>
</g>
</svg>
