<svg id="Layer_1" data-name="Layer 1" xmlns="http://www.w3.org/2000/svg" viewBox="0 0 426.16 501.96"><defs><style>.cls-1{fill:#f7f9f8;}</style></defs><path class="cls-1" d="M299.5,471.26a34,34,0,0,0-34,34v48.22h67.92V505.22A34,34,0,0,0,299.5,471.26Zm18.36,66.58H281.14V505.22a18.36,18.36,0,0,1,36.72,0Z" transform="translate(-86.42 -116.93)"/><path class="cls-1" d="M509.3,371.57c-.09-.54-.19-1.07-.28-1.6a60.35,60.35,0,0,0,3.56-20.46c0-30.87-48.8-96.73-54.37-104.14l-6.23-8.3-6.24,8.3c-3.49,4.65-24,32.26-38.77,59.83V287c0-39.72-25-87.39-26.09-89.4l-6.65-12.54-7,12.33A239,239,0,0,0,351,234.25c-12.84-58.27-43.34-105-45-107.47l-6.51-9.85L293,126.78c-1.63,2.46-32.13,49.2-45,107.47a238.42,238.42,0,0,0-16.23-36.86l-7-12.33-6.65,12.54c-1.07,2-26.09,49.68-26.09,89.4v18.2c-14.8-27.57-35.28-55.18-38.77-59.83l-6.24-8.3-6.23,8.3c-5.57,7.41-54.37,73.27-54.37,104.14A60.17,60.17,0,0,0,90,370a214.55,214.55,0,0,0-3.1,36.29,211.73,211.73,0,0,0,52.78,140.05l-29.21,29.21,11,11,28.89-28.89a212.25,212.25,0,0,0,298.24,0l28.89,28.89,11-11-29.21-29.21a211.75,211.75,0,0,0,52.78-140.05A214.78,214.78,0,0,0,509.3,371.57Zm-152.69-10V287c0-25.24,10.07-52,17.21-67.84,7.18,16.47,17.55,44.32,17.55,67.84v71.12l-20.61,19L356.61,363Zm40.13,12.85a60.74,60.74,0,0,0,48.39,35.33v41.76l-63.32-63.32ZM258,287v-3.95c0-57.19,28.39-113.74,41.51-136.82C312.62,169.31,341,225.86,341,283.05v64.31L299.5,305.85,258,347.36Zm-50.36,0c0-23.52,10.37-51.37,17.55-67.84,7.14,15.82,17.21,42.6,17.21,67.84v76l-14.15,14.16-20.61-19Zm-5.37,87.39,14.93,13.77-63.32,63.32V409.72A60.74,60.74,0,0,0,202.26,374.39ZM147,263.32c5,7.08,12.47,17.88,19.85,29.74,21.9,35.21,25.17,50.48,25.17,56.45A45.06,45.06,0,0,1,153.87,394v-34.2l22.38-22.38-11-11-19.15,19.15-19.15-19.15-11,11,22.38,22.38v33.86A45.07,45.07,0,0,1,102,349.51C102,330.45,130.38,286.65,147,263.32Zm-44.52,143q0-7.56.58-15.1a60.49,60.49,0,0,0,35.2,18.3v57.62L119.36,486A195.84,195.84,0,0,1,102.49,406.27Zm197,197a196.34,196.34,0,0,1-138.09-56.64L299.5,408.55,437.59,546.64A196.34,196.34,0,0,1,299.5,603.28Zm148.79-68L299.5,386.49,150.71,535.27a198.27,198.27,0,0,1-24.05-34.52L299.5,327.92,472.34,500.75A198.27,198.27,0,0,1,448.29,535.27ZM479.64,486l-18.91-18.92V409.47a60.49,60.49,0,0,0,35.2-18.3q.57,7.53.58,15.1A195.84,195.84,0,0,1,479.64,486Zm-18.91-92.35V359.79l22.38-22.38-11-11-19.15,19.15-19.15-19.15-11,11,22.38,22.38V394A45.06,45.06,0,0,1,407,349.51c0-19.06,28.37-62.86,45-86.19,5,7.06,12.43,17.81,19.79,29.65C493.7,328.24,497,343.53,497,349.51A45.07,45.07,0,0,1,460.73,393.65Z" transform="translate(-86.42 -116.93)"/></svg>