<svg id="Layer_1" data-name="Layer 1" xmlns="http://www.w3.org/2000/svg" viewBox="0 0 440.8 440.8"><defs><style>.cls-1{fill:#fff;}</style></defs><path class="cls-1" d="M309.5,0H131.3C58.9,0,0,58.9,0,131.3V309.5c0,72.4,58.9,131.3,131.3,131.3H309.5c72.4,0,131.3-58.9,131.3-131.3V131.3C440.8,58.9,381.9,0,309.5,0Zm87,309.5a87,87,0,0,1-87,87H131.3a87,87,0,0,1-87-87V131.3a87,87,0,0,1,87-87H309.5a87,87,0,0,1,87,87Z"/><path class="cls-1" d="M220.4,106.4a114,114,0,1,0,114,114,114.08,114.08,0,0,0-114-114Zm0,183.7a69.7,69.7,0,1,1,69.7-69.7,69.69,69.69,0,0,1-69.7,69.7Z"/><path class="cls-1" d="M362,107.3A27.3,27.3,0,1,1,334.7,80,27.27,27.27,0,0,1,362,107.3Z"/></svg>