<svg id="Layer_1" data-name="Layer 1" xmlns="http://www.w3.org/2000/svg" viewBox="0 0 426.16 609.13"><defs><style>.cls-1{fill:#fff;}</style></defs><path class="cls-1" d="M179.12,388.29v48.22H247V388.29a34,34,0,0,0-67.92,0Zm52.32,0v32.62H194.72V388.29a18.36,18.36,0,1,1,36.72,0ZM422.88,254.64c-.09-.54-.19-1.07-.28-1.6a60.47,60.47,0,0,0,3.56-20.46c0-30.87-48.8-96.73-54.37-104.14l-6.23-8.3-6.24,8.3c-3.49,4.65-24,32.26-38.77,59.83v-18.2c0-39.72-25-87.39-26.09-89.4l-6.65-12.54-7,12.33a238.58,238.58,0,0,0-16.23,36.86c-12.84-58.27-43.34-105-45-107.47L213.07,0l-6.49,9.85c-1.63,2.46-32.13,49.2-45,107.47a238.58,238.58,0,0,0-16.23-36.86l-7-12.33L131.7,80.67c-1.07,2-26.09,49.68-26.09,89.4v18.2c-14.8-27.57-35.28-55.18-38.77-59.83l-6.24-8.3-6.23,8.3C48.8,135.85,0,201.71,0,232.58a60.13,60.13,0,0,0,3.58,20.49,214.32,214.32,0,0,0-3.1,36.29A211.73,211.73,0,0,0,53.26,429.41L24.05,458.62l11,11,28.89-28.89c82.66,81.61,215.58,81.61,298.24,0l28.89,28.89,11-11-29.21-29.21a211.78,211.78,0,0,0,52.78-140A214.76,214.76,0,0,0,422.88,254.64Zm-152.69-10V170.07c0-25.24,10.07-52,17.21-67.84C294.58,118.7,305,146.55,305,170.07v71.12l-20.61,19-14.15-14.12Zm40.13,12.85a60.74,60.74,0,0,0,48.39,35.33v41.76l-63.32-63.32ZM171.58,170.07v-3.95c0-57.19,28.39-113.74,41.51-136.82,13.11,23.08,41.49,79.63,41.49,136.82v64.31l-41.5-41.51-41.5,41.51Zm-50.36,0c0-23.52,10.37-51.37,17.55-67.84,7.14,15.82,17.21,42.6,17.21,67.84v76l-14.15,14.16-20.61-19Zm-5.37,87.4,14.93,13.76L67.46,334.55V292.79a60.75,60.75,0,0,0,48.38-35.32ZM60.58,146.39c5,7.08,12.47,17.88,19.85,29.74,21.9,35.21,25.17,50.48,25.17,56.45a45.06,45.06,0,0,1-38.15,44.49v-34.2l22.38-22.38-11-11L59.68,228.64,40.53,209.49l-11,11,22.38,22.38v33.86a45.07,45.07,0,0,1-36.33-44.15C15.58,213.52,44,169.72,60.58,146.39Zm-44.52,143q0-7.56.58-15.1a60.5,60.5,0,0,0,35.2,18.3v57.62l-18.9,18.86a195.85,195.85,0,0,1-16.87-79.73Zm197,197A196.37,196.37,0,0,1,75,429.75L213.08,291.62,351.17,429.71a196.37,196.37,0,0,1-138.09,56.64Zm148.79-68L213.08,269.56,64.29,418.34a198,198,0,0,1-24.05-34.52L213.08,211,385.92,383.82a198,198,0,0,1-24.05,34.52Zm31.37-49.32-18.91-18.92V292.54a60.5,60.5,0,0,0,35.2-18.3q.57,7.53.58,15.1A195.85,195.85,0,0,1,393.22,369.07Zm-18.91-92.35V242.86l22.38-22.38-11-11-19.15,19.15-19.15-19.15-11,11,22.38,22.38v34.21a45.06,45.06,0,0,1-38.19-44.49c0-19.06,28.37-62.86,45-86.19,5,7.06,12.43,17.81,19.79,29.65,21.91,35.27,25.21,50.56,25.21,56.54A45.07,45.07,0,0,1,374.31,276.72ZM55.48,562a20.26,20.26,0,0,1,0,27.85q-5.53,5.5-14.27,5.5-9,0-14.76-5.57l2.79-5.07a15.69,15.69,0,0,0,11.67,4.77,13.19,13.19,0,0,0,8.77-3,12.43,12.43,0,0,0,4.37-8H36.29v-5.13H54.05a12.49,12.49,0,0,0-4.33-8,12.86,12.86,0,0,0-8.59-3.05,15,15,0,0,0-10.71,4.33l-3.23-4.91a14.48,14.48,0,0,1,6.2-3.89,24.45,24.45,0,0,1,8-1.32A19.09,19.09,0,0,1,55.48,562Zm47,13.17,13.87,19.3h-8.44L96.83,578.39H91.48v16.07H84.36V557.33h7.12v15h5.21l10.13-15h8.07L102.49,575Zm50.86-18.71A19.73,19.73,0,0,0,139.17,562a19.48,19.48,0,0,0-.23,27.55l.23.23a20.83,20.83,0,0,0,28.36,0,18.54,18.54,0,0,0,5.8-14,18.31,18.31,0,0,0-5.8-13.87,19.9,19.9,0,0,0-14.18-5.45Zm9.1,28.91a12.65,12.65,0,0,1-17.9.19l-.19-.19a13.08,13.08,0,0,1-3.71-9.58,12.78,12.78,0,1,1,25.54,0,13.06,13.06,0,0,1-3.73,9.58Zm34.64-27.81H228v36.91h-5V562h-20.9v32.51h-5Zm70.09-.88a24.21,24.21,0,0,0-7.27,1.13,16.3,16.3,0,0,0-5.8,3l2.28,3.82a17.48,17.48,0,0,1,10.49-3.53q9.11,0,9.1,9.54v1h-2.2q-22.45,0-22.46,12.84A9.47,9.47,0,0,0,255,592.4a13.94,13.94,0,0,0,8.77,2.86,12.77,12.77,0,0,0,7.6-2.38,14.21,14.21,0,0,0,4.89-5.81h.14l-.22,3.08v4.33H281V570.83q0-6.9-3.56-10.53t-10.23-3.63Zm8.8,20.69a15.67,15.67,0,0,1-3.12,9.54,9.67,9.67,0,0,1-8.18,4.26,8.38,8.38,0,0,1-6.09-2.09,6.66,6.66,0,0,1-2.2-4.91,6.35,6.35,0,0,1,1.32-4,8.31,8.31,0,0,1,3.08-2.5,19.05,19.05,0,0,1,4.51-1.28,35.59,35.59,0,0,1,4.48-.55c1.15,0,2.51-.08,4.07-.08H276Zm48.73-20.69a15,15,0,0,0-7.74,2,12.73,12.73,0,0,0-5.1,5.62h-.15l.22-2.86v-3.89h-4.77v51.59h5v-17.9a20.55,20.55,0,0,0-.22-3.23h.15a13.58,13.58,0,0,0,12.18,7.34,15,15,0,0,0,11.89-5.27q4.63-5.31,4.63-14.05t-4.33-14a14.34,14.34,0,0,0-11.75-5.35Zm7.56,30.2a10.83,10.83,0,0,1-8.51,4,10,10,0,0,1-8.55-4.41A17.16,17.16,0,0,1,312,576.12q0-7.43,3.45-11.16a11.09,11.09,0,0,1,8.51-3.74,10.33,10.33,0,0,1,8.48,4.07q3.26,4.08,3.26,10.75,0,6.83-3.44,10.83ZM380,575.23l14.31,19.23h-6.09L376,577.58h-5.94v16.88h-5V557.55h5v15.63h5.87L387,557.55h5.87l-12.83,17.52Z" transform="translate(0)"/></svg>