<svg id="Layer_1" data-name="Layer 1" xmlns="http://www.w3.org/2000/svg" viewBox="0 0 426.16 609.14"><defs><style>.cls-1{fill:#0f5048;}</style></defs><path class="cls-1" d="M265.54,505.22v48.22h67.92V505.22a34,34,0,0,0-67.92,0Zm52.32,0v32.62H281.14V505.22a18.36,18.36,0,0,1,36.72,0ZM509.3,371.57c-.09-.54-.19-1.07-.28-1.6a60.35,60.35,0,0,0,3.56-20.46c0-30.87-48.8-96.73-54.37-104.14l-6.23-8.3-6.24,8.3c-3.49,4.65-24,32.26-38.77,59.83V287c0-39.72-25-87.39-26.09-89.4l-6.65-12.54-7,12.33A239,239,0,0,0,351,234.25c-12.84-58.27-43.34-105-45-107.47l-6.51-9.85L293,126.78c-1.63,2.46-32.13,49.2-45,107.47a238.42,238.42,0,0,0-16.23-36.86l-7-12.33-6.65,12.54c-1.07,2-26.09,49.68-26.09,89.4v18.2c-14.8-27.57-35.28-55.18-38.77-59.83l-6.24-8.3-6.23,8.3c-5.57,7.41-54.37,73.27-54.37,104.14A60.17,60.17,0,0,0,90,370a214.55,214.55,0,0,0-3.1,36.29,211.73,211.73,0,0,0,52.78,140.05l-29.21,29.21,11,11,28.89-28.89a212.25,212.25,0,0,0,298.24,0l28.89,28.89,11-11-29.21-29.21a211.75,211.75,0,0,0,52.78-140.05A214.78,214.78,0,0,0,509.3,371.57Zm-152.69-10V287c0-25.24,10.07-52,17.21-67.84,7.18,16.47,17.55,44.32,17.55,67.84v71.12l-20.61,19L356.61,363Zm40.13,12.85a60.74,60.74,0,0,0,48.39,35.33v41.76l-63.32-63.32ZM258,287v-3.95c0-57.19,28.39-113.74,41.51-136.82C312.62,169.31,341,225.86,341,283.05v64.31L299.5,305.85,258,347.36Zm-50.36,0c0-23.52,10.37-51.37,17.55-67.84,7.14,15.82,17.21,42.6,17.21,67.84v76l-14.15,14.16-20.61-19Zm-5.37,87.4,14.93,13.76-63.32,63.32V409.72A60.75,60.75,0,0,0,202.26,374.4ZM147,263.32c5,7.08,12.47,17.88,19.85,29.74,21.9,35.21,25.17,50.48,25.17,56.45A45.06,45.06,0,0,1,153.87,394v-34.2l22.38-22.38-11-11-19.15,19.15-19.15-19.15-11,11,22.38,22.38v33.86A45.07,45.07,0,0,1,102,349.51C102,330.45,130.38,286.65,147,263.32Zm-44.52,143q0-7.56.58-15.1a60.49,60.49,0,0,0,35.2,18.3v57.62L119.36,486A195.84,195.84,0,0,1,102.49,406.27Zm197,197a196.34,196.34,0,0,1-138.09-56.64L299.5,408.55,437.59,546.64A196.34,196.34,0,0,1,299.5,603.28Zm148.79-68L299.5,386.49,150.71,535.27a198.27,198.27,0,0,1-24.05-34.52L299.5,327.92,472.34,500.75A198.27,198.27,0,0,1,448.29,535.27ZM479.64,486l-18.91-18.92V409.47a60.49,60.49,0,0,0,35.2-18.3q.57,7.53.58,15.1A195.84,195.84,0,0,1,479.64,486Zm-18.91-92.35V359.79l22.38-22.38-11-11-19.15,19.15-19.15-19.15-11,11,22.38,22.38V394A45.06,45.06,0,0,1,407,349.51c0-19.06,28.37-62.86,45-86.19,5,7.06,12.43,17.81,19.79,29.65C493.7,328.24,497,343.53,497,349.51A45.07,45.07,0,0,1,460.73,393.65ZM141.9,678.92a20.27,20.27,0,0,1,0,27.85q-5.53,5.51-14.27,5.5-9,0-14.76-5.57l2.79-5.07a15.71,15.71,0,0,0,11.67,4.77,13.19,13.19,0,0,0,8.77-3,12.44,12.44,0,0,0,4.37-8H122.71v-5.13h17.76a12.52,12.52,0,0,0-4.33-8,12.87,12.87,0,0,0-8.59-3.05,15,15,0,0,0-10.71,4.33l-3.23-4.91a14.51,14.51,0,0,1,6.2-3.89,24.39,24.39,0,0,1,8-1.32A19.1,19.1,0,0,1,141.9,678.92Zm47,13.17,13.87,19.3h-8.44l-11.08-16.07H177.9v16.07h-7.12V674.26h7.12v15h5.21l10.13-15h8.07l-12.4,17.68Zm50.86-18.71a19.72,19.72,0,0,0-14.17,5.54,19.48,19.48,0,0,0,0,27.78,20.83,20.83,0,0,0,28.36,0,18.55,18.55,0,0,0,5.8-14,18.3,18.3,0,0,0-5.8-13.87A19.88,19.88,0,0,0,239.77,673.38Zm9.1,28.91a12.66,12.66,0,0,1-18.09,0,13.08,13.08,0,0,1-3.71-9.58,12.89,12.89,0,0,1,3.71-9.47,12.81,12.81,0,0,1,18.09,0,12.87,12.87,0,0,1,3.74,9.47A13.08,13.08,0,0,1,248.87,702.29Zm34.64-27.81h30.9v36.91h-5V678.88H288.5v32.51h-5Zm70.09-.88a24.24,24.24,0,0,0-7.27,1.13,16.28,16.28,0,0,0-5.8,3l2.28,3.82a17.46,17.46,0,0,1,10.49-3.53q9.1,0,9.1,9.54v1h-2.2q-22.45,0-22.46,12.84a9.46,9.46,0,0,0,3.71,7.93,13.91,13.91,0,0,0,8.77,2.86,12.76,12.76,0,0,0,7.6-2.38A14.23,14.23,0,0,0,362.7,704h.14l-.22,3.08v4.33h4.77V687.76q0-6.9-3.56-10.53T353.6,673.6Zm8.8,20.69a15.71,15.71,0,0,1-3.12,9.54,9.67,9.67,0,0,1-8.18,4.26A8.4,8.4,0,0,1,345,706a6.64,6.64,0,0,1-2.2-4.91,6.35,6.35,0,0,1,1.32-4,8.3,8.3,0,0,1,3.08-2.5,19.08,19.08,0,0,1,4.51-1.28,36.44,36.44,0,0,1,4.48-.55c1.15,0,2.51-.08,4.07-.08h2.13Zm48.73-20.69a15,15,0,0,0-7.74,2,12.68,12.68,0,0,0-5.1,5.62h-.15l.22-2.86v-3.89h-4.77v51.59h5V708.16a19.8,19.8,0,0,0-.22-3.23h.15a13.59,13.59,0,0,0,12.18,7.34A15,15,0,0,0,422.58,707q4.64-5.31,4.63-14.05t-4.33-14A14.34,14.34,0,0,0,411.13,673.6Zm7.56,30.2a10.82,10.82,0,0,1-8.51,4,10,10,0,0,1-8.55-4.41,17.12,17.12,0,0,1-3.19-10.34q0-7.42,3.45-11.16a11.09,11.09,0,0,1,8.51-3.74,10.36,10.36,0,0,1,8.48,4.07q3.25,4.08,3.26,10.75Q422.14,699.8,418.69,703.8Zm47.78-11.64,14.31,19.23h-6.09l-12.26-16.88h-5.94v16.88h-5V674.48h5v15.63h5.87l11.08-15.63h5.87L466.47,692Z" transform="translate(-86.42 -116.93)"/></svg>