<svg id="Capa_1" data-name="Capa 1" xmlns="http://www.w3.org/2000/svg" viewBox="0 0 31.97 32.03"><defs><style>.cls-1{fill:#1d5a53;}</style></defs><g id="Phone_2"><path class="cls-1" d="M2.62,1l-.9.9A6.36,6.36,0,0,0,0,6.57c0,4.75,3.4,11.1,8.87,16.58,8,8,17.25,11.12,21.17,7.19l.9-.9a3.56,3.56,0,0,0,0-5l-3.59-3.6a3.55,3.55,0,0,0-5,0l-.9.9c-1,1-3.44.52-7.55-3.6-3.49-3.5-4-5.53-4-6.43a1.51,1.51,0,0,1,.43-1.13l.9-.9a3.64,3.64,0,0,0,0-5L7.63,1a3.54,3.54,0,0,0-5,0ZM6.21,2.47,9.8,6.07a1.56,1.56,0,0,1,0,2.16l-.9.9a3.54,3.54,0,0,0-1,2.56c0,2.15,1.55,4.8,4.61,7.86,6.31,6.33,9.38,4.62,10.4,3.6l.89-.9a1.53,1.53,0,0,1,2.17,0l3.59,3.6a1.57,1.57,0,0,1,0,2.17l-.9.89c-3,3-11.41-.27-18.32-7.19-5-5-8.28-11-8.28-15.15a4.32,4.32,0,0,1,1.11-3.2L4,2.47a1.53,1.53,0,0,1,2.17,0Z" transform="translate(-0.03 0)"/></g></svg>