<svg id="Layer_1" data-name="Layer 1" xmlns="http://www.w3.org/2000/svg" viewBox="0 0 72.3 72.11"><defs><style>.cls-1{fill:#9aa98c;}</style></defs><path class="cls-1" d="M26.1,11.8a2.52,2.52,0,0,0-1.5.1C19.2,14,15.8,21.7,15,27,12.5,44.2,26.1,59.1,38.6,68.9c11.1,8.7,32.4,23,45,9.2,1.6-1.7,3.5-4.2,3.4-6.7-.3-4.2-4.2-7.2-7.2-9.5-2.3-1.7-7.1-6.4-10.1-6.3-2.7.1-4.4,2.9-6.1,4.6l-3,3c-.5.5-6.9-3.7-7.6-4.2a51,51,0,0,1-7.3-5.7,47.15,47.15,0,0,1-5.9-6.8c-.5-.7-4.6-6.8-4.2-7.3,0,0,3.5-3.8,4.5-5.3,2.1-3.2,3.7-5.7,1.3-9.5a22.36,22.36,0,0,0-3.2-3.7,60.86,60.86,0,0,0-6.6-5.8C30.3,13.9,28.1,12.1,26.1,11.8Z" transform="translate(-14.7 -11.73)"/></svg>