<svg id="Layer_1" data-name="Layer 1" xmlns="http://www.w3.org/2000/svg" viewBox="0 0 48.23 27.71"><defs><style>.cls-1{fill:#fff;}</style></defs><path class="cls-1" d="M944,428.52c-.4-1.06-.92-2.16.31-2.76l7.48-.1c1.08,0,1.57.84,2.15,1.94a77.28,77.28,0,0,0,5.53,9.43c.69,1,1.84,1.34,2.76-.21q.16-3.12.31-6.25c-.34-2.42-1.18-3.85-2.66-4-.84-.83-.24-1.5,1.66-1.86a22.82,22.82,0,0,1,7.94-.07c1.95.13,2.24,1.45,2.2,3-.08,2.77-.13,5.53-.13,8.3.57,2.8,2.11,1.68,3.13.46a51.66,51.66,0,0,0,4.71-7.92c1.36-2.91,1.73-2.69,2.7-2.7,2.29,0,4.8-.12,6.63-.06,3.8-.23,3.37,1.46,2.29,3.25-1.86,3.12-4.23,5.95-6.35,8.91-1.28,1.75-1.26,2.84.11,3.79,2,2.22,4.2,4.29,6,6.66,2,2.58.52,3.29-1.33,3.49h-6.66a4.94,4.94,0,0,1-4.81-2.46c-2.79-3.69-4.86-4.71-5.7-2.62a9.18,9.18,0,0,0-.65,3.33c0,1.67-1,1.81-2.36,1.85s-3,.36-4.4,0c-5-1.27-9.85-3.62-14.55-11.68-2.11-3.48-4.23-7.28-6.35-11.68Z" transform="translate(-943.5 -424.33)"/></svg>