<svg width="205" height="303" viewBox="0 0 205 303" fill="none" xmlns="http://www.w3.org/2000/svg">
<path d="M205 161.101C204.951 159.066 204.702 157.04 204.257 155.053C204.155 154.102 203.865 153.18 203.404 152.34C202.943 151.501 202.32 150.76 201.571 150.162C200.822 149.564 199.962 149.119 199.04 148.853C198.118 148.588 197.152 148.507 196.199 148.616C195.385 148.61 194.572 148.688 193.774 148.85V148.421C195.73 148.421 196.512 141.241 195.104 139.095C197.06 126.22 199.641 104.409 197.842 89.1148C196.043 73.8201 190.645 67.3823 190.645 67.3823L174.999 85.018C174.999 85.018 185.834 93.2115 185.834 112.057C185.834 116.544 185.834 127.39 186.107 137.262C176.82 136.485 167.497 136.199 158.179 136.403C168.388 134.57 177.737 133.36 181.648 134.765C179.912 131.575 177.379 128.887 174.295 126.961C170.383 125.127 127.356 130.551 122.819 131.565C120.87 132.435 119.266 133.927 118.261 135.806C117.255 137.685 116.905 139.844 117.265 141.944C112.463 143.772 107.438 144.953 102.323 145.455C97.4399 144.993 92.6395 143.891 88.0455 142.178C88.0455 142.178 88.2411 142.178 88.2802 141.905C88.6371 139.801 88.281 137.638 87.268 135.758C86.255 133.879 84.6431 132.39 82.6868 131.526C78.3059 130.512 35.3574 125.088 31.2503 126.922C28.1661 128.848 25.6331 131.536 23.8966 134.726C27.8082 133.321 37.274 134.531 47.3658 136.403C38.0237 136.152 28.6748 136.4 19.3593 137.145C19.3593 127.273 19.6331 116.505 19.6331 112.018C19.6331 93.1725 30.4289 84.9789 30.4289 84.9789L14.7828 67.3433C14.7828 67.3433 9.42403 73.1958 7.58561 89.0757C5.78632 104.136 8.28968 125.518 10.2063 138.471C8.01587 139.174 8.71996 148.342 10.9495 148.342C11.3012 148.321 11.6539 148.321 12.0056 148.342V148.772C10.9815 148.524 9.93015 148.406 8.87642 148.421C7.16055 148.311 5.45266 148.733 3.98702 149.63C2.32717 150.923 1.21118 152.787 0.857796 154.858C0.412942 156.845 0.164018 158.871 0.114598 160.906C-0.0381994 163.036 -0.0381994 165.175 0.114598 167.305C0.402815 169.499 0.873829 171.665 1.52275 173.782C3.75439 181.48 7.46038 188.675 12.4359 194.968C14.0726 197.066 16.0893 198.839 18.3814 200.196C19.0454 200.536 19.7577 200.773 20.4936 200.898C21.0803 206.283 21.7453 211.823 22.5667 217.52C23.0361 220.797 23.5055 224.113 24.0922 227.508C24.5624 230.982 25.3079 234.413 26.3218 237.769C28.8407 244.596 32.2467 251.063 36.4526 257.005C45.0435 269.301 54.8879 280.676 65.8281 290.949C67.2363 292.276 68.6835 293.564 70.1308 294.851C71.6781 296.248 73.3695 297.478 75.1767 298.519C78.8049 300.224 82.6675 301.381 86.6374 301.952C94.4208 302.915 102.272 303.215 110.106 302.85C114.064 302.793 118.001 302.283 121.841 301.328C123.913 300.831 125.875 299.958 127.63 298.753C129.259 297.628 130.826 296.417 132.324 295.124C138.159 290.063 143.709 284.683 148.948 279.01C154.114 273.472 158.997 267.677 163.577 261.648C168.105 255.742 172.035 249.403 175.312 242.725C176.974 239.384 178.096 235.802 178.636 232.112C179.223 228.522 179.614 225.05 180.044 221.577C180.827 214.632 181.453 207.882 182.078 201.249C183.252 188.062 184.386 175.576 185.403 164.066C185.677 161.374 185.912 158.76 186.146 156.263L192.248 150.215C193.207 150.239 194.163 150.343 195.104 150.527C196.323 150.698 197.473 151.197 198.429 151.971C200.071 153.493 200.228 157.355 200.345 161.179C200.345 163.13 200.345 165.081 200.345 167.188C200.253 169.222 199.992 171.245 199.563 173.235C197.809 180.775 194.708 187.938 190.41 194.383C189.033 196.513 187.252 198.355 185.169 199.806C184.582 200.188 183.934 200.465 183.252 200.625H182.509V200.976C183.52 200.974 184.516 200.719 185.403 200.235C187.71 198.899 189.731 197.122 191.349 195.007C196.353 188.727 200.073 181.529 202.301 173.821C202.95 171.704 203.421 169.538 203.709 167.344C204.269 165.291 204.7 163.207 205 161.101ZM149.144 141.085C165.103 141.085 182.039 141.632 182.039 151.581C182.039 167.188 174.216 187.867 151.412 187.867C138.934 187.867 128.256 187.867 120.12 177.02C114.37 169.685 95.673 141.085 149.144 141.085ZM56.284 141.085C109.715 141.085 91.0574 169.49 85.3075 177.02C77.1715 187.672 66.4931 187.867 54.0153 187.867C31.2503 187.867 23.3881 167.11 23.3881 151.581C23.3881 141.632 40.2859 141.085 56.284 141.085ZM19.6331 157.238C19.6331 157.433 19.6331 157.629 19.6331 157.863V156.692C19.6573 156.873 19.6573 157.057 19.6331 157.238ZM19.4375 199.845C17.3537 198.394 15.5734 196.552 14.1961 194.422C9.88245 187.986 6.78075 180.82 5.04309 173.274C4.60204 171.285 4.32732 169.262 4.22171 167.227C4.22171 165.315 4.22171 163.325 4.22171 161.218C4.22171 157.316 4.49549 153.415 6.09922 152.01C7.0703 151.236 8.23225 150.738 9.46313 150.566C10.5065 150.355 11.5669 150.237 12.6314 150.215H12.9835L17.2471 154.507C17.7686 162.467 18.4074 171.115 19.1637 180.453C19.7113 186.891 20.2981 193.641 21.0412 200.586C20.4718 200.422 19.9309 200.172 19.4375 199.845ZM180.279 201.132C179.497 207.726 178.754 214.476 177.932 221.382C177.502 224.816 177.072 228.288 176.524 231.761C175.989 235.166 174.934 238.468 173.395 241.554C170.105 248.029 166.174 254.159 161.66 259.853C157.118 265.78 152.274 271.47 147.149 276.903C142.006 282.417 136.547 287.628 130.798 292.51C129.351 293.72 127.865 294.89 126.378 295.944C124.924 296.91 123.308 297.611 121.606 298.012C117.981 298.885 114.267 299.344 110.537 299.377C102.934 299.682 95.3199 299.355 87.7718 298.402C84.1348 297.86 80.5926 296.809 77.2498 295.28C75.7502 294.369 74.3363 293.324 73.0253 292.159C71.6172 290.949 70.209 289.701 68.84 288.257C58.0317 278.2 48.3046 267.046 39.8165 254.976C35.7735 249.326 32.4862 243.174 30.0377 236.677C28.3094 230.187 27.0029 223.592 26.1262 216.934C24.2486 203.864 22.7623 191.456 21.5889 179.946C21.0412 174.835 20.5718 169.958 20.1025 165.237C25.6568 195.709 61.9557 197.66 79.362 187.555C93.1305 179.517 95.3992 161.92 98.5284 156.341C99.0234 155.797 99.6271 155.362 100.301 155.064C100.974 154.766 101.703 154.612 102.44 154.612C103.177 154.612 103.905 154.766 104.579 155.064C105.253 155.362 105.856 155.797 106.351 156.341C109.481 161.764 111.71 179.361 125.518 187.555C141.712 196.958 174.255 195.904 183.174 171.167C182.431 180.844 181.374 190.754 180.279 201.132Z" fill="#DBDBDB"/>
<path d="M195.886 177.488C195.064 179.595 194.086 181.624 193.148 183.575L190.801 188.881C189.432 192.002 188.61 194.148 188.61 194.148C189.805 192.646 190.902 191.069 191.896 189.427C192.932 187.738 193.872 185.993 194.712 184.199C195.573 182.248 196.355 180.063 197.098 177.878C197.812 175.714 198.349 173.496 198.702 171.245C198.917 170.176 198.917 169.076 198.702 168.007C198.418 167.041 197.81 166.201 196.981 165.627C195.495 164.612 194.126 164.144 193.304 163.637C192.836 163.391 192.391 163.103 191.974 162.779C192.384 163.13 192.815 163.456 193.265 163.754C194.047 164.339 195.416 164.925 196.707 165.939C197.355 166.483 197.808 167.223 197.998 168.046C198.208 168.997 198.208 169.982 197.998 170.933C197.484 173.175 196.777 175.368 195.886 177.488Z" fill="#DBDBDB"/>
<path d="M12.474 183.653C11.5743 181.702 10.5964 179.751 9.73585 177.566C8.92442 175.529 8.28339 173.427 7.81925 171.284C7.60923 170.333 7.60923 169.348 7.81925 168.397C8.00951 167.574 8.46247 166.835 9.11005 166.29C10.4009 165.276 11.7307 164.691 12.5522 164.105C12.9959 163.816 13.4147 163.489 13.8039 163.13C13.3868 163.455 12.9418 163.742 12.474 163.988C11.2131 164.585 9.98571 165.249 8.79713 165.978C7.95608 166.54 7.34531 167.385 7.07605 168.358C6.84184 169.425 6.84184 170.53 7.07605 171.597C7.42932 173.847 7.96568 176.066 8.67979 178.229C9.42297 180.414 10.2053 182.599 11.0658 184.55C11.9263 186.501 12.9824 188.257 13.843 189.778C14.8571 191.416 15.9673 192.992 17.1678 194.499C17.1678 194.499 16.3073 192.354 14.9773 189.232L12.474 183.653Z" fill="#DBDBDB"/>
<path d="M37.9769 156.614L39.1503 154.975C40.1565 153.534 41.3391 152.223 42.6707 151.074C44.5671 149.623 46.7772 148.634 49.1247 148.186H50.0635C49.8763 148.34 49.7174 148.525 49.5941 148.733C49.0647 149.87 48.7847 151.107 48.7727 152.361C48.7289 153.615 48.9678 154.863 49.4716 156.013C49.9755 157.163 50.7315 158.185 51.684 159.005C52.6366 159.825 53.7614 160.421 54.9755 160.749C56.1896 161.078 57.4621 161.13 58.6993 160.903C59.9366 160.676 61.107 160.175 62.1243 159.437C63.1416 158.699 63.98 157.742 64.5776 156.638C65.1752 155.534 65.5169 154.31 65.5774 153.057C65.6379 151.803 65.4157 150.552 64.9272 149.396H65.3184C67.4615 150.079 69.4721 151.121 71.2639 152.478C72.6285 153.524 73.9343 154.645 75.1755 155.834L76.74 157.199H76.9356C76.9597 157.158 76.9723 157.111 76.9723 157.063C76.9723 157.015 76.9597 156.968 76.9356 156.926C76.7098 156.263 76.4487 155.611 76.1533 154.975C75.522 153.263 74.653 151.648 73.5717 150.176C71.7385 148.038 69.3599 146.434 66.6875 145.533C63.7152 144.762 60.6381 144.472 57.5736 144.675C56.0543 144.706 54.5386 144.837 53.0362 145.065C51.552 145.253 50.0864 145.566 48.6554 146.001C46.0919 146.678 43.7559 148.025 41.8884 149.903C40.6374 151.238 39.5718 152.734 38.7201 154.351L37.7422 156.146V156.38L37.9769 156.614ZM53.1145 147.835C54.534 147.738 55.9585 147.738 57.378 147.835H57.9256C58.0627 148.251 58.1288 148.686 58.1212 149.123C58.1212 150.158 57.7091 151.15 56.9756 151.882C56.242 152.613 55.2471 153.025 54.2097 153.025C53.1723 153.025 52.1774 152.613 51.4438 151.882C50.7103 151.15 50.2982 150.158 50.2982 149.123C50.316 148.736 50.3952 148.354 50.5329 147.991C51.3884 147.876 52.2513 147.824 53.1145 147.835Z" fill="#DBDBDB"/>
<path d="M127.902 157.277L129.193 155.678C130.275 154.274 131.48 152.969 132.791 151.776C134.619 150.229 136.771 149.109 139.089 148.498C139.464 148.415 139.842 148.349 140.223 148.303C139.614 149.418 139.269 150.657 139.214 151.925C139.16 153.193 139.397 154.457 139.908 155.62C140.419 156.782 141.191 157.812 142.163 158.631C143.135 159.45 144.283 160.036 145.518 160.344C146.752 160.652 148.041 160.674 149.285 160.408C150.53 160.141 151.696 159.594 152.696 158.808C153.695 158.023 154.501 157.019 155.051 155.874C155.601 154.73 155.881 153.474 155.869 152.205C155.849 151.094 155.624 149.996 155.204 148.967C157.378 149.474 159.435 150.388 161.267 151.659C162.657 152.673 163.965 153.795 165.179 155.014L166.665 156.458H166.861C166.861 156.458 166.861 156.458 166.861 156.224C166.693 155.544 166.471 154.878 166.196 154.234C165.563 152.431 164.594 150.763 163.34 149.318C161.425 147.222 158.937 145.73 156.182 145.026C154.674 144.722 153.144 144.539 151.606 144.48C149.963 144.48 148.711 144.48 147.068 144.48C144.042 144.625 141.051 145.203 138.189 146.196C135.686 147.135 133.445 148.66 131.657 150.644C130.46 152.003 129.387 153.466 128.45 155.014L127.394 156.731C127.394 156.731 127.394 156.926 127.394 156.965L127.902 157.277ZM151.371 148.303C152.31 148.303 153.171 148.694 154.031 148.889C154.049 149.005 154.049 149.123 154.031 149.24C154.031 150.275 153.619 151.267 152.885 151.999C152.152 152.73 151.157 153.141 150.12 153.141C149.082 153.141 148.087 152.73 147.354 151.999C146.62 151.267 146.208 150.275 146.208 149.24C146.213 148.791 146.278 148.344 146.404 147.913H146.951C148.484 147.927 150.014 148.058 151.528 148.303H151.371Z" fill="#DBDBDB"/>
<path d="M19.75 63.7147C20.4829 63.8071 21.1745 64.1048 21.7449 64.573L22.9184 65.7826C23.346 66.2533 23.8032 66.6965 24.2873 67.1092L25.0305 67.6944C28.6338 68.4431 32.3023 68.8351 35.9828 68.8649C38.8955 68.9068 41.8082 68.7765 44.7055 68.4747C47.6974 68.1766 50.6645 67.6681 53.5846 66.9531C56.5046 66.2746 59.3684 65.3746 62.1509 64.2609C64.8498 63.0904 67.4706 61.6858 69.9739 60.3592C75.0589 57.7061 79.7918 55.17 83.9772 53.2581C87.323 51.622 90.8208 50.3152 94.4209 49.3565C95.7813 49.0091 97.168 48.7741 98.5671 48.6541C97.1788 48.839 95.806 49.1259 94.46 49.5125C90.9127 50.559 87.4795 51.9576 84.2118 53.6873C80.3003 55.7162 75.4892 58.4084 70.5215 61.2566C68.0182 62.7003 65.4757 64.1829 62.6985 65.5095C59.8738 66.7568 56.9578 67.7872 53.9758 68.5918C50.999 69.4288 47.9665 70.0547 44.9011 70.4646C41.9494 70.9198 38.9693 71.1675 35.9828 71.2059C34.2226 71.2059 32.5407 71.2059 30.8978 71.2059L31.7193 71.5961C34.4589 72.7441 37.3008 73.6324 40.2073 74.2492C43.725 74.9785 47.2961 75.4221 50.8857 75.5759C54.912 75.7104 58.9425 75.5016 62.9332 74.9516C67.1639 74.3823 71.2886 73.1993 75.1763 71.4401C77.2494 70.4646 79.3616 69.4892 81.5129 68.5528L84.6812 67.1092L88.0843 65.8996C92.525 64.2437 97.0894 62.9391 101.735 61.9979C104.043 61.6468 106.312 61.1786 108.581 60.9835C110.849 60.7884 113.118 60.5933 115.348 60.5933C119.603 60.6089 123.852 60.935 128.06 61.5687C131.971 62.154 135.883 62.9734 139.208 63.6367C142.282 64.3186 145.41 64.7362 148.556 64.8852C149.866 64.9388 151.178 64.8472 152.468 64.6121C153.574 64.4897 154.656 64.2002 155.675 63.7537C156.525 63.4574 157.349 63.092 158.14 62.6613L159.782 61.5297L161.151 60.5543L159.822 61.6078L158.257 62.8173C157.465 63.2884 156.641 63.7055 155.793 64.0658C154.77 64.5712 153.675 64.9135 152.546 65.0803C151.265 65.3947 149.953 65.5648 148.635 65.5875C145.437 65.5953 142.244 65.3342 139.09 64.8071C135.609 64.2999 131.893 63.6366 127.943 63.2855C123.81 62.8652 119.652 62.7608 115.504 62.9733C113.353 62.9733 111.201 63.4416 109.011 63.6367C106.82 63.8318 104.669 64.534 102.44 64.9632C98.0493 66.0805 93.7583 67.555 89.6098 69.3721L86.4805 70.6597L83.3513 72.2594L77.2493 75.4198C73.0493 77.5799 68.5559 79.1177 63.9111 79.9847C59.619 80.8281 55.2597 81.2852 50.8857 81.3503C46.9558 81.381 43.0304 81.0808 39.1511 80.453C36.6309 80.0479 34.1461 79.4478 31.7193 78.6582L34.9267 80.1018C37.6096 81.1696 40.3523 82.0816 43.1409 82.833C46.28 83.6456 49.4679 84.2581 52.685 84.6668C59.67 85.686 66.7729 85.5938 73.7289 84.3937C77.2376 83.6018 80.6984 82.6118 84.0945 81.4284C87.4975 80.2579 90.7832 78.9703 93.9516 77.5267C97.1199 76.0831 100.21 75.0296 103.183 73.9761C105.995 73.0119 108.87 72.2427 111.788 71.6742C116.148 70.8813 120.578 70.5283 125.009 70.6207C128.216 70.6207 130.016 70.8548 130.016 70.8548C130.016 70.8548 128.216 70.8548 125.009 70.8548C120.603 70.8836 116.212 71.3674 111.905 72.2984C109.045 72.9425 106.235 73.7901 103.496 74.8345C100.562 75.966 97.5502 77.2536 94.3818 78.7362C91.2135 80.2189 87.9669 81.5064 84.603 82.6379C81.1709 83.9302 77.6715 85.0373 74.1201 85.9543C66.9829 87.4371 59.6532 87.7665 52.4112 86.9297C49.0779 86.6373 45.7704 86.1027 42.515 85.3301C40.5202 84.8619 38.6035 84.3156 36.8824 83.7694C50.1425 94.421 69.348 99.064 102.635 87.6711C164.085 66.9531 158.648 106.906 188.688 64.6511C181.459 43.8847 167.361 26.1899 148.713 14.4753C146.249 13.734 143.784 12.9926 141.242 12.3293C119.728 6.74992 99.9361 6.0086 88.3971 9.55914C97.2763 4.64301 115.778 4.01875 136.822 8.23258C126.861 4.02472 116.304 1.39196 105.53 0.429189C83.586 1.75577 65.0454 5.46238 54.1714 10.4565C60.3124 6.08665 71.8514 2.41905 86.637 0C82.4516 0 78.149 0.46819 73.6116 1.05344C27.8859 6.82795 9.46271 47.2495 19.3589 62.5832L19.75 63.7147Z" fill="#DBDBDB"/>
<path d="M91.1749 217.363C92.3656 217.436 93.5204 217.797 94.5388 218.417C95.7905 219.119 97.1204 220.251 98.8806 221.343C99.8123 221.927 100.81 222.399 101.853 222.748L103.653 223.138C104.226 223.182 104.801 223.182 105.374 223.138C107.663 223.021 109.872 222.264 111.749 220.953C113.471 219.822 114.761 218.69 116.013 218.027C117.036 217.445 118.201 217.162 119.377 217.207H120.785L120.472 217.012C120.164 216.81 119.837 216.64 119.494 216.505C118.222 216.101 116.855 216.101 115.583 216.505C113.854 217.089 112.189 217.847 110.615 218.768C109.038 219.668 107.267 220.176 105.452 220.251H104.044L102.831 220.017C101.951 219.784 101.099 219.457 100.289 219.041C98.7012 218.167 97.0387 217.436 95.3211 216.856C94.0407 216.508 92.6901 216.508 91.4096 216.856C91.0442 216.947 90.69 217.078 90.3535 217.246H90.0015L91.1749 217.363Z" fill="#DBDBDB"/>
<path d="M115.034 240.891C112.842 240.829 110.656 241.16 108.58 241.866C106.701 242.565 104.718 242.947 102.713 242.998C100.71 242.932 98.7293 242.55 96.8457 241.866C94.7519 241.178 92.5566 240.849 90.3526 240.891L79.3221 241.281L68.5264 241.983C68.5264 241.983 72.8681 242.334 79.3221 242.686L90.3526 243.115C92.2934 243.258 94.2035 243.678 96.0243 244.363C98.1553 245.221 100.417 245.709 102.713 245.807C104.997 245.717 107.248 245.228 109.363 244.363C111.209 243.674 113.146 243.253 115.113 243.115L126.104 242.686C132.558 242.334 136.861 241.983 136.861 241.983C136.861 241.983 132.558 241.671 126.104 241.32L115.034 240.891Z" fill="#DBDBDB"/>
</svg>
