<svg width="202" height="344" viewBox="0 0 202 344" fill="none" xmlns="http://www.w3.org/2000/svg">
<path d="M201.947 200.471C201.888 198.46 201.649 196.458 201.233 194.49C200.851 192.439 199.739 190.596 198.102 189.301C196.65 188.418 194.961 188.003 193.265 188.112C192.526 188.067 191.784 188.067 191.045 188.112C192.036 182.606 193.067 177.061 194.494 171.397C200.996 145.729 195.882 132.855 201.392 116.931C199.013 118.001 196.318 122.477 193.82 122.794C194.573 113.248 196.714 102.236 193.82 93.2045C190.292 82.8265 181.689 75.34 174.196 67.7347C174.523 70.2206 174.321 72.7473 173.603 75.1499C172.886 77.5525 171.67 79.7769 170.033 81.6777C166.069 61.8723 137.287 51.6527 139.943 31.055C137.033 32.1718 134.433 33.9708 132.363 36.3007C130.294 38.6307 128.814 41.4232 128.05 44.4435C128.05 34.1842 119.487 26.1036 112.589 19.4886C112.034 23.4497 111.399 27.1335 110.646 30.9361C110.646 15.9632 95.5416 7.92219 85.0358 0C87.8506 12.9528 79.6442 22.499 76.0365 34.2238C74.6503 32.5257 73.678 30.5289 73.1964 28.391C72.7148 26.2531 72.7371 24.0327 73.2614 21.9048C49.4748 30.342 46.4618 53.5936 44.9157 73.7952C40.0394 69.8341 40.7134 64.2886 40.6737 58.4261C12.0505 88.8473 12.9226 113.881 12.5658 124.141C6.02448 120.576 5.31093 109.128 5.31093 109.128C0.276096 120.338 4.00263 135.826 4.83516 147.749C6.01841 161.367 8.17799 174.882 11.2972 188.192C10.4483 188.027 9.5851 187.947 8.72036 187.954C7.02387 187.84 5.3338 188.255 3.88373 189.142C2.2467 190.437 1.13415 192.28 0.751792 194.331C0.336177 196.3 0.0973909 198.301 0.0382223 200.312C-0.050691 202.427 0.0155724 204.545 0.236456 206.65C0.51534 208.838 0.979487 210.998 1.62397 213.107C3.83802 220.727 7.51387 227.843 12.4469 234.061C14.0445 236.157 16.038 237.92 18.3143 239.25C18.7507 239.454 19.2011 239.626 19.6622 239.765C20.3758 247.212 21.248 254.896 22.2787 262.819C22.6902 266.843 23.4732 270.821 24.6177 274.702C25.9348 278.603 27.5931 282.38 29.5733 285.991C33.5906 293.311 38.1769 300.304 43.2902 306.906C48.5058 313.792 54.0768 320.403 59.9805 326.711C62.9935 329.88 66.0858 333.009 69.4555 335.98C70.2881 336.693 71.1602 337.446 72.1117 338.159C72.6442 338.537 73.2003 338.881 73.7768 339.188L75.2833 339.901C77.4109 340.859 79.6287 341.602 81.9039 342.12C90.8121 343.796 99.8947 344.354 108.941 343.783C113.611 343.757 118.249 343.022 122.698 341.605C125.003 340.685 127.114 339.342 128.922 337.644C130.706 336.218 132.371 334.673 134.036 333.128C147.046 320.676 158.567 306.759 168.368 291.655C173.47 284.251 176.955 275.856 178.597 267.017C179.944 258.422 180.975 249.945 181.847 241.547V240.121C182.513 240.02 183.157 239.806 183.75 239.488C186.018 238.146 188.01 236.385 189.618 234.299C194.551 228.081 198.227 220.964 200.441 213.344C201.085 211.235 201.549 209.075 201.828 206.888C202.006 204.754 202.046 202.61 201.947 200.471ZM18.3935 238.854C16.3326 237.42 14.5802 235.589 13.2398 233.467C8.95396 227.116 5.88877 220.024 4.2009 212.552C3.75235 210.573 3.4738 208.558 3.36834 206.531C3.36834 204.67 3.36834 202.57 3.36834 200.59C3.36834 196.629 3.64583 192.984 5.27125 191.479C6.20428 190.692 7.34864 190.196 8.56174 190.053C9.45225 189.888 10.3529 189.782 11.2576 189.736C13.3587 198.768 15.4202 206.333 16.8474 210.73C17.0853 213.661 17.2835 216.632 17.561 219.682C18.0368 226.02 18.6314 232.595 19.2657 239.488C18.9565 239.303 18.6646 239.091 18.3935 238.854ZM175.187 266.582C173.592 274.976 170.242 282.94 165.355 289.952C155.636 304.763 144.25 318.412 131.42 330.633C129.794 332.138 128.129 333.603 126.464 334.99C124.954 336.371 123.19 337.447 121.271 338.159C117.183 339.467 112.917 340.135 108.624 340.139C99.9068 340.61 91.1643 340.051 82.5778 338.475C80.5548 337.989 78.5783 337.326 76.6709 336.495L75.204 335.822L74.0939 335.109C73.301 334.514 72.4685 333.841 71.6756 333.128C68.4644 330.355 65.4118 327.266 62.4385 324.176C56.6048 318.029 51.0871 311.591 45.9068 304.885C40.8876 298.448 36.3809 291.627 32.4277 284.486C30.5613 281.071 28.9833 277.507 27.71 273.83C26.6023 270.185 25.8326 266.446 25.4106 262.66C23.3095 247.45 21.8823 232.952 20.4154 219.603C19.5433 210.928 18.79 202.768 18.0764 195.084C18.0764 168.703 21.4858 124.299 44.2417 115.862C46.7875 114.983 49.4828 114.62 52.1706 114.792C49.5117 110.485 47.6079 105.757 46.5411 100.81C46.1274 98.9694 45.8361 97.1036 45.6689 95.2247V93.1253L46.1843 95.1851C46.6375 96.9892 47.2069 98.7622 47.889 100.493C49.7562 105.669 52.656 110.413 56.4126 114.436L57.0072 114.991C61.606 115.585 66.7993 116.773 72.4685 117.961C71.4266 116.338 70.4993 114.644 69.6934 112.891C68.883 111.104 68.1943 109.265 67.6319 107.385C67.1219 105.509 66.7247 103.605 66.4426 101.681C66.1763 99.856 66.0043 98.0183 65.9272 96.1753C65.9272 94.3532 65.9272 92.65 65.9272 91.0259C65.9825 89.5002 66.1281 87.9792 66.3633 86.4707C66.6431 84.2043 67.0534 81.956 67.5923 79.7368L68.2266 77.2413L67.9094 79.816C67.6414 82.0506 67.509 84.2993 67.5129 86.5499C67.5129 87.9363 67.5129 89.4415 67.5129 90.9863C67.5129 92.5312 67.8697 94.2344 68.068 95.9377C68.3608 97.66 68.7446 99.3657 69.2177 101.047C69.6934 102.777 70.2895 104.471 71.0017 106.118C71.6721 107.742 72.4811 109.306 73.42 110.792C74.3042 112.179 75.2845 113.503 76.3537 114.753C77.3834 115.89 78.4965 116.95 79.6838 117.922L81.3489 119.229L82.6968 120.021C88.3062 120.947 93.9792 121.437 99.6646 121.487C119.487 121.487 134.274 116.218 146.802 114.357C151.19 111.727 154.952 108.172 157.823 103.939C158.662 102.677 159.404 101.352 160.043 99.978L160.717 98.3936L160.439 100.018C160.204 101.454 159.819 102.861 159.29 104.216C157.936 107.816 155.827 111.084 153.105 113.802C157.737 113.509 162.371 114.324 166.624 116.179C178.517 121.566 182.799 149.016 184.028 173.852C183.195 194.727 181.292 217.424 178.557 241.191C177.566 249.47 176.575 257.946 175.187 266.423V266.582ZM197.586 212.711C195.881 220.177 192.817 227.266 188.547 233.625C187.194 235.75 185.428 237.582 183.354 239.012C182.882 239.344 182.36 239.598 181.808 239.765C182.601 231.843 183.301 224.039 183.909 216.355V216.672C187.074 207.994 189.371 199.025 190.767 189.895L193.067 190.212C194.292 190.353 195.449 190.849 196.397 191.638C198.022 193.143 198.141 196.946 198.26 200.748C198.26 202.689 198.458 204.709 198.26 206.69C198.198 208.659 197.973 210.62 197.586 212.552V212.711Z" fill="#DBDBDB"/>
<path d="M66.3639 192.39H66.7207C68.7506 193.021 70.6554 194 72.3502 195.282C73.6459 196.274 74.8898 197.331 76.0767 198.451C76.9886 199.283 77.5832 199.758 77.5832 199.758C77.6196 199.721 77.6399 199.671 77.6399 199.619C77.6399 199.567 77.6196 199.518 77.5832 199.481C77.3826 198.859 77.1443 198.251 76.8696 197.659C76.1835 196.028 75.2619 194.506 74.1342 193.143C72.4497 191.228 70.2682 189.816 67.8307 189.063C65.0288 188.313 62.1218 188.031 59.2279 188.231C57.795 188.268 56.3655 188.387 54.9463 188.588C53.6075 188.793 52.2833 189.084 50.9818 189.459C48.5319 190.197 46.3178 191.563 44.5595 193.42C43.3957 194.689 42.3967 196.1 41.5861 197.619L40.6743 199.322C40.6743 199.322 40.6743 199.52 40.6743 199.56H40.9518L42.0618 198.015C43.0083 196.672 44.128 195.46 45.392 194.41C47.1701 193.035 49.2484 192.098 51.4576 191.677H52.3694C52.1815 191.808 52.0311 191.985 51.9333 192.192C51.3495 193.4 51.082 194.735 51.1559 196.074C51.2297 197.413 51.6425 198.712 52.3556 199.848C53.0687 200.984 54.0588 201.92 55.233 202.57C56.4072 203.219 57.7272 203.56 59.0693 203.561C61.1722 203.561 63.1889 202.726 64.6759 201.24C66.1628 199.754 66.9982 197.739 66.9982 195.638C67.0333 194.522 66.8165 193.412 66.3639 192.39ZM56.2942 196.351C55.2987 196.272 54.37 195.819 53.6938 195.085C53.0176 194.35 52.6437 193.388 52.6469 192.39C52.6693 192.023 52.7496 191.663 52.8848 191.321C53.6571 191.181 54.4391 191.101 55.2238 191.083C56.5441 191.005 57.8679 191.005 59.1882 191.083H59.7433C59.8031 191.477 59.8031 191.878 59.7433 192.271C59.7394 193.244 59.3777 194.181 58.727 194.904C58.0764 195.627 57.1823 196.086 56.2149 196.193L56.2942 196.351Z" fill="#DBDBDB"/>
<path d="M171.302 171.436C166.66 168.657 161.37 167.142 155.96 167.039C146.048 167.93 136.279 170.004 126.861 173.218C123.531 174.129 116.553 181.141 117.862 184.507C118.694 186.646 124.165 185.26 126.147 184.507C135.93 180.845 146.029 178.087 156.317 176.268C163.763 175.57 171.265 176.77 178.121 179.754C176.585 176.452 174.24 173.591 171.302 171.436Z" fill="#DBDBDB"/>
<path d="M47.612 176.308C57.8995 178.127 67.9983 180.885 77.7814 184.547C79.7636 185.141 85.1949 186.528 86.0671 184.547C87.3754 181.299 80.3583 174.169 77.0678 173.258C67.6325 170.081 57.8497 168.046 47.9292 167.198C42.5308 167.298 37.2535 168.814 32.6265 171.594C29.6837 173.761 27.3379 176.636 25.8076 179.952C32.65 176.914 40.1524 175.66 47.612 176.308Z" fill="#DBDBDB"/>
<path d="M159.409 192.509C157.609 190.526 155.242 189.143 152.63 188.548C151.226 188.216 149.79 188.043 148.348 188.033C146.909 187.954 145.466 187.954 144.027 188.033C141.174 188.163 138.356 188.711 135.662 189.657C133.286 190.527 131.162 191.969 129.477 193.856C128.355 195.082 127.346 196.408 126.464 197.817L125.434 199.441C125.409 199.483 125.396 199.531 125.396 199.579C125.396 199.628 125.409 199.676 125.434 199.718H125.671L126.861 198.213C127.912 196.933 129.065 195.74 130.31 194.648C132.036 193.186 134.068 192.13 136.257 191.558H137.327C136.681 192.695 136.327 193.975 136.296 195.282C136.281 196.465 136.53 197.637 137.027 198.711C137.524 199.785 138.256 200.734 139.168 201.489C140.08 202.243 141.15 202.784 142.299 203.072C143.447 203.359 144.646 203.386 145.807 203.15C146.967 202.913 148.06 202.42 149.005 201.707C149.95 200.994 150.723 200.078 151.267 199.027C151.811 197.976 152.113 196.816 152.149 195.634C152.186 194.451 151.958 193.275 151.48 192.192C153.534 192.662 155.483 193.508 157.229 194.687C158.511 195.664 159.717 196.736 160.836 197.896L162.224 199.243C162.224 199.243 162.224 199.243 162.224 199.005C161.555 196.641 160.423 194.432 158.894 192.509H159.409ZM150.687 192.232C150.687 192.71 150.593 193.184 150.41 193.626C150.226 194.068 149.958 194.47 149.619 194.808C149.28 195.147 148.878 195.415 148.436 195.598C147.993 195.782 147.519 195.876 147.04 195.876C146.561 195.876 146.087 195.782 145.644 195.598C145.202 195.415 144.8 195.147 144.461 194.808C144.122 194.47 143.853 194.068 143.67 193.626C143.487 193.184 143.393 192.71 143.393 192.232C143.38 191.801 143.448 191.371 143.591 190.964C143.749 190.984 143.909 190.984 144.067 190.964C145.396 190.998 146.721 191.13 148.031 191.36L150.568 191.915C150.568 191.915 150.687 192.113 150.687 192.232Z" fill="#DBDBDB"/>
<path d="M87.6928 259.135C88.8868 259.21 90.044 259.577 91.0625 260.204C92.3311 260.917 93.7187 262.026 95.5027 263.135C96.9679 264.085 98.6152 264.719 100.339 264.997C100.907 265.039 101.477 265.039 102.044 264.997C104.365 264.917 106.611 264.159 108.506 262.818C110.25 261.67 111.598 260.521 112.867 259.808C113.892 259.229 115.061 258.954 116.237 259.016H117.704H117.347C117.052 258.815 116.732 258.655 116.395 258.54C115.135 258.034 113.743 257.95 112.431 258.303C110.665 258.909 108.965 259.692 107.356 260.64C105.769 261.54 103.987 262.043 102.163 262.105C101.688 262.144 101.211 262.144 100.736 262.105C100.307 262.043 99.883 261.95 99.4671 261.828C98.5859 261.575 97.7246 261.257 96.8902 260.877C95.2738 259.994 93.5903 259.239 91.8554 258.62C90.5581 258.262 89.1882 258.262 87.8909 258.62C87.5329 258.711 87.1869 258.844 86.8602 259.016H86.5034C86.9018 259.032 87.299 259.072 87.6928 259.135Z" fill="#DBDBDB"/>
<path d="M111.875 283.02C109.643 282.965 107.418 283.286 105.294 283.971C103.392 284.696 101.382 285.097 99.3474 285.159C97.3255 285.098 95.3285 284.696 93.4404 283.971C91.3159 283.286 89.091 282.965 86.8594 283.02L75.64 283.416C69.0987 283.773 64.7378 284.129 64.7378 284.129C64.7378 284.129 69.0987 284.486 75.64 284.842L86.8197 285.238C88.802 285.393 90.7515 285.834 92.6078 286.546C94.7372 287.485 97.0394 287.971 99.3672 287.971C101.695 287.971 103.997 287.485 106.127 286.546C107.982 285.829 109.932 285.389 111.915 285.238L123.094 284.842C129.636 284.486 133.997 284.129 133.997 284.129C133.997 284.129 129.636 283.773 123.094 283.416L111.875 283.02Z" fill="#DBDBDB"/>
<path d="M118.575 293.438V293.873C118.452 294.273 118.218 294.63 117.901 294.903C117.393 295.309 116.815 295.617 116.196 295.814C115.379 296.062 114.544 296.247 113.699 296.369C104.262 297.055 94.7888 297.055 85.3528 296.369C84.4952 296.243 83.6474 296.058 82.8155 295.814C82.204 295.628 81.6373 295.317 81.1505 294.903C80.7937 294.507 80.4765 294.19 80.4369 293.873V293.438C80.4046 294.074 80.556 294.707 80.873 295.26C81.3327 295.858 81.8968 296.368 82.538 296.765C83.3464 297.262 84.2115 297.661 85.1149 297.953C94.6821 300.33 104.686 300.33 114.254 297.953C115.157 297.661 116.022 297.262 116.83 296.765C117.461 296.368 118.012 295.858 118.456 295.26C118.713 294.686 118.756 294.04 118.575 293.438Z" fill="#DBDBDB"/>
</svg>
