<svg width="213" height="312" viewBox="0 0 213 312" fill="none" xmlns="http://www.w3.org/2000/svg">
<path d="M19.43 192.613C18.5377 190.673 17.5237 188.572 16.672 186.511C15.8496 184.453 15.1984 182.331 14.7251 180.167C14.5074 179.209 14.5074 178.215 14.7251 177.258C14.8831 176.411 15.3443 175.65 16.023 175.116C17.3209 174.065 18.6999 173.459 19.5111 172.853C19.965 172.559 20.3986 172.235 20.809 171.883C20.3876 172.203 19.9398 172.487 19.4706 172.732C18.6188 173.257 17.2804 173.702 15.7391 174.752C14.8839 175.317 14.2752 176.183 14.0356 177.177C13.7922 178.241 13.7922 179.346 14.0356 180.41C14.369 182.69 14.9121 184.936 15.658 187.117C16.388 189.34 17.1992 191.522 18.051 193.542C18.9027 195.563 19.9979 197.3 20.8902 198.795C21.8999 200.451 23.0106 202.043 24.2161 203.564C24.2161 203.564 23.3643 201.382 21.9853 198.189L19.43 192.613Z" fill="#DBDBDB"/>
<path d="M212.982 169.661C212.913 167.608 212.655 165.565 212.211 163.559C211.848 161.446 210.705 159.544 209.007 158.225C207.516 157.339 205.793 156.917 204.059 157.013C202.839 157.01 201.625 157.173 200.449 157.498C199.705 157.706 198.995 158.019 198.34 158.427L197.651 158.832V159.155C198.587 158.879 199.554 158.716 200.53 158.67C201.607 158.656 202.682 158.765 203.734 158.993C204.974 159.17 206.14 159.688 207.101 160.488C208.764 162.024 208.926 165.903 209.048 169.782C209.048 171.722 209.251 173.823 209.048 175.803C208.955 177.87 208.683 179.925 208.237 181.945C206.466 189.565 203.333 196.806 198.989 203.321C197.673 205.439 195.966 207.29 193.96 208.776C193.472 209.097 192.939 209.342 192.378 209.504C194.162 192.128 195.46 175.601 196.434 160.448C196.992 158.919 198.033 157.612 199.401 156.723C200.769 155.834 202.389 155.411 204.018 155.518C206.29 155.518 207.02 145.497 204.748 144.729C202.273 144.095 199.75 143.663 197.204 143.436C197.204 142.749 197.204 142.022 197.204 141.335C199.07 124.403 201.26 104.967 202.437 93.4909C204.789 71.7107 197.326 53.8905 180.98 45.0006C177.857 43.263 174.856 53.4864 174.856 62.7803C174.856 73.327 164.189 77.8932 167.312 79.4691C187.592 89.4096 193.067 119.514 194.244 143.274C174.723 141.574 155.063 142.402 135.756 145.739C127.077 147.598 116.896 152.487 110.366 152.487C103.836 152.487 93.6555 147.598 85.0163 145.739C65.2577 142.285 45.1251 141.469 25.1502 143.315C25.5707 134.666 26.4643 126.046 27.8272 117.494C23.7194 122.424 20.1059 127.743 17.0383 133.374C17.6061 137.011 18.174 140.607 18.7418 144.163C17.7985 144.314 16.8642 144.516 15.9432 144.769C13.6719 145.537 14.4019 155.558 16.6733 155.558C18.0772 155.527 19.4683 155.831 20.7292 156.447L20.9726 157.821C20.6731 157.683 20.3607 157.575 20.0397 157.498C18.8648 157.171 17.6499 157.008 16.4299 157.013C14.4829 156.81 12.5344 157.385 11.0132 158.613C9.4919 159.84 8.52242 161.62 8.31797 163.559C7.88794 165.567 7.64356 167.609 7.5879 169.661C7.44987 171.814 7.44987 173.973 7.5879 176.126C7.89699 178.341 8.37151 180.529 9.0075 182.673C11.2822 190.454 15.0417 197.726 20.0803 204.089C21.7241 206.208 23.7621 207.992 26.0831 209.342C26.5216 209.579 26.9838 209.768 27.4621 209.908C27.8272 214.272 28.2328 219.081 28.7601 224.374C29.2468 228.415 29.7335 232.981 30.6664 237.79C31.9225 242.747 33.8032 247.527 36.2636 252.014C41.7584 261.873 48.2113 271.171 55.5294 279.774C59.3421 284.381 63.6414 288.987 67.6973 293.513C69.8876 295.776 72.1183 298.039 74.4708 300.261C76.8368 302.618 79.4015 304.767 82.1366 306.686C88.3614 309.851 95.2267 311.564 102.214 311.697C109.049 312.101 115.902 312.101 122.737 311.697C126.328 311.479 129.874 310.786 133.282 309.636C135.072 308.968 136.732 307.997 138.19 306.767C139.61 305.676 140.948 304.504 142.246 303.332C147.362 298.593 152.209 293.575 156.766 288.3C166.05 277.975 174.296 266.769 181.386 254.842C184.999 248.905 187.577 242.402 189.011 235.608C190.147 228.981 190.958 222.435 191.688 216.01L192.297 210.07C192.974 209.931 193.629 209.699 194.244 209.383C196.586 208.045 198.64 206.26 200.287 204.13C205.327 197.773 209.074 190.498 211.319 182.713C211.993 180.579 212.469 178.388 212.739 176.167C212.959 174.006 213.04 171.833 212.982 169.661ZM37.9265 144.123C42.307 143.8 48.5532 143.557 56.0973 143.678C64.7178 143.742 73.3184 144.512 81.8121 145.982C86.6284 146.907 91.3521 148.26 95.9269 150.022C100.512 151.875 105.329 153.098 110.244 153.659C115.135 153.173 119.937 152.031 124.521 150.265C129.125 148.661 133.843 147.404 138.636 146.507C147.13 145.148 155.709 144.392 164.31 144.244C171.814 144.244 178.101 144.244 182.481 144.446L189.376 144.81L182.481 144.567C178.101 144.567 171.814 144.567 164.31 144.769C155.769 145.102 147.259 146.006 138.839 147.477C134.102 148.457 129.45 149.808 124.927 151.518C120.203 153.435 115.234 154.687 110.163 155.235C105.106 154.754 100.139 153.584 95.3996 151.76C90.8552 150.198 86.2065 148.956 81.4876 148.042C73.0732 146.63 64.5807 145.726 56.0567 145.335C41.0902 144.608 31.0314 144.931 31.0314 144.931L37.9265 144.123ZM188.565 215.565C187.713 221.95 186.902 228.496 185.726 234.961C184.33 241.361 181.862 247.481 178.425 253.064C171.403 264.776 163.253 275.779 154.089 285.916C149.506 291.008 144.761 296.019 139.772 300.585C138.515 301.716 137.217 302.848 135.716 303.817C134.516 304.824 133.141 305.605 131.66 306.121C128.563 307.14 125.345 307.751 122.088 307.939C115.428 308.323 108.752 308.323 102.092 307.939C95.7878 307.754 89.5947 306.239 83.9212 303.494C79.0033 299.698 74.4048 295.509 70.1715 290.967C65.8722 286.482 62.0595 281.956 58.0036 277.431C50.822 269.04 44.4782 259.973 39.0622 250.357C36.7384 246.146 34.9404 241.668 33.7083 237.022C32.7755 232.577 32.2076 228.092 31.5992 223.97C30.3013 215.686 29.3279 208.413 28.5167 202.392L25.7181 183.602C25.7181 183.602 25.7181 190.512 26.6104 202.594C26.6104 204.695 26.9349 206.958 27.0971 209.342C26.7434 209.199 26.4039 209.023 26.0831 208.817C24.0872 207.315 22.3945 205.45 21.0943 203.321C16.7335 196.815 13.5997 189.571 11.8467 181.945C11.3878 179.926 11.1028 177.871 10.9949 175.803C10.9949 173.904 10.9949 171.762 10.9949 169.782C10.9949 165.741 11.2383 162.024 12.9012 160.488C13.8778 159.688 15.0564 159.171 16.3082 158.993C17.3605 158.765 18.4355 158.656 19.5125 158.67H20.8104C23.2439 173.136 25.1097 183.764 25.1097 183.764C25.1097 183.764 24.4202 174.793 24.4202 161.943C24.646 162.937 24.7549 163.954 24.7447 164.974C24.7447 180.369 27.0971 190.552 35.9391 196.735C51.149 207.322 77.9589 205.948 90.208 198.391C104.323 189.623 102.741 170.469 105.986 164.529C106.439 163.897 107.055 163.398 107.769 163.086C108.482 162.773 109.268 162.657 110.042 162.751C110.815 162.666 111.597 162.785 112.309 163.097C113.022 163.41 113.638 163.903 114.098 164.529C117.302 170.469 115.761 189.623 129.875 198.391C142.408 206.109 169.948 207.403 185.118 196.007C187.841 194.064 190.076 191.52 191.648 188.572C190.755 197.247 189.728 206.258 188.565 215.606V215.565Z" fill="#DBDBDB"/>
<path d="M203.613 186.309C202.72 188.411 201.747 190.35 200.814 192.411C199.881 194.472 199.151 196.209 198.421 197.785C197.042 200.978 196.231 203.16 196.231 203.16C197.436 201.64 198.547 200.047 199.557 198.391C200.59 196.695 201.524 194.941 202.355 193.138C203.248 191.118 204.059 189.098 204.789 186.713C205.535 184.532 206.078 182.286 206.411 180.006C206.655 178.942 206.655 177.837 206.411 176.773C206.14 175.783 205.522 174.922 204.667 174.348C203.462 173.607 202.216 172.932 200.936 172.328C200.482 172.078 200.049 171.794 199.638 171.479C200.027 171.839 200.448 172.164 200.895 172.449C201.747 173.055 203.126 173.662 204.424 174.712C205.089 175.257 205.547 176.013 205.722 176.854C205.899 177.816 205.899 178.801 205.722 179.763C205.186 181.995 204.481 184.184 203.613 186.309Z" fill="#DBDBDB"/>
<path d="M96.8994 220.899C98.1163 221 99.2948 221.373 100.347 221.99C101.685 222.717 103.064 223.889 104.89 225.021C105.838 225.657 106.877 226.147 107.972 226.476C108.578 226.676 109.203 226.812 109.838 226.88C110.418 226.924 111.001 226.924 111.582 226.88C113.954 226.786 116.249 226.015 118.193 224.657C119.978 223.485 121.357 222.314 122.655 221.586C123.702 220.989 124.896 220.695 126.102 220.737H127.603H127.279C126.95 220.544 126.612 220.369 126.265 220.212C124.945 219.797 123.528 219.797 122.209 220.212C120.395 220.813 118.654 221.613 117.017 222.596C115.388 223.502 113.568 224.014 111.704 224.091H110.243C109.818 224.031 109.397 223.936 108.986 223.809C108.08 223.564 107.198 223.239 106.35 222.839C104.701 221.929 102.977 221.158 101.199 220.535C99.8732 220.158 98.4682 220.158 97.1427 220.535C96.7764 220.628 96.4225 220.764 96.0882 220.94H95.7231L96.8994 220.899Z" fill="#DBDBDB"/>
<path d="M121.641 245.144C119.358 245.088 117.082 245.415 114.908 246.114C112.971 246.834 110.931 247.243 108.865 247.326C106.785 247.243 104.732 246.834 102.781 246.114C100.61 245.402 98.3332 245.06 96.0478 245.104L84.5694 245.548C77.8771 245.912 73.4155 246.276 73.4155 246.276C73.4155 246.276 77.8771 246.599 84.5694 246.963L96.0073 247.407C98.0353 247.565 100.03 248.015 101.929 248.741C104.107 249.699 106.463 250.194 108.844 250.194C111.226 250.194 113.581 249.699 115.76 248.741C117.659 248.015 119.653 247.565 121.682 247.407L133.119 246.963C139.812 246.599 144.273 246.276 144.273 246.276C144.273 246.276 139.812 245.912 133.119 245.548L121.641 245.144Z" fill="#DBDBDB"/>
<path d="M128.535 255.893V256.337C128.368 256.735 128.12 257.093 127.805 257.388C127.287 257.803 126.695 258.118 126.061 258.317C125.225 258.57 124.371 258.759 123.506 258.883C118.698 259.409 113.859 259.585 109.026 259.408C104.179 259.585 99.3263 259.41 94.5055 258.883C93.6443 258.74 92.7913 258.551 91.9502 258.317C91.2586 258.08 90.6136 257.724 90.0439 257.267C89.7346 256.975 89.4985 256.615 89.3544 256.216V255.772C89.2915 256.418 89.4333 257.068 89.76 257.63C90.2404 258.231 90.8157 258.75 91.4635 259.166C92.2906 259.673 93.1757 260.08 94.0999 260.378C98.9516 261.746 103.986 262.359 109.026 262.197C114.052 262.36 119.074 261.747 123.911 260.378C124.835 260.08 125.721 259.673 126.548 259.166C127.204 258.76 127.781 258.24 128.251 257.63C128.496 257.086 128.594 256.487 128.535 255.893Z" fill="#DBDBDB"/>
<path d="M36.1413 55.2239C26.5416 65.4665 19.5208 77.8339 15.6566 91.3082C11.7924 104.782 11.1953 118.978 13.9146 132.727L14.2391 133.091C41.0085 64.8816 156.198 106.664 171.286 64.8007C166.173 58.7254 159.829 53.7955 152.669 50.3345C159.442 52.816 165.708 56.4987 171.164 61.2044C167.784 55.1308 163.195 49.8085 157.679 45.5632C152.162 41.3179 145.834 38.2389 139.082 36.5147C152.385 38.8898 164.476 45.7183 173.355 55.8705C169.42 44.1367 162.046 33.8476 152.182 26.3318C160.906 31.8068 168.595 38.769 174.896 46.8998C175.198 45.2599 175.848 43.7032 176.802 42.3336C176.802 42.3336 166.784 3.70303 99.2927 0.187486C56.9078 -2.03498 24.4601 15.664 8.92575 44.6369C24.3384 25.362 45.4295 13.5627 66.9666 13.1586C38.5749 20.3513 8.92575 44.6369 2.07117 76.7213C-0.240731 87.3892 -1.9848 103.795 4.66699 116.524C5.55823 104.734 8.80093 93.2403 14.2053 82.7147C19.6097 72.189 27.0672 62.8431 36.1413 55.2239Z" fill="#DBDBDB"/>
</svg>
