<svg id="Color" xmlns="http://www.w3.org/2000/svg" viewBox="0 0 162.53 162.5"><defs><style>.cls-1{fill:#e2306c;}</style></defs><circle class="cls-1" cx="81.25" cy="81.25" r="7.81"/><circle class="cls-1" cx="43.87" cy="81.25" r="7.81"/><circle class="cls-1" cx="118.64" cy="81.25" r="7.81"/><path class="cls-1" d="M100.12,181.25a89.09,89.09,0,0,1-9.24-.51,71,71,0,0,1-25.07-7.83,92.85,92.85,0,0,1-38.13-37.44,71.15,71.15,0,0,1-8.26-24.92,81.46,81.46,0,0,1,91.15-91.14,71.4,71.4,0,0,1,24.88,8.25,92.76,92.76,0,0,1,37.43,38,71.28,71.28,0,0,1,7.85,25A80.74,80.74,0,0,1,168.27,144h0a2.7,2.7,0,0,0-.36,2.05c1.18,4.34,4.83,17,5.92,20.84a5.48,5.48,0,0,1-3.73,6.78,5.42,5.42,0,0,1-3,0l-20.61-5.94a2.63,2.63,0,0,0-2.17.29,80.3,80.3,0,0,1-44.14,13.13Zm-.06-151.56A70.29,70.29,0,0,0,29.68,99.91a68.39,68.39,0,0,0,.6,9.27c3.67,29.16,32.54,57.5,61.78,60.68A69.9,69.9,0,0,0,138.31,159a13.63,13.63,0,0,1,11.09-1.64h0l11.15,3.23c-1.29-4.51-2.6-9.16-3.24-11.53h0a13.55,13.55,0,0,1,1.76-10.84A69.91,69.91,0,0,0,169.85,92c-3.21-29.2-31.56-58-60.67-61.7A71.27,71.27,0,0,0,100.06,29.69Z" transform="translate(-18.75 -18.75)"/></svg>