<svg id="Layer_1" data-name="Layer 1" xmlns="http://www.w3.org/2000/svg" viewBox="0 0 95.49 125.95"><defs><style>.cls-1{fill:#e2306c;}</style></defs><path class="cls-1" d="M97.8,15A47.8,47.8,0,0,0,30.2,82.6l33.8,33L97.7,82.5h0A47.71,47.71,0,0,0,97.8,15ZM92.1,76.8,64,104.4,35.9,76.9a39.77,39.77,0,1,1,67.8-28.2A38.9,38.9,0,0,1,92.1,76.8Z" transform="translate(-16.25 -1.05)"/><path class="cls-1" d="M64,28.3A20.45,20.45,0,1,0,84.4,48.8,20.42,20.42,0,0,0,64,28.3Zm0,32.9A12.45,12.45,0,1,1,76.4,48.7,12.46,12.46,0,0,1,64,61.2Z" transform="translate(-16.25 -1.05)"/><rect class="cls-1" x="10.75" y="117.95" width="74" height="8"/></svg>