<svg id="Layer_1" data-name="Layer 1" xmlns="http://www.w3.org/2000/svg" viewBox="0 0 119.53 104.33"><defs><style>.cls-1{fill:#e2306c;}</style></defs><path class="cls-1" d="M114.6,66.4a31.45,31.45,0,0,0,0-44.5h0a31.57,31.57,0,0,0-44.6,0l-6,6-6-6a31.45,31.45,0,0,0-44.5,0A31.06,31.06,0,0,0,4.3,44.2a31.65,31.65,0,0,0,9.2,22.3L64,117ZM12.2,44.2a23,23,0,0,1,6.9-16.6,23.42,23.42,0,0,1,33.2,0L64,39.2,75.7,27.5a23.5,23.5,0,0,1,40.1,16.6,23,23,0,0,1-6.9,16.6L64,105.7,19.1,60.8A23.73,23.73,0,0,1,12.2,44.2Z" transform="translate(-4.3 -12.67)"/></svg>