<svg id="Capa_1" data-name="Capa 1" xmlns="http://www.w3.org/2000/svg" viewBox="0 0 612.01 620.69"><defs><style>.cls-1{fill:#e2306c;}</style></defs><g id="Search"><path class="cls-1" d="M605.23,555.85,479.17,429.79a264.54,264.54,0,0,0,56.85-164C536,119,417,0,270.18,0S4.34,119,4.34,265.84s119,265.84,265.84,265.84a264.29,264.29,0,0,0,154-49.43L551.51,609.57a38,38,0,0,0,53.72-53.72ZM417.78,399.56a37.28,37.28,0,0,0-14,8.62,37.94,37.94,0,0,0-8.37,12.68,198.44,198.44,0,0,1-125.27,44.36C160.07,465.22,70.8,376,70.8,265.84S160.07,66.46,270.18,66.46s199.38,89.27,199.38,199.38A198.49,198.49,0,0,1,417.78,399.56Z" transform="translate(-4.34)"/></g></svg>