<svg id="objects" xmlns="http://www.w3.org/2000/svg" xmlns:xlink="http://www.w3.org/1999/xlink" viewBox="0 0 157.85 157.85"><defs><style>.cls-1{fill:url(#radial-gradient);}.cls-2{fill:url(#radial-gradient-2);}.cls-3{fill:url(#radial-gradient-3);}</style><radialGradient id="radial-gradient" cx="903.02" cy="528.17" r="225.72" gradientUnits="userSpaceOnUse"><stop offset="0.03" stop-color="#feff5b"/><stop offset="0.33" stop-color="#f2203e"/><stop offset="0.65" stop-color="#b729a8"/><stop offset="1" stop-color="#3042fe"/></radialGradient><radialGradient id="radial-gradient-2" cx="903.02" cy="528.17" r="225.72" xlink:href="#radial-gradient"/><radialGradient id="radial-gradient-3" cx="903.02" cy="528.16" r="225.72" xlink:href="#radial-gradient"/></defs><path class="cls-1" d="M1015.05,512.84h-68a45,45,0,0,1-44.93-44.93v-68A45,45,0,0,1,947.06,355h68A45,45,0,0,1,1060,399.92v68A45,45,0,0,1,1015.05,512.84Zm-68-144.32a31.43,31.43,0,0,0-31.4,31.4v68a31.43,31.43,0,0,0,31.4,31.4h68a31.43,31.43,0,0,0,31.4-31.4v-68a31.44,31.44,0,0,0-31.4-31.4Z" transform="translate(-902.13 -354.99)"/><path class="cls-2" d="M981.05,474.33a40.42,40.42,0,1,1,40.42-40.41A40.46,40.46,0,0,1,981.05,474.33Zm0-67.3a26.89,26.89,0,1,0,26.89,26.89A26.91,26.91,0,0,0,981.05,407Z" transform="translate(-902.13 -354.99)"/><path class="cls-3" d="M1032.92,391.19a9.72,9.72,0,1,1-9.72-9.72A9.72,9.72,0,0,1,1032.92,391.19Z" transform="translate(-902.13 -354.99)"/></svg>