<svg width="42" height="42" viewBox="0 0 42 42" fill="none" xmlns="http://www.w3.org/2000/svg">
<path d="M20.9998 31.8628C18.8515 31.8628 16.7514 31.2258 14.9651 30.0322C13.1789 28.8387 11.7867 27.1423 10.9645 25.1575C10.1424 23.1727 9.9273 20.9887 10.3464 18.8817C10.7655 16.7746 11.8 14.8392 13.3191 13.3201C14.8382 11.801 16.7736 10.7665 18.8807 10.3474C20.9877 9.92827 23.1717 10.1434 25.1565 10.9655C27.1413 11.7876 28.8377 13.1798 30.0312 14.9661C31.2248 16.7524 31.8618 18.8524 31.8618 21.0007C31.8618 23.8815 30.7174 26.6444 28.6804 28.6814C26.6434 30.7184 23.8806 31.8628 20.9998 31.8628ZM20.9998 11.587C19.1379 11.587 17.3178 12.1391 15.7697 13.1735C14.2217 14.2079 13.0151 15.6781 12.3026 17.3982C11.5901 19.1184 11.4036 21.0112 11.7669 22.8373C12.1301 24.6634 13.0267 26.3408 14.3432 27.6573C15.6598 28.9738 17.3371 29.8704 19.1632 30.2337C20.9893 30.5969 22.8821 30.4105 24.6023 29.698C26.3224 28.9854 27.7927 27.7789 28.8271 26.2308C29.8615 24.6827 30.4136 22.8626 30.4136 21.0007C30.4136 18.5041 29.4218 16.1096 27.6563 14.3442C25.8909 12.5788 23.4965 11.587 20.9998 11.587Z" fill="#F1787A"/>
<path d="M21.0001 24.6213C20.284 24.6213 19.584 24.4089 18.9885 24.0111C18.3931 23.6132 17.929 23.0477 17.655 22.3862C17.381 21.7246 17.3093 20.9966 17.449 20.2942C17.5887 19.5919 17.9335 18.9467 18.4399 18.4404C18.9462 17.934 19.5914 17.5892 20.2937 17.4495C20.9961 17.3097 21.7241 17.3815 22.3857 17.6555C23.0473 17.9295 23.6127 18.3936 24.0106 18.989C24.4084 19.5844 24.6208 20.2845 24.6208 21.0006C24.6208 21.9608 24.2393 22.8818 23.5603 23.5608C22.8813 24.2398 21.9604 24.6213 21.0001 24.6213ZM21.0001 18.8282C20.5704 18.8282 20.1504 18.9556 19.7932 19.1943C19.4359 19.433 19.1575 19.7723 18.993 20.1692C18.8286 20.5662 18.7856 21.003 18.8694 21.4244C18.9532 21.8458 19.1601 22.2329 19.464 22.5367C19.7678 22.8405 20.1549 23.0474 20.5763 23.1312C20.9977 23.2151 21.4345 23.172 21.8314 23.0076C22.2284 22.8432 22.5677 22.5648 22.8064 22.2075C23.0451 21.8503 23.1725 21.4302 23.1725 21.0006C23.1725 20.4244 22.9436 19.8719 22.5362 19.4644C22.1288 19.057 21.5762 18.8282 21.0001 18.8282Z" fill="#F1787A"/>
<path d="M20.9999 39.1034C17.4194 39.1034 13.9193 38.0416 10.9422 36.0524C7.96511 34.0632 5.64474 31.2358 4.27454 27.9278C2.90433 24.6199 2.54582 20.9799 3.24435 17.4681C3.94287 13.9564 5.66706 10.7307 8.19887 8.19887C10.7307 5.66706 13.9564 3.94287 17.4681 3.24435C20.9799 2.54582 24.6199 2.90433 27.9278 4.27454C31.2358 5.64474 34.0632 7.96511 36.0524 10.9422C38.0416 13.9193 39.1034 17.4194 39.1034 20.9999C39.1034 23.3773 38.6351 25.7314 37.7253 27.9278C36.8156 30.1242 35.4821 32.12 33.801 33.801C32.12 35.4821 30.1242 36.8156 27.9278 37.7253C25.7314 38.6351 23.3773 39.1034 20.9999 39.1034ZM20.9999 4.34477C17.7059 4.34477 14.4858 5.32158 11.7468 7.15167C9.00789 8.98177 6.87316 11.5829 5.61257 14.6263C4.35198 17.6696 4.02215 21.0184 4.66479 24.2492C5.30744 27.48 6.89369 30.4477 9.22296 32.7769C11.5522 35.1062 14.5199 36.6924 17.7507 37.3351C20.9815 37.9777 24.3303 37.6479 27.3736 36.3873C30.4169 35.1267 33.0181 32.992 34.8482 30.2531C36.6783 27.5141 37.6551 24.294 37.6551 20.9999C37.6551 16.5827 35.9004 12.3464 32.7769 9.22296C29.6535 6.0995 25.4172 4.34477 20.9999 4.34477Z" fill="#F1787A"/>
<path d="M21.3621 15.931C21.266 15.931 21.1739 15.8547 21.106 15.7189C21.0381 15.5831 21 15.3989 21 15.2069V0.724138C21 0.532085 21.0381 0.347897 21.106 0.212095C21.1739 0.0762929 21.266 0 21.3621 0C21.4581 0 21.5502 0.0762929 21.6181 0.212095C21.686 0.347897 21.7241 0.532085 21.7241 0.724138V15.2069C21.7241 15.3989 21.686 15.5831 21.6181 15.7189C21.5502 15.8547 21.4581 15.931 21.3621 15.931Z" fill="#F1787A"/>
<path d="M15.2069 21.0005H0.724138C0.532085 21.0005 0.347897 20.9624 0.212095 20.8945C0.0762929 20.8266 0 20.7345 0 20.6384C0 20.5424 0.0762929 20.4503 0.212095 20.3824C0.347897 20.3145 0.532085 20.2764 0.724138 20.2764H15.2069C15.3989 20.2764 15.5831 20.3145 15.7189 20.3824C15.8547 20.4503 15.931 20.5424 15.931 20.6384C15.931 20.7345 15.8547 20.8266 15.7189 20.8945C15.5831 20.9624 15.3989 21.0005 15.2069 21.0005Z" fill="#F1787A"/>
<path d="M21.3621 42.0004C21.266 42.0004 21.1739 41.9241 21.106 41.7883C21.0381 41.6525 21 41.4683 21 41.2762V26.7935C21 26.6014 21.0381 26.4172 21.106 26.2814C21.1739 26.1456 21.266 26.0693 21.3621 26.0693C21.4581 26.0693 21.5502 26.1456 21.6181 26.2814C21.686 26.4172 21.7241 26.6014 21.7241 26.7935V41.2762C21.7241 41.4683 21.686 41.6525 21.6181 41.7883C21.5502 41.9241 21.4581 42.0004 21.3621 42.0004Z" fill="#F1787A"/>
<path d="M41.2757 21.0005H26.793C26.6009 21.0005 26.4167 20.9624 26.2809 20.8945C26.1451 20.8266 26.0688 20.7345 26.0688 20.6384C26.0688 20.5424 26.1451 20.4503 26.2809 20.3824C26.4167 20.3145 26.6009 20.2764 26.793 20.2764H41.2757C41.4678 20.2764 41.652 20.3145 41.7878 20.3824C41.9236 20.4503 41.9999 20.5424 41.9999 20.6384C41.9999 20.7345 41.9236 20.8266 41.7878 20.8945C41.652 20.9624 41.4678 21.0005 41.2757 21.0005Z" fill="#F1787A"/>
</svg>
