<svg width="200" height="200" viewBox="0 0 200 200" fill="none" xmlns="http://www.w3.org/2000/svg">
<circle cx="100" cy="100" r="79" stroke="#F12727" stroke-opacity="0.6" stroke-width="2"/>
<circle cx="100" cy="100" r="99.5" stroke="#F12727" stroke-opacity="0.2"/>
<g filter="url(#filter0_d)">
<circle cx="100" cy="100" r="60" fill="url(#paint0_linear)"/>
</g>
<circle cx="100" cy="100" r="54.5" stroke="white" stroke-opacity="0.2"/>
<path d="M73.5469 124V117.273H70.248V124H68.0977V115.545H75.6914V124H73.5469ZM80.1855 124.141C79.1504 124.141 78.3398 123.842 77.7539 123.244C77.1602 122.643 76.8633 121.807 76.8633 120.736C76.8633 119.686 77.1641 118.855 77.7656 118.246C78.3594 117.641 79.166 117.338 80.1855 117.338C81.209 117.338 82.0176 117.639 82.6113 118.24C83.209 118.846 83.5078 119.678 83.5078 120.736C83.5078 121.811 83.2109 122.648 82.6172 123.25C82.0312 123.844 81.2207 124.141 80.1855 124.141ZM80.1855 122.611C80.5684 122.611 80.8652 122.449 81.0762 122.125C81.2949 121.797 81.4043 121.334 81.4043 120.736C81.4043 120.154 81.2949 119.695 81.0762 119.359C80.8574 119.031 80.5605 118.867 80.1855 118.867C79.8066 118.867 79.5098 119.031 79.2949 119.359C79.0762 119.691 78.9668 120.15 78.9668 120.736C78.9668 121.334 79.0742 121.797 79.2891 122.125C79.5039 122.449 79.8027 122.611 80.1855 122.611ZM87.3574 124.152C86.4512 124.152 85.7285 123.941 85.1895 123.52C84.6465 123.102 84.3438 122.518 84.2812 121.768H86.2383C86.3945 122.307 86.7676 122.576 87.3574 122.576C87.6504 122.576 87.8789 122.518 88.043 122.4C88.207 122.283 88.2891 122.121 88.2891 121.914C88.2891 121.512 87.9805 121.311 87.3633 121.311H86.4961V120.039H87.293C87.8398 120.039 88.1133 119.848 88.1133 119.465C88.1133 119.059 87.8418 118.855 87.2988 118.855C86.7363 118.855 86.416 119.098 86.3379 119.582H84.3984C84.457 118.875 84.7422 118.322 85.2539 117.924C85.7617 117.525 86.4395 117.326 87.2871 117.326C88.2051 117.326 88.9102 117.49 89.4023 117.818C89.8867 118.146 90.1289 118.615 90.1289 119.225C90.1289 119.549 90.0449 119.828 89.877 120.062C89.7129 120.301 89.4824 120.465 89.1855 120.555V120.602C89.9707 120.82 90.3633 121.297 90.3633 122.031C90.3633 122.691 90.0977 123.211 89.5664 123.59C89.0312 123.965 88.2949 124.152 87.3574 124.152ZM93.3809 118.709V120.092H94.207C94.4961 120.092 94.7207 120.031 94.8809 119.91C95.0371 119.785 95.1152 119.613 95.1152 119.395C95.1152 119.176 95.041 119.008 94.8926 118.891C94.7441 118.77 94.5352 118.709 94.2656 118.709H93.3809ZM93.3809 121.182V122.77H94.3301C95.0059 122.77 95.3438 122.502 95.3438 121.967C95.3438 121.443 94.9961 121.182 94.3008 121.182H93.3809ZM91.3535 117.479H94.8809C95.5918 117.479 96.1465 117.623 96.5449 117.912C96.9434 118.201 97.1426 118.602 97.1426 119.113C97.1426 119.469 97.0254 119.781 96.791 120.051C96.5566 120.32 96.2656 120.479 95.918 120.525V120.572C96.3672 120.627 96.7324 120.793 97.0137 121.07C97.2949 121.355 97.4355 121.701 97.4355 122.107C97.4355 122.682 97.2129 123.141 96.7676 123.484C96.3184 123.828 95.7168 124 94.9629 124H91.3535V117.479ZM101.561 124.141C100.525 124.141 99.7148 123.842 99.1289 123.244C98.5352 122.643 98.2383 121.807 98.2383 120.736C98.2383 119.686 98.5391 118.855 99.1406 118.246C99.7344 117.641 100.541 117.338 101.561 117.338C102.584 117.338 103.393 117.639 103.986 118.24C104.584 118.846 104.883 119.678 104.883 120.736C104.883 121.811 104.586 122.648 103.992 123.25C103.406 123.844 102.596 124.141 101.561 124.141ZM101.561 122.611C101.943 122.611 102.24 122.449 102.451 122.125C102.67 121.797 102.779 121.334 102.779 120.736C102.779 120.154 102.67 119.695 102.451 119.359C102.232 119.031 101.936 118.867 101.561 118.867C101.182 118.867 100.885 119.031 100.67 119.359C100.451 119.691 100.342 120.15 100.342 120.736C100.342 121.334 100.449 121.797 100.664 122.125C100.879 122.449 101.178 122.611 101.561 122.611ZM110.209 121.445H107.959V124H105.885V117.479H107.959V119.91H110.209V117.479H112.283V124H110.209V121.445ZM113.443 124V117.479H115.471V121.217H115.518L117.879 117.479H119.906V124H117.879V120.197H117.832L115.471 124H113.443ZM126.586 119.014H124.717V124H122.643V119.014H120.773V117.479H126.586V119.014ZM129.521 120.771V122.482H130.395C130.672 122.482 130.895 122.404 131.062 122.248C131.227 122.092 131.309 121.885 131.309 121.627C131.309 121.369 131.227 121.162 131.062 121.006C130.895 120.85 130.672 120.771 130.395 120.771H129.521ZM127.447 117.479H129.521V119.277H130.811C131.592 119.277 132.213 119.49 132.674 119.916C133.139 120.346 133.371 120.92 133.371 121.639C133.371 122.357 133.139 122.932 132.674 123.361C132.213 123.787 131.592 124 130.811 124H127.447V117.479Z" fill="white"/>
<path fill-rule="evenodd" clip-rule="evenodd" d="M101 67C91.0509 67 83 75.0464 83 85C83 88.7538 84.1447 92.226 86.1781 95.2094C86.2538 95.3215 86.3032 95.4493 86.3227 95.5832C86.3422 95.7171 86.3312 95.8537 86.2906 95.9828L84.4625 102.1L90.4531 100.033C90.5812 99.9902 90.7172 99.9769 90.8511 99.9939C90.9849 100.011 91.1133 100.058 91.2266 100.131C94.0326 101.952 97.3917 103 101 103C110.954 103 119 94.9538 119 85C119 75.0461 110.954 67 101 67ZM93.6312 74.8469L96.9078 80.261L95.5437 81.611C95.4049 81.7511 95.3159 81.9329 95.2905 82.1286C95.2651 82.3242 95.3046 82.5228 95.4031 82.6937C97.4847 86.2985 99.9511 89.103 103.405 90.625C103.57 90.6985 103.754 90.7204 103.932 90.6878C104.11 90.6552 104.274 90.5696 104.403 90.4422L105.852 88.9937L111.139 92.2985C110.554 93.6162 109.79 94.4007 108.917 94.8578C107.906 95.3874 106.671 95.4876 105.261 95.1953C102.442 94.6107 99.0361 92.3949 96.2609 89.5562C93.4857 86.7176 91.3381 83.2658 90.7906 80.4578C90.5169 79.0538 90.6378 77.8446 91.1562 76.886C91.6026 76.0605 92.3609 75.3538 93.6312 74.8469Z" fill="white" fill-opacity="0.8"/>
<defs>
<filter id="filter0_d" x="10" y="10" width="180" height="180" filterUnits="userSpaceOnUse" color-interpolation-filters="sRGB">
<feFlood flood-opacity="0" result="BackgroundImageFix"/>
<feColorMatrix in="SourceAlpha" type="matrix" values="0 0 0 0 0 0 0 0 0 0 0 0 0 0 0 0 0 0 127 0" result="hardAlpha"/>
<feOffset/>
<feGaussianBlur stdDeviation="15"/>
<feComposite in2="hardAlpha" operator="out"/>
<feColorMatrix type="matrix" values="0 0 0 0 0.917647 0 0 0 0 0.14902 0 0 0 0 0.14902 0 0 0 0.5 0"/>
<feBlend mode="normal" in2="BackgroundImageFix" result="effect1_dropShadow"/>
<feBlend mode="normal" in="SourceGraphic" in2="effect1_dropShadow" result="shape"/>
</filter>
<linearGradient id="paint0_linear" x1="170.424" y1="160" x2="18.8119" y2="150.46" gradientUnits="userSpaceOnUse">
<stop stop-color="#F12727"/>
<stop offset="0.97078" stop-color="#D72323"/>
</linearGradient>
</defs>
</svg>
