<svg width="40" height="40" viewBox="0 0 40 40" fill="none" xmlns="http://www.w3.org/2000/svg">
<path d="M20.0001 0C11.9366 0 5.37646 6.67798 5.37646 14.8864C5.37646 19.4778 7.69866 25.0507 12.2787 31.4502C15.6305 36.1337 18.9333 39.4738 19.0723 39.6138C19.3277 39.871 19.6638 40 20.0003 40C20.327 40 20.654 39.8783 20.9074 39.6341C21.0467 39.5 24.3579 36.2951 27.716 31.6763C32.2997 25.3715 34.6239 19.7226 34.6239 14.8863C34.6237 6.67798 28.0635 0 20.0001 0ZM20.0001 21.313C16.0579 21.313 12.8508 18.1058 12.8508 14.1637C12.8508 10.2216 16.058 7.01439 20.0001 7.01439C23.9422 7.01439 27.1494 10.2216 27.1494 14.1637C27.1494 18.1058 23.9421 21.313 20.0001 21.313Z" fill="#F12727"/>
</svg>
