<svg width="267" height="163" viewBox="0 0 267 163" fill="none" xmlns="http://www.w3.org/2000/svg">
<g filter="url(#filter0_d)">
<path d="M26.9268 15.8896C26.9268 7.60538 33.6425 0.889648 41.9268 0.889648H225.927C234.211 0.889648 240.927 7.60538 240.927 15.8896V81.8896C240.927 90.1739 234.211 96.8896 225.927 96.8896H41.9268C33.6425 96.8896 26.9268 90.1739 26.9268 81.8896V15.8896Z" fill="url(#paint0_linear)" shape-rendering="crispEdges"/>
</g>
<path d="M94.8455 114.14C94.8455 114.14 84.9272 112.89 74.9271 96.8897C81.4272 96.8897 89.9272 96.8896 94.8457 96.8897C90.7642 99.8897 94.8455 114.14 94.8455 114.14Z" fill="white"/>
<defs>
<filter id="filter0_d" x="0.926758" y="0.889648" width="266" height="162" filterUnits="userSpaceOnUse" color-interpolation-filters="sRGB">
<feFlood flood-opacity="0" result="BackgroundImageFix"/>
<feColorMatrix in="SourceAlpha" type="matrix" values="0 0 0 0 0 0 0 0 0 0 0 0 0 0 0 0 0 0 127 0" result="hardAlpha"/>
<feOffset dy="40"/>
<feGaussianBlur stdDeviation="13"/>
<feComposite in2="hardAlpha" operator="out"/>
<feColorMatrix type="matrix" values="0 0 0 0 0.572549 0 0 0 0 0.584314 0 0 0 0 0.619608 0 0 0 0.2 0"/>
<feBlend mode="normal" in2="BackgroundImageFix" result="effect1_dropShadow"/>
<feBlend mode="normal" in="SourceGraphic" in2="effect1_dropShadow" result="shape"/>
</filter>
<linearGradient id="paint0_linear" x1="133.927" y1="0.889648" x2="133.927" y2="96.8896" gradientUnits="userSpaceOnUse">
<stop stop-color="white"/>
<stop offset="1" stop-color="white" stop-opacity="0.54"/>
</linearGradient>
</defs>
</svg>
