<svg width="20" height="20" viewBox="0 0 20 20" fill="none" xmlns="http://www.w3.org/2000/svg">
<path d="M0 20L1.72 14.8403C0.847241 13.3724 0.344828 11.6593 0.344828 9.82759C0.344828 4.4 4.74483 0 10.1724 0C15.6 0 20 4.4 20 9.82759C20 15.2552 15.6 19.6552 10.1724 19.6552C8.52103 19.6552 6.96586 19.2459 5.6 18.5266L0 20Z" fill="#84C125"/>
<path d="M16.4426 13.0983C15.9888 12.2407 14.3154 11.26 14.3154 11.26C13.9368 11.0441 13.4799 11.02 13.264 11.4048C13.264 11.4048 12.7202 12.0569 12.5819 12.1507C11.9502 12.5786 11.365 12.5621 10.7743 11.9714L9.40158 10.5986L8.02882 9.22587C7.43813 8.63518 7.42158 8.05001 7.84951 7.41828C7.94331 7.28001 8.59537 6.73621 8.59537 6.73621C8.9802 6.52001 8.95606 6.06345 8.7402 5.68483C8.7402 5.68483 7.75951 4.01139 6.90193 3.55759C6.5371 3.36449 6.08917 3.43208 5.79744 3.7238L5.19124 4.33001C3.26813 6.25311 4.21503 8.42414 6.13813 10.3472L7.89572 12.1048L9.6533 13.8624C11.5764 15.7855 13.7474 16.7324 15.6705 14.8093L16.2768 14.2031C16.5685 13.9107 16.6357 13.4628 16.4426 13.0983Z" fill="white"/>
</svg>
