<svg width="15" height="15" viewBox="0 0 15 15" fill="none" xmlns="http://www.w3.org/2000/svg">
<g clip-path="url(#clip0)">
<path d="M14.5898 13.0957H0.46875C0.196758 13.1836 0 13.3804 0 13.623V14.5605C0 14.8032 0.196758 15 0.439453 15H14.5605C14.8032 15 15 14.8032 15 14.5605V13.623C15 13.3804 14.8032 13.1836 14.5898 13.0957Z" fill="#2389FC"/>
<path d="M14.729 2.964L7.66843 0.0343152C7.56059 -0.0104211 7.43941 -0.0104211 7.33157 0.0343152L0.271025 2.964C0.106934 3.03206 0 3.19225 0 3.36988V4.24879C0 4.49148 0.196758 4.68824 0.439453 4.68824H14.5605C14.8032 4.68824 15 4.49148 15 4.24879V3.36988C15 3.19225 14.8931 3.03206 14.729 2.964ZM10.1367 3.36988H4.86328C4.62059 3.36988 4.42383 3.17312 4.42383 2.93043C4.42383 2.68773 4.62059 2.49097 4.86328 2.49097H10.1367C10.3794 2.49097 10.5762 2.68773 10.5762 2.93043C10.5762 3.17312 10.3794 3.36988 10.1367 3.36988Z" fill="#2389FC"/>
<path d="M0.835938 11.4258V12.3047H4.20508V11.4258C4.20508 11.1831 4.00832 10.9863 3.76562 10.9863H1.27539C1.0327 10.9863 0.835938 11.1831 0.835938 11.4258Z" fill="#2389FC"/>
<path d="M1.42188 5.56641H3.61914V10.1074H1.42188V5.56641Z" fill="#2389FC"/>
<path d="M11.3828 5.56641H13.5801V10.1074H11.3828V5.56641Z" fill="#2389FC"/>
<path d="M10.7969 11.4258V12.3047H14.166V11.4258C14.166 11.1831 13.9693 10.9863 13.7266 10.9863H11.2363C10.9936 10.9863 10.7969 11.1831 10.7969 11.4258Z" fill="#2389FC"/>
<path d="M7.5 10.2539C7.25769 10.2539 7.06055 10.0568 7.06055 9.81445C7.06055 9.57176 6.86379 9.375 6.62109 9.375C6.3784 9.375 6.18164 9.57176 6.18164 9.81445C6.18164 10.3874 6.54905 10.8758 7.06055 11.0572V11.2793C7.06055 11.522 7.2573 11.7188 7.5 11.7188C7.7427 11.7188 7.93945 11.522 7.93945 11.2793V11.0572C8.45095 10.8758 8.81836 10.3874 8.81836 9.81445C8.81836 9.08751 8.22694 8.49609 7.5 8.49609C7.25769 8.49609 7.06055 8.29895 7.06055 8.05664C7.06055 7.81433 7.25769 7.61719 7.5 7.61719C7.74231 7.61719 7.93945 7.81433 7.93945 8.05664C7.93945 8.29934 8.13621 8.49609 8.37891 8.49609C8.6216 8.49609 8.81836 8.29934 8.81836 8.05664C8.81836 7.48374 8.45095 6.99527 7.93945 6.81387V6.5918C7.93945 6.3491 7.7427 6.15234 7.5 6.15234C7.2573 6.15234 7.06055 6.3491 7.06055 6.5918V6.81387C6.54905 6.99527 6.18164 7.48374 6.18164 8.05664C6.18164 8.78358 6.77306 9.375 7.5 9.375C7.74231 9.375 7.93945 9.57214 7.93945 9.81445C7.93945 10.0568 7.74231 10.2539 7.5 10.2539Z" fill="#2389FC"/>
</g>
<defs>
<clipPath id="clip0">
<rect width="15" height="15" fill="white"/>
</clipPath>
</defs>
</svg>
