<svg width="15" height="11" viewBox="0 0 15 11" fill="none" xmlns="http://www.w3.org/2000/svg">
<path d="M15 2.77539V1.98438C15 1.07828 14.2655 0.34375 13.3594 0.34375H1.64062C0.734531 0.34375 0 1.07828 0 1.98438V2.77539C0 2.85628 0.0655957 2.92188 0.146484 2.92188H14.8535C14.9344 2.92188 15 2.85628 15 2.77539Z" fill="#2389FC"/>
<path d="M0 4.00586V9.01562C0 9.92172 0.734531 10.6562 1.64062 10.6562H13.3594C14.2655 10.6562 15 9.92172 15 9.01562V4.00586C15 3.92497 14.9344 3.85938 14.8535 3.85938H0.146484C0.0655957 3.85938 0 3.92497 0 4.00586ZM3.75 7.84375C3.75 8.10262 3.54012 8.3125 3.28125 8.3125H2.8125C2.55363 8.3125 2.34375 8.10262 2.34375 7.84375V7.375C2.34375 7.11613 2.55363 6.90625 2.8125 6.90625H3.28125C3.54012 6.90625 3.75 7.11613 3.75 7.375V7.84375Z" fill="#2389FC"/>
</svg>
