<svg width="27" height="27" fill="none" xmlns="http://www.w3.org/2000/svg"><path fill-rule="evenodd" clip-rule="evenodd" d="M13.5 25.778c6.904 0 12.5-5.597 12.5-12.5 0-6.904-5.596-12.5-12.5-12.5S1 6.374 1 13.278a12.45 12.45 0 002.89 7.995l-1.5 4.505 5.646-1.255a12.45 12.45 0 005.465 1.255z" fill="#fff"/><path d="M3.89 21.273l.475.158.088-.264-.178-.214-.384.32zm-1.5 4.505l-.474-.158-.28.837.862-.191-.108-.488zm5.646-1.255l.219-.45-.157-.076-.17.038.108.488zM25.5 13.278c0 6.627-5.373 12-12 12v1c7.18 0 13-5.82 13-13h-1zm-12-12c6.627 0 12 5.372 12 12h1c0-7.18-5.82-13-13-13v1zm-12 12c0-6.628 5.373-12 12-12v-1c-7.18 0-13 5.82-13 13h1zm2.775 7.675A11.95 11.95 0 011.5 13.278h-1a12.95 12.95 0 003.006 8.315l.769-.64zm-1.412 4.983l1.502-4.505-.949-.316-1.501 4.505.948.316zm5.064-1.901L2.28 25.29l.217.976 5.647-1.255-.217-.976zm5.573 1.243a11.95 11.95 0 01-5.246-1.204l-.438.899a12.95 12.95 0 005.684 1.305v-1z" fill="#fff"/><path fill-rule="evenodd" clip-rule="evenodd" d="M11.634 7.228c-.128-.618-.377-.677-.603-.73a14.258 14.258 0 00-.608-.124c-.209-.04-.57-.021-.926.267-.358.285-1.337.957-1.66 2.643-.32 1.683.508 3.53.621 3.789.117.256 1.474 4.214 4.438 6.203 2.464 1.652 3.054 1.53 3.645 1.585.594.052 2.038-.47 2.455-1.22.416-.747.547-1.432.496-1.591-.05-.159-.246-.284-.532-.517-.284-.232-1.687-1.356-1.957-1.528-.27-.168-.47-.265-.747.036-.277.3-1.034.956-1.263 1.15-.23.192-.418.186-.704-.045-.284-.232-1.237-.788-2.227-2.187-.77-1.088-1.194-2.329-1.314-2.708-.12-.377.08-.531.272-.673.173-.125.395-.34.593-.509.195-.17.274-.301.425-.51.148-.207.134-.418.089-.605-.046-.186-.34-1.996-.493-2.726z" fill="#000"/></svg>