<svg width="42" height="42" viewBox="0 0 42 42" fill="none" xmlns="http://www.w3.org/2000/svg">
<path d="M42 21C42 32.598 32.598 42 21 42V42C9.40202 42 8.21951e-07 32.598 1.83588e-06 21V21C2.84981e-06 9.40202 9.40202 -2.84981e-06 21 -1.83588e-06V-1.83588e-06C32.598 -8.21951e-07 42 9.40202 42 21V21Z" fill="#414245"/>
<path d="M21.0001 27.7021L21.7017 28.4147L21.0001 29.1055L20.2985 28.4147L21.0001 27.7021ZM20.0001 13.4043C20.0001 12.852 20.4478 12.4043 21.0001 12.4043C21.5524 12.4043 22.0001 12.852 22.0001 13.4043L20.0001 13.4043ZM27.5102 22.6956L21.7017 28.4147L20.2985 26.9896L26.107 21.2704L27.5102 22.6956ZM20.2985 28.4147L14.49 22.6956L15.8932 21.2704L21.7017 26.9896L20.2985 28.4147ZM20.0001 27.7021L20.0001 13.4043L22.0001 13.4043L22.0001 27.7021L20.0001 27.7021Z" fill="#FCFBFB"/>
</svg>
