<svg width="47" height="47" viewBox="0 0 47 47" fill="none" xmlns="http://www.w3.org/2000/svg">
<path d="M23.5 -1.02722e-06C36.4787 -4.59901e-07 47 10.5213 47 23.5C47 36.4787 36.4787 47 23.5 47C10.5213 47 2.22016e-06 36.4787 2.78748e-06 23.5C3.3548e-06 10.5213 10.5213 -1.59453e-06 23.5 -1.02722e-06Z" fill="#414245"/>
<path d="M16 23.5L15.2874 22.7984L14.5966 23.5L15.2874 24.2016L16 23.5ZM32 24.5C32.5523 24.5 33 24.0523 33 23.5C33 22.9477 32.5523 22.5 32 22.5L32 24.5ZM21.6874 16.2984L15.2874 22.7984L16.7126 24.2016L23.1126 17.7016L21.6874 16.2984ZM15.2874 24.2016L21.6874 30.7016L23.1126 29.2984L16.7126 22.7984L15.2874 24.2016ZM16 24.5L32 24.5L32 22.5L16 22.5L16 24.5Z" fill="#FCFBFB"/>
</svg>
