<svg width="38" height="38" viewBox="0 0 38 38" fill="none" xmlns="http://www.w3.org/2000/svg">
<circle cx="19" cy="19" r="19" fill="#F65118"/>
<circle cx="19" cy="19" r="18" stroke="white" stroke-opacity="0.3" stroke-width="2"/>
<path d="M19.0001 12.4043L19.7017 11.6917L19.0001 11.0009L18.2985 11.6917L19.0001 12.4043ZM18.0001 26.7022C18.0001 27.2545 18.4478 27.7022 19.0001 27.7022C19.5524 27.7022 20.0001 27.2545 20.0001 26.7022L18.0001 26.7022ZM25.5102 17.4109L19.7017 11.6917L18.2985 13.1169L24.107 18.836L25.5102 17.4109ZM18.2985 11.6917L12.49 17.4109L13.8932 18.836L19.7017 13.1169L18.2985 11.6917ZM18.0001 12.4043L18.0001 26.7022L20.0001 26.7022L20.0001 12.4043L18.0001 12.4043Z" fill="#FCFBFB"/>
</svg>
