<svg width="38" height="38" viewBox="0 0 38 38" fill="none" xmlns="http://www.w3.org/2000/svg">
<circle cx="19" cy="19" r="19" fill="#F65118"/>
<circle cx="19" cy="19" r="18" stroke="white" stroke-opacity="0.3" stroke-width="2"/>
<path d="M26.0244 22.4148C26.809 22.4148 27.4366 23.0228 27.4366 23.8074C27.4366 24.592 26.809 25.2 26.0244 25.2C25.2399 25.2 24.6122 24.5724 24.6122 23.8074C24.6122 23.0425 25.2399 22.4148 26.0244 22.4148Z" fill="white" fill-opacity="0.8"/>
<path d="M29.6334 23.3759H28.3193L28.2997 23.3171C28.0643 22.2775 27.1032 21.4929 26.0244 21.4929C25.0633 21.4929 24.2003 22.0814 23.8472 22.964C23.808 23.0817 23.7688 23.219 23.7492 23.3563H23.0627V19.2569H29.6334V23.3759Z" fill="white" fill-opacity="0.8"/>
<path d="M26.6913 16.0794L27.6132 18.3743H23.0431V15.3537H25.6125C26.0833 15.3537 26.5148 15.6479 26.6913 16.0794Z" fill="white" fill-opacity="0.8"/>
<path d="M14.8836 22.4148C15.6681 22.4148 16.2958 23.0228 16.2958 23.8074C16.2958 24.592 15.6681 25.2 14.8836 25.2C14.099 25.2 13.4713 24.592 13.4713 23.8074C13.4517 23.0425 14.0794 22.4148 14.8836 22.4148Z" fill="white" fill-opacity="0.8"/>
<path d="M22.1409 23.3759H17.1785L17.1589 23.3171C16.9235 22.2775 15.9624 21.4929 14.8836 21.4929C13.8048 21.4929 12.8438 22.2579 12.6084 23.3171L12.5888 23.3759H11V19.2765H22.1409V23.3759Z" fill="white" fill-opacity="0.8"/>
<path d="M11 13H22.1409V18.3743H11V13Z" fill="white" fill-opacity="0.8"/>
</svg>
