<svg width="38" height="38" viewBox="0 0 38 38" fill="none" xmlns="http://www.w3.org/2000/svg">
<circle cx="19" cy="19" r="19" fill="#F65118"/>
<circle cx="19" cy="19" r="18" stroke="white" stroke-opacity="0.3" stroke-width="2"/>
<path d="M28 13.7907H24.1253L25.4168 12.4997C23.6918 10.7754 21.3984 9.82579 18.9592 9.82579C16.5197 9.82579 14.2263 10.7754 12.5013 12.4997C10.7763 14.2238 9.82653 16.5162 9.82653 18.9547C9.82653 19.4589 9.41763 19.8676 8.91326 19.8676C8.4089 19.8676 8 19.4589 8 18.9547C8 16.0286 9.14 13.2775 11.2101 11.2085C13.2799 9.13954 16.0319 8 18.9592 8C21.8865 8 24.6385 9.13954 26.7083 11.2085L28 9.91732V13.7907Z" fill="white" fill-opacity="0.8"/>
<path d="M18.9542 28.0837C19.4583 28.0837 19.8674 28.4927 19.8674 28.9966C19.8674 29.5005 19.4583 29.9095 18.9542 29.9095C18.4476 29.9095 18.0409 29.5005 18.0409 28.9966C18.0409 28.4927 18.4503 28.0837 18.9542 28.0837Z" fill="white" fill-opacity="0.8"/>
<path d="M22.7985 27.3249C23.3026 27.3249 23.7118 27.7339 23.7118 28.2378C23.7118 28.7417 23.3026 29.1507 22.7985 29.1507C22.292 29.1507 21.8853 28.7417 21.8853 28.2378C21.8853 27.7339 22.2946 27.3249 22.7985 27.3249Z" fill="white" fill-opacity="0.8"/>
<path d="M26.0632 25.1429C26.5673 25.1429 26.9764 25.5519 26.9764 26.0558C26.9764 26.5598 26.5673 26.9687 26.0632 26.9687C25.5566 26.9687 25.1499 26.5598 25.1499 26.0558C25.1499 25.5519 25.5593 25.1429 26.0632 25.1429Z" fill="white" fill-opacity="0.8"/>
<path d="M15.11 27.32C15.6142 27.32 16.0233 27.729 16.0233 28.2329C16.0233 28.7368 15.6142 29.1458 15.11 29.1458C14.6035 29.1458 14.1968 28.7368 14.1968 28.2329C14.1968 27.729 14.6059 27.32 15.11 27.32Z" fill="white" fill-opacity="0.8"/>
<path d="M11.8542 25.1429C12.3583 25.1429 12.7674 25.5519 12.7674 26.0558C12.7674 26.5598 12.3583 26.9687 11.8542 26.9687C11.3476 26.9687 10.9409 26.5598 10.9409 26.0558C10.9409 25.5519 11.3503 25.1429 11.8542 25.1429Z" fill="white" fill-opacity="0.8"/>
<path d="M9.67547 21.8857C10.1796 21.8857 10.5887 22.2947 10.5887 22.7986C10.5887 23.3026 10.1796 23.7115 9.67547 23.7115C9.16891 23.7115 8.76221 23.3026 8.76221 22.7986C8.76221 22.2947 9.17159 21.8857 9.67547 21.8857Z" fill="white" fill-opacity="0.8"/>
<path d="M24.4388 21.1457V21.3499C24.4388 22.1542 24.119 22.926 23.5501 23.4946C22.9496 24.0949 22.1352 24.4321 21.2862 24.4321C20.7192 24.4321 20.1625 24.2817 19.673 23.9961C17.2893 22.6063 15.3061 20.624 13.9158 18.2415C13.6301 17.7519 13.4796 17.1954 13.4796 16.6289C13.4796 15.7801 13.8169 14.966 14.4175 14.3659C14.9866 13.797 15.7584 13.4776 16.563 13.4776H16.7674L17.8633 16.3989L16.7674 17.4941C17.732 18.9404 18.9736 20.1814 20.4204 21.1457L21.5163 20.0502L24.4388 21.1457Z" fill="white" fill-opacity="0.8"/>
</svg>
