<svg width="38" height="38" viewBox="0 0 38 38" fill="none" xmlns="http://www.w3.org/2000/svg">
<circle cx="19" cy="19" r="19" fill="#F65118"/>
<circle cx="19" cy="19" r="18" stroke="white" stroke-opacity="0.3" stroke-width="2"/>
<path d="M28 13.7907H24.1253L25.4168 12.4997C23.6918 10.7754 21.3984 9.82579 18.9592 9.82579C16.5197 9.82579 14.2263 10.7754 12.5013 12.4997C10.7763 14.2238 9.82653 16.5162 9.82653 18.9547C9.82653 19.4589 9.41763 19.8676 8.91326 19.8676C8.4089 19.8676 8 19.4589 8 18.9547C8 16.0286 9.14 13.2775 11.2101 11.2085C13.2799 9.13954 16.0319 8 18.9592 8C21.8865 8 24.6385 9.13954 26.7083 11.2085L28 9.91732V13.7907Z" fill="white" fill-opacity="0.8"/>
<path d="M18.9542 28.0835C19.4583 28.0835 19.8674 28.4925 19.8674 28.9964C19.8674 29.5003 19.4583 29.9093 18.9542 29.9093C18.4476 29.9093 18.0409 29.5003 18.0409 28.9964C18.0409 28.4925 18.4503 28.0835 18.9542 28.0835Z" fill="white" fill-opacity="0.8"/>
<path d="M22.7985 27.3247C23.3027 27.3247 23.7118 27.7337 23.7118 28.2376C23.7118 28.7415 23.3027 29.1505 22.7985 29.1505C22.292 29.1505 21.8853 28.7415 21.8853 28.2376C21.8853 27.7337 22.2947 27.3247 22.7985 27.3247Z" fill="white" fill-opacity="0.8"/>
<path d="M26.0632 25.1431C26.5673 25.1431 26.9765 25.552 26.9765 26.056C26.9765 26.5599 26.5673 26.9689 26.0632 26.9689C25.5566 26.9689 25.1499 26.5599 25.1499 26.056C25.1499 25.552 25.5593 25.1431 26.0632 25.1431Z" fill="white" fill-opacity="0.8"/>
<path d="M15.1101 27.3198C15.6142 27.3198 16.0233 27.7288 16.0233 28.2327C16.0233 28.7366 15.6142 29.1456 15.1101 29.1456C14.6035 29.1456 14.1968 28.7366 14.1968 28.2327C14.1968 27.7288 14.606 27.3198 15.1101 27.3198Z" fill="white" fill-opacity="0.8"/>
<path d="M11.8542 25.1431C12.3583 25.1431 12.7674 25.552 12.7674 26.056C12.7674 26.5599 12.3583 26.9689 11.8542 26.9689C11.3476 26.9689 10.9409 26.5599 10.9409 26.056C10.9409 25.552 11.3503 25.1431 11.8542 25.1431Z" fill="white" fill-opacity="0.8"/>
<path d="M9.6755 21.8857C10.1796 21.8857 10.5888 22.2947 10.5888 22.7986C10.5888 23.3026 10.1796 23.7115 9.6755 23.7115C9.16894 23.7115 8.76224 23.3026 8.76224 22.7986C8.76224 22.2947 9.17162 21.8857 9.6755 21.8857Z" fill="white" fill-opacity="0.8"/>
<path d="M24.4388 21.1456V21.3499C24.4388 22.1542 24.119 22.9259 23.5501 23.4946C22.9495 24.0949 22.1351 24.432 21.2862 24.432C20.7192 24.432 20.1625 24.2816 19.673 23.996C17.2892 22.6062 15.3061 20.6239 13.9158 18.2414C13.6301 17.7518 13.4796 17.1953 13.4796 16.6289C13.4796 15.78 13.8169 14.9659 14.4174 14.3658C14.9866 13.7969 15.7584 13.4775 16.563 13.4775H16.7673L17.8633 16.3988L16.7673 17.494C17.732 18.9403 18.9735 20.1814 20.4204 21.1456L21.5163 20.0501L24.4388 21.1456Z" fill="white" fill-opacity="0.8"/>
</svg>
