<svg width="38" height="38" viewBox="0 0 38 38" fill="none" xmlns="http://www.w3.org/2000/svg">
<circle cx="19" cy="19" r="19" fill="#F65118"/>
<circle cx="19" cy="19" r="18" stroke="white" stroke-opacity="0.3" stroke-width="2"/>
<path d="M25.1277 26.6809C25.1277 26.8569 24.9801 27 24.7995 27H13.3276C13.1466 27 13 26.8569 13 26.6809V26.0426C13 25.8671 13.1466 25.7234 13.3276 25.7234H24.7995C24.9801 25.7234 25.1277 25.8671 25.1277 26.0426V26.6809Z" fill="white" fill-opacity="0.8"/>
<path d="M13.1548 18.8208L18.8267 24.6762C18.9578 24.7959 19.1698 24.7959 19.2994 24.6762L24.9733 18.8208C25.2326 18.5805 25.1578 18.383 24.8058 18.383H22.2555V12.3191C22.2555 12.1436 22.1119 12 21.9364 12H16.1917C16.0157 12 15.8726 12.1436 15.8726 12.3191V18.383H13.3204C12.9703 18.383 12.8955 18.5805 13.1548 18.8208Z" fill="white" fill-opacity="0.8"/>
</svg>
