<svg width="38" height="38" viewBox="0 0 38 38" fill="none" xmlns="http://www.w3.org/2000/svg">
<circle cx="19" cy="19" r="19" fill="#F65118"/>
<circle cx="19" cy="19" r="18" stroke="white" stroke-opacity="0.3" stroke-width="2"/>
<path d="M12.1538 14C12.0027 14 11.8592 14.0318 11.7272 14.0841L18.2536 19.7873C18.5357 20.0337 18.8362 20.0339 19.119 19.7873L25.6575 14.0841C25.5254 14.0318 25.3819 14 25.2308 14H12.1538ZM11.012 14.9916C11.0047 15.0442 11 15.0992 11 15.1538V22.8462C11 23.4854 11.5146 24 12.1538 24H25.2308C25.87 24 26.3846 23.4854 26.3846 22.8462V15.1538C26.3846 15.0992 26.3799 15.0442 26.3726 14.9916L19.8762 20.6587C19.1984 21.2498 18.1741 21.2508 17.4964 20.6587L11.012 14.9916Z" fill="white" fill-opacity="0.8"/>
</svg>
