<svg width="47" height="47" viewBox="0 0 47 47" fill="none" xmlns="http://www.w3.org/2000/svg">
<path d="M23.5 -1.02722e-06C36.4787 -4.59901e-07 47 10.5213 47 23.5C47 36.4787 36.4787 47 23.5 47C10.5213 47 2.22016e-06 36.4787 2.78748e-06 23.5C3.3548e-06 10.5213 10.5213 -1.59453e-06 23.5 -1.02722e-06Z" fill="#414245"/>
<path d="M31 23.5L31.7126 22.7984L32.4034 23.5L31.7126 24.2016L31 23.5ZM15 24.5C14.4477 24.5 14 24.0523 14 23.5C14 22.9477 14.4477 22.5 15 22.5L15 24.5ZM25.3126 16.2984L31.7126 22.7984L30.2874 24.2016L23.8874 17.7016L25.3126 16.2984ZM31.7126 24.2016L25.3126 30.7016L23.8874 29.2984L30.2874 22.7984L31.7126 24.2016ZM31 24.5L15 24.5L15 22.5L31 22.5L31 24.5Z" fill="#FCFBFB"/>
</svg>
