<svg width="75" height="15" viewBox="0 0 75 15" fill="none" xmlns="http://www.w3.org/2000/svg">
<path fill-rule="evenodd" clip-rule="evenodd" d="M49.3513 8.04759C49.3957 8.33864 49.4179 8.56253 49.4845 8.78641C49.9727 10.8686 51.5926 12.2566 53.7007 12.4358C55.5647 12.5925 57.0293 11.876 58.1166 10.3312C58.6492 9.5924 59.5147 9.45807 60.2026 10.0626C60.602 10.3984 60.6464 10.8462 60.3357 11.2715C60.1582 11.4954 60.0029 11.7193 59.8253 11.9656C59.1152 12.9507 58.1832 13.6224 57.0293 14.0253C55.1653 14.6746 53.3013 14.7642 51.4594 14.0701C48.9741 13.1522 47.5095 11.3163 47.0879 8.69686C46.8438 7.08488 46.9991 5.4729 47.7314 4.01764C48.7965 1.9355 50.4608 0.65935 52.7687 0.278743C54.2998 0.0324687 55.8088 0.189189 57.229 0.883236C59.2484 1.84595 60.4689 3.48031 60.9349 5.65201C61.068 6.2565 61.1124 6.86099 61.1568 7.46548C61.2012 7.84609 61.0236 8.00281 60.6464 8.0252C60.4689 8.0252 60.3135 8.0252 60.136 8.0252C56.6964 8.0252 53.2569 8.0252 49.8395 8.0252C49.6842 8.04759 49.5732 8.04759 49.3513 8.04759ZM58.738 5.76395C58.4495 3.81614 56.1195 2.11461 53.967 2.24894C51.7257 2.38327 49.5066 4.10719 49.4179 5.76395C52.5024 5.76395 55.6313 5.76395 58.738 5.76395Z" fill="#5C5C5C"/>
<path fill-rule="evenodd" clip-rule="evenodd" d="M31.7319 7.98105C31.7541 8.18255 31.7763 8.31689 31.7985 8.47361C32.2201 10.7797 34.0841 12.3693 36.3919 12.414C38.145 12.4364 39.4986 11.72 40.5194 10.2871C41.052 9.52588 42.0062 9.43633 42.6719 10.108C42.9825 10.4438 43.0491 10.8468 42.7384 11.2498C42.6053 11.4513 42.4722 11.6304 42.3168 11.7872C41.5623 12.9066 40.5194 13.623 39.2545 14.0484C37.3905 14.6753 35.5265 14.7201 33.7291 14.0036C31.155 12.9962 29.7126 11.0035 29.4019 8.22733C29.2466 6.884 29.3797 5.58545 29.9345 4.35407C31.0218 2.02563 32.7749 0.592743 35.3268 0.256911C36.6804 0.0778002 38.034 0.189744 39.2767 0.704687C41.5402 1.64502 42.8494 3.41373 43.3598 5.80934C43.4485 6.34667 43.5151 6.92878 43.5373 7.46611C43.5595 7.91389 43.4707 8.00344 43.0047 8.00344C42.2059 8.00344 41.3626 8.00344 40.5416 8.00344C37.7899 8.00344 35.0383 8.00344 32.3311 8.00344C32.1313 7.98105 31.9538 7.98105 31.7319 7.98105ZM41.1629 5.69739C40.8744 3.77196 38.611 2.13757 36.3919 2.18235C34.2394 2.22713 31.9982 3.97346 31.8207 5.69739C34.9274 5.69739 38.0118 5.69739 41.1629 5.69739Z" fill="#5C5C5C"/>
<path fill-rule="evenodd" clip-rule="evenodd" d="M70.3437 9.01025C70.5212 9.16697 70.6099 9.25653 70.7209 9.34609C71.9192 10.376 73.1175 11.4059 74.2936 12.4358C74.3602 12.5029 74.4711 12.5925 74.5377 12.6597C74.9815 13.1075 75.0259 13.7567 74.6043 14.2045C74.2048 14.6523 73.5835 14.7195 73.1175 14.3389C72.2743 13.6448 71.4754 12.9283 70.6543 12.2343C69.4782 11.2268 68.3243 10.2193 67.1482 9.21175C67.0595 9.12219 66.9263 9.03264 66.7488 8.8983C66.7488 9.14458 66.7266 9.30131 66.7266 9.45803C66.7266 12.3014 66.7266 10.1745 66.7266 13.0179C66.7266 13.1522 66.7266 13.2866 66.7266 13.4209C66.6822 14.0478 66.2162 14.4956 65.5949 14.4508C64.9957 14.4284 64.5963 13.9806 64.5741 13.3537C64.5741 13.2194 64.5741 13.0851 64.5741 12.9507C64.5741 7.33107 64.5741 6.68178 64.5741 1.06212C64.5741 0.883011 64.5741 0.726288 64.5741 0.547175C64.5741 0.144171 64.6185 0.0770042 64.9957 0.0770042C65.5061 0.0546151 66.0165 0.0546151 66.5269 0.0546151C67.7474 0.0546151 69.0122 0.0993933 70.2327 0.032226C72.2964 -0.0573303 74.6043 1.62185 74.8262 4.06226C75.0259 6.25639 73.5391 8.33858 71.3201 8.78636C71.0316 8.85353 70.7209 8.94308 70.3437 9.01025ZM66.5934 7.28629C66.7266 7.30868 66.8154 7.30868 66.8819 7.30868C67.9027 7.30868 68.9457 7.30868 69.9664 7.30868C70.2549 7.30868 70.5656 7.28629 70.854 7.17434C71.8082 6.88329 72.5627 6.30117 72.8068 5.27127C73.2285 3.50253 71.9192 1.89052 70.1218 1.89052C69.0566 1.89052 68.0136 1.89052 66.9263 1.89052C66.7932 1.89052 66.6822 1.91291 66.5491 1.91291C66.5934 3.70404 66.5934 5.47277 66.5934 7.28629Z" fill="#5C5C5C"/>
<path fill-rule="evenodd" clip-rule="evenodd" d="M23.7433 8.00276C21.7018 8.00276 19.7268 8.00276 17.7075 8.00276C17.7075 8.18186 17.6853 8.33858 17.6853 8.4953C17.6853 10.0625 17.6853 11.6072 17.6853 13.1744C17.6853 13.3759 17.6853 13.5774 17.6409 13.7341C17.4856 14.2043 16.9974 14.4953 16.5314 14.4729C16.021 14.4281 15.5994 14.0252 15.5328 13.5102C15.5106 13.3759 15.5328 13.264 15.5328 13.1296C15.5328 7.555 15.5106 6.88336 15.5106 1.33111C15.5106 1.10723 15.5328 0.883349 15.5994 0.681856C15.7769 0.211706 16.2651 -0.0569511 16.7755 0.0102132C17.2415 0.0773774 17.6409 0.480363 17.6853 0.972901C17.7075 1.12962 17.6853 1.26395 17.6853 1.42066C17.6853 4.28634 17.7075 2.24902 17.7075 5.1147C17.7075 5.2938 17.7297 5.45052 17.7297 5.60723C18.1069 5.69679 23.3439 5.69679 23.7433 5.60723C23.7433 5.47291 23.7655 5.33858 23.7655 5.18186C23.7655 3.92813 23.7655 2.65201 23.7655 1.39827C23.7655 1.26395 23.7655 1.15201 23.7655 1.01768C23.8099 0.457975 24.2315 0.0326013 24.7863 0.0102132C25.341 -0.0121749 25.8514 0.413199 25.918 0.972901C25.9402 1.10723 25.918 1.21917 25.918 1.3535C25.918 5.27141 25.918 9.16694 25.918 13.0849C25.918 13.2192 25.918 13.3311 25.918 13.4655C25.8514 14.0252 25.3632 14.4729 24.8085 14.4505C24.2537 14.4281 23.8099 13.9804 23.7433 13.4207C23.7433 13.2863 23.7433 13.1744 23.7433 13.0401C23.7433 11.5401 23.7433 9.9953 23.7433 8.4953C23.7433 8.36097 23.7433 8.20425 23.7433 8.00276Z" fill="#5C5C5C"/>
<path fill-rule="evenodd" clip-rule="evenodd" d="M6.07954 14.563C4.63715 14.5406 3.28352 14.2272 2.04084 13.4659C1.50826 13.1525 1.02007 12.7495 0.620639 12.2793C0.420923 12.033 0.176826 11.7867 0.088063 11.4733C-0.0450809 11.0703 -0.0672716 10.6225 0.309969 10.2643C0.731592 9.86129 1.30855 9.70457 1.88551 10.0852C2.44027 10.4882 2.70656 11.0031 3.17256 11.4733C3.83828 12.145 4.70372 12.5032 5.63573 12.6151C6.50116 12.7047 7.34441 12.6823 8.18765 12.3913C8.52051 12.2569 8.87556 12.1002 9.16404 11.8763C9.69662 11.2718 9.85195 10.421 9.20842 9.8389C8.89775 9.57023 8.49832 9.36873 8.09889 9.18962C7.1225 8.76423 6.10173 8.47317 5.08096 8.2045C4.23771 8.003 3.43885 7.73433 2.59561 7.48805C2.28494 7.39849 1.97427 7.21938 1.68579 7.06266C0.909117 6.63727 0.465304 5.9656 0.33216 5.11481C0.088063 3.34608 0.731592 1.75646 2.26275 0.972839C4.65934 -0.21378 7.14469 -0.101835 9.54128 1.2639C9.98509 1.51018 10.4067 1.89079 10.784 2.22663C11.0724 2.47291 11.2943 2.83113 11.4053 3.21174C11.5162 3.68191 11.2943 4.17447 10.7174 4.30881C10.2292 4.42075 9.78538 4.26403 9.43033 3.88342C9.36376 3.81625 9.29718 3.72669 9.2528 3.65952C8.69804 2.80874 7.87698 2.33857 6.90059 2.15946C5.9242 1.98035 4.94782 2.00274 4.01581 2.38335C3.68295 2.51768 3.3279 2.6968 3.06161 2.94307C2.66218 3.48041 2.50684 4.19686 3.03942 4.86853C3.46104 5.27154 3.94924 5.49543 4.48181 5.60737C5.65792 5.89843 6.85621 6.21188 8.03232 6.50293C8.7868 6.70443 9.51909 6.95071 10.207 7.35372C11.0946 7.82389 11.7382 8.51795 11.9601 9.52545C12.2263 10.7569 11.9601 11.9211 11.0059 12.8166C9.91852 13.8018 8.67585 14.3391 7.23345 14.4958C6.83402 14.5406 6.43459 14.5406 6.07954 14.563Z" fill="#5C5C5C"/>
</svg>
