<svg width="23" height="23" viewBox="0 0 23 23" fill="none" xmlns="http://www.w3.org/2000/svg">
<circle cx="11.5" cy="11.5" r="11.5" fill="#2F9CD4"/>
<g clip-path="url(#clip0)">
<path d="M4.22962 11.268L7.22508 12.3859L8.38451 16.1147C8.45869 16.3535 8.75072 16.4417 8.94455 16.2833L10.6143 14.9221C10.7893 14.7795 11.0386 14.7724 11.2215 14.9051L14.2331 17.0916C14.4404 17.2423 14.7342 17.1287 14.7862 16.8781L16.9923 6.2662C17.0491 5.99251 16.7802 5.76419 16.5196 5.86498L4.22611 10.6074C3.92273 10.7244 3.92538 11.1539 4.22962 11.268ZM8.19765 11.7908L14.0519 8.18517C14.1571 8.12056 14.2654 8.26283 14.175 8.34663L9.34356 12.8377C9.17374 12.9958 9.06419 13.2073 9.03316 13.437L8.86858 14.6566C8.84679 14.8195 8.61803 14.8356 8.57309 14.678L7.94012 12.4539C7.86763 12.2003 7.97327 11.9293 8.19765 11.7908Z" fill="white"/>
</g>
<defs>
<clipPath id="clip0">
<rect width="13" height="13" fill="white" transform="translate(4 5)"/>
</clipPath>
</defs>
</svg>
