<svg width="23" height="23" viewBox="0 0 23 23" fill="none" xmlns="http://www.w3.org/2000/svg">
<circle cx="11.5" cy="11.5" r="11.5" fill="#2EC650"/>
<g clip-path="url(#clip0)">
<path d="M16.6418 14.4352C16.5811 14.3889 16.5184 14.3409 16.4597 14.2936C16.1481 14.0428 15.8166 13.8117 15.496 13.5882C15.4294 13.5418 15.3629 13.4954 15.2966 13.4489C14.8859 13.1604 14.5167 13.0203 14.1679 13.0203C13.6981 13.0203 13.2885 13.2799 12.9504 13.7917C12.8006 14.0187 12.6189 14.129 12.3949 14.129C12.2625 14.129 12.1121 14.0912 11.9478 14.0167C10.6222 13.4156 9.67568 12.4939 9.13441 11.2774C8.87275 10.6894 8.95757 10.305 9.41806 9.99224C9.67956 9.81476 10.1663 9.48435 10.1318 8.85163C10.0928 8.13312 8.50742 5.9712 7.83945 5.72566C7.55664 5.62166 7.2595 5.62069 6.95468 5.72323C6.1868 5.98138 5.63575 6.43472 5.36097 7.03418C5.09544 7.6134 5.10743 8.29352 5.39565 9.00101C6.22886 11.0465 7.40032 12.83 8.87759 14.3017C10.3236 15.7423 12.1008 16.9224 14.1599 17.809C14.3455 17.8889 14.5402 17.9325 14.6823 17.9642C14.7308 17.9751 14.7726 17.9844 14.8031 17.9928C14.8198 17.9973 14.8371 17.9998 14.8544 18L14.8707 18C14.8708 18 14.8707 18 14.8708 18C15.8393 18 17.0021 17.1151 17.3592 16.1062C17.6721 15.2227 17.1009 14.786 16.6418 14.4352Z" fill="white"/>
</g>
<defs>
<clipPath id="clip0">
<rect width="13" height="13" fill="white" transform="translate(5 5)"/>
</clipPath>
</defs>
</svg>
