<?xml version="1.0" encoding="utf-8"?>
<!-- Generator: Adobe Illustrator 25.1.0, SVG Export Plug-In . SVG Version: 6.00 Build 0)  -->
<svg version="1.1" id="Слой_1" xmlns="http://www.w3.org/2000/svg" xmlns:xlink="http://www.w3.org/1999/xlink" x="0px" y="0px"
	 viewBox="0 0 47 47" style="enable-background:new 0 0 47 47;" xml:space="preserve">
<style type="text/css">
	.st0{fill:#101D2D;}
	.st1{fill:#FCFBFB;}
</style>
<path class="st0" d="M23.5,0C36.5,0,47,10.5,47,23.5S36.5,47,23.5,47S0,36.5,0,23.5S10.5,0,23.5,0z"/>
<path class="st1" d="M31,23.5l0.7-0.7l0.7,0.7l-0.7,0.7L31,23.5z M15,24.5c-0.6,0-1-0.4-1-1s0.4-1,1-1V24.5z M25.3,16.3l6.4,6.5
	l-1.4,1.4l-6.4-6.5L25.3,16.3z M31.7,24.2l-6.4,6.5l-1.4-1.4l6.4-6.5L31.7,24.2z M31,24.5H15v-2h16V24.5z"/>
</svg>
