<svg id="Layer_1" data-name="Layer 1" xmlns="http://www.w3.org/2000/svg" viewBox="0 0 463.38 512"><defs><style>.cls-1{fill:#30c1ff;}</style></defs><path class="cls-1" d="M151.42,129.31a16,16,0,0,1-16-16V16a16,16,0,0,1,32.06,0v97.24A16,16,0,0,1,151.42,129.31Z" transform="translate(-24.31 0)"/><path class="cls-1" d="M360.58,129.31a16,16,0,0,1-16-16V16a16,16,0,0,1,32.06,0v97.24A16,16,0,0,1,360.58,129.31Z" transform="translate(-24.31 0)"/><path class="cls-1" d="M24.31,222.41V443.62A68.47,68.47,0,0,0,92.7,512H419.3a68.47,68.47,0,0,0,68.39-68.38V222.41Z" transform="translate(-24.31 0)"/><path class="cls-1" d="M487.69,190.35V117A68.47,68.47,0,0,0,419.3,48.62H408.68v64.65a48.1,48.1,0,1,1-96.19,0V48.62h-113v64.65a48.1,48.1,0,1,1-96.19,0V48.62H92.7A68.47,68.47,0,0,0,24.31,117v73.34Z" transform="translate(-24.31 0)"/></svg>