<?xml version="1.0" encoding="utf-8"?>
<!-- Generator: Adobe Illustrator 25.1.0, SVG Export Plug-In . SVG Version: 6.00 Build 0)  -->
<svg version="1.1" id="Слой_1" xmlns="http://www.w3.org/2000/svg" xmlns:xlink="http://www.w3.org/1999/xlink" x="0px" y="0px"
	 viewBox="0 0 468 468" style="enable-background:new 0 0 468 468;" xml:space="preserve">
<style type="text/css">
	.st0{fill:#192D45;}
</style>
<path class="st0" d="M412.6,111H238.8l-43.6-53.5c-10.5-13-26.4-20.5-43.1-20.5H55.4c-14.7,0-28.8,5.8-39.2,16.2
	C5.8,63.5,0,77.6,0,92.3v283.3c0,14.7,5.8,28.8,16.2,39.2C26.6,425.2,40.7,431,55.4,431h357.2c14.7,0,28.8-5.8,39.2-16.2
	c10.4-10.4,16.2-24.5,16.2-39.2V166.2c0-14.7-5.8-28.8-16.2-39.1C441.4,116.7,427.3,110.9,412.6,111z M16,375.7V92.3
	c0-10.4,4.1-20.5,11.5-27.9S45,53,55.4,53h96.7c11.9,0,23.2,5.4,30.7,14.6l35.3,43.4h-109C78.4,111,53,135.5,53,166.2v249.1
	C33,414.2,16,396.9,16,375.7z M452,375.7c0,10.4-4.1,20.5-11.5,27.9S423,415,412.6,415H69V166.2c0-21.8,18.2-39.2,40.1-39.2h303.5
	c10.4-0.1,20.5,4,27.9,11.4c7.4,7.4,11.6,17.4,11.5,27.8V375.7z"/>
<path class="st0" d="M265.4,166.9c-3-2.6-7.5-2.6-10.5,0l-98.1,85c-2.5,2.2-3.4,5.7-2.3,8.9c1.2,3.1,4.2,5.2,7.5,5.3h14v99.7
	c0,4.4,3.6,7.9,8,8l150,1.4h0.1c2.1,0,4.1-0.8,5.6-2.3c1.5-1.5,2.3-3.5,2.3-5.6V266h16c3.3,0,6.3-2.1,7.5-5.2
	c1.2-3.1,0.3-6.7-2.2-8.9L265.4,166.9z M260.1,183.6l76.5,66.4H183.5L260.1,183.6z M277,358.5l-33-0.3V320h33V358.5z M326,359
	l-33-0.3v-47c0-2.1-0.8-4.1-2.3-5.5s-3.5-2.2-5.6-2.1h-49.4c-2.1-0.1-4,0.7-5.5,2.2c-1.5,1.4-2.2,3.4-2.2,5.5v46.4l-36-0.3V266h134
	V359z"/>
</svg>
