<svg id="Layer_1" data-name="Layer 1" xmlns="http://www.w3.org/2000/svg" viewBox="0 0 154.3 105.68"><defs><style>.cls-1,.cls-2{fill:#fff;}.cls-1{fill-rule:evenodd;}</style></defs><polygon class="cls-1" points="61.11 33.2 29.35 51.17 72.98 51.17 97.68 31.28 106.66 31.28 125.27 7.06 145.96 37.21 153.5 37.21 128.64 1.12 87.58 9.46 78.27 2.25 55.5 7.22 24.54 0 8.18 30.96 14.44 30.96 26.79 6.9 44.91 30.8 54.21 30.8 77.15 8.5 81.32 11.55 61.11 33.2 61.11 33.2"/><polygon class="cls-1" points="20.05 39.78 5.45 47.96 34.01 47.96 20.05 39.78 20.05 39.78"/><polygon class="cls-1" points="21.49 24.86 26.79 24.86 26.79 35.77 21.49 35.77 21.49 24.86 21.49 24.86"/><polygon class="cls-1" points="29.19 24.86 34.48 24.86 34.48 35.77 29.19 35.77 29.19 24.86 29.19 24.86"/><polygon class="cls-1" points="118.37 27.11 125.62 27.11 125.62 42.05 118.37 42.05 118.37 27.11 118.37 27.11"/><polygon class="cls-1" points="128.92 27.11 136.17 27.11 136.17 42.05 128.92 42.05 128.92 27.11 128.92 27.11"/><polygon class="cls-1" points="42.34 55.66 49.6 55.66 49.6 71.7 42.34 71.7 42.34 55.66 42.34 55.66"/><polygon class="cls-1" points="52.89 55.66 60.15 55.66 60.15 71.7 52.89 71.7 52.89 55.66 52.89 55.66"/><polygon class="cls-1" points="11.26 52.93 16.28 52.93 16.28 68.97 11.26 68.97 11.26 52.93 11.26 52.93"/><polygon class="cls-1" points="18.56 52.93 23.58 52.93 23.58 68.97 18.56 68.97 18.56 52.93 18.56 52.93"/><polygon class="cls-1" points="82.76 56.3 105.54 56.3 105.54 58.38 82.76 58.38 82.76 56.3 82.76 56.3"/><polygon class="cls-1" points="103.45 79.07 103.45 56.3 105.54 56.3 105.54 79.07 103.45 79.07 103.45 79.07"/><polygon class="cls-1" points="117.89 56.3 136.82 56.3 136.82 58.38 117.89 58.38 117.89 56.3 117.89 56.3"/><polygon class="cls-1" points="134.73 79.07 134.73 56.3 136.82 56.3 136.82 79.07 134.73 79.07 134.73 79.07"/><polygon class="cls-1" points="0 78.67 154.3 78.67 154.3 81.8 0 81.8 0 78.67 0 78.67"/><polygon class="cls-1" points="0 102.55 37.41 102.55 37.41 105.68 0 105.68 0 102.55 0 102.55"/><path class="cls-2" d="M66.61,184.6c0,5.82,3,8.48,8.68,8.48h2.86c3.26,0,6.73-1.75,6.73-5.15a1.22,1.22,0,0,0-1.2-1.3H82.29c-.67,0-1.22.32-1.68,1.3a2.94,2.94,0,0,1-2.87,1.84H75.41C72,189.77,71,188.5,71,184.6s.93-5.18,4.38-5.18H77.5a3,3,0,0,1,2.87,1.84c.46,1,1,1.3,1.68,1.3h1.39a1.22,1.22,0,0,0,1.2-1.3c0-3.4-3.47-5.15-6.73-5.15H75.29c-5.73,0-8.68,2.66-8.68,8.49Zm21.9-4.44a.7.7,0,0,0-.72.72v1.39a.7.7,0,0,0,.72.72h3.74v9.28A.7.7,0,0,0,93,193h2.62a.71.71,0,0,0,.72-.72V183H100a.71.71,0,0,0,.72-.72v-1.39a.71.71,0,0,0-.72-.72Zm23.3,2.59c1.92,0,2.71,1.18,2.71,3.81s-.79,3.84-3,3.84a9.41,9.41,0,0,1-2.54-.48v-6.11a6,6,0,0,1,2.78-1.06Zm1-2.83a6.85,6.85,0,0,0-4.1,1.32v-.36a.7.7,0,0,0-.72-.72H105.7a.7.7,0,0,0-.72.72v15.34a.7.7,0,0,0,.72.72h2.61a.7.7,0,0,0,.72-.72v-3.59a10.18,10.18,0,0,0,3.38.6c3.74,0,6.28-2.26,6.28-6.67s-2.52-6.64-5.92-6.64Zm17,10.65c-2,0-3-1.18-3-4s1-4,3-4,3,1.15,3,4-1,4-3,4Zm0-10.65c-4.54,0-7.08,2.23-7.08,6.64s2.54,6.67,7.08,6.67,7.07-2.26,7.07-6.67-2.54-6.64-7.07-6.64Zm15.15-4.79c-.41,0-.65.17-.65.6,0,1.79,1.58,3.11,3.93,3.11s3.94-1.32,3.94-3.11c0-.43-.24-.6-.65-.6h-.89a.86.86,0,0,0-.81.6,1.79,1.79,0,0,1-3.17,0,.86.86,0,0,0-.81-.6Zm.5,13.45v-7.7a.7.7,0,0,0-.72-.72h-2.44a.7.7,0,0,0-.72.72v11.39a.7.7,0,0,0,.72.72h3.28a1.73,1.73,0,0,0,1.32-.84L151,184.6v7.67a.71.71,0,0,0,.72.72h2.45a.7.7,0,0,0,.72-.72V180.88a.7.7,0,0,0-.72-.72h-3.29a1.65,1.65,0,0,0-1.31.84l-4.13,7.58Zm15.45,1.1h-.92a1.1,1.1,0,0,0-1.1,1.08v1.12a1.13,1.13,0,0,0,1.1,1.11h17a1.1,1.1,0,0,0,1.11-1.08V177.26a1.1,1.1,0,0,0-1.11-1.08h-6.32c-3.41,0-6.69.87-7.6,4.6l-2.18,8.9Zm6.47-7.88a2.77,2.77,0,0,1,2.83-2.31h3.5v10.19h-8.3l2-7.88Zm22.75,8.77c-2,0-3-1.18-3-4s1-4,3-4,3,1.15,3,4-1,4-3,4Zm0-10.65c-4.53,0-7.07,2.23-7.07,6.64s2.54,6.67,7.07,6.67,7.07-2.26,7.07-6.67-2.54-6.64-7.07-6.64Zm21,13.07a1.24,1.24,0,0,0,1.1-.82l3-7.21v7.31a.71.71,0,0,0,.72.72h2.54a.7.7,0,0,0,.72-.72V180.88a.7.7,0,0,0-.72-.72h-4a1.22,1.22,0,0,0-1.06.86l-2.85,7-2.85-7a1.22,1.22,0,0,0-1.06-.86h-4a.7.7,0,0,0-.72.72v11.39a.7.7,0,0,0,.72.72h2.54a.71.71,0,0,0,.72-.72V185l3,7.21a1.24,1.24,0,0,0,1.1.82Z" transform="translate(-66 -92)"/><polygon class="cls-1" points="44.59 102.55 154.3 102.55 154.3 105.68 44.59 105.68 44.59 102.55 44.59 102.55"/></svg>