<svg width="23" height="32" viewBox="0 0 23 32" fill="none" xmlns="http://www.w3.org/2000/svg">
<path d="M11.7114 0.0458984C5.60219 0.0458984 0.631836 5.01625 0.631836 11.1255C0.631836 18.8042 11.7223 31.9209 11.7223 31.9209C11.7223 31.9209 22.791 18.4265 22.791 11.1255C22.791 5.01625 17.8209 0.0458984 11.7114 0.0458984ZM15.0544 14.3696C14.1326 15.2912 12.9221 15.7521 11.7114 15.7521C10.5009 15.7521 9.29007 15.2912 8.36868 14.3696C6.52533 12.5264 6.52533 9.52727 8.36868 7.68391C9.26128 6.79093 10.4486 6.29911 11.7114 6.29911C12.9743 6.29911 14.1614 6.79113 15.0544 7.68391C16.8977 9.52727 16.8977 12.5264 15.0544 14.3696Z" fill="#EE3436"/>
</svg>
