<svg id="Layer_1" data-name="Layer 1" xmlns="http://www.w3.org/2000/svg" viewBox="0 0 169.6 169.6"><defs><style>.cls-1{fill:#fff;}.cls-2{fill:#30c1ff;}</style></defs><circle class="cls-1" cx="84.8" cy="84.9" r="58.3"/><path class="cls-1" d="M136.6,221.3a84.8,84.8,0,1,1,84.8-84.8A84.91,84.91,0,0,1,136.6,221.3Zm0-167.5a82.8,82.8,0,1,0,82.8,82.8A82.9,82.9,0,0,0,136.6,53.8Z" transform="translate(-51.8 -51.7)"/><path class="cls-2" d="M151.7,132.5l-24.5-16.8a5.8,5.8,0,0,0-3.2-1.2c-1.9,0-3,1.5-3,3.9v36.3c0,2.5,1.1,3.9,2.9,3.9a5.55,5.55,0,0,0,3.2-1.2l24.5-16.8a5,5,0,0,0,2.5-4.1A4.74,4.74,0,0,0,151.7,132.5Z" transform="translate(-51.8 -51.7)"/></svg>