<svg width="20" height="20" viewBox="0 0 20 20" fill="none" xmlns="http://www.w3.org/2000/svg">
<g clip-path="url(#clip0)">
<path d="M19.0027 17.262H5.62881C5.07761 17.262 4.63086 16.8153 4.63086 16.2641C4.63086 15.7129 5.07761 15.2661 5.62881 15.2661H19.0024C19.5536 15.2661 20.0004 15.7129 20.0004 16.2641C20.0004 16.8153 19.5539 17.262 19.0027 17.262Z" fill="white"/>
<path d="M19.0027 10.9979H5.62881C5.07761 10.9979 4.63086 10.5511 4.63086 9.99991C4.63086 9.4487 5.07761 9.00195 5.62881 9.00195H19.0024C19.5536 9.00195 20.0004 9.4487 20.0004 9.99991C20.0007 10.5511 19.5539 10.9979 19.0027 10.9979Z" fill="white"/>
<path d="M19.0027 4.7337H5.62881C5.07761 4.7337 4.63086 4.28695 4.63086 3.73575C4.63086 3.18454 5.07761 2.73779 5.62881 2.73779H19.0024C19.5536 2.73779 20.0004 3.18454 20.0004 3.73575C20.0004 4.28695 19.5539 4.7337 19.0027 4.7337Z" fill="white"/>
<path d="M1.34025 5.15316C2.08045 5.15316 2.6805 4.55311 2.6805 3.81291C2.6805 3.07271 2.08045 2.47266 1.34025 2.47266C0.600051 2.47266 0 3.07271 0 3.81291C0 4.55311 0.600051 5.15316 1.34025 5.15316Z" fill="white"/>
<path d="M1.34025 11.3402C2.08045 11.3402 2.6805 10.7401 2.6805 9.99992C2.6805 9.25972 2.08045 8.65967 1.34025 8.65967C0.600051 8.65967 0 9.25972 0 9.99992C0 10.7401 0.600051 11.3402 1.34025 11.3402Z" fill="white"/>
<path d="M1.34025 17.5272C2.08045 17.5272 2.6805 16.9271 2.6805 16.1869C2.6805 15.4467 2.08045 14.8467 1.34025 14.8467C0.600051 14.8467 0 15.4467 0 16.1869C0 16.9271 0.600051 17.5272 1.34025 17.5272Z" fill="white"/>
</g>
<defs>
<clipPath id="clip0">
<rect width="20" height="20" fill="white"/>
</clipPath>
</defs>
</svg>
