<svg width="23" height="23" viewBox="0 0 23 23" fill="none" xmlns="http://www.w3.org/2000/svg">
<path d="M18.2106 16.2896C16.6293 16.2896 15.3428 17.5761 15.3428 19.1574C15.3428 20.7387 16.6293 22.0252 18.2106 22.0252C19.7919 22.0252 21.0784 20.7387 21.0784 19.1574C21.0784 17.5761 19.7919 16.2896 18.2106 16.2896ZM18.2106 20.3045C17.578 20.3045 17.0635 19.79 17.0635 19.1574C17.0635 18.5247 17.578 18.0102 18.2106 18.0102C18.8432 18.0102 19.3577 18.5247 19.3577 19.1574C19.3577 19.79 18.8432 20.3045 18.2106 20.3045Z" fill="white"/>
<path d="M22.8172 5.20541C22.6543 4.99693 22.4045 4.87533 22.1398 4.87533H5.3107L4.53637 1.63554C4.44374 1.2484 4.09757 0.975098 3.69952 0.975098H0.860349C0.385162 0.975053 0 1.36022 0 1.8354C0 2.31059 0.385162 2.69575 0.860349 2.69575H3.02043L5.81656 14.3954C5.90919 14.7829 6.25536 15.0559 6.65342 15.0559H20.0463C20.4418 15.0559 20.7865 14.7863 20.8814 14.4025L22.9749 5.94241C23.0383 5.6855 22.9801 5.4139 22.8172 5.20541ZM19.3732 13.3352H7.33251L5.72191 6.59602H21.0405L19.3732 13.3352Z" fill="white"/>
<path d="M7.80045 16.2896C6.2191 16.2896 4.93262 17.5761 4.93262 19.1574C4.93262 20.7387 6.21914 22.0252 7.80045 22.0252C9.38175 22.0252 10.6683 20.7387 10.6683 19.1574C10.6683 17.5761 9.38175 16.2896 7.80045 16.2896ZM7.80045 20.3045C7.16781 20.3045 6.65332 19.79 6.65332 19.1574C6.65332 18.5247 7.16781 18.0102 7.80045 18.0102C8.43309 18.0102 8.94758 18.5247 8.94758 19.1574C8.94758 19.79 8.43309 20.3045 7.80045 20.3045Z" fill="white"/>
</svg>
