<svg width="20" height="20" viewBox="0 0 20 20" fill="none" xmlns="http://www.w3.org/2000/svg">
<path d="M18.2422 0H1.75781C0.788555 0 0 0.788555 0 1.75781V18.2422C0 19.2114 0.788555 20 1.75781 20H18.2422C19.2114 20 20 19.2114 20 18.2422V1.75781C20 0.788555 19.2114 0 18.2422 0ZM18.8281 1.75781V9.41406H10.5859V1.17188H18.2422C18.5653 1.17188 18.8281 1.43473 18.8281 1.75781ZM1.75781 1.17188H9.41406V9.41406H1.17188V1.75781C1.17188 1.43473 1.43473 1.17188 1.75781 1.17188ZM1.17188 18.2422V10.5859H9.41406V18.8281H1.75781C1.43473 18.8281 1.17188 18.5653 1.17188 18.2422ZM18.2422 18.8281H10.5859V10.5859H18.8281V18.2422C18.8281 18.5653 18.5653 18.8281 18.2422 18.8281Z" fill="white"/>
<path d="M3.55469 5.89844H4.72656V7.07031C4.72656 7.39391 4.98891 7.65625 5.3125 7.65625C5.63609 7.65625 5.89844 7.39391 5.89844 7.07031V5.89844H7.07031C7.39391 5.89844 7.65625 5.63609 7.65625 5.3125C7.65625 4.98891 7.39391 4.72656 7.07031 4.72656H5.89844V3.55469C5.89844 3.23109 5.63609 2.96875 5.3125 2.96875C4.98891 2.96875 4.72656 3.23109 4.72656 3.55469V4.72656H3.55469C3.23109 4.72656 2.96875 4.98891 2.96875 5.3125C2.96875 5.63609 3.23109 5.89844 3.55469 5.89844Z" fill="white"/>
<path d="M6.14091 14.6877L6.96954 13.8591C7.19837 13.6303 7.19837 13.2593 6.96954 13.0305C6.74076 12.8017 6.36974 12.8017 6.14091 13.0305L5.31228 13.8591L4.48365 13.0305C4.25486 12.8017 3.88385 12.8017 3.65502 13.0305C3.42619 13.2593 3.42619 13.6303 3.65502 13.8591L4.48365 14.6877L3.65502 15.5164C3.42619 15.7452 3.42619 16.1162 3.65502 16.345C3.88385 16.5738 4.25482 16.5738 4.48365 16.345L5.31228 15.5164L6.14091 16.345C6.36974 16.5738 6.74072 16.5738 6.96954 16.345C7.19837 16.1162 7.19837 15.7452 6.96954 15.5164L6.14091 14.6877Z" fill="white"/>
<path d="M16.4453 12.9297H12.9297C12.6061 12.9297 12.3438 13.192 12.3438 13.5156C12.3438 13.8392 12.6061 14.1016 12.9297 14.1016H16.4453C16.7689 14.1016 17.0312 13.8392 17.0312 13.5156C17.0312 13.192 16.7689 12.9297 16.4453 12.9297Z" fill="white"/>
<path d="M16.4453 15.2734H12.9297C12.6061 15.2734 12.3438 15.5358 12.3438 15.8594C12.3438 16.183 12.6061 16.4453 12.9297 16.4453H16.4453C16.7689 16.4453 17.0312 16.183 17.0312 15.8594C17.0312 15.5358 16.7689 15.2734 16.4453 15.2734Z" fill="white"/>
<path d="M12.9297 5.89844H16.4453C16.7689 5.89844 17.0312 5.63609 17.0312 5.3125C17.0312 4.98891 16.7689 4.72656 16.4453 4.72656H12.9297C12.6061 4.72656 12.3438 4.98891 12.3438 5.3125C12.3438 5.63609 12.6061 5.89844 12.9297 5.89844Z" fill="white"/>
</svg>
