<svg width="22" height="22" viewBox="0 0 22 22" fill="none" xmlns="http://www.w3.org/2000/svg">
<g clip-path="url(#clip0)">
<path d="M20.6812 17.7135C21.5451 16.5372 21.999 15.1703 21.999 13.7296C21.999 11.4233 20.803 9.28222 18.7853 7.94607C18.5992 5.89135 17.6398 3.98582 16.0357 2.51762C14.2619 0.894135 11.9085 0 9.40919 0C6.90983 0 4.55652 0.894135 2.78269 2.51766C0.987632 4.16057 -0.00094791 6.35103 -0.00094791 8.68551C-0.00094791 10.4811 0.577883 12.1834 1.67822 13.64L0.0617004 17.6388C-0.069397 17.9631 0.00910676 18.3345 0.260259 18.5779C0.423969 18.7366 0.639586 18.8203 0.85864 18.8203C0.975644 18.8203 1.09364 18.7964 1.2051 18.7473L5.81568 16.7149C6.39451 16.9361 6.99083 17.1016 7.6009 17.2112C8.22579 18.2389 9.11713 19.1092 10.2007 19.7428C11.4105 20.45 12.8072 20.8279 14.244 20.8388C14.2651 20.8403 14.2861 20.842 14.3077 20.842C15.301 20.842 16.2634 20.6704 17.1738 20.3315L20.793 21.927C20.9045 21.9761 21.0225 22 21.1395 22C21.3585 22 21.5742 21.9163 21.7378 21.7576C21.989 21.5141 22.0675 21.1427 21.9364 20.8185L20.6812 17.7135ZM18.9005 17.8946L19.5497 19.5006L17.5372 18.6134C17.3196 18.5175 17.072 18.516 16.8533 18.6093C16.0645 18.9459 15.2199 19.1183 14.3424 19.1228C14.3308 19.1223 14.3194 19.1211 14.3076 19.1211C12.614 19.1211 11.0141 18.4593 9.89628 17.3584C11.3135 17.2905 12.7027 16.9285 13.9412 16.2996C14.3644 16.0846 14.5332 15.5674 14.3183 15.1442C14.1034 14.721 13.5861 14.5523 13.1629 14.7671C12.0228 15.3462 10.7247 15.6523 9.40919 15.6523C8.26605 15.6523 7.16549 15.43 6.13824 14.9917C5.91958 14.8984 5.6719 14.8998 5.45435 14.9958L2.44835 16.3209L3.46044 13.8173C3.58045 13.5204 3.52549 13.1814 3.31774 12.9377C2.27106 11.7098 1.7178 10.2394 1.7178 8.68551C1.7178 4.84399 5.16814 1.71875 9.40919 1.71875C13.6502 1.71875 17.1006 4.84399 17.1006 8.68551C17.1006 9.92628 16.7358 11.1444 16.0456 12.208C15.7873 12.6062 15.9006 13.1384 16.2988 13.3967C16.6969 13.6551 17.2291 13.5417 17.4875 13.1435C18.1 12.1995 18.5092 11.1573 18.6984 10.0748C19.7051 11.0607 20.2803 12.3592 20.2803 13.7296C20.2803 14.9295 19.8525 16.0656 19.0432 17.015C18.8354 17.2587 18.7805 17.5977 18.9005 17.8946ZM10.2256 13.1054C10.2256 13.5801 9.84085 13.9648 9.36622 13.9648C8.89159 13.9648 8.50685 13.5801 8.50685 13.1054C8.50685 12.6308 8.89159 12.2461 9.36622 12.2461C9.84085 12.2461 10.2256 12.6308 10.2256 13.1054ZM12.6311 6.66667C12.6316 6.67862 12.6319 6.69056 12.6319 6.70264C12.6322 7.9963 11.8635 9.16049 10.6737 9.66842C10.4275 9.77357 10.2683 10.0215 10.2683 10.3001V10.3554C10.2683 10.8301 9.88356 11.2148 9.40893 11.2148C8.9343 11.2148 8.54956 10.8301 8.54956 10.3554V10.3001C8.54956 9.33202 9.11842 8.46362 9.99885 8.08778C10.5468 7.85381 10.9035 7.32182 10.9129 6.72769C10.9127 6.71944 10.9126 6.71115 10.9126 6.70285C10.9126 5.87377 10.2381 5.19925 9.40893 5.19925C8.57985 5.19921 7.90529 5.87373 7.90529 6.70281C7.90529 7.17744 7.52054 7.56218 7.04591 7.56218C6.57128 7.56218 6.18654 7.17744 6.18654 6.70281C6.18654 4.92601 7.63209 3.48046 9.40893 3.48046C11.1737 3.48046 12.6117 4.90646 12.6311 6.66667Z" fill="white"/>
</g>
<defs>
<clipPath id="clip0">
<rect width="22" height="22" fill="white"/>
</clipPath>
</defs>
</svg>
