<svg width="105" height="105" viewBox="0 0 105 105" fill="none" xmlns="http://www.w3.org/2000/svg">
<path d="M43.2715 105V95.5664C36.4852 95.5664 30.9668 90.048 30.9668 83.2617C30.9668 76.4755 36.4852 70.957 43.2715 70.957V61.7285H26.0761L27.5391 57.619C27.7735 56.967 27.8906 56.2792 27.8906 55.5762C27.8906 52.1846 25.1299 49.4238 21.7383 49.4238C18.3467 49.4238 15.5859 52.1846 15.5859 55.5762C15.5859 56.2792 15.703 56.967 15.9374 57.619L17.4005 61.7285H0C1.5264 84.7161 20.2839 103.474 43.2715 105Z" fill="url(#paint0_linear)"/>
<path d="M21.7383 43.2715C28.5245 43.2715 34.043 48.7899 34.043 55.5762H43.2715V38.3808L47.381 39.8438C51.1693 41.1926 55.5731 38.1345 55.5762 34.043C55.5731 29.9484 51.1721 26.8663 47.381 28.2421L43.2715 29.7052V12.6656C20.2839 14.192 1.5264 32.5886 0 55.5762H9.43359C9.43359 48.7899 14.952 43.2715 21.7383 43.2715Z" fill="url(#paint1_linear)"/>
<path d="M92.3344 61.7285H83.2617C83.2617 68.5148 77.7433 74.0332 70.957 74.0332C64.1708 74.0332 58.6523 68.5148 58.6523 61.7285H49.4238V78.9239L45.3143 77.4609C41.5111 76.094 37.1161 79.1671 37.1191 83.2617C37.1161 87.3563 41.5142 90.4294 45.3143 89.0626L49.4238 87.5995V105C72.4114 103.474 90.808 84.7161 92.3344 61.7285Z" fill="url(#paint2_linear)"/>
<path d="M92.4902 24.8145V12.5098H80.1855C80.1855 5.72353 74.6671 0 67.8809 0C61.0946 0 55.5762 5.72353 55.5762 12.5098H49.4238V21.7383C56.2101 21.7383 61.7285 27.2567 61.7285 34.043C61.7285 40.8292 56.2101 46.3477 49.4238 46.3477V55.5762H66.6192L65.1562 59.6857C64.9218 60.3377 64.8047 61.0255 64.8047 61.7285C64.8047 65.1201 67.5655 67.8809 70.957 67.8809C74.3486 67.8809 77.1094 65.1201 77.1094 61.7285C77.1094 61.0255 76.9923 60.3377 76.7579 59.6857L75.2948 55.5762H92.4902V49.4238C99.2765 49.4238 105 43.9054 105 37.1191C105 30.3329 99.2765 24.8145 92.4902 24.8145Z" fill="url(#paint3_linear)"/>
<defs>
<linearGradient id="paint0_linear" x1="73.6005" y1="8.38094e-06" x2="24.8684" y2="100.227" gradientUnits="userSpaceOnUse">
<stop stop-color="#2D2C34"/>
<stop offset="1" stop-color="#2D2C34" stop-opacity="0"/>
</linearGradient>
<linearGradient id="paint1_linear" x1="73.6005" y1="8.38094e-06" x2="24.8684" y2="100.227" gradientUnits="userSpaceOnUse">
<stop stop-color="#2D2C34"/>
<stop offset="1" stop-color="#2D2C34" stop-opacity="0"/>
</linearGradient>
<linearGradient id="paint2_linear" x1="73.6005" y1="8.38094e-06" x2="24.8684" y2="100.227" gradientUnits="userSpaceOnUse">
<stop stop-color="#2D2C34"/>
<stop offset="1" stop-color="#2D2C34" stop-opacity="0"/>
</linearGradient>
<linearGradient id="paint3_linear" x1="73.6005" y1="8.38094e-06" x2="24.8684" y2="100.227" gradientUnits="userSpaceOnUse">
<stop stop-color="#2D2C34"/>
<stop offset="1" stop-color="#2D2C34" stop-opacity="0"/>
</linearGradient>
</defs>
</svg>
