<svg xmlns="http://www.w3.org/2000/svg" width="16" height="11"><defs><filter id="a" x="551" y="1179" width="16" height="11" filterUnits="userSpaceOnUse"><feFlood result="flood" flood-color="#ffd800"/><feComposite result="composite" operator="in" in2="SourceGraphic"/><feBlend result="blend" in2="SourceGraphic"/></filter></defs><path data-name="Forma 1 копия 5" d="M551 1190h16v-11h-16v11zm8.14-9.5h2.312c2.383 0 4.021 1.1 4.021 3.85s-1.638 3.92-3.9 3.92h-2.433v-7.77zm-4.8 4.64v-1.44c1.276 0 1.662-.33 1.662-.86a.669.669 0 00-.795-.69 1.978 1.978 0 00-1.348.62l-1.036-1.25a3.783 3.783 0 012.48-.98c1.686 0 2.769.77 2.769 2.14a1.753 1.753 0 01-1.228 1.64v.05a1.845 1.845 0 011.469 1.82c0 1.43-1.372 2.22-2.962 2.22a3.427 3.427 0 01-2.721-1.07l.94-1.3a2.374 2.374 0 001.565.72c.674 0 1.107-.24 1.107-.72.003-.57-.298-.9-1.899-.9zm9.011-.79c0-1.82-.891-2.2-2.023-2.2h-.12v4.47h.12c1.135 0 2.026-.46 2.026-2.27z" transform="translate(-551 -1179)" fill="#fff" fill-rule="evenodd" filter="url(#a)"/></svg>