<svg xmlns="http://www.w3.org/2000/svg" width="15" height="15"><defs><filter id="a" x="448.875" y="1177" width="15" height="15" filterUnits="userSpaceOnUse"><feFlood result="flood" flood-color="#ffd800"/><feComposite result="composite" operator="in" in2="SourceGraphic"/><feBlend result="blend" in2="SourceGraphic"/></filter></defs><path data-name="Forma 1 копия 3" d="M462.109 1184.5a.763.763 0 01-.724.6.233.233 0 00-.23.2.245.245 0 00.135.27.755.755 0 01.438.83l-.064.32a.8.8 0 01-.959.58c-.114-.03-.232-.05-.347-.07-.171-.03-.342-.07-.513-.1-.225-.05-.451-.09-.676-.14-.269-.05-.538-.11-.807-.16l-.9-.18c-.321-.06-.642-.13-.962-.19s-.659-.14-.986-.2-.651-.13-.977-.2c-.311-.06-.622-.12-.933-.19-.285-.05-.569-.11-.854-.17-.247-.05-.494-.1-.739-.14l-.592-.12a5.82 5.82 0 00-.406-.08 1.288 1.288 0 00-.188-.04h-.009a.766.766 0 01-.055.48.781.781 0 01-.857.44.233.233 0 00-.257.11l-.137.3a.234.234 0 00.08.27c.016.01 11 5.07 11.021 5.07a.221.221 0 00.257-.11l.137-.3a.218.218 0 00-.08-.26.785.785 0 01-.221-.94.793.793 0 01.856-.44.235.235 0 00.258-.11l.137-.3a.234.234 0 00-.081-.27.769.769 0 01-.221-.93.781.781 0 01.857-.44.233.233 0 00.257-.11l.138-.3a.234.234 0 00-.081-.27.778.778 0 01.635-1.37.227.227 0 00.258-.12l.151-.32a.185.185 0 00-.092-.25l-1.641-.76zm-13.092-.1c.019.01 11.879 2.38 11.9 2.38a.226.226 0 00.224-.17l.065-.32a.227.227 0 00-.142-.24.783.783 0 01.3-1.49.219.219 0 00.225-.16l.047-.24.017-.09a.233.233 0 00-.142-.24.782.782 0 01-.433-.86.769.769 0 01.732-.62.239.239 0 00.224-.17l.064-.32a.247.247 0 00-.142-.25.763.763 0 01-.433-.85.79.79 0 01.732-.63.227.227 0 00.224-.17l.071-.35a.182.182 0 00-.148-.22s-11.917-2.39-11.93-2.39a.186.186 0 00-.184.15l-.072.35a.238.238 0 00.142.25.782.782 0 01.433.86.769.769 0 01-.732.62.239.239 0 00-.224.17l-.064.32a.224.224 0 00.142.24.783.783 0 01-.3 1.49.227.227 0 00-.224.17l-.064.32a.224.224 0 00.142.24.783.783 0 01-.3 1.49.219.219 0 00-.224.16l-.064.32a.235.235 0 00.138.25zm10.159-3.91a.381.381 0 01.747.15l-.5 2.5-.309 1.54a.386.386 0 01-.374.31.189.189 0 01-.074-.01.381.381 0 01-.3-.45l.346-1.71zm-6.871-1.37a.381.381 0 11.747.15l-.174.86-.2.98-.158.79-.282 1.41a.377.377 0 01-.373.3.192.192 0 01-.075-.01h-.031a.384.384 0 01-.266-.44l.056-.29.148-.73z" transform="translate(-448.875 -1177)" fill="#fff" fill-rule="evenodd" filter="url(#a)"/></svg>