<svg xmlns="http://www.w3.org/2000/svg" width="15" height="15"><path data-name="Forma 1 копия 2" d="M13.23 7.5a.757.757 0 01-.72.6.248.248 0 00-.1.468.752.752 0 01.44.83l-.06.32a.8.8 0 01-.96.584c-.12-.027-.23-.048-.35-.071l-.51-.1-.68-.135-.8-.162c-.31-.061-.61-.12-.91-.181l-.96-.193c-.33-.066-.66-.133-.98-.2s-.65-.13-.98-.2l-.93-.187-.86-.171c-.24-.048-.49-.1-.74-.147-.19-.04-.39-.08-.59-.119-.13-.028-.27-.055-.4-.083-.07-.012-.13-.025-.19-.037h-.01a.753.753 0 01-.06.486.774.774 0 01-.85.438.231.231 0 00-.26.113l-.14.3a.236.236 0 00.08.269c.02.012 11.01 5.071 11.02 5.076a.227.227 0 00.26-.113l.14-.3a.236.236 0 00-.08-.269.762.762 0 01-.22-.935.773.773 0 01.85-.438.226.226 0 00.26-.113l.14-.3a.236.236 0 00-.08-.269.762.762 0 01-.22-.935.772.772 0 01.85-.438.233.233 0 00.26-.113l.14-.3a.236.236 0 00-.08-.269.762.762 0 01-.22-.935.775.775 0 01.85-.439.232.232 0 00.26-.112l.15-.329a.2.2 0 00-.09-.25l-1.64-.757zM.14 7.4c.02.008 11.88 2.385 11.9 2.385a.229.229 0 00.22-.169l.07-.319a.23.23 0 00-.15-.244.79.79 0 01-.43-.859.779.779 0 01.73-.626.231.231 0 00.23-.168l.04-.235.02-.087a.234.234 0 00-.14-.243.781.781 0 01.3-1.485.228.228 0 00.22-.169l.07-.319a.23.23 0 00-.15-.244.79.79 0 01-.43-.859.777.777 0 01.73-.625.233.233 0 00.23-.169l.07-.355a.189.189 0 00-.15-.22S1.6 0 1.59 0a.184.184 0 00-.18.151l-.07.354a.225.225 0 00.14.245.788.788 0 01.43.858.777.777 0 01-.73.625.233.233 0 00-.23.169l-.06.32a.233.233 0 00.14.243.767.767 0 01.43.86.777.777 0 01-.73.625.23.23 0 00-.22.169l-.07.32a.242.242 0 00.15.243.79.79 0 01.43.859.778.778 0 01-.73.626.231.231 0 00-.23.169L0 7.155a.235.235 0 00.14.245zM10.3 3.5a.381.381 0 01.45-.3.387.387 0 01.3.448l-.51 2.5-.31 1.54a.37.37 0 01-.37.306.415.415 0 01-.07-.007.38.38 0 01-.3-.448l.34-1.719zM3.43 2.122a.379.379 0 01.45-.3.372.372 0 01.29.447L4 3.132l-.2.979-.15.789-.29 1.41a.37.37 0 01-.37.3.415.415 0 01-.07-.007.043.043 0 01-.03-.008.38.38 0 01-.27-.44l.06-.284.14-.738z" fill="#fff" fill-rule="evenodd"/></svg>