<svg id="Layer_1" data-name="Layer 1" xmlns="http://www.w3.org/2000/svg" viewBox="0 0 337.6 65.04"><defs><style>.cls-1{fill:#fff;fill-rule:evenodd;}</style></defs><path class="cls-1" d="M197.48,147.79c.22,1.33.34,2.32.56,3.32a20.7,20.7,0,0,0,19,16.25c8.4.67,15-2.54,19.9-9.4,2.43-3.31,6.3-3.87,9.4-1.21a3.67,3.67,0,0,1,.55,5.42c-.77,1-1.54,2-2.32,3.09a25.05,25.05,0,0,1-12.6,9.18c-8.41,2.88-16.81,3.32-25.11.22-11.17-4.09-17.8-12.27-19.68-24-1.11-7.19-.44-14.38,2.87-20.9,4.76-9.29,12.28-15,22.67-16.7a33.33,33.33,0,0,1,20.13,2.65c9.07,4.32,14.6,11.61,16.7,21.35a67.09,67.09,0,0,1,1,8.07c.22,1.66-.55,2.43-2.32,2.54H199.47a9,9,0,0,1-2,.11Zm42.36-10.17c-1.33-8.74-11.84-16.26-21.46-15.7-10.06.55-20.12,8.29-20.45,15.7Z" transform="translate(25 -112)"/><path class="cls-1" d="M118.13,147.46c.11.88.22,1.54.33,2.21a21.7,21.7,0,0,0,39.26,8.07,6.14,6.14,0,0,1,9.73-.77,3.64,3.64,0,0,1,.33,5.08,20.53,20.53,0,0,1-1.88,2.44,25.93,25.93,0,0,1-13.82,10.06c-8.41,2.76-16.81,3-24.88-.22-11.62-4.54-18.14-13.38-19.47-25.77a31.69,31.69,0,0,1,2.44-17.25c4.75-10.39,12.6-16.81,24.1-18.35a34.69,34.69,0,0,1,17.81,2c10.17,4.2,16.14,12,18.35,22.78a56.3,56.3,0,0,1,.78,7.4c.11,2-.34,2.44-2.44,2.44h-48.1a18,18,0,0,0-2.54-.11Zm42.46-10.18c-1.33-8.62-11.5-15.92-21.45-15.7-9.73.22-19.8,8-20.57,15.7Z" transform="translate(25 -112)"/><path class="cls-1" d="M292.07,152.11c.77.67,1.22,1.11,1.66,1.55,5.42,4.64,10.84,9.18,16.14,13.82.34.33.78.67,1.11,1a4.9,4.9,0,0,1-6.41,7.41c-3.76-3.1-7.41-6.31-11.06-9.4-5.31-4.54-10.51-9-15.82-13.49-.44-.45-1-.78-1.76-1.44,0,1.1-.12,1.77-.12,2.54v17.72a4.87,4.87,0,0,1-9.73-.22V114.4c0-1.77.23-2.1,1.88-2.1,2.33-.11,4.65-.11,6.86-.11,5.53,0,11.17.22,16.7-.11,9.29-.44,19.68,7.08,20.68,18a19.76,19.76,0,0,1-15.82,21.12c-1.21.22-2.54.55-4.31.88Zm-16.92-7.74a6.4,6.4,0,0,0,1.33.11h13.93a12.39,12.39,0,0,0,4-.55c4.31-1.33,7.74-3.87,8.85-8.52a12.23,12.23,0,0,0-12.05-15.15H276.81c-.55,0-1.11.11-1.66.11v24Z" transform="translate(25 -112)"/><path class="cls-1" d="M82.1,147.58H54.9c0,.77-.11,1.55-.11,2.21v20.9a9.51,9.51,0,0,1-.22,2.54,4.9,4.9,0,0,1-9.51-1,8.37,8.37,0,0,1,0-1.66c0-24.88-.11-27.89-.11-52.67a8.26,8.26,0,0,1,.44-2.87,4.85,4.85,0,0,1,5.31-3,5,5,0,0,1,4.09,4.32,12,12,0,0,1,0,2c0,12.82.11,3.67.11,16.5,0,.78.11,1.55.11,2.21,1.66.45,25.32.45,27.09,0,0-.55.11-1.21.11-1.88V116.62a4.81,4.81,0,0,1,4.65-4.54,4.93,4.93,0,0,1,5.08,4.31,8.37,8.37,0,0,1,0,1.66v54.08a4.88,4.88,0,0,1-9.73-.22v-22a14.9,14.9,0,0,1-.11-2.32Z" transform="translate(25 -112)"/><path class="cls-1" d="M2.48,176.92a36.36,36.36,0,0,1-18.25-4.87,24.79,24.79,0,0,1-6.41-5.3,12.33,12.33,0,0,1-2.43-3.65c-.59-1.82-.69-3.79,1-5.42a5.34,5.34,0,0,1,7.08-.78c2.52,1.83,3.7,4.09,5.8,6.2A18.21,18.21,0,0,0,.38,168.18a25.38,25.38,0,0,0,11.5-1,17.13,17.13,0,0,0,4.42-2.32c2.42-2.66,3.08-6.53.22-9.07a20.06,20.06,0,0,0-5-2.88A98.55,98.55,0,0,0-2,148.5c-3.76-.88-7.41-2.1-11.17-3.21a26.12,26.12,0,0,1-4.09-1.88,11.21,11.21,0,0,1-6.09-8.73c-1.1-7.85,1.83-15,8.71-18.47,10.84-5.31,22-4.84,32.76,1.33a36.5,36.5,0,0,1,5.64,4.31,8.61,8.61,0,0,1,2.77,4.42,3.89,3.89,0,0,1-3.1,4.87,5.91,5.91,0,0,1-5.75-1.88,5.7,5.7,0,0,1-.77-1,16,16,0,0,0-10.62-6.74,23.77,23.77,0,0,0-13,1,13.05,13.05,0,0,0-4.31,2.55,6.62,6.62,0,0,0-.11,8.62A13.6,13.6,0,0,0-4.71,137c5.31,1.33,10.73,2.65,16,4a39.68,39.68,0,0,1,9.84,3.76c4,2.1,6.85,5.2,7.85,9.73,1.22,5.53,0,10.68-4.31,14.66a29.05,29.05,0,0,1-17,7.46c-1.76.19-3.54.22-5.2.33Z" transform="translate(25 -112)"/></svg>