<svg width="24" height="24" viewBox="0 0 24 24" fill="none" xmlns="http://www.w3.org/2000/svg">
<g opacity="0.3" clip-path="url(#clip0)">
<path d="M5.33151 12.9366L16.0144 23.6146C16.2632 23.8634 16.5901 24 16.9413 24C17.2925 24 17.6242 23.8634 17.8681 23.6146L18.6583 22.8293C19.1705 22.3171 19.1705 21.4829 18.6583 20.9707L9.68761 12L18.6681 3.02439C18.9169 2.7756 19.0535 2.44877 19.0535 2.09756C19.0535 1.74634 18.9169 1.41463 18.6681 1.17072L17.8827 0.385359C17.634 0.13658 17.3071 -5.72205e-06 16.9559 -5.72205e-06C16.6047 -5.72205e-06 16.273 0.13658 16.0291 0.385359L5.33151 11.0732C5.08273 11.3219 4.94615 11.6537 4.95103 12.0049C4.95103 12.3561 5.08273 12.6878 5.33151 12.9366Z" fill="#4E5657"/>
</g>
<defs>
<clipPath id="clip0">
<rect width="24" height="24" fill="white" transform="translate(24 24) rotate(-180)"/>
</clipPath>
</defs>
</svg>
