<svg width="24" height="24" viewBox="0 0 24 24" fill="none" xmlns="http://www.w3.org/2000/svg">
<g opacity="0.3" clip-path="url(#clip0)">
<path d="M18.6685 12.9366L7.98556 23.6146C7.73678 23.8634 7.40995 24 7.05873 24C6.70751 24 6.3758 23.8634 6.1319 23.6146L5.34166 22.8293C4.82946 22.3171 4.82946 21.4829 5.34166 20.9707L14.3124 12L5.3319 3.02439C5.08312 2.7756 4.94653 2.44877 4.94653 2.09756C4.94653 1.74634 5.08312 1.41463 5.3319 1.17072L6.11726 0.385359C6.36605 0.13658 6.69287 -5.72205e-06 7.04409 -5.72205e-06C7.39531 -5.72205e-06 7.72702 0.13658 7.97092 0.385359L18.6685 11.0732C18.9173 11.3219 19.0539 11.6537 19.049 12.0049C19.049 12.3561 18.9173 12.6878 18.6685 12.9366Z" fill="#4E5657"/>
</g>
<defs>
<clipPath id="clip0">
<rect width="24" height="24" fill="white" transform="matrix(1 0 0 -1 0 24)"/>
</clipPath>
</defs>
</svg>
