<svg width="24" height="16" viewBox="0 0 24 16" fill="none" xmlns="http://www.w3.org/2000/svg">
<path d="M11.0634 1.33151L0.385366 12.0144C0.136585 12.2632 -1.07679e-07 12.5901 -9.2327e-08 12.9413C-7.69747e-08 13.2925 0.136585 13.6242 0.385366 13.8681L1.17073 14.6583C1.68293 15.1705 2.51707 15.1705 3.02927 14.6583L12 5.68761L20.9756 14.6681C21.2244 14.9169 21.5512 15.0535 21.9024 15.0535C22.2537 15.0535 22.5854 14.9169 22.8293 14.6681L23.6146 13.8827C23.8634 13.634 24 13.3071 24 12.9559C24 12.6047 23.8634 12.273 23.6146 12.0291L12.9268 1.33151C12.6781 1.08273 12.3463 0.946148 11.9951 0.951026C11.6439 0.951026 11.3122 1.08273 11.0634 1.33151Z" fill="#4E5657"/>
</svg>
