<svg width="24" height="16" viewBox="0 0 24 16" fill="none" xmlns="http://www.w3.org/2000/svg">
<path d="M11.0634 14.6685L0.385366 3.98556C0.136585 3.73678 -1.07679e-07 3.40995 -9.2327e-08 3.05873C-7.69747e-08 2.70751 0.136585 2.3758 0.385366 2.1319L1.17073 1.34166C1.68293 0.82946 2.51707 0.82946 3.02927 1.34166L12 10.3124L20.9756 1.3319C21.2244 1.08312 21.5512 0.946534 21.9024 0.946534C22.2537 0.946534 22.5854 1.08312 22.8293 1.3319L23.6146 2.11727C23.8634 2.36605 24 2.69288 24 3.04409C24 3.39531 23.8634 3.72702 23.6146 3.97092L12.9268 14.6685C12.6781 14.9173 12.3463 15.0539 11.9951 15.049C11.6439 15.049 11.3122 14.9173 11.0634 14.6685Z" fill="#4E5657"/>
</svg>
