<svg width="52" height="52" viewBox="0 0 52 52" fill="none" xmlns="http://www.w3.org/2000/svg">
<path d="M12.7852 14V15.5071H28.8964V24.7081H40.294L42.1779 27.1158V33.5475H39.2767C39.1053 32.5788 38.5982 31.7015 37.8444 31.0694C37.0907 30.4373 36.1384 30.0909 35.1547 30.0909C34.171 30.0909 33.2187 30.4373 32.465 31.0694C31.7112 31.7015 31.2041 32.5788 31.0327 33.5475H23.5762C23.4048 32.5788 22.8977 31.7015 22.1439 31.0694C21.3902 30.4373 20.4379 30.0909 19.4542 30.0909C18.4705 30.0909 17.5182 30.4373 16.7645 31.0694C16.0107 31.7015 15.5036 32.5788 15.3322 33.5475H12.7852V35.0546H15.3209C15.5008 36.0153 16.0109 36.8829 16.763 37.5072C17.5151 38.1315 18.4617 38.4732 19.4391 38.4732C20.4165 38.4732 21.3632 38.1315 22.1153 37.5072C22.8673 36.8829 23.3774 36.0153 23.5574 35.0546H31.0252C31.2051 36.0153 31.7152 36.8829 32.4673 37.5072C33.2193 38.1315 34.166 38.4732 35.1434 38.4732C36.1208 38.4732 37.0675 38.1315 37.8195 37.5072C38.5716 36.8829 39.0817 36.0153 39.2616 35.0546H43.6737V26.6147L41.3302 23.6004L37.6867 15.9254H30.4035V14.0038L12.7852 14ZM19.4316 36.9686C18.9001 36.9686 18.3806 36.811 17.9387 36.5156C17.4968 36.2203 17.1525 35.8005 16.9493 35.3094C16.7461 34.8183 16.6931 34.2779 16.797 33.7567C16.901 33.2355 17.1572 32.7568 17.5333 32.3812C17.9094 32.0057 18.3884 31.7501 18.9098 31.6469C19.4312 31.5436 19.9714 31.5974 20.4623 31.8013C20.9531 32.0052 21.3724 32.3501 21.6671 32.7924C21.9619 33.2347 22.1188 33.7545 22.118 34.2859C22.117 34.9978 21.8336 35.6801 21.3299 36.1831C20.8262 36.6861 20.1434 36.9686 19.4316 36.9686ZM35.1396 36.9686C34.6081 36.9686 34.0886 36.811 33.6467 36.5156C33.2049 36.2203 32.8605 35.8005 32.6573 35.3094C32.4541 34.8183 32.4011 34.2779 32.5051 33.7567C32.609 33.2355 32.8653 32.7568 33.2414 32.3812C33.6174 32.0057 34.0965 31.7501 34.6178 31.6469C35.1392 31.5436 35.6795 31.5974 36.1703 31.8013C36.6611 32.0052 37.0804 32.3501 37.3752 32.7924C37.6699 33.2347 37.8268 33.7545 37.8261 34.2859C37.8251 34.9971 37.5421 35.6789 37.0393 36.1818C36.5364 36.6847 35.8546 36.9676 35.1434 36.9686H35.1396ZM36.7334 17.4325L39.4839 23.2048H30.4035V17.4325H36.7334Z" fill="#FFC526"/>
<path d="M15.9123 27.7451H9.88379V29.2522H15.9123V27.7451Z" fill="#FFC526"/>
<path d="M18.5499 23.2236H8V24.7308H18.5499V23.2236Z" fill="#FFC526"/>
<path d="M20.4337 18.7021H9.88379V20.2093H20.4337V18.7021Z" fill="#FFC526"/>
<circle cx="26" cy="26" r="25" stroke="#FFC526" stroke-width="2"/>
</svg>
