<svg width="52" height="52" viewBox="0 0 52 52" fill="none" xmlns="http://www.w3.org/2000/svg">
<circle cx="26" cy="25.9998" r="25" stroke="#FFC526" stroke-width="2"/>
<path d="M31.7698 29.4536C32.7666 28.4619 33.4307 27.2222 33.6808 25.8859C33.931 24.5496 33.7564 23.1746 33.1784 21.9289C32.6003 20.6832 31.6439 19.6208 30.426 18.8715C29.2081 18.1222 27.7815 17.7184 26.3204 17.7095H26.2248C24.2841 17.7686 22.4404 18.5106 21.0674 19.7851C19.6944 21.0596 18.895 22.7711 18.8313 24.5725C18.8034 26.3836 19.5347 28.1338 20.8709 29.4536C21.8208 30.3873 22.3361 31.6308 22.305 32.9147C22.1615 32.936 22.031 33.0045 21.9374 33.1077C21.8438 33.2109 21.7933 33.3419 21.7951 33.4768V36.4942H21.8588C21.9927 37.1733 22.3782 37.7875 22.9485 38.2305C23.5189 38.6735 24.2382 38.9174 24.9819 38.9199H27.6588C28.4025 38.9174 29.1218 38.6735 29.6922 38.2305C30.2626 37.7875 30.648 37.1733 30.7819 36.4942H30.8456V33.4768C30.8474 33.3341 30.7935 33.1957 30.6939 33.0869C30.5944 32.9782 30.4559 32.9065 30.3039 32.8851C30.2826 32.2505 30.4017 31.6186 30.6538 31.0284C30.9059 30.4382 31.2858 29.9022 31.7698 29.4536ZM21.7951 28.6253C20.6756 27.5356 20.0681 26.0779 20.1061 24.5725C20.169 23.0849 20.8338 21.6739 21.968 20.6211C23.1021 19.5683 24.6221 18.9512 26.2248 18.8928H26.3204C27.9714 18.9006 29.552 19.5149 30.7165 20.6014C31.881 21.6879 32.5347 23.1582 32.5347 24.6909C32.5375 26.1639 31.9332 27.5822 30.8456 28.6549C30.2495 29.2087 29.781 29.8693 29.4687 30.5966C29.1564 31.3239 29.0068 32.1025 29.0292 32.8851H26.9577V29.1282C27.3786 28.9947 27.745 28.7443 28.0072 28.4109C28.2695 28.0775 28.4148 27.6773 28.4237 27.2645C28.4237 26.7467 28.2021 26.2501 27.8076 25.884C27.4132 25.5178 26.8782 25.3121 26.3204 25.3121C25.7625 25.3121 25.2275 25.5178 24.8331 25.884C24.4387 26.2501 24.2171 26.7467 24.2171 27.2645C24.2259 27.6773 24.3713 28.0775 24.6335 28.4109C24.8958 28.7443 25.2622 28.9947 25.683 29.1282V32.8851H23.5797C23.6027 31.3041 22.9628 29.7766 21.7951 28.6253ZM26.3204 28.0337C26.1006 28.0337 25.8899 27.9526 25.7345 27.8084C25.5791 27.6642 25.4918 27.4685 25.4918 27.2645C25.4918 27.0605 25.5791 26.8649 25.7345 26.7207C25.8899 26.5764 26.1006 26.4954 26.3204 26.4954C26.5401 26.4954 26.7509 26.5764 26.9062 26.7207C27.0616 26.8649 27.1489 27.0605 27.1489 27.2645C27.1489 27.4685 27.0616 27.6642 26.9062 27.8084C26.7509 27.9526 26.5401 28.0337 26.3204 28.0337ZM27.6588 37.7366H24.9819C24.5763 37.7351 24.1817 37.614 23.8552 37.3906C23.5287 37.1673 23.2871 36.8533 23.1654 36.4942H29.4753C29.3536 36.8533 29.1121 37.1673 28.7855 37.3906C28.459 37.614 28.0644 37.7351 27.6588 37.7366ZM23.0698 35.3109V34.0684H29.5709V35.3109H23.0698Z" fill="#FFC526"/>
<path d="M26.9583 15.2541V12.5916C26.9583 12.4347 26.8912 12.2842 26.7716 12.1733C26.6521 12.0623 26.49 12 26.321 12C26.1519 12 25.9898 12.0623 25.8703 12.1733C25.7507 12.2842 25.6836 12.4347 25.6836 12.5916V15.2541C25.6836 15.411 25.7507 15.5615 25.8703 15.6724C25.9898 15.7834 26.1519 15.8457 26.321 15.8457C26.49 15.8457 26.6521 15.7834 26.7716 15.6724C26.8912 15.5615 26.9583 15.411 26.9583 15.2541Z" fill="#FFC526"/>
<path d="M39.0041 22.7085H36.1359C35.9669 22.7085 35.8047 22.7708 35.6852 22.8818C35.5657 22.9928 35.4985 23.1433 35.4985 23.3003C35.4985 23.4572 35.5657 23.6078 35.6852 23.7188C35.8047 23.8297 35.9669 23.8921 36.1359 23.8921H39.0041C39.1731 23.8921 39.3352 23.8297 39.4547 23.7188C39.5743 23.6078 39.6414 23.4572 39.6414 23.3003C39.6414 23.1433 39.5743 22.9928 39.4547 22.8818C39.3352 22.7708 39.1731 22.7085 39.0041 22.7085Z" fill="#FFC526"/>
<path d="M16.5055 23.8921C16.6745 23.8921 16.8366 23.8297 16.9562 23.7188C17.0757 23.6078 17.1429 23.4572 17.1429 23.3003C17.1429 23.1433 17.0757 22.9928 16.9562 22.8818C16.8366 22.7708 16.6745 22.7085 16.5055 22.7085H13.6374C13.4683 22.7085 13.3062 22.7708 13.1867 22.8818C13.0672 22.9928 13 23.1433 13 23.3003C13 23.4572 13.0672 23.6078 13.1867 23.7188C13.3062 23.8297 13.4683 23.8921 13.6374 23.8921H16.5055Z" fill="#FFC526"/>
<path d="M17.1426 16.1415L19.1503 18.0349C19.2784 18.1268 19.4346 18.1786 19.5965 18.1829C19.7688 18.1829 19.9366 18.131 20.0745 18.0349C20.1806 17.9137 20.2385 17.7622 20.2385 17.606C20.2385 17.4497 20.1806 17.2983 20.0745 17.177L18.0349 15.3132C17.9122 15.2277 17.7604 15.1862 17.6073 15.1963C17.4543 15.2064 17.3103 15.2674 17.2018 15.3681C17.0933 15.4688 17.0276 15.6025 17.0167 15.7446C17.0059 15.8866 17.0506 16.0276 17.1426 16.1415Z" fill="#FFC526"/>
<path d="M35.4987 15.3132C35.442 15.2558 35.373 15.21 35.2962 15.1786C35.2194 15.1473 35.1365 15.1311 35.0526 15.1311C34.9687 15.1311 34.8857 15.1473 34.8089 15.1786C34.7321 15.21 34.6631 15.2558 34.6064 15.3132L32.5668 17.177C32.4607 17.2983 32.4028 17.4497 32.4028 17.606C32.4028 17.7622 32.4607 17.9137 32.5668 18.0349C32.7047 18.131 32.8725 18.1829 33.0449 18.1829C33.2067 18.1786 33.3629 18.1268 33.491 18.0349L35.4987 16.1415C35.5605 16.0889 35.6099 16.0249 35.6437 15.9536C35.6774 15.8823 35.6949 15.8053 35.6949 15.7274C35.6949 15.6495 35.6774 15.5724 35.6437 15.5011C35.6099 15.4298 35.5605 15.3658 35.4987 15.3132Z" fill="#FFC526"/>
</svg>
