<svg width="51" height="52" viewBox="0 0 51 52" fill="none" xmlns="http://www.w3.org/2000/svg">
<path d="M49.744 26C49.744 39.8303 38.8093 51 25.372 51C11.9346 51 1 39.8303 1 26C1 12.1697 11.9346 1 25.372 1C38.8093 1 49.744 12.1697 49.744 26Z" stroke="#FFC526" stroke-width="2"/>
<path d="M39.5361 33.3824H31.0431C30.6937 33.3824 30.4104 33.0466 30.4104 32.6325V26.633C30.4104 26.2188 30.6937 25.8831 31.0431 25.8831H39.5361C39.8855 25.8831 40.1688 26.2188 40.1688 26.633V32.6325C40.1688 33.0466 39.8855 33.3824 39.5361 33.3824ZM31.6758 31.8826H38.9034V27.3829H31.6758V31.8826Z" fill="#FFC526"/>
<path d="M35.2922 30.3824H33.7855C33.4361 30.3824 33.1528 30.0467 33.1528 29.6325C33.1528 29.2184 33.4361 28.8826 33.7855 28.8826H35.2922C35.6416 28.8826 35.9249 29.2184 35.9249 29.6325C35.9249 30.0467 35.6416 30.3824 35.2922 30.3824Z" fill="#FFC526"/>
<path d="M39.5343 38.0001H10.4298C10.0804 38.0001 9.79712 37.6643 9.79712 37.2502V17.9616C9.79712 17.5475 10.0804 17.2117 10.4298 17.2117H39.5343C39.8837 17.2117 40.167 17.5475 40.167 17.9616V37.2502C40.167 37.6643 39.8837 38.0001 39.5343 38.0001ZM11.0625 36.5002H38.9016V18.7115H11.0625V36.5002Z" fill="#FFC526"/>
<path d="M27.2925 18.7114H13.4298C13.174 18.7114 12.9432 18.5663 12.8453 18.3438C12.7474 18.1211 12.8014 17.8652 12.9825 17.6949L19.9107 11.1744C20.1579 10.9418 20.5586 10.9421 20.8051 11.1741L27.7395 17.6946C27.9209 17.8649 27.9749 18.1211 27.877 18.3436C27.7791 18.5663 27.5486 18.7114 27.2925 18.7114ZM14.9572 17.5204H25.7639L20.3584 12.4375L14.9572 17.5204Z" fill="#FFC526"/>
</svg>
