<svg width="52" height="52" viewBox="0 0 52 52" fill="none" xmlns="http://www.w3.org/2000/svg">
<circle cx="26" cy="26" r="25" stroke="#FFC526" stroke-width="2"/>
<path d="M26.4999 9.72803C17.7804 9.72803 10.6899 16.8463 10.6899 25.6C10.6899 34.3536 17.7804 41.472 26.4999 41.472C35.2195 41.472 42.3099 34.3536 42.3099 25.6C42.3099 16.8463 35.2195 9.72803 26.4999 9.72803ZM26.4999 11.776C34.1169 11.776 40.2699 17.9531 40.2699 25.6C40.2699 33.2468 34.1169 39.424 26.4999 39.424C18.8829 39.424 12.7299 33.2468 12.7299 25.6C12.7299 17.9531 18.8829 11.776 26.4999 11.776ZM26.4999 15.36C25.9366 15.36 25.4799 15.8185 25.4799 16.384V25.6C25.5213 25.9963 25.684 26.215 25.9262 26.448L31.5521 32.1121C31.9505 32.5119 32.5882 32.5119 32.9865 32.1121C33.3848 31.7121 33.3848 31.072 32.9865 30.672L27.5199 25.184V16.384C27.5199 15.8185 27.0633 15.36 26.4999 15.36Z" fill="#FFCB00"/>
</svg>
