<svg width="46" height="46" viewBox="0 0 46 46" fill="none" xmlns="http://www.w3.org/2000/svg">
<mask id="path-1-outside-1" maskUnits="userSpaceOnUse" x="0" y="0" width="46" height="46" fill="black">
<rect fill="white" width="46" height="46"/>
<path fill-rule="evenodd" clip-rule="evenodd" d="M44 23C44 34.598 34.598 44 23 44C11.402 44 2 34.598 2 23C2 11.402 11.402 2 23 2C34.598 2 44 11.402 44 23ZM32 16.656C32 17.2827 31.492 17.7907 30.8654 17.7907H29.4165C28.9401 17.7907 28.7016 17.2147 29.0385 16.8779V16.8779C29.2474 16.669 29.2484 16.329 29.0278 16.1325C27.3543 14.6411 25.2193 13.8258 22.9592 13.8258C20.5197 13.8258 18.2263 14.7754 16.5013 16.4997C14.7763 18.2238 13.8265 20.5162 13.8265 22.9547C13.8265 23.4589 13.4176 23.8676 12.9133 23.8676C12.4089 23.8676 12 23.4589 12 22.9547C12 20.0286 13.14 17.2775 15.2101 15.2085C17.2799 13.1395 20.0319 12 22.9592 12C25.7075 12 28.3013 13.0045 30.3211 14.8395C30.5398 15.0382 30.8776 15.0392 31.0866 14.8304V14.8304C31.4237 14.4934 32 14.7321 32 15.2088V16.656ZM23.8674 32.9966C23.8674 32.4927 23.4583 32.0837 22.9541 32.0837C22.4503 32.0837 22.0409 32.4927 22.0409 32.9966C22.0409 33.5005 22.4476 33.9095 22.9541 33.9095C23.4583 33.9095 23.8674 33.5005 23.8674 32.9966ZM26.7986 31.3249C27.3027 31.3249 27.7118 31.7339 27.7118 32.2378C27.7118 32.7417 27.3027 33.1507 26.7986 33.1507C26.292 33.1507 25.8853 32.7417 25.8853 32.2378C25.8853 31.7339 26.2947 31.3249 26.7986 31.3249ZM30.9764 30.0558C30.9764 29.5519 30.5673 29.143 30.0632 29.143C29.5593 29.143 29.1499 29.5519 29.1499 30.0558C29.1499 30.5598 29.5566 30.9687 30.0632 30.9687C30.5673 30.9687 30.9764 30.5598 30.9764 30.0558ZM19.1101 31.32C19.6142 31.32 20.0233 31.729 20.0233 32.2329C20.0233 32.7368 19.6142 33.1458 19.1101 33.1458C18.6035 33.1458 18.1968 32.7368 18.1968 32.2329C18.1968 31.729 18.606 31.32 19.1101 31.32ZM16.7674 30.0558C16.7674 29.5519 16.3583 29.143 15.8542 29.143C15.3503 29.143 14.9409 29.5519 14.9409 30.0558C14.9409 30.5598 15.3476 30.9687 15.8542 30.9687C16.3583 30.9687 16.7674 30.5598 16.7674 30.0558ZM13.6755 25.8857C14.1796 25.8857 14.5888 26.2947 14.5888 26.7986C14.5888 27.3026 14.1796 27.7115 13.6755 27.7115C13.1689 27.7115 12.7622 27.3026 12.7622 26.7986C12.7622 26.2947 13.1716 25.8857 13.6755 25.8857ZM28.4388 25.3499V25.3499C28.4388 25.2271 28.3625 25.1171 28.2475 25.074L26.1546 24.2895C25.7659 24.1438 25.3278 24.2386 25.0342 24.5321V24.5321C24.6773 24.8889 24.1152 24.9479 23.7146 24.6409C22.7968 23.9379 21.9757 23.117 21.2723 22.1997C20.9653 21.7993 21.0243 21.2373 21.3812 20.8807V20.8807C21.6747 20.5873 21.7696 20.1493 21.6238 19.7607L20.8391 17.6689C20.7959 17.5538 20.6859 17.4776 20.563 17.4776V17.4776C19.7584 17.4776 18.9866 17.797 18.4174 18.3659C17.8169 18.966 17.4796 19.7801 17.4796 20.6289C17.4796 21.1954 17.6301 21.7519 17.9158 22.2415C19.3061 24.624 21.2892 26.6063 23.673 27.9961C24.1625 28.2817 24.7192 28.4321 25.2862 28.4321C26.1351 28.4321 26.9495 28.0949 27.5501 27.4946C28.119 26.926 28.4388 26.1543 28.4388 25.3499Z"/>
</mask>
<path fill-rule="evenodd" clip-rule="evenodd" d="M44 23C44 34.598 34.598 44 23 44C11.402 44 2 34.598 2 23C2 11.402 11.402 2 23 2C34.598 2 44 11.402 44 23ZM32 16.656C32 17.2827 31.492 17.7907 30.8654 17.7907H29.4165C28.9401 17.7907 28.7016 17.2147 29.0385 16.8779V16.8779C29.2474 16.669 29.2484 16.329 29.0278 16.1325C27.3543 14.6411 25.2193 13.8258 22.9592 13.8258C20.5197 13.8258 18.2263 14.7754 16.5013 16.4997C14.7763 18.2238 13.8265 20.5162 13.8265 22.9547C13.8265 23.4589 13.4176 23.8676 12.9133 23.8676C12.4089 23.8676 12 23.4589 12 22.9547C12 20.0286 13.14 17.2775 15.2101 15.2085C17.2799 13.1395 20.0319 12 22.9592 12C25.7075 12 28.3013 13.0045 30.3211 14.8395C30.5398 15.0382 30.8776 15.0392 31.0866 14.8304V14.8304C31.4237 14.4934 32 14.7321 32 15.2088V16.656ZM23.8674 32.9966C23.8674 32.4927 23.4583 32.0837 22.9541 32.0837C22.4503 32.0837 22.0409 32.4927 22.0409 32.9966C22.0409 33.5005 22.4476 33.9095 22.9541 33.9095C23.4583 33.9095 23.8674 33.5005 23.8674 32.9966ZM26.7986 31.3249C27.3027 31.3249 27.7118 31.7339 27.7118 32.2378C27.7118 32.7417 27.3027 33.1507 26.7986 33.1507C26.292 33.1507 25.8853 32.7417 25.8853 32.2378C25.8853 31.7339 26.2947 31.3249 26.7986 31.3249ZM30.9764 30.0558C30.9764 29.5519 30.5673 29.143 30.0632 29.143C29.5593 29.143 29.1499 29.5519 29.1499 30.0558C29.1499 30.5598 29.5566 30.9687 30.0632 30.9687C30.5673 30.9687 30.9764 30.5598 30.9764 30.0558ZM19.1101 31.32C19.6142 31.32 20.0233 31.729 20.0233 32.2329C20.0233 32.7368 19.6142 33.1458 19.1101 33.1458C18.6035 33.1458 18.1968 32.7368 18.1968 32.2329C18.1968 31.729 18.606 31.32 19.1101 31.32ZM16.7674 30.0558C16.7674 29.5519 16.3583 29.143 15.8542 29.143C15.3503 29.143 14.9409 29.5519 14.9409 30.0558C14.9409 30.5598 15.3476 30.9687 15.8542 30.9687C16.3583 30.9687 16.7674 30.5598 16.7674 30.0558ZM13.6755 25.8857C14.1796 25.8857 14.5888 26.2947 14.5888 26.7986C14.5888 27.3026 14.1796 27.7115 13.6755 27.7115C13.1689 27.7115 12.7622 27.3026 12.7622 26.7986C12.7622 26.2947 13.1716 25.8857 13.6755 25.8857ZM28.4388 25.3499V25.3499C28.4388 25.2271 28.3625 25.1171 28.2475 25.074L26.1546 24.2895C25.7659 24.1438 25.3278 24.2386 25.0342 24.5321V24.5321C24.6773 24.8889 24.1152 24.9479 23.7146 24.6409C22.7968 23.9379 21.9757 23.117 21.2723 22.1997C20.9653 21.7993 21.0243 21.2373 21.3812 20.8807V20.8807C21.6747 20.5873 21.7696 20.1493 21.6238 19.7607L20.8391 17.6689C20.7959 17.5538 20.6859 17.4776 20.563 17.4776V17.4776C19.7584 17.4776 18.9866 17.797 18.4174 18.3659C17.8169 18.966 17.4796 19.7801 17.4796 20.6289C17.4796 21.1954 17.6301 21.7519 17.9158 22.2415C19.3061 24.624 21.2892 26.6063 23.673 27.9961C24.1625 28.2817 24.7192 28.4321 25.2862 28.4321C26.1351 28.4321 26.9495 28.0949 27.5501 27.4946C28.119 26.926 28.4388 26.1543 28.4388 25.3499Z" fill="url(#paint0_linear)"/>
<path d="M16.5013 16.4997L17.9151 17.9143L17.9152 17.9142L16.5013 16.4997ZM15.2101 15.2085L16.6239 16.6231L16.624 16.623L15.2101 15.2085ZM18.4174 18.3659L19.8311 19.7807L19.8314 19.7804L18.4174 18.3659ZM17.9158 22.2415L16.1883 23.2495L16.1884 23.2495L17.9158 22.2415ZM23.673 27.9961L24.6807 26.2686L24.6803 26.2683L23.673 27.9961ZM27.5501 27.4946L28.964 28.9091L28.964 28.9091L27.5501 27.4946ZM20.8391 17.6689L22.7117 16.9664L20.8391 17.6689ZM21.2723 22.1997L19.6851 23.4166L21.2723 22.1997ZM23.7146 24.6409L22.4982 26.2286L23.7146 24.6409ZM26.1546 24.2895L26.8566 22.4167L26.1546 24.2895ZM28.2475 25.074L27.5455 26.9467L28.2475 25.074ZM29.0278 16.1325L27.6972 17.6257L29.0278 16.1325ZM30.3211 14.8395L28.9762 16.3198L30.3211 14.8395ZM23 46C35.7025 46 46 35.7025 46 23H42C42 33.4934 33.4934 42 23 42V46ZM0 23C0 35.7026 10.2975 46 23 46V42C12.5066 42 4 33.4934 4 23H0ZM23 0C10.2975 0 0 10.2975 0 23H4C4 12.5066 12.5066 4 23 4V0ZM46 23C46 10.2975 35.7026 0 23 0V4C33.4934 4 42 12.5066 42 23H46ZM29.4165 19.7907H30.8654V15.7907H29.4165V19.7907ZM22.9592 15.8258C24.7295 15.8258 26.3907 16.4613 27.6972 17.6257L30.3585 14.6394C28.3179 12.8209 25.7092 11.8258 22.9592 11.8258V15.8258ZM17.9152 17.9142C19.2651 16.5649 21.0499 15.8258 22.9592 15.8258V11.8258C19.9894 11.8258 17.1874 12.986 15.0874 15.0852L17.9152 17.9142ZM15.8265 22.9547C15.8265 21.0468 16.5655 19.2632 17.9151 17.9143L15.0875 15.0851C12.9872 17.1843 11.8265 19.9856 11.8265 22.9547H15.8265ZM12.9133 25.8676C14.5214 25.8676 15.8265 24.5642 15.8265 22.9547H11.8265C11.8265 22.3536 12.3138 21.8676 12.9133 21.8676V25.8676ZM10 22.9547C10 24.5642 11.3051 25.8676 12.9133 25.8676V21.8676C13.5127 21.8676 14 22.3536 14 22.9547H10ZM13.7962 13.7939C11.3509 16.238 10 19.4979 10 22.9547H14C14 20.5593 14.9291 18.317 16.6239 16.6231L13.7962 13.7939ZM22.9592 10C19.5017 10 16.2411 11.3501 13.7961 13.794L16.624 16.623C18.3187 14.929 20.5621 14 22.9592 14V10ZM31.666 13.3592C29.2775 11.1892 26.204 10 22.9592 10V14C25.211 14 27.3251 14.8197 28.9762 16.3198L31.666 13.3592ZM34 16.656V15.2088H30V16.656H34ZM22.9541 34.0837C22.3545 34.0837 21.8674 33.598 21.8674 32.9966H25.8674C25.8674 31.3873 24.5621 30.0837 22.9541 30.0837V34.0837ZM24.0409 32.9966C24.0409 33.5983 23.5537 34.0837 22.9541 34.0837V30.0837C21.3468 30.0837 20.0409 31.387 20.0409 32.9966H24.0409ZM22.9541 31.9095C23.5549 31.9095 24.0409 32.3986 24.0409 32.9966H20.0409C20.0409 34.6024 21.3403 35.9095 22.9541 35.9095V31.9095ZM21.8674 32.9966C21.8674 32.3952 22.3545 31.9095 22.9541 31.9095V35.9095C24.5621 35.9095 25.8674 34.6058 25.8674 32.9966H21.8674ZM29.7118 32.2378C29.7118 30.6285 28.4065 29.3249 26.7986 29.3249V33.3249C26.1989 33.3249 25.7118 32.8392 25.7118 32.2378H29.7118ZM26.7986 35.1507C28.4065 35.1507 29.7118 33.847 29.7118 32.2378H25.7118C25.7118 31.6364 26.1989 31.1507 26.7986 31.1507V35.1507ZM23.8853 32.2378C23.8853 33.8436 25.1847 35.1507 26.7986 35.1507V31.1507C27.3993 31.1507 27.8853 31.6399 27.8853 32.2378H23.8853ZM26.7986 29.3249C25.1912 29.3249 23.8853 30.6282 23.8853 32.2378H27.8853C27.8853 32.8395 27.3981 33.3249 26.7986 33.3249V29.3249ZM30.0632 31.143C29.4635 31.143 28.9764 30.6573 28.9764 30.0558H32.9764C32.9764 28.4466 31.6711 27.143 30.0632 27.143V31.143ZM31.1499 30.0558C31.1499 30.6576 30.6628 31.143 30.0632 31.143V27.143C28.4558 27.143 27.1499 28.4463 27.1499 30.0558H31.1499ZM30.0632 28.9687C30.6639 28.9687 31.1499 29.4579 31.1499 30.0558H27.1499C27.1499 31.6616 28.4493 32.9687 30.0632 32.9687V28.9687ZM28.9764 30.0558C28.9764 29.4544 29.4635 28.9687 30.0632 28.9687V32.9687C31.6711 32.9687 32.9764 31.6651 32.9764 30.0558H28.9764ZM22.0233 32.2329C22.0233 30.6237 20.718 29.32 19.1101 29.32V33.32C18.5104 33.32 18.0233 32.8343 18.0233 32.2329H22.0233ZM19.1101 35.1458C20.718 35.1458 22.0233 33.8422 22.0233 32.2329H18.0233C18.0233 31.6315 18.5104 31.1458 19.1101 31.1458V35.1458ZM16.1968 32.2329C16.1968 33.8387 17.4962 35.1458 19.1101 35.1458V31.1458C19.7108 31.1458 20.1968 31.635 20.1968 32.2329H16.1968ZM19.1101 29.32C17.5021 29.32 16.1968 30.6237 16.1968 32.2329H20.1968C20.1968 32.8343 19.7098 33.32 19.1101 33.32V29.32ZM15.8542 31.143C15.2545 31.143 14.7674 30.6573 14.7674 30.0558H18.7674C18.7674 28.4466 17.4621 27.143 15.8542 27.143V31.143ZM16.9409 30.0558C16.9409 30.6576 16.4537 31.143 15.8542 31.143V27.143C14.2468 27.143 12.9409 28.4463 12.9409 30.0558H16.9409ZM15.8542 28.9687C16.4549 28.9687 16.9409 29.4579 16.9409 30.0558H12.9409C12.9409 31.6616 14.2403 32.9687 15.8542 32.9687V28.9687ZM14.7674 30.0558C14.7674 29.4544 15.2545 28.9687 15.8542 28.9687V32.9687C17.4621 32.9687 18.7674 31.6651 18.7674 30.0558H14.7674ZM16.5888 26.7986C16.5888 25.1894 15.2834 23.8857 13.6755 23.8857V27.8857C13.0758 27.8857 12.5888 27.4001 12.5888 26.7986H16.5888ZM13.6755 29.7115C15.2834 29.7115 16.5888 28.4079 16.5888 26.7986H12.5888C12.5888 26.1972 13.0758 25.7115 13.6755 25.7115V29.7115ZM10.7622 26.7986C10.7622 28.4044 12.0617 29.7115 13.6755 29.7115V25.7115C14.2762 25.7115 14.7622 26.2007 14.7622 26.7986H10.7622ZM13.6755 23.8857C12.0682 23.8857 10.7622 25.189 10.7622 26.7986H14.7622C14.7622 27.4004 14.2751 27.8857 13.6755 27.8857V23.8857ZM25.4526 26.1622L27.5455 26.9467L28.9495 23.2012L26.8566 22.4167L25.4526 26.1622ZM19.6851 23.4166C20.4953 24.4733 21.4412 25.4187 22.4982 26.2286L24.9309 23.0533C24.1525 22.457 23.456 21.7608 22.8595 20.9827L19.6851 23.4166ZM18.9665 18.3714L19.7513 20.4632L23.4964 19.0582L22.7117 16.9664L18.9665 18.3714ZM19.8314 19.7804C20.0253 19.5866 20.2884 19.4776 20.563 19.4776V15.4776C19.2284 15.4776 17.9479 16.0074 17.0035 16.9514L19.8314 19.7804ZM19.4796 20.6289C19.4796 20.3107 19.606 20.0056 19.8311 19.7807L17.0038 16.9511C16.0277 17.9264 15.4796 19.2494 15.4796 20.6289H19.4796ZM19.6432 21.2335C19.5359 21.0497 19.4796 20.8411 19.4796 20.6289H15.4796C15.4796 21.5497 15.7242 22.4541 16.1883 23.2495L19.6432 21.2335ZM24.6803 26.2683C22.5946 25.0523 20.8596 23.3179 19.6431 21.2334L16.1884 23.2495C17.7527 25.9301 19.9838 28.1603 22.6656 29.7239L24.6803 26.2683ZM25.2862 26.4321C25.0731 26.4321 24.8642 26.3756 24.6807 26.2686L22.6652 29.7237C23.4608 30.1878 24.3653 30.4321 25.2862 30.4321V26.4321ZM26.1362 26.0801C25.9107 26.3055 25.6049 26.4321 25.2862 26.4321V30.4321C26.6654 30.4321 27.9884 29.8844 28.964 28.9091L26.1362 26.0801ZM26.4388 25.3499C26.4388 25.6236 26.3299 25.8865 26.1362 26.0801L28.964 28.9091C29.9081 27.9654 30.4388 26.6849 30.4388 25.3499H26.4388ZM22.7117 16.9664C22.3757 16.0709 21.5195 15.4776 20.563 15.4776V19.4776C19.8523 19.4776 19.2162 19.0368 18.9665 18.3714L22.7117 16.9664ZM22.7949 22.2953C23.6435 21.4473 23.9178 20.1814 23.4964 19.0582L19.7513 20.4632C19.6215 20.1172 19.706 19.7273 19.9674 19.466L22.7949 22.2953ZM22.8595 20.9827C23.2125 21.4432 23.089 22.0014 22.7949 22.2953L19.9674 19.466C18.9596 20.4732 18.7181 22.1554 19.6851 23.4166L22.8595 20.9827ZM23.6203 23.1176C23.9138 22.8243 24.471 22.701 24.9309 23.0533L22.4982 26.2286C23.7594 27.1948 25.4408 26.9536 26.4481 25.9466L23.6203 23.1176ZM26.8566 22.4167C25.7337 21.9958 24.4684 22.2698 23.6203 23.1176L26.4481 25.9466C26.1872 26.2074 25.798 26.2917 25.4526 26.1622L26.8566 22.4167ZM30.4388 25.3499C30.4388 24.3933 29.8453 23.537 28.9495 23.2012L27.5455 26.9467C26.8798 26.6972 26.4388 26.0609 26.4388 25.3499H30.4388ZM30.4524 18.2924C31.42 17.3252 31.494 15.6514 30.3585 14.6394L27.6972 17.6257C27.0027 17.0067 27.0748 16.0129 27.6246 15.4634L30.4524 18.2924ZM29.4165 15.7907C30.7221 15.7907 31.3758 17.3693 30.4524 18.2924L27.6246 15.4634C26.0273 17.06 27.1581 19.7907 29.4165 19.7907V15.7907ZM32.5005 16.2449C31.5776 17.1674 30 16.5138 30 15.2088H34C34 12.9505 31.2698 11.8193 29.6727 13.4159L32.5005 16.2449ZM30.8654 19.7907C32.5966 19.7907 34 18.3873 34 16.656H30C30 16.1781 30.3874 15.7907 30.8654 15.7907V19.7907ZM28.9762 16.3198C29.9393 17.1947 31.494 17.2509 32.5005 16.2449L29.6727 13.4159C30.2612 12.8276 31.1403 12.8816 31.666 13.3592L28.9762 16.3198Z" fill="white" fill-opacity="0.2" mask="url(#path-1-outside-1)"/>
<defs>
<linearGradient id="paint0_linear" x1="23" y1="2" x2="23" y2="44" gradientUnits="userSpaceOnUse">
<stop stop-color="#FF6732"/>
<stop offset="1" stop-color="#F65118"/>
</linearGradient>
</defs>
</svg>
