<svg width="23" height="23" viewBox="0 0 23 23" fill="none" xmlns="http://www.w3.org/2000/svg">
<circle cx="11.5" cy="11.5" r="11.5" fill="#7360F2"/>
<g clip-path="url(#clip0)">
<path d="M16.1205 10.4553C16.1361 8.62244 14.575 6.94221 12.6407 6.70987C12.6022 6.7053 12.5603 6.69836 12.5159 6.69101C12.4201 6.67514 12.3211 6.65883 12.2212 6.65883C11.8247 6.65883 11.7187 6.93733 11.6908 7.10342C11.6637 7.26491 11.6896 7.40052 11.7676 7.50666C11.8989 7.68519 12.1299 7.71688 12.3155 7.74228C12.3699 7.74978 12.4212 7.75677 12.4641 7.76642C14.2021 8.15476 14.7873 8.76532 15.0733 10.4885C15.0803 10.5306 15.0834 10.5825 15.0868 10.6375C15.0993 10.8435 15.1253 11.2721 15.586 11.2721H15.586C15.6244 11.2721 15.6656 11.2687 15.7085 11.2622C16.1376 11.197 16.1241 10.8053 16.1177 10.6171C16.1159 10.564 16.1141 10.5139 16.1186 10.4806C16.1198 10.4722 16.1204 10.4637 16.1205 10.4553Z" fill="white"/>
<path d="M12.1086 6.03709C12.1601 6.04081 12.2088 6.04436 12.2494 6.05058C15.1033 6.48947 16.4158 7.84163 16.7795 10.7179C16.7857 10.7668 16.7866 10.8264 16.7877 10.8895C16.7913 11.1142 16.7988 11.5817 17.3008 11.5914L17.3164 11.5916C17.4738 11.5916 17.5991 11.5441 17.6887 11.4503C17.8449 11.2869 17.834 11.044 17.8252 10.8489C17.8231 10.801 17.821 10.7559 17.8216 10.7164C17.8579 7.77477 15.3115 5.10731 12.3725 5.00811C12.3604 5.00771 12.3487 5.00836 12.337 5.01001C12.3312 5.01086 12.3205 5.01191 12.3022 5.01191C12.2729 5.01191 12.2368 5.00937 12.1986 5.00678C12.1524 5.00363 12.0999 5 12.0468 5C11.5788 5 11.4898 5.33267 11.4784 5.53098C11.4522 5.98929 11.8955 6.02155 12.1086 6.03709Z" fill="white"/>
<path d="M16.6418 14.4352C16.5811 14.3889 16.5184 14.3409 16.4597 14.2936C16.1481 14.0428 15.8166 13.8117 15.496 13.5882C15.4294 13.5418 15.3629 13.4954 15.2966 13.4489C14.8859 13.1604 14.5167 13.0203 14.1679 13.0203C13.6981 13.0203 13.2885 13.2799 12.9504 13.7917C12.8006 14.0187 12.6189 14.129 12.3949 14.129C12.2625 14.129 12.1121 14.0912 11.9478 14.0167C10.6222 13.4156 9.67568 12.4939 9.13441 11.2774C8.87275 10.6894 8.95757 10.305 9.41806 9.99224C9.67956 9.81476 10.1663 9.48435 10.1318 8.85163C10.0928 8.13312 8.50742 5.9712 7.83945 5.72566C7.55664 5.62166 7.2595 5.62069 6.95468 5.72323C6.1868 5.98138 5.63575 6.43472 5.36097 7.03418C5.09544 7.6134 5.10743 8.29352 5.39565 9.00101C6.22886 11.0465 7.40032 12.83 8.87759 14.3017C10.3236 15.7423 12.1008 16.9224 14.1599 17.809C14.3455 17.8889 14.5402 17.9325 14.6823 17.9642C14.7308 17.9751 14.7726 17.9844 14.8031 17.9928C14.8198 17.9973 14.8371 17.9998 14.8544 18L14.8707 18C14.8708 18 14.8707 18 14.8708 18C15.8393 18 17.0021 17.1151 17.3592 16.1062C17.6721 15.2227 17.1009 14.786 16.6418 14.4352Z" fill="white"/>
<path d="M12.5371 8.3737C12.3713 8.3779 12.0262 8.38646 11.9051 8.7379C11.8485 8.90214 11.8553 9.04473 11.9253 9.16173C12.0281 9.3334 12.2251 9.386 12.4042 9.41487C13.0538 9.51911 13.3875 9.87835 13.4542 10.5453C13.4852 10.8563 13.6946 11.0735 13.9635 11.0735H13.9635C13.9834 11.0735 14.0037 11.0723 14.0239 11.0698C14.3473 11.0314 14.5041 10.7938 14.4899 10.3637C14.4951 9.91489 14.2602 9.40534 13.8607 8.99948C13.4598 8.59236 12.9766 8.36308 12.5371 8.3737Z" fill="white"/>
</g>
<defs>
<clipPath id="clip0">
<rect width="13" height="13" fill="white" transform="translate(5 5)"/>
</clipPath>
</defs>
</svg>
