<?xml version="1.0" encoding="utf-8"?>
<!-- Generator: Adobe Illustrator 22.0.1, SVG Export Plug-In . SVG Version: 6.00 Build 0)  -->
<svg version="1.1" id="Layer_1" xmlns="http://www.w3.org/2000/svg" xmlns:xlink="http://www.w3.org/1999/xlink" x="0px" y="0px"
	 viewBox="0 0 512 512" style="enable-background:new 0 0 512 512;" xml:space="preserve">
<style type="text/css">
	.st0{fill:#FFFFFF;}
</style>
<path class="st0" d="M512,374c0-2.9-0.9-5.7-2.3-8l-39.3-86.4c-14.4-31.7-49.1-52.2-88.3-52.2h-35.4v-20.2
	c0-11.2-7.4-20.7-17.5-23.9c14.7-26.7,26.3-56.4,26.3-84C355.4,44.6,310.8,0,256,0s-99.4,44.6-99.4,99.4c0,27.2,11.2,56.5,25.6,82.9
	H15c-8.3,0-15,6.7-15,15c0,8.3,6.7,15,15,15h33.7v30H36c-8.3,0-15,6.7-15,15c0,8.3,6.7,15,15,15h12.7V301H15c-8.3,0-15,6.7-15,15
	c0,8.3,6.7,15,15,15h33.7v118.5c0,8.3,6.7,15,15,15h42.6c1.3,26.4,23.2,47.5,49.9,47.5c26.7,0,48.6-21.1,49.9-47.5l165.9,0.5
	c1.6,26.2,23.4,47,49.9,47s48.3-20.8,49.9-47H497c8.3,0,15-6.7,15-15v-75.7c0-0.1,0-0.1,0-0.2S512,374,512,374z M450.5,308.3
	l23.1,50.7h-66.9v-40.3c0-5.5,7-10.4,15-10.4H450.5z M256,30c38.3,0,69.4,31.1,69.4,69.4c0,28.5-16.3,61.5-34.2,89.1
	c-0.4,0.5-0.7,1-1,1.5c-12.4,18.9-25.4,35.2-34.2,45.6c-8.9-10.5-21.9-26.7-34.3-45.7c-0.3-0.5-0.6-1-0.9-1.4
	c-17.9-27.6-34.2-60.6-34.2-89.1C186.6,61.1,217.7,30,256,30z M78.7,331h42.6c8.3,0,15-6.7,15-15c0-8.3-6.7-15-15-15H78.7v-28.7
	h91.7c8.3,0,15-6.7,15-15c0-8.3-6.7-15-15-15H78.7v-30h121.9c21.3,31.6,42.7,54.4,44.5,56.2c2.8,3,6.8,4.7,10.9,4.7
	c4.1,0,8.1-1.7,10.9-4.7c1.8-1.9,23.2-24.7,44.5-56.2h5.3v222.2H198c-9-13.6-24.3-22.5-41.8-22.5s-32.8,9-41.8,22.5H78.7V331z
	 M156.3,482c-11,0-20-9-20-20s9-20,20-20s20,9,20,20S167.3,482,156.3,482z M422,482c-11,0-20-9-20-20c0-1.9,0.3-3.7,0.8-5.4
	c0.5-0.9,0.8-1.9,1.1-2.9c3.2-6.9,10.1-11.7,18.2-11.7s15,4.8,18.2,11.7c0.3,1,0.6,2,1.1,2.9c0.5,1.7,0.8,3.5,0.8,5.4
	C442,473,433,482,422,482z M464.1,435c-8.9-13.8-24.4-23-42.1-23s-33.2,9.2-42.1,23h-33.3V257.5h35.4c20.5,0,39.5,8,51.6,20.8h-12.1
	c-24.8,0-45,18.1-45,40.4V374c0,8.3,6.7,15,15,15H482v46H464.1z"/>
<path class="st0" d="M256,128.8c16.5,0,30-13.5,30-30s-13.5-30-30-30s-30,13.5-30,30S239.5,128.8,256,128.8z"/>
</svg>
