<?xml version="1.0" encoding="utf-8"?>
<!-- Generator: Adobe Illustrator 22.0.1, SVG Export Plug-In . SVG Version: 6.00 Build 0)  -->
<svg version="1.1" id="Capa_1" xmlns="http://www.w3.org/2000/svg" xmlns:xlink="http://www.w3.org/1999/xlink" x="0px" y="0px"
	 viewBox="0 0 512 512" style="enable-background:new 0 0 512 512;" xml:space="preserve">
<style type="text/css">
	.st0{fill:#FFFFFF;}
</style>
<g>
	<g>
		<path class="st0" d="M110,265.5l-77.8-77.8C11.5,167,0,139.4,0,110C0,49.3,49.4,0,110,0c60.6,0,110,49.3,110,110
			c0,29.4-11.4,57-32.2,77.8L110,265.5z M110,30c-44.1,0-80,35.9-80,80c0,21.4,8.3,41.5,23.4,56.6l56.6,56.6l56.6-56.6
			c15.1-15.1,23.4-35.2,23.4-56.6C190,65.9,154.1,30,110,30z"/>
	</g>
	<g>
		<path class="st0" d="M110,160c-27.6,0-50-22.4-50-50s22.4-50,50-50s50,22.4,50,50S137.6,160,110,160z M110,90c-11,0-20,9-20,20
			s9,20,20,20s20-9,20-20S121,90,110,90z"/>
	</g>
	<g>
		<path class="st0" d="M432,512l-56.6-56.6c-15.1-15.1-23.4-35.2-23.4-56.6c0-44.1,35.9-80,80-80s80,35.9,80,80
			c0,21.4-8.3,41.5-23.4,56.6L432,512z M396.6,434.2l35.4,35.4l35.4-35.4c9.4-9.4,14.6-22,14.6-35.4c0-27.6-22.4-50-50-50
			s-50,22.4-50,50C382,412.2,387.2,424.8,396.6,434.2z"/>
	</g>
	<g>
		<path class="st0" d="M359,511.9H191.6c-53.2,0-96.5-43.3-96.5-96.5s43.3-96.5,96.5-96.5h55.7c16.4,0,29.8-13.4,29.8-29.8
			s-13.4-29.8-29.8-29.8H189v-30h58.2c33,0,59.8,26.8,59.8,59.8s-26.8,59.8-59.8,59.8h-55.7c-36.7,0-66.5,29.8-66.5,66.5
			s29.8,66.5,66.5,66.5H359L359,511.9L359,511.9z"/>
	</g>
</g>
</svg>
