<?xml version="1.0" encoding="utf-8"?>
<!-- Generator: Adobe Illustrator 22.0.1, SVG Export Plug-In . SVG Version: 6.00 Build 0)  -->
<svg version="1.1" id="Layer_1" xmlns="http://www.w3.org/2000/svg" xmlns:xlink="http://www.w3.org/1999/xlink" x="0px" y="0px"
	 viewBox="0 0 249.5 67.4" style="enable-background:new 0 0 249.5 67.4;" xml:space="preserve">
<style type="text/css">
	.st0{fill:#FFFFFF;}
	.st1{fill-rule:evenodd;clip-rule:evenodd;fill:#FFFFFF;}
</style>
<g>
	<path class="st0" d="M15.2,67.4c0.7,0,1.5-0.6,1.8-1.3l5.1-14.2V66c0,0.8,0.6,1.4,1.4,1.4H26c0.8,0,1.4-0.6,1.4-1.4V48.1
		c0-0.8-0.6-1.4-1.3-1.4h-5.9c-0.8,0-1.5,0.6-1.7,1.4l-4.3,12.3L9.9,48c-0.2-0.7-1-1.4-1.7-1.4H2.3c-0.7,0-1.3,0.6-1.3,1.4V66
		c0,0.8,0.6,1.4,1.4,1.4h2.6c0.8,0,1.4-0.6,1.4-1.4V51.9l5.1,14.2c0.3,0.7,1,1.3,1.8,1.3H15.2L15.2,67.4z M29.8,66
		c-0.2,0.7,0.2,1.3,1,1.3h2.8c0.8,0,1.5-0.6,1.7-1.4l1-3.6h10.2V66c0,0.8,0.6,1.4,1.4,1.4h2.7c0.7,0,1.4-0.6,1.4-1.3V48
		c0-0.7-0.5-1.3-1.2-1.3H43c-4.2,0-8.4,1-9.6,5.6L29.8,66L29.8,66z M38.7,53.6c0.5-1.8,1.9-2.9,3.8-2.9h4.1v7.6h-9.2L38.7,53.6
		L38.7,53.6z M56.1,66c0,0.7,0.6,1.3,1.4,1.3h2.7c0.7,0,1.4-0.6,1.4-1.3V50.7h9.9c0.8,0,1.4-0.6,1.4-1.4V48c0-0.8-0.6-1.4-1.4-1.4
		H57.5c-0.8,0-1.4,0.6-1.4,1.4V66L56.1,66z M94.8,67.4c0.7,0,1.4-0.6,1.4-1.4V48c0-0.7-0.6-1.4-1.3-1.4h-4.3c-0.7,0-1.6,0.7-2,1.4
		l-8.2,14.4V48c0-0.7-0.6-1.3-1.4-1.3h-2.5c-0.8,0-1.4,0.6-1.4,1.4v18c0,0.7,0.6,1.4,1.4,1.4h4.8c0.8,0,1.7-0.6,2.1-1.4l7.5-13.4V66
		c0,0.7,0.6,1.4,1.4,1.4H94.8L94.8,67.4z M103.3,59.4l-4,6.6c-0.4,0.7-0.1,1.4,0.5,1.4h3.6c0.9,0,1.7-0.6,2.1-1.3l3.5-6h5.2v6
		c0,0.7,0.6,1.4,1.4,1.4h2.7c0.7,0,1.4-0.6,1.4-1.3V48c0-0.7-0.6-1.3-1.3-1.3h-11.3c-4.3,0-7.8,2.3-7.8,6.7
		C99.3,56.7,101.2,58.5,103.3,59.4L103.3,59.4z M107.1,55.8c-1.7,0-2.4-0.9-2.4-2.6c0-1.7,0.7-2.6,2.4-2.6h7.1v5.1H107.1L107.1,55.8
		z M156.3,67.4c0.7,0,1.4-0.6,1.4-1.4v-1.4c0-0.8-0.6-1.4-1.4-1.4h-1.6V48c0-0.8-0.6-1.4-1.4-1.4h-2.7c-0.7,0-1.4,0.6-1.4,1.3v15.3
		h-9.7V48c0-0.8-0.6-1.4-1.4-1.4h-2.7c-0.7,0-1.4,0.6-1.4,1.3v18c0,0.7,0.6,1.4,1.4,1.4H156.3L156.3,67.4z M159.7,66
		c0,0.7,0.6,1.4,1.4,1.4h12.4c4,0,7.6-2.1,7.6-6.2c0-1.9-0.8-3.8-2.8-4.8c1.4-1.2,1.9-2.3,1.9-3.8c0-4.3-3.8-5.9-7.5-5.9H161
		c-0.8,0-1.4,0.6-1.4,1.4V66L159.7,66z M172.8,50.6c1.2,0,2,0.7,2,2.1c0,1.3-0.8,2.1-2,2.1h-7.7v-4.2H172.8L172.8,50.6z M173.4,58.5
		c1.5,0,2.3,1,2.3,2.5c0,1.5-0.8,2.5-2.3,2.5h-8.2v-5H173.4L173.4,58.5z M202,46.7h-16.6c-0.7,0-1.4,0.6-1.4,1.3v18
		c0,0.8,0.6,1.4,1.4,1.4H202c0.8,0,1.4-0.6,1.4-1.4v-1.4c0-0.7-0.6-1.3-1.3-1.3h-12.5V59h10.8c0.7,0,1.4-0.6,1.4-1.4v-1.4
		c0-0.7-0.6-1.4-1.4-1.4h-10.8v-4.2H202c0.7,0,1.4-0.6,1.4-1.4V48C203.4,47.2,202.8,46.7,202,46.7L202,46.7z M205.6,46.7
		c-0.8,0-1.4,0.6-1.4,1.4v1.4c0,0.8,0.6,1.4,1.4,1.4h6.4V66c0,0.7,0.6,1.3,1.4,1.3h2.7c0.7,0,1.4-0.6,1.4-1.3V50.7h6.4
		c0.8,0,1.4-0.6,1.4-1.4V48c0-0.8-0.6-1.4-1.4-1.4H205.6L205.6,46.7z M223.6,66c-0.2,0.7,0.2,1.3,1,1.3h2.8c0.8,0,1.5-0.6,1.7-1.4
		l1-3.6h10.2V66c0,0.8,0.6,1.4,1.4,1.4h2.7c0.7,0,1.4-0.6,1.4-1.3V48c0-0.7-0.5-1.3-1.2-1.3h-7.8c-4.2,0-8.4,1-9.6,5.6L223.6,66
		L223.6,66z M232.5,53.6c0.5-1.8,1.9-2.9,3.8-2.9h4.1v7.6h-9.2L232.5,53.6L232.5,53.6z"/>
	<path class="st0" d="M23.5,24.6c-0.9,1.9-2.7,3.6-5.6,5.2c-2.7,1.5-5.1,2.2-7,2.2H7.1c-4,0-5.9-1.3-5.9-3.9c0-1.2,0.4-2.7,1.2-4.5
		L9.6,7.2C11.7,2.4,14.8,0,18.9,0H25c2.1,0,3.1,0.8,3.1,2.4c0,0.4,0,0.8-0.1,1.3l-7.4,2.7l1.2-2.7c0,0,0-0.1,0-0.2
		c0-0.4-0.5-0.6-1.4-0.6c-1.1,0-1.8,0.3-2,0.9L8.1,26.9c-0.3,0.7-0.4,1.2-0.4,1.4c0,0.5,0.5,0.7,1.6,0.7c3.5,0,6.7-0.9,9.6-2.8
		c1.7-1.1,2.8-2.2,3.3-3.4L23.5,24.6L23.5,24.6L23.5,24.6z M52.5,24.6c-0.8,1.8-2.7,3.5-5.5,5.1c-2.7,1.5-5.2,2.3-7.5,2.3
		c-0.5,0-1-0.1-1.4-0.3c-1.1-0.5-1.7-1.3-1.7-2.5c0-0.6,0.1-1.3,0.4-2l4.4-9.7c0.1-0.3,0.1-0.4,0.1-0.5c0-0.4-0.2-0.5-0.6-0.5
		c-0.8,0-1.3,0.4-1.6,1.1L32.6,32h-7.2l6.5-14.5c0.1-0.3,0.1-0.4,0.1-0.5c0-0.4-0.2-0.5-0.7-0.5c-0.7,0-1.3,0.4-1.6,1.1L23.3,32H16
		l8.6-19.3l4.6,2.4c1.3-1.4,3.2-2.1,5.6-2.1c1.7,0,2.8,0.8,3.3,2.3c1.6-1.5,3.6-2.3,6-2.3c2.3,0,3.5,1.2,3.5,3.6
		c0,1.2-0.3,2.5-0.9,3.8L44.2,26c-0.2,0.4-0.2,0.7-0.2,0.8c0,0.4,0.3,0.6,0.8,0.6c1,0,2.2-0.5,3.6-1.6c1.4-1,2.4-2,2.8-3L52.5,24.6
		L52.5,24.6L52.5,24.6z M51.6,35.7c0.2-0.6,0.5-1.3,0.9-2.1c0.4-0.8,0.8-1.8,1.3-2.9c-0.6,0.4-1.1,0.8-1.5,1.1
		c-0.4,0.4-0.8,0.7-1.1,1.1c-0.2,0.3-0.4,0.6-0.7,1.1c-0.2,0.4-0.5,1-0.8,1.7c0,0,0,0.1,0,0.2c0,0.4,0.2,0.5,0.7,0.5
		C51,36.5,51.4,36.2,51.6,35.7L51.6,35.7z M71.4,24.6c-0.8,1.7-2.3,3.2-4.8,4.7c-2.2,1.3-4.2,2.1-6.1,2.5l-1.3,2.9
		c-0.8,1.8-2.1,3.2-4,4.3c-1.6,0.9-3.4,1.4-5.3,1.4c-1.4,0-2.5-0.3-3.5-0.9C45.5,38.8,45,38,45,36.9c0-0.6,0.1-1.2,0.4-1.9
		c1-2.3,3-3.8,6-4.6c-2.3-0.4-3.4-1.6-3.4-3.6c0-1.2,0.4-2.7,1.3-4.7l4.2-9.5l5.1,3l-4.1,9.3c-0.2,0.5-0.3,0.9-0.3,1.3
		c0,0.4,0.2,0.6,0.5,0.6c0.7,0,1.4-0.7,2.1-2.1l5.7-12.9l5.1,3.8L63.1,26c-0.2,0.4-0.2,0.7-0.2,0.8c0,0.4,0.3,0.6,0.8,0.6
		c1,0,2.2-0.5,3.6-1.6c1.4-1,2.4-2,2.8-3L71.4,24.6L71.4,24.6L71.4,24.6z M69.9,35.7c0.2-0.6,0.5-1.3,0.9-2.1
		c0.4-0.8,0.8-1.8,1.3-2.9c-0.6,0.4-1.1,0.8-1.5,1.1c-0.4,0.4-0.8,0.7-1.1,1.1c-0.2,0.3-0.4,0.6-0.7,1.1c-0.2,0.4-0.5,1-0.8,1.7
		c0,0,0,0.1,0,0.2c0,0.4,0.2,0.5,0.7,0.5C69.3,36.5,69.7,36.2,69.9,35.7L69.9,35.7z M78.4,17.4c0-0.1,0-0.2,0-0.3
		c0-0.4-0.3-0.6-0.8-0.6c-0.7,0-1.2,0.3-1.4,0.9l-3.3,7.4c-0.2,0.5-0.3,0.9-0.3,1.3c0,0.4,0.2,0.6,0.5,0.6c0.7,0,1.4-0.7,2.1-2.1
		L78.4,17.4L78.4,17.4z M89.7,24.5c-0.7,1.5-2,2.9-4,4.2c-2,1.4-3.7,2.1-5.1,2.1c-0.5,0-1-0.1-1.3-0.3l-1.8,4.1
		c-0.8,1.8-2.1,3.2-4,4.3c-1.6,0.9-3.4,1.4-5.3,1.4c-1.4,0-2.5-0.3-3.5-0.9c-0.9-0.6-1.4-1.4-1.4-2.5c0-0.6,0.1-1.2,0.4-1.9
		c1-2.3,3-3.8,6-4.6c-2.1-0.4-3.2-1.7-3.2-4c0-1.3,0.4-2.8,1.1-4.4c1-2.3,2.4-4.2,4-5.7c1.9-1.8,4-2.7,6.2-2.7
		c1.6,0,2.9,0.5,3.8,1.6l0.4-1h4.6l-4.9,10.9c-0.3,0.7-0.5,1.2-0.5,1.6c0,0.4,0.2,0.6,0.7,0.6c1,0,2.2-0.5,3.6-1.6
		c1.4-1,2.4-2,2.8-3L89.7,24.5L89.7,24.5z M108.7,24.6c-0.8,1.8-2.7,3.5-5.5,5.1c-2.7,1.5-5.2,2.3-7.5,2.3c-1.1,0-1.7-0.5-1.8-1.5
		c-1.2,1-2.6,1.5-4,1.5c-3.5,0-5.3-1.2-5.3-3.5c0-1.3,0.5-2.9,1.4-4.9l4.2-9.4h6.5l-5.6,12.6c-0.2,0.5-0.3,1-0.3,1.4
		c0,0.5,0.2,0.7,0.6,0.7c0.7,0,1.3-0.6,1.8-1.9l6.4-14.5l5.5,3L100.4,26c-0.1,0.3-0.2,0.5-0.2,0.8c0,0.4,0.2,0.6,0.7,0.6
		c1,0,2.2-0.5,3.6-1.6c1.4-1,2.4-2,2.8-3L108.7,24.6L108.7,24.6L108.7,24.6z M108.1,27.6c0.2-0.5,0.6-0.8,1.1-1.1
		c0.5-0.3,0.8-0.4,1.1-0.3c-0.2-0.3-0.4-0.6-0.6-0.9c-0.2-0.4-0.4-0.7-0.4-1.1c0-0.6,0-0.9,0.1-1.1c0-0.2,0.2-0.5,0.3-0.8l0.6-1.2
		l0,0c0.5-0.9,1-1.7,1.6-2.4c0.6-0.7,1.2-1.4,1.9-2.1c1.9-1.8,4-2.7,6.2-2.7c1.6,0,2.9,0.5,3.7,1.6l0.4-1h4.6l-2.2,4.9
		c-0.1,0.2-0.1,0.3-0.2,0.5c-0.1,0.2-0.1,0.4-0.2,0.6h0l-2.3,5.1l-0.2,0.6c-0.1,0.3-0.2,0.6-0.2,0.8c0,0.4,0.2,0.6,0.7,0.6
		c1,0,2.2-0.5,3.6-1.6c1.5-1.1,2.4-2.1,2.9-3l1.3,1.7l0,0c-0.8,1.8-2.6,3.5-5.5,5.1c-1.4,0.8-2.8,1.3-4.1,1.7
		c-1.4,0.4-2.6,0.6-3.8,0.6c-0.9,0-1.5-0.3-2-1c-0.5-0.6-0.7-1.4-0.7-2.3c0-0.5,0.1-1,0.3-1.6c0.1-0.2,0.1-0.4,0-0.5
		c-0.1-0.1-0.3-0.2-0.5-0.2c-0.2,0-0.5,0-0.7,0.1c-0.2,0.1-0.4,0.3-0.6,0.7c-0.4,0.7-0.8,1.3-1.3,1.9c-0.5,0.6-1.1,1.1-1.8,1.6
		c-0.7,0.4-1.2,0.7-1.6,0.9c-0.4,0.2-1,0.3-1.7,0.3c-0.8,0-1.4-0.1-1.8-0.2c-0.4-0.1-0.8-0.3-1.2-0.6c-1-0.6-1.5-1.5-1.5-2.6
		l3.1-2.2c-0.2,0.8-0.2,1.3,0,1.6c0.2,0.3,0.5,0.4,0.8,0.3c0.3-0.1,0.4-0.1,0.5-0.2C107.8,28,107.9,27.8,108.1,27.6L108.1,27.6z
		 M116.2,22L116.2,22l-0.9,1.9c0,0.1,0,0.2,0,0.3c0,0.4,0.3,0.6,0.8,0.6c0.7,0,1.2-0.3,1.4-0.9l0.8-1.9l2-4.6
		c0.1-0.2,0.1-0.3,0.1-0.3c0-0.4-0.3-0.6-0.8-0.6c-0.8,0-1.3,0.3-1.5,0.9L116.2,22L116.2,22z M139.9,35.7c0.2-0.6,0.5-1.3,0.9-2.1
		c0.4-0.8,0.8-1.8,1.3-2.9c-0.6,0.4-1.1,0.8-1.5,1.1c-0.4,0.4-0.8,0.7-1.1,1.1c-0.2,0.3-0.4,0.6-0.7,1.1c-0.2,0.4-0.5,1-0.8,1.7
		c0,0,0,0.1,0,0.2c0,0.4,0.2,0.5,0.7,0.5C139.3,36.5,139.7,36.2,139.9,35.7L139.9,35.7z M148.4,17.4c0-0.1,0-0.2,0-0.3
		c0-0.4-0.3-0.6-0.8-0.6c-0.7,0-1.2,0.3-1.4,0.9l-3.3,7.4c-0.2,0.5-0.3,0.9-0.3,1.3c0,0.4,0.2,0.6,0.5,0.6c0.7,0,1.4-0.7,2.1-2.1
		L148.4,17.4L148.4,17.4z M159.7,24.5c-0.7,1.5-2,2.9-4,4.2c-2,1.4-3.7,2.1-5.1,2.1c-0.5,0-1-0.1-1.3-0.3l-1.8,4.1
		c-0.8,1.8-2.1,3.2-4,4.3c-1.6,0.9-3.4,1.4-5.3,1.4c-1.4,0-2.5-0.3-3.5-0.9c-0.9-0.6-1.4-1.4-1.4-2.5c0-0.6,0.1-1.2,0.4-1.9
		c1-2.3,3-3.8,6-4.6c-2.1-0.4-3.2-1.7-3.2-4c0-1.3,0.4-2.8,1.1-4.4c1-2.3,2.4-4.2,4-5.7c1.9-1.8,4-2.7,6.2-2.7
		c1.6,0,2.9,0.5,3.8,1.6l0.4-1h4.6l-4.9,10.9c-0.3,0.7-0.5,1.2-0.5,1.6c0,0.4,0.2,0.6,0.7,0.6c1,0,2.2-0.5,3.6-1.6
		c1.4-1,2.4-2,2.8-3L159.7,24.5L159.7,24.5z M166.8,17.4c0-0.1,0-0.2,0-0.3c0-0.4-0.3-0.6-0.8-0.6c-0.7,0-1.2,0.3-1.4,0.9l-1.8,4
		h2.2L166.8,17.4L166.8,17.4z M175.7,24.6c-0.9,1.9-2.7,3.6-5.6,5.2c-2.7,1.5-5.1,2.2-7,2.2h-3.8c-3.6,0-5.3-1.2-5.3-3.5
		c0-1.3,0.5-2.9,1.4-4.8L157,20c0.8-1.7,1.9-3.2,3.2-4.5c1.5-1.3,3.2-2,4.9-2h4.9c2.1,0,3.2,0.8,3.2,2.4c0,0.9-0.6,2.7-1.7,5.4
		c-0.9,1.9-2.5,2.8-4.9,2.8h-4.9l-1.2,2.6c-0.2,0.5-0.3,1-0.3,1.4c0,0.5,0.2,0.7,0.6,0.7h1.4c3.2,0,6.2-0.9,9.1-2.8
		c1.6-1.1,2.8-2.2,3.3-3.4L175.7,24.6L175.7,24.6L175.7,24.6z M195.1,24.6c-0.8,1.8-2.6,3.5-5.5,5.1c-2.7,1.5-5.2,2.3-7.5,2.3
		c-0.4,0-0.9-0.1-1.5-0.4c-1.1-0.6-1.6-1.4-1.6-2.4c0-0.9,0.4-2.1,1.1-3.6c0.8-1.6,1.1-2.5,1.1-2.7c0-0.4-0.2-0.5-0.6-0.5
		c-0.7,0-1.3,0.4-1.6,1.1l-3.8,8.5H168l9.8-22.3l5.8,3.3l-0.9,2.1c1.4-1.5,3.2-2.2,5.5-2.2c1.9,0,2.9,0.7,2.9,2
		c0,0.5-0.1,1.1-0.4,1.8c-0.4,0.8-0.9,1.4-1.5,1.9l-4.3-0.4c0,0,0.1-0.2,0.3-0.5c0.2-0.3,0.4-0.5,0.4-0.5c0-0.1,0-0.1,0-0.2
		c0-0.3-0.2-0.5-0.6-0.5c-1.1,0-2.5,1-4.1,2.9c0.2-0.1,0.6-0.2,1.3-0.2c0.7,0,1.5,0,2.5,0c0.5,0,0.9,0.1,1.2,0.2
		c0.3,0.1,0.7,0.2,1.2,0.4c0.4,0.1,0.7,0.4,0.9,0.7c0.1,0.3,0.2,0.8,0.2,1.3c0,1-0.4,2.3-1.1,3.9c-0.2,0.5-0.3,0.8-0.3,1.1
		c0,0.5,0.3,0.7,0.8,0.7c1,0,2.1-0.5,3.6-1.6c1.4-1.1,2.3-2.1,2.8-3L195.1,24.6L195.1,24.6L195.1,24.6z M201.8,19.1
		c-0.6-0.1-0.9-0.7-0.9-1.7c0-0.3,0-0.6,0.1-0.8c-0.5,0.3-0.9,0.7-1.1,1.3l-4.4,9.9c-0.1,0.3-0.2,0.5-0.2,0.8c0,0.5,0.2,0.7,0.7,0.7
		c0.8,0,1.4-0.5,1.9-1.6L201.8,19.1L201.8,19.1z M206.1,17.1c0.2-0.4,0.3-0.9,0.3-1.3c0-0.6-0.2-0.9-0.6-0.9c-0.7,0-1,0.3-1,1
		c0,0.3,0.1,0.6,0.3,0.9c0.2,0.3,0.5,0.4,0.8,0.4C205.9,17.1,206,17.1,206.1,17.1L206.1,17.1z M215,17.7c-1.6,1.6-4.1,2.7-7.4,3
		c-0.1,0.3-0.3,0.7-0.5,1.1c-0.2,0.4-0.4,1-0.7,1.6c-2.5,5.7-5.4,8.5-8.7,8.5h-5.6c-1.9,0-2.9-0.9-2.9-2.7c0-1.1,0.4-2.6,1.2-4.5
		l2-4.4c0.8-1.8,1.9-3.3,3.3-4.6c1.6-1.5,3.3-2.2,5-2.2h2c1-0.9,2.3-1.4,3.9-1.4c2,0,3,0.8,3,2.5c0,0.8-0.3,1.7-0.9,2.8
		c0.5,0.1,1,0.2,1.4,0.2c0.8,0,2-0.5,3.5-1.4L215,17.7L215,17.7z M220.6,17.4c0-0.1,0-0.2,0-0.3c0-0.4-0.3-0.6-0.8-0.6
		c-0.7,0-1.2,0.3-1.4,0.9l-4.4,9.7c-0.2,0.6-0.3,1-0.3,1.3c0,0.5,0.2,0.7,0.5,0.7c0.7,0,1.4-0.7,2-2L220.6,17.4L220.6,17.4z
		 M232.5,22.6c-0.2,0.3-0.5,0.6-0.9,1c-3,3.6-5.9,5.4-8.7,5.4c-1,0-1.6-0.3-1.9-1c-0.5,0.6-1,1.1-1.5,1.5c-0.6,0.5-1.2,0.9-1.8,1.2
		c-1.4,0.8-2.6,1.1-3.8,1.1c-0.7,0-1.4-0.1-2-0.4l-3.8,8.4h-7l11.4-25.6h4.5l-0.6,1.5c1.3-1.1,3-1.7,5.1-1.7c2.9,0,4.4,1,4.4,3.1
		c0,1.3-0.7,3.5-2.2,6.8c-0.1,0.3-0.2,0.5-0.2,0.8c0,0.6,0.4,0.8,1.1,0.8c1.1,0,2.3-0.4,3.4-1.3c1.2-1,2.1-2,2.5-3.1L232.5,22.6
		L232.5,22.6z M238.1,17.4c0.1-0.2,0.1-0.3,0.1-0.3c0-0.4-0.3-0.6-0.8-0.6c-0.8,0-1.3,0.3-1.5,0.9l-4.2,9.4c-0.2,0.5-0.3,1-0.3,1.4
		c0,0.5,0.2,0.7,0.6,0.7c0.7,0,1.3-0.6,1.9-1.9L238.1,17.4L238.1,17.4z M249.5,24.5c-0.8,1.9-2.7,3.6-5.5,5.1
		c-2.7,1.5-5.2,2.3-7.5,2.3c-1.1,0-1.7-0.5-1.8-1.5c-1.2,1-2.5,1.5-4,1.5c-3.5,0-5.2-1.2-5.2-3.5c0-1.2,0.4-2.9,1.3-4.9l0.7-1.5
		c1-2.3,2.4-4.2,4-5.7c1.9-1.8,4-2.7,6.2-2.7c1.6,0,2.9,0.5,3.7,1.6l0.4-1h4.6l-2.2,4.9c-0.3,0.8-0.8,1.7-1.3,2.8
		c-0.5,1.1-1.1,2.5-1.8,4c-0.1,0.3-0.2,0.5-0.2,0.8c0,0.4,0.2,0.6,0.7,0.6c1,0,2.2-0.5,3.6-1.6s2.4-2.1,2.9-3L249.5,24.5L249.5,24.5
		z"/>
	<path class="st1" d="M0,34.7h41.6v2.1H0V34.7L0,34.7z M213.8,34.7h31.9v2.1h-31.9V34.7L213.8,34.7z M150.3,34.7H197v2.1h-46.6V34.7
		L150.3,34.7z M80.5,34.7h41.6v2.1H80.5V34.7L80.5,34.7z"/>
</g>
</svg>
