<svg width="20" height="10" viewBox="0 0 20 10" fill="none" xmlns="http://www.w3.org/2000/svg">
<path d="M0.781239 4.21875H17.3265L14.5857 1.49125C14.2799 1.18687 14.2787 0.692223 14.5831 0.386403C14.8874 0.0805441 15.3821 0.0794116 15.688 0.383747L19.7701 4.44625C19.7704 4.44648 19.7706 4.44675 19.7708 4.44699C20.0759 4.75136 20.0769 5.24761 19.7709 5.553C19.7706 5.55324 19.7705 5.55351 19.7702 5.55374L15.688 9.61624C15.3823 9.92054 14.8876 9.91948 14.5831 9.61359C14.2788 9.30777 14.2799 8.81312 14.5858 8.50874L17.3265 5.78124H0.781239C0.349754 5.78124 -9.53674e-06 5.43148 -9.53674e-06 5C-9.53674e-06 4.56851 0.349754 4.21875 0.781239 4.21875Z" fill="black"/>
<path d="M0.781239 4.21875H17.3265L14.5857 1.49125C14.2799 1.18687 14.2787 0.692223 14.5831 0.386403C14.8874 0.0805441 15.3821 0.0794116 15.688 0.383747L19.7701 4.44625C19.7704 4.44648 19.7706 4.44675 19.7708 4.44699C20.0759 4.75136 20.0769 5.24761 19.7709 5.553C19.7706 5.55324 19.7705 5.55351 19.7702 5.55374L15.688 9.61624C15.3823 9.92054 14.8876 9.91948 14.5831 9.61359C14.2788 9.30777 14.2799 8.81312 14.5858 8.50874L17.3265 5.78124H0.781239C0.349754 5.78124 -9.53674e-06 5.43148 -9.53674e-06 5C-9.53674e-06 4.56851 0.349754 4.21875 0.781239 4.21875Z" fill="url(#paint0_linear)"/>
<defs>
<linearGradient id="paint0_linear" x1="20" y1="-3.45455" x2="-1.6579" y2="0.31283" gradientUnits="userSpaceOnUse">
<stop stop-color="#64E3E4"/>
<stop offset="0.338542" stop-color="#6292E6"/>
<stop offset="0.713542" stop-color="#F95CC8"/>
<stop offset="1" stop-color="#FC97DA"/>
</linearGradient>
</defs>
</svg>
