<svg width="20" height="10" viewBox="0 0 20 10" fill="none" xmlns="http://www.w3.org/2000/svg">
<path d="M19.2188 4.21875H2.67353L5.41431 1.49125C5.72013 1.18687 5.7213 0.692223 5.41693 0.386403C5.11255 0.0805441 4.61787 0.0794116 4.31205 0.383747L0.229859 4.44625C0.229585 4.44648 0.22939 4.44675 0.229155 4.44699C-0.0758836 4.75136 -0.0768602 5.24761 0.229077 5.553C0.229351 5.55324 0.229546 5.55351 0.22978 5.55374L4.31197 9.61624C4.61775 9.92054 5.11244 9.91948 5.41685 9.61359C5.72122 9.30777 5.72005 8.81312 5.41423 8.50874L2.67353 5.78124H19.2188C19.6502 5.78124 20 5.43148 20 5C20 4.56851 19.6502 4.21875 19.2188 4.21875Z" fill="black"/>
<path d="M19.2188 4.21875H2.67353L5.41431 1.49125C5.72013 1.18687 5.7213 0.692223 5.41693 0.386403C5.11255 0.0805441 4.61787 0.0794116 4.31205 0.383747L0.229859 4.44625C0.229585 4.44648 0.22939 4.44675 0.229155 4.44699C-0.0758836 4.75136 -0.0768602 5.24761 0.229077 5.553C0.229351 5.55324 0.229546 5.55351 0.22978 5.55374L4.31197 9.61624C4.61775 9.92054 5.11244 9.91948 5.41685 9.61359C5.72122 9.30777 5.72005 8.81312 5.41423 8.50874L2.67353 5.78124H19.2188C19.6502 5.78124 20 5.43148 20 5C20 4.56851 19.6502 4.21875 19.2188 4.21875Z" fill="url(#paint0_linear)"/>
<defs>
<linearGradient id="paint0_linear" x1="9.10277e-07" y1="-3.45455" x2="21.6579" y2="0.31283" gradientUnits="userSpaceOnUse">
<stop stop-color="#64E3E4"/>
<stop offset="0.338542" stop-color="#6292E6"/>
<stop offset="0.713542" stop-color="#F95CC8"/>
<stop offset="1" stop-color="#FC97DA"/>
</linearGradient>
</defs>
</svg>
