<svg width="20" height="18" viewBox="0 0 20 18" fill="none" xmlns="http://www.w3.org/2000/svg">
<path d="M18.9702 5.77104C18.7075 3.00625 16.6606 1.00033 14.0989 1.00033C12.3922 1.00033 10.8296 1.87835 9.95029 3.28557C9.07897 1.86015 7.58037 1 5.90107 1C3.33972 1 1.29244 3.00592 1.03004 5.77071C1.00926 5.89283 0.924106 6.53555 1.18305 7.58368C1.55622 9.09548 2.4182 10.4706 3.67516 11.5594L9.94614 17L16.3248 11.5598C17.5817 10.4706 18.4437 9.09581 18.8169 7.58368C19.0758 6.53588 18.9907 5.89316 18.9702 5.77104ZM18.1429 7.4321C17.8023 8.81284 17.0126 10.0708 15.8616 11.0676L9.95029 16.1097L4.14042 11.069C2.98731 10.0701 2.19803 8.81251 1.85705 7.43177C1.61196 6.4399 1.71269 5.87959 1.71304 5.87595L1.71823 5.84253C1.94325 3.42027 3.70217 1.66191 5.90107 1.66191C7.5236 1.66191 8.95192 2.61506 9.62973 4.14903L9.94856 4.87151L10.2674 4.14903C10.9345 2.63856 12.4383 1.66224 14.0992 1.66224C16.2978 1.66224 18.057 3.4206 18.2866 5.8743C18.2872 5.87959 18.388 6.44023 18.1429 7.4321Z" fill="#1B1A17" stroke="#1B1A17" stroke-width="0.25"/>
</svg>
