<svg width="15" height="15" viewBox="0 0 15 15" fill="none" xmlns="http://www.w3.org/2000/svg">
<path d="M8.94707 7.42148C10.9932 7.42148 12.6575 5.75684 12.6575 3.71074C12.6575 1.66465 10.9932 0 8.94707 0C6.90098 0 5.23633 1.66465 5.23633 3.71074C5.23633 5.75684 6.90098 7.42148 8.94707 7.42148ZM8.50762 1.52959V1.42881C8.50762 1.18594 8.7042 0.989355 8.94707 0.989355C9.18965 0.989355 9.38652 1.18594 9.38652 1.42881V1.53018C9.90947 1.64238 10.3029 2.1082 10.3029 2.66426C10.3029 2.90684 10.1061 3.10371 9.86348 3.10371C9.62061 3.10371 9.42402 2.90684 9.42402 2.66426C9.42402 2.50928 9.29775 2.38301 9.14277 2.38301H8.74873C8.59375 2.38301 8.46748 2.50928 8.46748 2.66426C8.46748 2.75303 8.50996 2.8374 8.58145 2.89014L8.94707 3.16084L9.83535 3.81826C10.1271 4.03418 10.3029 4.37959 10.3053 4.74287V4.74697C10.3073 5.05693 10.1887 5.34932 9.9707 5.56992C9.80899 5.73369 9.60684 5.84355 9.38652 5.88984V5.99268C9.38652 6.23555 9.18965 6.43213 8.94707 6.43213C8.7042 6.43213 8.50762 6.23555 8.50762 5.99268V5.89131C8.29316 5.8456 8.096 5.74014 7.93662 5.58252C7.71602 5.36484 7.59355 5.07422 7.5918 4.76426C7.59033 4.52168 7.78574 4.32363 8.02832 4.32217H8.03125C8.27266 4.32217 8.46924 4.51728 8.4707 4.75898C8.47129 4.91065 8.59331 5.03848 8.75342 5.03848C8.99623 5.03701 8.90579 5.03754 9.14688 5.03613C9.30285 5.0349 9.42757 4.90831 9.42637 4.75283V4.74873C9.42578 4.66084 9.3833 4.57705 9.3124 4.52461L8.94707 4.2542L8.0585 3.59678C7.76436 3.37881 7.58857 3.03018 7.58857 2.66426C7.58857 2.10703 7.9832 1.64092 8.50762 1.52959Z" fill="#2389FC"/>
<path d="M2.93476 9.53297C2.82211 9.33767 2.57189 9.26973 2.3754 9.38308L0.308266 10.5763C0.112534 10.6896 0.0453852 10.94 0.158383 11.136L2.2711 14.7952C2.38418 14.9909 2.63438 15.0581 2.83046 14.9451L4.89759 13.7515C5.09362 13.6385 5.1605 13.3882 5.04748 13.1922L2.93476 9.53297Z" fill="#2389FC"/>
<path d="M14.7796 8.80254C14.5807 8.52627 14.1957 8.46387 13.9197 8.66279C13.0824 9.26602 11.4746 10.4244 11.3469 10.5167C11.288 10.5668 11.2262 10.6122 11.1617 10.6523C10.9089 10.8114 10.6156 10.8964 10.3095 10.8964H8.20449C7.96191 10.8964 7.76504 10.6998 7.76504 10.4569C7.76504 10.2138 7.96221 10.0175 8.20449 10.0175H10.4557C10.7864 10.0175 11.0513 9.74209 11.0375 9.41074C11.0246 9.09639 10.7563 8.85264 10.4416 8.85264H8.72803C8.61201 8.72988 8.48486 8.61738 8.34863 8.51689C7.88018 8.17148 7.30127 7.96729 6.67461 7.96729C5.56045 7.96729 4.45186 8.66924 3.99219 9.60615L5.78984 12.7195H9.16191C9.82402 12.7195 10.4762 12.5502 11.0501 12.22C11.249 12.1058 11.462 11.9684 11.6929 11.8025C12.6603 11.1076 14.6381 9.66387 14.6396 9.66299C14.9161 9.46436 14.9788 9.07881 14.7796 8.80254Z" fill="#2389FC"/>
</svg>
