<svg width="14" height="18" viewBox="0 0 14 18" fill="none" xmlns="http://www.w3.org/2000/svg">
<path d="M6.99987 0C3.33338 0 0.350586 2.98279 0.350586 6.64928C0.350586 7.85632 0.891916 9.1545 0.914602 9.20926C1.08944 9.62425 1.43442 10.2688 1.68318 10.6467L6.24224 17.5545C6.42881 17.8377 6.70496 18 6.99987 18C7.29479 18 7.57093 17.8377 7.7575 17.5549L12.317 10.6467C12.5661 10.2688 12.9107 9.62425 13.0855 9.20926C13.1082 9.15489 13.6492 7.85671 13.6492 6.64928C13.6492 2.98279 10.6664 0 6.99987 0ZM12.3643 8.90574C12.2082 9.27771 11.8871 9.87731 11.6638 10.216L7.1043 17.1243C7.01434 17.2608 6.98579 17.2608 6.89583 17.1243L2.33638 10.216C2.11304 9.87731 1.79192 9.27731 1.63585 8.90534C1.6292 8.88931 1.13285 7.69439 1.13285 6.64928C1.13285 3.41421 3.7648 0.782269 6.99987 0.782269C10.2349 0.782269 12.8669 3.41421 12.8669 6.64928C12.8669 7.69596 12.3694 8.894 12.3643 8.90574Z" fill="#1B212B"/>
<path d="M6.9997 3.12947C5.0585 3.12947 3.47949 4.70887 3.47949 6.64969C3.47949 8.5905 5.0585 10.1699 6.9997 10.1699C8.94089 10.1699 10.5199 8.5905 10.5199 6.64969C10.5199 4.70887 8.94089 3.12947 6.9997 3.12947ZM6.9997 9.38763C5.49031 9.38763 4.26176 8.15947 4.26176 6.64969C4.26176 5.1399 5.49031 3.91174 6.9997 3.91174C8.50908 3.91174 9.73763 5.1399 9.73763 6.64969C9.73763 8.15947 8.50908 9.38763 6.9997 9.38763Z" fill="#1B212B"/>
</svg>
