<svg xmlns="http://www.w3.org/2000/svg" width="16" height="19.41" viewBox="0 0 16 19.41">
  <defs>
    <style>
      .cls-1 {
        fill: #fff;
        fill-rule: evenodd;
      }
    </style>
  </defs>
  <path id="Logo" class="cls-1" d="M412.366,5514.32a4.416,4.416,0,0,1,2.128-3.7,4.554,4.554,0,0,0-3.605-1.92c-1.516-.16-2.987.89-3.76,0.89-0.788,0-1.977-.88-3.26-0.85a4.781,4.781,0,0,0-4.039,2.43c-1.747,2.98-.444,7.37,1.229,9.78,0.838,1.18,1.816,2.5,3.1,2.46,1.252-.05,1.72-0.79,3.232-0.79s1.938,0.79,3.244.76c1.344-.02,2.191-1.19,3-2.38a9.752,9.752,0,0,0,1.371-2.76,4.267,4.267,0,0,1-2.636-3.92h0Zm-2.467-7.21a4.3,4.3,0,0,0,1.006-3.11,4.459,4.459,0,0,0-2.9,1.48,4.083,4.083,0,0,0-1.033,2.99,3.716,3.716,0,0,0,2.924-1.36h0Z" transform="translate(-399 -5504)"/>
</svg>
