<svg xmlns="http://www.w3.org/2000/svg" width="23.87" height="25.6" viewBox="0 0 23.87 25.6">
  <defs>
    <style>
      .cls-1 {
        fill: #c6ab92;
        fill-rule: evenodd;
      }
    </style>
  </defs>
  <path id="Shape" class="cls-1" d="M1263.39,13049c-1.55-1.3-3.12-2.1-4.65-.8l-0.92.8c-0.66.6-1.91,3.3-6.71-2.2s-1.94-6.4-1.27-7l0.92-.8c1.52-1.3.94-3-.15-4.7l-0.66-1c-1.11-1.7-2.31-2.9-3.83-1.5l-0.83.7a7.783,7.783,0,0,0-3.01,5.1c-0.55,3.6,1.18,7.8,5.16,12.4s7.86,6.9,11.54,6.8a7.581,7.581,0,0,0,5.48-2.3l0.83-.7c1.52-1.3.58-2.6-.97-4Z" transform="translate(-1242.19 -13031.2)"/>
</svg>
