<svg id="logo_circle" xmlns="http://www.w3.org/2000/svg" width="101.938" height="102" viewBox="0 0 101.938 102">
  <defs>
    <style>
      .cls-1, .cls-3 {
        fill: #c6ab92;
      }

      .cls-2 {
        fill: none;
        stroke: #c6ab92;
        stroke-linecap: round;
        stroke-width: 1.964px;
      }

      .cls-3 {
        fill-rule: evenodd;
      }
    </style>
  </defs>
  <circle id="Shape" class="cls-1" cx="19.141" cy="56.05" r="1.766"/>
  <circle id="Shape-2" data-name="Shape" class="cls-1" cx="81.984" cy="56.05" r="1.766"/>
  <circle id="Shape-3" data-name="Shape" class="cls-2" cx="50.969" cy="51" r="43.75"/>
  <circle id="Shape-4" data-name="Shape" class="cls-2" cx="50.969" cy="51" r="50"/>
  <path id="Shape-5" data-name="Shape" class="cls-3" d="M460.172,13039l-8.151,4.5a0.261,0.261,0,0,1-.369-0.1l-0.535-1.5a0.386,0.386,0,0,1,.12-0.4l3.78-2h-0.009l-4.938-.7a0.267,0.267,0,0,1-.219-0.2l-0.081-.2a0.365,0.365,0,0,1,.064-0.3l3.411-3.6-0.009-.1-4.182.9a0.379,0.379,0,0,1-.293-0.2l-0.534-1.5a0.311,0.311,0,0,1,.2-0.4l9.175-1.6a0.339,0.339,0,0,1,.288.2l0.072,0.2a0.376,0.376,0,0,1-.052.3l-4.517,4.9,0.009,0.1,6.62,1a0.252,0.252,0,0,1,.206.2l0.072,0.2C460.333,13038.8,460.284,13039,460.172,13039Zm-12.664-7a0.257,0.257,0,0,1-.417.1l-1.053-1.1a0.485,0.485,0,0,1-.086-0.6l0.433-1.1-2.58-2.7-1.127.4a0.444,0.444,0,0,1-.577-0.1l-1.043-1.1c-0.142-.1-0.091-0.3.094-0.4l9.573-3.3a0.259,0.259,0,0,1,.269,0l0.095,0.1a0.341,0.341,0,0,1,.053.3Zm0.531-6.9-2.33.8,1.442,1.5,0.9-2.3h-0.009Zm-5.952-7.7a0.237,0.237,0,0,1-.342.1l-3.46-1.5-0.686,1.5,2.848,1.3a0.213,0.213,0,0,1,.132.3l-0.6,1.4a0.242,0.242,0,0,1-.343.1l-2.847-1.2-0.747,1.7,3.46,1.5a0.232,0.232,0,0,1,.132.3l-0.6,1.4a0.238,0.238,0,0,1-.343.1l-5.171-2.3a0.206,0.206,0,0,1-.132-0.3l3.662-8.3a0.435,0.435,0,0,1,.343-0.2l5.171,2.3a0.356,0.356,0,0,1,.132.4Zm-12-3.8-1.951-.1-0.361,7.3a0.268,0.268,0,0,1-.272.2h-1.637a0.321,0.321,0,0,1-.246-0.3l0.361-7.3-1.951-.1a0.306,0.306,0,0,1-.246-0.3l0.073-1.5a0.348,0.348,0,0,1,.272-0.3l6.057,0.3a0.427,0.427,0,0,1,.247.3l-0.074,1.5A0.271,0.271,0,0,1,430.082,13013.6Zm-18.244,11.1a0.2,0.2,0,0,1-.353-0.1l-3.583-6.3-1.7.9a0.253,0.253,0,0,1-.353-0.1l-0.732-1.3c-0.067-.1-0.032-0.3.1-0.3l5.279-3a0.2,0.2,0,0,1,.353.1l0.732,1.3a0.21,0.21,0,0,1-.1.3l-1.7,1,3.582,6.4c0.067,0.1.021,0.3-.1,0.3Zm-4.7,2.8a0.24,0.24,0,0,1,.161.4l-1.145,1.5c-0.069,0-.174.1-0.234,0.1l-3.957-.9-0.594.7,2.706,2.2a0.317,0.317,0,0,1,.038.4l-1.025,1.3a0.259,0.259,0,0,1-.365,0l-7.026-5.7a0.306,0.306,0,0,1-.038-0.4l2.575-3.2a2.976,2.976,0,0,1,4.169-.5,3.121,3.121,0,0,1,.859,3.4Zm-6.038-2.4a1.051,1.051,0,0,0-1.461.2l-1.274,1.6,1.656,1.3,1.274-1.6A1.109,1.109,0,0,0,401.1,13025.1Zm0.4,10.6-0.423,1.5a0.4,0.4,0,0,1-.461.3l-1.173.2-1.035,3.6,0.913,0.8a0.443,0.443,0,0,1,.177.5l-0.418,1.5a0.245,0.245,0,0,1-.406.1l-7.636-6.7a0.37,0.37,0,0,1-.08-0.3l0.038-.1a0.262,0.262,0,0,1,.209-0.2l10.018-1.5C401.424,13035.3,401.564,13035.5,401.507,13035.7Zm-6.522,2.6,0,0.1,1.879,1.6,0.578-2Z" transform="translate(-374.031 -12996)"/>
  <path id="Shape-6" data-name="Shape" class="cls-3" d="M454.193,13067.3a4.909,4.909,0,1,1-1.376-6.8A4.864,4.864,0,0,1,454.193,13067.3Zm-2.582-5a2.743,2.743,0,0,0-3.8.8,2.773,2.773,0,0,0,.79,3.8,2.709,2.709,0,0,0,3.766-.8A2.771,2.771,0,0,0,451.611,13062.3Zm-6.287,14.1-1.351,1a0.27,0.27,0,0,1-.362-0.1l-5.12-7.5a0.328,0.328,0,0,1,.067-0.4l1.352-.9a0.269,0.269,0,0,1,.361.1l5.12,7.5C445.469,13076.2,445.437,13076.4,445.324,13076.4Zm-12.976,5.9-3.249.7a0.33,0.33,0,0,1-.3-0.2l-1.988-8.9a0.313,0.313,0,0,1,.182-0.3l3.249-.7a4.748,4.748,0,0,1,5.723,3.6A4.873,4.873,0,0,1,432.348,13082.3Zm1.409-5.3a2.612,2.612,0,0,0-3.2-2.1l-1.279.3,1.217,5.4,1.278-.3A2.659,2.659,0,0,0,433.757,13077Zm-11.671,2.5a3.894,3.894,0,0,1-7.619-1.6l1.178-5.6a0.345,0.345,0,0,1,.308-0.2l1.645,0.4a0.252,0.252,0,0,1,.2.3l-1.155,5.4a1.7,1.7,0,1,0,3.314.7l1.156-5.4a0.329,0.329,0,0,1,.308-0.2l1.644,0.4a0.219,0.219,0,0,1,.2.3Zm-10.207-7.4a0.212,0.212,0,0,1-.361.1l-1.6-1.1-4.2,6a0.255,0.255,0,0,1-.362,0l-1.339-.9a0.324,0.324,0,0,1-.063-0.4l4.2-6-1.6-1.1a0.311,0.311,0,0,1-.063-0.4l0.857-1.2a0.451,0.451,0,0,1,.361-0.1l4.957,3.6c0.123,0,.141.2,0.063,0.3Zm-7.817-7H402.8a0.358,0.358,0,0,1-.4-0.3,4.417,4.417,0,0,0-.389-2.1,0.789,0.789,0,0,0-1.055-.3c-0.423.3-.517,0.8-0.289,2,0.232,1.1.467,3-1.086,4a2.945,2.945,0,0,1-4.134-1.1,4.492,4.492,0,0,1-.811-3.2c0.039-.2.062-0.3,0.282-0.3l1.3-.1a0.426,0.426,0,0,1,.324.4,3.99,3.99,0,0,0,.438,2,0.9,0.9,0,0,0,1.2.4c0.48-.3.582-1,0.38-2-0.258-1.2-.3-3,1.066-3.9a2.86,2.86,0,0,1,4.006,1.2,5.1,5.1,0,0,1,.751,3A0.323,0.323,0,0,1,404.062,13065.1Z" transform="translate(-374.031 -12996)"/>
  <path id="Shape-7" data-name="Shape" class="cls-3" d="M428.585,13059.3l-1.083-2.8,0.006-7.4,0.352-.4h2.114l3.172,0.7-1.762-5.3H418.7l-1.762,5.3,2.82-.7h2.466l0.352,0.4,0.011,7.4-1.052,2.8H407.727c5.528-9.9,11.285-20.7,17.28-31.4l17.347,31.4H428.585Z" transform="translate(-374.031 -12996)"/>
</svg>
