<svg xmlns="http://www.w3.org/2000/svg" width="36" height="36" viewBox="0 0 36 36">
  <defs>
    <style>
      .cls-1 {
        fill: #c6ab92;
        fill-rule: evenodd;
      }
    </style>
  </defs>
  <path id="Shape" class="cls-1" d="M649,13171a10.014,10.014,0,0,0-10,10v16a10.014,10.014,0,0,0,10,10h16a10.015,10.015,0,0,0,10-10v-16a10.015,10.015,0,0,0-10-10H649Zm20,4a2,2,0,1,1-2,2A2.005,2.005,0,0,1,669,13175Zm-12,4a10,10,0,1,1-10,10A10.015,10.015,0,0,1,657,13179Zm0,4a6,6,0,1,0,6,6A6.009,6.009,0,0,0,657,13183Z" transform="translate(-639 -13171)"/>
</svg>
