<svg xmlns="http://www.w3.org/2000/svg" width="42" height="34" viewBox="0 0 42 34">
  <defs>
    <style>
      .cls-1 {
        fill: #c6ab92;
        fill-rule: evenodd;
      }
    </style>
  </defs>
  <path id="Shape" class="cls-1" d="M568,13173a87.7,87.7,0,0,0-14.824,1.2,6.4,6.4,0,0,0-5.332,5.3,65.736,65.736,0,0,0,0,21,6.4,6.4,0,0,0,5.332,5.3,92.089,92.089,0,0,0,29.636,0h0.012a6.4,6.4,0,0,0,5.332-5.3A62.547,62.547,0,0,0,589,13190a61.075,61.075,0,0,0-.856-10.5,6.371,6.371,0,0,0-5.32-5.3A87.7,87.7,0,0,0,568,13173Zm-6,9.3v15.4l15-7.7Z" transform="translate(-547 -13173)"/>
</svg>
