<svg xmlns="http://www.w3.org/2000/svg" width="36" height="36" viewBox="0 0 36 36">
  <defs>
    <style>
      .cls-1 {
        fill: #c6ab92;
        fill-rule: evenodd;
      }
    </style>
  </defs>
  <path id="Shape" class="cls-1" d="M493.4,13171H464.6a3.591,3.591,0,0,0-3.6,3.6v28.8a3.591,3.591,0,0,0,3.6,3.6h28.8a3.591,3.591,0,0,0,3.6-3.6v-28.8A3.591,3.591,0,0,0,493.4,13171Zm-2.953,25.1-3.361.1a2.72,2.72,0,0,1-1.674-.5c-1.258-.9-2.446-3.1-3.375-2.8s-0.907,2.3-.907,2.3a1.1,1.1,0,0,1-.2.6,1.265,1.265,0,0,1-.69.2h-1.5a8.235,8.235,0,0,1-6.251-2.8c-3.192-3.3-6.012-9.9-6.012-9.9a0.7,0.7,0,0,1,.014-0.6,1.818,1.818,0,0,1,.739-0.3h3.6a1.934,1.934,0,0,1,.583.3,0.846,0.846,0,0,1,.31.4,21.653,21.653,0,0,0,1.357,2.8c1.5,2.6,2.207,3.2,2.714,2.9,0.745-.4.52-3.7,0.52-3.7a3.559,3.559,0,0,0-.373-1.7,2.273,2.273,0,0,0-1.118-.6c-0.2,0,.127-0.5.556-0.7a8.933,8.933,0,0,1,3.143-.3,5.808,5.808,0,0,1,1.772.2c1.237,0.3.822,1.4,0.822,4.2,0,0.9-.161,2.2.478,2.6,0.275,0.2.95,0,2.637-2.9a19.232,19.232,0,0,0,1.4-2.9,0.933,0.933,0,0,1,.338-0.4,0.5,0.5,0,0,1,.485-0.1h3.79s1.139-.2,1.322.3c0.2,0.6-.422,1.8-1.969,3.9-2.545,3.4-2.827,3.1-.717,5a11.9,11.9,0,0,1,2.5,2.9C492.212,13196,490.447,13196.1,490.447,13196.1Z" transform="translate(-461 -13171)"/>
</svg>
