<svg xmlns="http://www.w3.org/2000/svg" width="38" height="32" viewBox="0 0 38 32">
  <defs>
    <style>
      .cls-1 {
        fill: #c6ab92;
        fill-rule: evenodd;
      }
    </style>
  </defs>
  <path id="Twitter_4_" class="cls-1" d="M761.682,13173.6a14.205,14.205,0,0,1-4.965,1.9,7.857,7.857,0,0,0-5.675-2.5,7.949,7.949,0,0,0-7.8,8,10.87,10.87,0,0,0,.2,1.9,21.894,21.894,0,0,1-16.011-8.4,8.2,8.2,0,0,0-1.013,4.1,8.338,8.338,0,0,0,3.445,6.7,7.275,7.275,0,0,1-3.547-1v0.1a7.994,7.994,0,0,0,6.283,7.9,6.613,6.613,0,0,1-2.027.3,6.317,6.317,0,0,1-1.419-.1,8.028,8.028,0,0,0,7.3,5.6,15.418,15.418,0,0,1-9.626,3.4,11.159,11.159,0,0,1-1.824-.1,21.3,21.3,0,0,0,11.957,3.6c14.288,0,22.192-12.2,22.192-22.8v-1A16.945,16.945,0,0,0,763,13177a14.057,14.057,0,0,1-4.459,1.2,10.151,10.151,0,0,0,3.141-4.6h0Z" transform="translate(-725 -13173)"/>
</svg>
