<svg xmlns="http://www.w3.org/2000/svg" width="36" height="36" viewBox="0 0 36 36">
  <defs>
    <style>
      .cls-1 {
        fill: #c6ab92;
        fill-rule: evenodd;
      }
    </style>
  </defs>
  <path id="Shape" class="cls-1" d="M407.4,13171H378.6a3.6,3.6,0,0,0-3.6,3.6v28.8a3.6,3.6,0,0,0,3.6,3.6h28.8a3.6,3.6,0,0,0,3.6-3.6v-28.8A3.6,3.6,0,0,0,407.4,13171Zm-2.883,9.7H402c-1.617,0-1.8.6-1.8,1.8v2.4h3.783l-0.183,4.1h-3.417v12.6h-5.766V13189h-2.159v-4.3h2.159v-2.7c0-3.6,1.441-5.6,5.583-5.6h4.317v4.3Z" transform="translate(-375 -13171)"/>
</svg>
