<svg xmlns="http://www.w3.org/2000/svg" width="15.156" height="18.78" viewBox="0 0 15.156 18.78">
  <defs>
    <style>
      .cls-1 {
        fill: #fff;
        fill-rule: evenodd;
      }
    </style>
  </defs>
  <path id="Shape" class="cls-1" d="M402.085,5606.01a0.821,0.821,0,0,0-.382.03l8.678,8.67,2.169-2.14-10.114-6.42A0.826,0.826,0,0,0,402.085,5606.01Zm-1.056.7a0.825,0.825,0,0,0-.029.23v16.89a0.78,0.78,0,0,0,.029.23l8.677-8.67Zm12.312,6.36-2.286,2.32,2.286,2.31,2.375-1.52a0.943,0.943,0,0,0,0-1.58Zm-2.96,2.99-8.678,8.68a0.925,0.925,0,0,0,.733-0.12l10.114-6.42Z" transform="translate(-401 -5606)"/>
</svg>
