<svg xmlns="http://www.w3.org/2000/svg" width="18" height="18" viewBox="0 0 18 18">
  <defs>
    <style>
      .cls-1 {
        fill: #9b9b9b;
        fill-rule: evenodd;
      }
    </style>
  </defs>
  <path id="Shape" class="cls-1" d="M1335.08,18a2.089,2.089,0,0,0-2.08,2.077V33.922A2.087,2.087,0,0,0,1335.08,36h13.84a2.087,2.087,0,0,0,2.08-2.076V20.076A2.089,2.089,0,0,0,1348.92,18h-13.84Zm0,1.386h3.46v4.154h-4.16V20.076A0.689,0.689,0,0,1,1335.08,19.384Zm4.84,0h4.16v4.154h-4.16V19.384Zm5.54,0h3.46a0.689,0.689,0,0,1,.7.692v3.462h-4.16V19.384Zm-11.08,5.538h4.16v4.154h-4.16V24.922Zm5.54,0h4.16v4.154h-4.16V24.922Zm5.54,0h4.16v4.154h-4.16V24.922Zm-11.08,5.539h4.16v4.154h-3.46a0.69,0.69,0,0,1-.7-0.693V30.461Zm5.54,0h4.16v4.154h-4.16V30.461Zm5.54,0h4.16v3.462a0.69,0.69,0,0,1-.7.693h-3.46V30.461Z" transform="translate(-1333 -18)"/>
</svg>
