<svg id="logo" xmlns="http://www.w3.org/2000/svg" width="211.812" height="71.812" viewBox="0 0 211.812 71.812">
  <defs>
    <style>
      .cls-1 {
        fill: none;
        stroke: #c6ab92;
        stroke-linecap: round;
        stroke-width: 1.82px;
      }

      .cls-1, .cls-2 {
        fill-rule: evenodd;
      }

      .cls-2 {
        fill: #c6ab92;
      }
    </style>
  </defs>
  <path id="Shape" class="cls-1" d="M377.855,83.827H578.144v60.345H377.855V83.827Z" transform="translate(-372.094 -78.094)"/>
  <path id="Shape-2" data-name="Shape" class="cls-1" d="M373,79H583v70H373V79Z" transform="translate(-372.094 -78.094)"/>
  <path id="Shape-3" data-name="Shape" class="cls-1" d="M377.855,83.827h60.694v60.345H377.855V83.827Z" transform="translate(-372.094 -78.094)"/>
  <path id="Shape-4" data-name="Shape" class="cls-2" d="M563.822,113.78l0.531,1.689h-4.986l0.53-1.689v-6.547l0.107-.846-0.319.846-3.394,8.236h-0.106l-3.394-8.236-0.318-.846,0.106,0.846v6.547l0.53,1.689h-4.561l0.53-1.689v-11.4l-0.53-1.692h5.3l2.44,5.957,0.106,0.486,0.106-.486,2.44-5.957h5.41l-0.531,1.692v11.4Zm-23.336,0-0.318-1.267-0.212-.212h-3.5l-0.212.212-0.319,1.267,0.212,1.689h-4.879l0.849-1.689,2.97-11.722-0.319-1.374h7.214l-0.319,1.374,2.97,11.722,0.849,1.689h-5.2Zm-2.185-9.4-0.106-.738-0.106.738-1.061,4.541,0.213,0.211h1.909l0.212-.211Zm-14.574,7.5h3.564l2.228-.739-1.443,4.329h-9.228l0.53-1.689v-11.4l-0.53-1.692h8.91L529.1,104.7l-1.867-.632h-3.649l-0.17.211v1.478l0.212,0.211H525l1.591-.528v4.436L525,109.345h-1.379l-0.212.212v2Zm-11.986-7.708-0.212.21v8.871l0.743,2.217H506.65l0.742-2.217v-8.871l-0.212-.21h-1.655l-2.206.738,1.421-4.225h9.441l1.421,4.225-2.206-.738h-1.655Zm-21.32,0-0.213.21v8.871l0.743,2.217h-5.622l0.743-2.217v-8.871l-0.213-.21h-1.654l-2.207.738,1.422-4.225h9.44l1.422,4.225-2.207-.738h-1.654Zm-10.819,11.3h-4.774l-1.591-4.751-0.424-.212h-1.167l-0.212.212v3.062l0.53,1.689h-5.091l0.53-1.689v-11.4l-0.53-1.692H476.1l2.758,2.747v4.118l-1.909,1.9,1.485,4.013Zm-4.88-10.137-0.424-.845-0.849-.422h-1.8l-0.212.211v2.641l0.212,0.21h1.8l0.849-.422,0.424-.845v-0.528Zm-15.91,8.448-0.319-1.267-0.212-.212h-3.5l-0.213.212-0.318,1.267,0.213,1.689h-4.88l0.849-1.689,2.97-11.722-0.318-1.374H460.3l-0.318,1.374,2.971,11.722,0.848,1.689h-5.2Zm-2.186-9.4-0.106-.738-0.106.738-1.06,4.541,0.212,0.211h1.909l0.212-.211Z" transform="translate(-372.094 -78.094)"/>
  <g id="_4-256" data-name="4-256">
    <path id="Shape-5" data-name="Shape" class="cls-2" d="M412.3,130.721l-1.195-3.08,0.006-8.2,0.389-.386h2.333l3.5,0.776L415.389,114h-14l-1.945,5.833,3.112-.776h2.722l0.389,0.386,0.012,8.2-1.161,3.08H389.283c6.1-10.912,12.453-22.764,19.069-34.61l19.143,34.61H412.3Z" transform="translate(-372.094 -78.094)"/>
  </g>
  <path id="Shape-6" data-name="Shape" class="cls-2" d="M543.624,127.577v-1.208h20.3v1.208h-20.3Zm-93.344-1.208h20.305v1.208H450.28v-1.208Z" transform="translate(-372.094 -78.094)"/>
  <path id="Shape-7" data-name="Shape" class="cls-2" d="M530.771,130.049a3.476,3.476,0,1,1,3.491-3.466A3.453,3.453,0,0,1,530.771,130.049Zm0-5.406a1.931,1.931,0,1,0,1.94,1.94A1.947,1.947,0,0,0,530.771,124.643Zm-8.689,5.309h-1.164a0.189,0.189,0,0,1-.184-0.183v-6.391a0.19,0.19,0,0,1,.184-0.184h1.164a0.19,0.19,0,0,1,.184.184v6.391A0.189,0.189,0,0,1,522.082,129.952Zm-9.786,0H509.93a0.181,0.181,0,0,1-.174-0.183v-6.391a0.182,0.182,0,0,1,.174-0.184H512.3A3.379,3.379,0,1,1,512.3,129.952Zm-0.009-5.338h-1.018v3.909h1.018A1.961,1.961,0,0,0,512.287,124.614Zm-10.649,5.435a2.633,2.633,0,0,1-2.754-2.568v-4.1a0.191,0.191,0,0,1,.184-0.184h1.193a0.184,0.184,0,0,1,.185.184v4.027a1.075,1.075,0,0,0,1.192,1.1,1.087,1.087,0,0,0,1.213-1.1v-4.027a0.183,0.183,0,0,1,.184-0.184h1.192a0.19,0.19,0,0,1,.185.184v4.1A2.644,2.644,0,0,1,501.638,130.049Zm-7.768-5.435h-1.386v5.155a0.19,0.19,0,0,1-.185.183h-1.163a0.19,0.19,0,0,1-.185-0.183v-5.155h-1.386a0.185,0.185,0,0,1-.185-0.184v-1.052a0.184,0.184,0,0,1,.185-0.184h4.305a0.183,0.183,0,0,1,.184.184v1.052A0.184,0.184,0,0,1,493.87,124.614Zm-9,3.436a2.127,2.127,0,0,1-2.288,2,3.081,3.081,0,0,1-2.182-.744,0.215,0.215,0,0,1-.039-0.289l0.446-.781a0.227,0.227,0,0,1,.33-0.058,2.5,2.5,0,0,0,1.377.531,0.607,0.607,0,0,0,.669-0.581,1.312,1.312,0,0,0-1-.975c-0.94-.453-1.881-0.975-1.881-2.133a2.008,2.008,0,0,1,2.24-1.921,3.618,3.618,0,0,1,2.075.723,0.246,0.246,0,0,1,.059.31l-0.5.743a0.3,0.3,0,0,1-.427.067,2.653,2.653,0,0,0-1.309-.52,0.525,0.525,0,0,0-.591.53,1.459,1.459,0,0,0,1.056.9C483.765,126.265,484.87,126.738,484.87,128.05Z" transform="translate(-372.094 -78.094)"/>
</svg>
