<?xml version="1.0" encoding="utf-8"?>
<!-- Generator: Adobe Illustrator 23.0.2, SVG Export Plug-In . SVG Version: 6.00 Build 0)  -->
<svg version="1.1" id="Layer_1" xmlns="http://www.w3.org/2000/svg" xmlns:xlink="http://www.w3.org/1999/xlink" x="0px" y="0px"
	 width="16px" height="16px" viewBox="0 0 16 16" style="enable-background:new 0 0 16 16;" xml:space="preserve">
<path style="fill:#FFFFFF;" d="M15.8,14.7l-3-2.9c2.5-3.1,2-7.6-1.1-10.1s-7.6-2-10.1,1.1s-2,7.6,1.1,10.1c2.6,2.1,6.4,2.1,9,0
	l2.9,2.9c0.3,0.3,0.8,0.3,1.1,0c0,0,0,0,0,0C16.1,15.5,16.1,15,15.8,14.7z M7.2,12.8c-3.1,0-5.6-2.5-5.6-5.6s2.5-5.6,5.6-5.6
	s5.6,2.5,5.6,5.6S10.3,12.8,7.2,12.8z"/>
</svg>
