<svg xmlns="http://www.w3.org/2000/svg" width="19" height="16" viewBox="0 0 19 16">
  <defs>
    <style>
      .cls-1 {
        fill: #9b9b9b;
        fill-rule: evenodd;
      }
    </style>
  </defs>
  <path id="Twitter_4_" class="cls-1" d="M1546.34,19.3a7.01,7.01,0,0,1-2.48.968A3.891,3.891,0,0,0,1541.02,19a3.967,3.967,0,0,0-3.9,4.025,5.725,5.725,0,0,0,.1.917,10.94,10.94,0,0,1-8-4.178,3.876,3.876,0,0,0-.51,2.038,4.257,4.257,0,0,0,1.72,3.363,3.572,3.572,0,0,1-1.77-.51v0.052a3.946,3.946,0,0,0,3.14,3.923,3.232,3.232,0,0,1-1.01.153,3.067,3.067,0,0,1-.71-0.051,3.965,3.965,0,0,0,3.65,2.8,7.635,7.635,0,0,1-4.82,1.733,5.533,5.533,0,0,1-.91-0.05A10.873,10.873,0,0,0,1533.98,35c7.14,0,11.09-6.115,11.09-11.415V23.076a7.644,7.644,0,0,0,1.93-2.089,6.956,6.956,0,0,1-2.23.611,4.976,4.976,0,0,0,1.57-2.293h0Z" transform="translate(-1528 -19)"/>
</svg>
