<svg xmlns="http://www.w3.org/2000/svg" width="18" height="18" viewBox="0 0 18 18">
  <defs>
    <style>
      .cls-1 {
        fill: #9b9b9b;
        fill-rule: evenodd;
      }
    </style>
  </defs>
  <path id="Shape" class="cls-1" d="M1442.2,18h-14.4a1.8,1.8,0,0,0-1.8,1.8V34.2a1.8,1.8,0,0,0,1.8,1.8h14.4a1.8,1.8,0,0,0,1.8-1.8V19.8A1.8,1.8,0,0,0,1442.2,18Zm-1.48,12.573-1.68.021a1.176,1.176,0,0,1-.83-0.256c-0.63-.433-1.23-1.558-1.69-1.41a1.375,1.375,0,0,0-.45,1.16,0.478,0.478,0,0,1-.11.3,0.47,0.47,0,0,1-.34.113h-0.75a4.194,4.194,0,0,1-3.13-1.389,20.286,20.286,0,0,1-3-4.949,0.36,0.36,0,0,1,0-.314,0.605,0.605,0,0,1,.37-0.119l1.8-.007a0.775,0.775,0,0,1,.29.116,0.585,0.585,0,0,1,.16.214,11.738,11.738,0,0,0,.68,1.4c0.75,1.3,1.1,1.59,1.35,1.449,0.38-.2.26-1.839,0.26-1.839a1.851,1.851,0,0,0-.18-0.859,0.855,0.855,0,0,0-.56-0.283c-0.1-.015.06-0.251,0.28-0.356a4.068,4.068,0,0,1,1.57-.162,3.307,3.307,0,0,1,.88.088c0.62,0.151.41,0.732,0.41,2.12a1.629,1.629,0,0,0,.24,1.28c0.14,0.091.48,0.014,1.32-1.421a11.138,11.138,0,0,0,.7-1.48,0.587,0.587,0,0,1,.17-0.2,0.4,0.4,0,0,1,.24-0.043l1.9-.01a0.722,0.722,0,0,1,.66.19c0.1,0.271-.21.9-0.99,1.933-1.27,1.695-1.41,1.536-.35,2.518a5.711,5.711,0,0,1,1.25,1.452C1441.61,30.515,1440.72,30.571,1440.72,30.571Z" transform="translate(-1426 -18)"/>
</svg>
