<svg xmlns="http://www.w3.org/2000/svg" width="21" height="17" viewBox="0 0 21 17">
  <defs>
    <style>
      .cls-1 {
        fill: #9b9b9b;
        fill-rule: evenodd;
      }
    </style>
  </defs>
  <path id="Shape" class="cls-1" d="M1469.5,19a49.809,49.809,0,0,0-7.41.579,3.258,3.258,0,0,0-2.67,2.687A31.054,31.054,0,0,0,1459,27.5a31.047,31.047,0,0,0,.42,5.234,3.266,3.266,0,0,0,2.67,2.688,50.288,50.288,0,0,0,7.41.578,50.411,50.411,0,0,0,7.41-.578h0a3.26,3.26,0,0,0,2.67-2.688A31.173,31.173,0,0,0,1480,27.5a29.852,29.852,0,0,0-.43-5.233,3.235,3.235,0,0,0-2.66-2.687A49.809,49.809,0,0,0,1469.5,19Zm-3,4.636v7.727L1474,27.5Z" transform="translate(-1459 -19)"/>
</svg>
