<svg width="114" height="25" viewBox="0 0 114 25" fill="none" xmlns="http://www.w3.org/2000/svg">
<path d="M4.18897 4.3V10.3H13.4646L14.5617 14.6H4.18897V25H0V0H16.6562V4.3H4.18897Z" fill="white"/>
<path d="M26.0322 4.3V10.3H35.3078L36.3052 14.6H26.0322V20.7H38.3997V25H21.7435V0H38.3997V4.3H26.0322Z" fill="white"/>
<path d="M58.2491 20.7V25H48.5745H44.2858V20.7V0H48.5745V20.7H58.2491Z" fill="white"/>
<path d="M68.0233 4.3V10.3H77.2989L78.2963 14.6H68.0233V25H63.7346V0H80.3908V4.3H68.0233Z" fill="white"/>
<path d="M103.73 8.9C103.73 9.8 103.63 10.7 103.331 11.5C103.132 12.3 102.733 13.1 102.334 13.8C101.935 14.5 101.336 15.1 100.738 15.7C100.14 16.3 99.4414 16.7 98.6435 17.1L103.73 25H98.6435L94.1553 18H91.2629L92.9585 13.7H94.7537C96.0503 13.7 97.1474 13.2 98.0451 12.3C98.444 11.8 98.843 11.3 99.0424 10.8C99.2419 10.2 99.4414 9.6 99.4414 9C99.4414 8.4 99.3417 7.8 99.0424 7.2C98.843 6.6 98.444 6.1 98.0451 5.7C97.1474 4.8 96.0503 4.3 94.7537 4.3H89.7669V6.7V13.7V18V25H85.4781V18V6.6V0H94.7537C95.9506 0 97.1474 0.200001 98.2445 0.700001C99.3417 1.2 100.239 1.8 101.037 2.6C101.835 3.4 102.434 4.4 102.932 5.4C103.531 6.6 103.73 7.7 103.73 8.9Z" fill="white"/>
<path d="M114 0H109.711V24.9H114V0Z" fill="white"/>
</svg>
